<?xml version="1.0" standalone="no"?>
<!DOCTYPE svg PUBLIC "-//W3C//DTD SVG 1.1//EN" "http://www.w3.org/Graphics/SVG/1.1/DTD/svg11.dtd" >
<svg xmlns="http://www.w3.org/2000/svg">
<metadata>
Created by FontPrep 20130207 at Tue Sep 20 09:54:58 2016
 By baxy
Copyright (C) 2010, 2014 Hoefler &#38; Co. http://www.typography.com
</metadata>
<defs>
<font id="b023882e0f43bac53e5b35d838212ecd" horiz-adv-x='1024' >
  <font-face 
    font-family="GothamSSm-Book"
    font-weight="325"
    font-stretch="normal"
    units-per-em="2048"
    panose-1="0 0 0 0 0 0 0 0 0 0"
    ascent="1638"
    descent="-410"
    x-height="1108"
    cap-height="1491"
    bbox="-455 -541 2490 2126"
    underline-thickness="102"
    underline-position="-102"
    unicode-range="U+0020-FB04"
  />
<missing-glyph horiz-adv-x="1024" 
d="M512 492l-367 -799h734zM102 -156l353 770l-353 770v-1540zM922 1384l-353 -770l353 -770v1540zM145 1536l367 -799l367 799h-734zM0 -410v2048h1024v-2048h-1024z" />
    <glyph glyph-name=".notdef" horiz-adv-x="1024" 
d="M512 492l-367 -799h734zM102 -156l353 770l-353 770v-1540zM922 1384l-353 -770l353 -770v1540zM145 1536l367 -799l367 799h-734zM0 -410v2048h1024v-2048h-1024z" />
    <glyph glyph-name=".null" horiz-adv-x="0" 
 />
    <glyph glyph-name="nonmarkingreturn" horiz-adv-x="681" 
 />
    <glyph glyph-name="space" unicode=" " horiz-adv-x="655" 
 />
    <glyph glyph-name="exclam" unicode="!" horiz-adv-x="614" 
d="M197 0v246h221v-246h-221zM195 1491h225v-107l-60 -948h-106l-59 948v107z" />
    <glyph glyph-name="quotedbl" unicode="&#x22;" horiz-adv-x="983" 
d="M860 1491v-10l-182 -586h-103l60 596h225zM430 1491v-10l-184 -586h-103l60 596h227z" />
    <glyph glyph-name="numbersign" unicode="#" horiz-adv-x="1507" 
d="M1325 537v-170h-270l-62 -367h-174l62 367h-387l-64 -367h-174l61 367h-217v170h248l72 426h-238v170h269l61 358h174l-61 -358h387l63 358h172l-61 -358h219v-170h-248l-74 -426h242zM594 967l-74 -435h393l74 435h-393z" />
    <glyph glyph-name="dollar" unicode="$" horiz-adv-x="1374" 
d="M1231 406q0 -172 -125 -281t-330 -123v-211h-149v213q-274 27 -504 217l108 148q193 -170 402 -199v500q-241 57 -349 155t-106 267v2q0 166 125 276t324 121v123h149v-127q211 -23 406 -168l-101 -150q-150 119 -311 148v-490q242 -57 352 -156t109 -263v-2zM1040 395
q0 93 -58 147t-212 95v-473q127 10 200 72t70 157v2zM369 1104q0 -90 55 -144t209 -100v467q-123 -7 -194 -69t-70 -152v-2z" />
    <glyph glyph-name="percent" unicode="%" horiz-adv-x="1802" 
d="M1348 115q80 1 131 71t51 174v5q0 104 -54 176q-54 71 -136 71t-132 -70q-51 -70 -51 -173v-4q0 -106 55 -179q56 -71 136 -71zM1686 365q0 -157 -96 -269t-248 -112t-246 110t-95 266v5q-1 157 97 269t248 112t244 -112q94 -110 96 -265v-4zM645 1126q0 104 -55 177
t-135 73t-131 -72t-52 -174v-4q0 -106 54 -177t136 -71q81 0 132 72q51 70 51 172v4zM848 780l514 711h170l-580 -784l-512 -707h-170zM457 745q-150 0 -245 111t-95 266v4q0 158 96 270q95 112 245 112t247 -111q96 -111 96 -267v-4q0 -156 -97 -268t-247 -113z" />
    <glyph glyph-name="ampersand" unicode="&#x26;" horiz-adv-x="1499" 
d="M592 143q180 0 344 174l-377 390q-131 -49 -195 -127t-65 -168v-6q0 -113 82 -188t211 -75zM903 1157v4q0 85 -56 141t-145 56q-90 0 -150 -58t-60 -147v-4q0 -61 30 -117t109 -141q272 90 272 266zM575 -20q-207 0 -341 116t-134 303v4q0 289 346 426q-141 168 -141 324
v4q0 152 113 255q113 104 284 104t276 -100t105 -245v-4q0 -262 -344 -387l314 -319q88 129 174 319l155 -78q-109 -229 -211 -364l254 -256l-149 -113l-223 232q-211 -221 -478 -221z" />
    <glyph glyph-name="quotesingle" unicode="'" horiz-adv-x="552" 
d="M432 1491v-10l-184 -586h-105l60 596h229z" />
    <glyph glyph-name="parenleft" unicode="(" horiz-adv-x="944" 
d="M150 612q0 586 589 912l84 -129q-243 -156 -361 -346t-118 -439v-2q0 -475 479 -780l-84 -129q-590 330 -589 911v2z" />
    <glyph glyph-name="parenright" unicode=")" horiz-adv-x="944" 
d="M600 610v2q0 475 -477 783l84 129q590 -330 590 -914v-2q-1 -289 -151 -519t-439 -390l-84 129q241 156 359 346t118 436z" />
    <glyph glyph-name="asterisk" unicode="*" horiz-adv-x="931" 
d="M403 836l27 264l-219 -154l-64 109l246 110l-246 113l64 108l219 -155l-27 264h125l-26 -264l219 155l63 -108l-245 -113l245 -110l-63 -109l-219 154l26 -264h-125z" />
    <glyph glyph-name="plus" unicode="+" horiz-adv-x="1353" 
d="M584 231v428h-430v181h430v428h186v-428h430v-181h-430v-428h-186z" />
    <glyph glyph-name="comma" unicode="," horiz-adv-x="552" 
d="M166 0v246h223v-211q0 -141 -64 -214q-65 -72 -200 -95l-27 86q168 49 156 188h-88z" />
    <glyph glyph-name="hyphen" unicode="-" horiz-adv-x="884" 
d="M139 545v196h606v-196h-606z" />
    <glyph glyph-name="period" unicode="." horiz-adv-x="552" 
d="M166 0v246h223v-246h-223z" />
    <glyph glyph-name="slash" unicode="/" horiz-adv-x="1105" 
d="M-39 -272l981 1972h172l-981 -1972h-172z" />
    <glyph glyph-name="zero" unicode="0" horiz-adv-x="1546" 
d="M340 745q0 -243 120 -417t315 -174q193 0 311 171t118 416v4q0 246 -121 419t-313 173t-312 -171q-118 -171 -118 -416v-5zM1409 745q0 -324 -177 -547t-461 -223q-284 -1 -459 221t-175 545v4q0 324 177 547q177 224 460 224t459 -222t176 -544v-5z" />
    <glyph glyph-name="one" unicode="1" horiz-adv-x="804" 
d="M389 0v1300l-276 -86l-45 160l374 127h142v-1501h-195z" />
    <glyph glyph-name="two" unicode="2" horiz-adv-x="1300" 
d="M111 0v154l532 464q168 146 235 244q66 98 66 212t-81 188t-199 74t-204 -60q-87 -59 -181 -186l-142 106q111 162 232 239t319 77t329 -122q132 -120 132 -307v-4q0 -200 -163 -374q-75 -80 -218 -205l-371 -322h766v-178h-1052z" />
    <glyph glyph-name="three" unicode="3" horiz-adv-x="1325" 
d="M670 -25q-350 0 -559 263l141 129q174 -215 422 -215q129 0 217 76t88 194v4q0 129 -109 200t-286 70h-103l-37 121l449 500h-703v174h963v-145l-453 -492q207 -18 342 -122t136 -298v-4q0 -199 -144 -327t-364 -128z" />
    <glyph glyph-name="four" unicode="4" horiz-adv-x="1452" 
d="M915 512v715l-585 -715h585zM915 0v348h-776l-43 141l838 1012h172v-989h225v-164h-225v-348h-191z" />
    <glyph glyph-name="five" unicode="5" horiz-adv-x="1327" 
d="M653 -25q-299 0 -536 234l127 141q207 -197 411 -196q152 0 246 86t94 221v4q0 131 -98 212t-251 81t-304 -78l-127 84l43 727h868v-178h-696l-29 -439q145 59 277 60q222 0 368 -124t146 -337v-4q0 -221 -150 -357t-389 -137z" />
    <glyph glyph-name="six" unicode="6" horiz-adv-x="1400" 
d="M362 461q0 -135 100 -225t257 -89q156 -1 249 91t93 229v4q0 131 -96 216t-251 85t-253 -91t-99 -216v-4zM1262 475q0 -217 -155 -359t-393 -141q-238 0 -395 152q-92 94 -138 226t-46 349v5q0 352 167 580t460 229q233 0 444 -168l-110 -154q-168 143 -344 143
q-132 0 -230 -88q-184 -166 -184 -508v-10q150 209 405 209q217 0 368 -127t151 -334v-4z" />
    <glyph glyph-name="seven" unicode="7" horiz-adv-x="1294" 
d="M154 1313v178h1022v-148l-676 -1343h-221l673 1313h-798z" />
    <glyph glyph-name="eight" unicode="8" horiz-adv-x="1357" 
d="M313 410q-1 -111 99 -187t267 -76t266 76t99 187v4q0 118 -104 192t-261 74t-261 -75t-105 -191v-4zM360 1098q0 -114 92 -186t227 -72q136 0 227 72t91 184v4q0 102 -91 173t-227 71t-227 -70t-92 -172v-4zM680 -20q-244 0 -404 118t-159 305v5q0 254 295 364
q-244 115 -244 338v4q0 172 149 285q150 113 363 113t361 -114q148 -112 149 -284v-4q0 -223 -244 -338q295 -119 295 -362v-4q-1 -190 -159 -308t-402 -118z" />
    <glyph glyph-name="nine" unicode="9" horiz-adv-x="1400" 
d="M645 154q133 0 232 87q186 165 186 490v21q-147 -215 -389 -215t-389 130q-145 130 -146 337v4q0 217 153 362q152 146 394 146t395 -154q184 -184 185 -576v-4q0 -358 -172 -582t-455 -225q-250 0 -465 181l111 151q178 -153 360 -153zM688 705q156 0 253 94t97 223v4
q0 135 -100 226t-257 91t-249 -95t-92 -232v-4q0 -135 96 -221t252 -86z" />
    <glyph glyph-name="colon" unicode=":" horiz-adv-x="575" 
d="M176 0v246h223v-246h-223zM176 864v244h223v-244h-223z" />
    <glyph glyph-name="semicolon" unicode=";" horiz-adv-x="575" 
d="M176 0v246h223v-211q0 -141 -64 -214q-65 -72 -200 -95l-26 86q168 47 155 188h-88zM176 864v244h223v-244h-223z" />
    <glyph glyph-name="less" unicode="&#x3c;" horiz-adv-x="1353" 
d="M1151 176l-1004 490v168l1004 489v-190l-803 -381l803 -383v-193z" />
    <glyph glyph-name="equal" unicode="=" horiz-adv-x="1353" 
d="M176 403v183h1002v-183h-1002zM176 913v183h1002v-183h-1002z" />
    <glyph glyph-name="greater" unicode="&#x3e;" horiz-adv-x="1353" 
d="M203 176v191l803 381l-803 385v190l1005 -489v-168z" />
    <glyph glyph-name="question" unicode="?" horiz-adv-x="1163" 
d="M420 0v246h221v-246h-221zM858 1075v4q0 111 -79 182t-212 70q-209 0 -374 -190l-123 125q203 244 503 243q217 0 351 -117q133 -118 133 -307v-6q0 -189 -122 -295t-319 -135l-20 -213h-127l-37 346l10 11q205 6 311 79q105 74 105 203z" />
    <glyph glyph-name="at" unicode="@" horiz-adv-x="2103" 
d="M721 551q-1 -117 69 -185t188 -69q118 0 210 96q115 111 115 273q0 114 -70 186q-69 72 -185 72t-222 -106t-105 -267zM1088 -344q-284 0 -502 125q-219 125 -342 338t-123 465q0 385 272 658q271 274 659 274t659 -252t271 -590q0 -256 -118 -390t-283 -134
q-115 0 -193 46t-112 123q-152 -170 -344 -169q-162 0 -273 108t-110 283q0 221 150 377q151 156 347 156t300 -173l28 141l162 -24l-88 -498q-14 -74 -14 -136t47 -104q47 -44 131 -44q121 0 206 114t85 324q0 301 -247 534q-246 234 -606 234t-605 -251t-245 -609
t247 -606q247 -247 624 -246q283 0 528 143l37 -57q-264 -160 -548 -160z" />
    <glyph glyph-name="A" unicode="A" horiz-adv-x="1699" 
d="M84 0l674 1501h184l672 -1501h-209l-170 385h-778l-170 -385h-203zM530 561h631l-315 711z" />
    <glyph glyph-name="B" unicode="B" horiz-adv-x="1554" 
d="M1231 428q0 115 -94 177t-275 63h-454v-492h479q160 0 252 66t92 182v4zM1147 1083v4q0 107 -81 167t-228 61h-430v-477h415q147 0 236 63q88 63 88 182zM213 0v1491h645q254 0 389 -131q98 -102 99 -244v-4q0 -233 -230 -340q313 -98 314 -360v-4q0 -190 -148 -299
t-397 -109h-672z" />
    <glyph glyph-name="C" unicode="C" horiz-adv-x="1595" 
d="M897 -25q-322 -1 -536 221t-214 545v4q0 322 215 546t543 225q191 0 325 -60t257 -174l-129 -145q-213 199 -452 199q-238 0 -396 -170q-158 -169 -158 -416v-5q0 -249 158 -419t393 -170q141 0 247 51t218 158l129 -127q-127 -129 -266 -196t-334 -67z" />
    <glyph glyph-name="D" unicode="D" horiz-adv-x="1681" 
d="M743 1311h-333v-1131h333q264 0 425 159t161 402v4q0 244 -162 405t-424 161zM213 0v1491h530q349 0 571 -212t222 -529v-5q0 -319 -222 -532t-571 -213h-530z" />
    <glyph glyph-name="E" unicode="E" horiz-adv-x="1443" 
d="M213 0v1491h1085v-178h-888v-473h792v-178h-792v-484h899v-178h-1096z" />
    <glyph glyph-name="F" unicode="F" horiz-adv-x="1413" 
d="M213 0v1491h1083v-180h-886v-494h790v-180h-790v-637h-197z" />
    <glyph glyph-name="G" unicode="G" horiz-adv-x="1685" 
d="M909 -25q-344 -1 -553 219t-209 547v4q0 317 213 543t541 228q182 0 311 -50t250 -149l-125 -150q-96 84 -198 126t-246 42q-229 0 -385 -172t-156 -413v-5q0 -260 155 -427q155 -166 401 -166t417 139v342h-430v174h621v-604q-263 -228 -607 -228z" />
    <glyph glyph-name="H" unicode="H" horiz-adv-x="1634" 
d="M213 0v1491h197v-649h815v649h198v-1491h-198v659h-815v-659h-197z" />
    <glyph glyph-name="I" unicode="I" horiz-adv-x="653" 
d="M227 0v1491h199v-1491h-199z" />
    <glyph glyph-name="J" unicode="J" horiz-adv-x="1198" 
d="M532 -20q-297 0 -464 256l137 126q71 -104 147 -153t191 -49t191 88t75 250v993h201v-993q0 -256 -134 -387t-344 -131z" />
    <glyph glyph-name="K" unicode="K" horiz-adv-x="1552" 
d="M213 0v1491h197v-848l811 848h252l-635 -647l661 -844h-244l-553 707l-292 -297v-410h-197z" />
    <glyph glyph-name="L" unicode="L" horiz-adv-x="1329" 
d="M213 0v1491h197v-1311h823v-180h-1020z" />
    <glyph glyph-name="M" unicode="M" horiz-adv-x="1865" 
d="M213 0v1491h203l516 -780l516 780h205v-1491h-197v1167l-522 -770h-8l-520 766v-1163h-193z" />
    <glyph glyph-name="N" unicode="N" horiz-adv-x="1699" 
d="M213 0v1491h182l897 -1145v1145h195v-1491h-162l-919 1174v-1174h-193z" />
    <glyph glyph-name="O" unicode="O" horiz-adv-x="1826" 
d="M915 156q242 0 401 170t159 415v4q0 246 -161 418t-403 172q-243 0 -401 -170t-158 -415v-5q0 -245 160 -417t403 -172zM911 -25q-334 1 -549 225t-215 541v4q-1 317 217 543t552 228q334 0 548 -224q215 -224 215 -542v-5q0 -317 -217 -543t-551 -227z" />
    <glyph glyph-name="P" unicode="P" horiz-adv-x="1439" 
d="M410 690h350q172 0 277 86t106 225v5q-1 147 -103 226t-276 79h-354v-621zM213 0v1491h567q256 0 409 -129t152 -350v-4q0 -232 -169 -364t-420 -132h-342v-512h-197z" />
    <glyph glyph-name="Q" unicode="Q" horiz-adv-x="1826" 
d="M915 156q180 0 318 96l-272 235l131 146l274 -250q109 154 109 358v4q0 246 -161 418t-403 172q-243 0 -401 -170t-158 -415v-5q0 -245 160 -417t403 -172zM911 -25q-334 1 -549 225t-215 541v4q-1 317 217 543t552 228q334 0 548 -224q215 -224 215 -542v-5
q0 -274 -168 -485l189 -162l-131 -143l-193 172q-201 -152 -465 -152z" />
    <glyph glyph-name="R" unicode="R" horiz-adv-x="1556" 
d="M213 0v1491h647q281 0 426 -150q119 -115 119 -301v-4q1 -178 -105 -291t-284 -149l440 -596h-237l-412 561h-397v-561h-197zM410 737h436q162 0 261 78t99 211v4q0 133 -95 207t-265 74h-436v-574z" />
    <glyph glyph-name="S" unicode="S" horiz-adv-x="1380" 
d="M727 -20q-348 0 -612 237l121 143q229 -205 497 -204q141 0 228 64q86 65 86 169v4q0 101 -77 159q-76 58 -318 111t-360 149t-118 282v4q0 180 140 297t356 116q301 0 528 -184l-111 -151q-199 160 -421 159q-133 0 -214 -62t-81 -157v-4q0 -104 80 -164
q81 -60 321 -113q240 -55 356 -153t115 -270v-4q0 -195 -143 -312q-144 -116 -373 -116z" />
    <glyph glyph-name="T" unicode="T" horiz-adv-x="1384" 
d="M594 0v1309h-494v182h1184v-182h-493v-1309h-197z" />
    <glyph glyph-name="U" unicode="U" horiz-adv-x="1632" 
d="M815 -23q-289 0 -458 168t-169 482v864h199v-854q0 -229 114 -354q113 -125 315 -125t316 120t113 349v864h197v-852q0 -319 -169 -491t-458 -171z" />
    <glyph glyph-name="V" unicode="V" horiz-adv-x="1613" 
d="M719 -10l-635 1501h219l506 -1243l508 1243h213l-635 -1501h-176z" />
    <glyph glyph-name="W" unicode="W" horiz-adv-x="2379" 
d="M627 -10l-529 1501h215l404 -1200l395 1204h164l395 -1204l406 1200h207l-529 -1501h-168l-397 1167l-395 -1167h-168z" />
    <glyph glyph-name="X" unicode="X" horiz-adv-x="1562" 
d="M1214 1491h228l-541 -729l561 -762h-231l-453 621l-450 -621h-228l562 760l-541 731h233l430 -592z" />
    <glyph glyph-name="Y" unicode="Y" horiz-adv-x="1542" 
d="M672 0v590l-613 901h236l477 -721l481 721h230l-613 -897v-594h-198z" />
    <glyph glyph-name="Z" unicode="Z" horiz-adv-x="1499" 
d="M150 0v137l940 1180h-910v174h1172v-137l-940 -1180h940v-174h-1202z" />
    <glyph glyph-name="bracketleft" unicode="[" horiz-adv-x="962" 
d="M205 -276v1767h622v-150h-440v-1468h440v-149h-622z" />
    <glyph glyph-name="backslash" unicode="\" horiz-adv-x="1105" 
d="M973 -272l-981 1972h174l979 -1972h-172z" />
    <glyph glyph-name="bracketright" unicode="]" horiz-adv-x="962" 
d="M133 -276v149h442v1468h-442v150h625v-1767h-625z" />
    <glyph glyph-name="asciicircum" unicode="^" horiz-adv-x="1081" 
d="M139 1051l330 444h143l330 -444h-162l-241 313l-242 -313h-158z" />
    <glyph glyph-name="underscore" unicode="_" horiz-adv-x="1294" 
d="M4 -340v154h1286v-154h-1286z" />
    <glyph glyph-name="grave" unicode="`" horiz-adv-x="1081" 
d="M551 1268l-248 233l189 86l206 -319h-147z" />
    <glyph glyph-name="a" unicode="a" horiz-adv-x="1253" 
d="M512 -25q-166 1 -287 93t-121 251v5q0 172 128 265t320 93t349 -47v37q0 137 -82 210q-83 72 -239 72t-322 -77l-55 153q207 94 426 94t338 -119t118 -333v-672h-186v158q-143 -183 -387 -183zM295 330q1 -94 75 -150t203 -55q129 0 230 79q100 79 100 202v96
q-145 47 -295 47t-232 -57q-81 -57 -81 -158v-4z" />
    <glyph glyph-name="b" unicode="b" horiz-adv-x="1435" 
d="M371 553q1 -178 113 -293t267 -115t260 111t105 295v4q0 180 -107 294q-109 114 -261 114t-265 -115t-112 -291v-4zM788 -25q-252 0 -411 226v-201h-193v1554h193v-657q160 236 411 236q209 0 367 -158t158 -418v-4q0 -262 -157 -420t-368 -158z" />
    <glyph glyph-name="c" unicode="c" horiz-adv-x="1232" 
d="M698 -25q-252 0 -416 168t-163 406v4q0 238 165 409q166 171 414 171t435 -197l-123 -131q-154 158 -317 158t-271 -119t-109 -287v-4q0 -172 111 -290q110 -118 278 -118t320 156l119 -115q-191 -211 -443 -211z" />
    <glyph glyph-name="d" unicode="d" horiz-adv-x="1435" 
d="M647 -25q-211 0 -367 158t-157 418v4q0 262 157 420t367 158q248 0 412 -226v647h190v-1554h-190v211q-164 -236 -412 -236zM319 553q-1 -180 107 -294t261 -114t265 115t111 293v4q0 176 -113 291q-112 115 -266 115t-259 -111t-106 -295v-4z" />
    <glyph glyph-name="e" unicode="e" horiz-adv-x="1284" 
d="M311 621h670q-12 153 -98 251q-85 98 -227 98t-236 -97q-94 -98 -109 -252zM676 -25q-236 0 -396 161t-161 415v4q0 242 152 410q153 168 389 168t376 -168q139 -168 140 -422q0 -14 -5 -60h-858q19 -162 121 -254t246 -92q190 0 336 150l117 -105q-181 -207 -457 -207z
" />
    <glyph glyph-name="f" unicode="f" horiz-adv-x="804" 
d="M246 0v940h-150v164h150v92q0 188 94 283q90 86 242 86q106 0 188 -29v-166q-86 29 -156 29q-178 0 -178 -215v-80h332v-164h-330v-940h-192z" />
    <glyph glyph-name="g" unicode="g" horiz-adv-x="1435" 
d="M1249 205q0 -265 -144 -407t-426 -142t-505 145l82 150q192 -133 396 -133q404 0 407 377v116q-168 -225 -420 -225q-209 0 -363 144t-153 376v4q0 234 155 378t361 145q254 0 420 -215v190h190v-903zM319 608q-1 -156 105 -255t259 -99t267 100t113 252v4
q0 156 -114 255q-113 99 -267 99t-258 -96q-104 -98 -105 -256v-4z" />
    <glyph glyph-name="h" unicode="h" horiz-adv-x="1331" 
d="M184 0v1554h193v-632q135 211 368 211q195 0 306 -120t110 -319v-694h-192v641q0 147 -75 231t-209 84t-221 -89t-87 -236v-631h-193z" />
    <glyph glyph-name="i" unicode="i" horiz-adv-x="591" 
d="M201 0v1108h190v-1108h-190zM188 1329v201h215v-201h-215z" />
    <glyph glyph-name="j" unicode="j" horiz-adv-x="591" 
d="M106 -348q-47 0 -108 10v158q37 -6 78 -6q125 0 125 143v1151h190v-1157q0 -299 -285 -299zM188 1329v201h215v-201h-215z" />
    <glyph glyph-name="k" unicode="k" horiz-adv-x="1236" 
d="M184 0v1554h193v-1030l555 584h239l-458 -469l473 -639h-230l-374 506l-205 -209v-297h-193z" />
    <glyph glyph-name="l" unicode="l" horiz-adv-x="591" 
d="M201 0v1554h190v-1554h-190z" />
    <glyph glyph-name="m" unicode="m" horiz-adv-x="2041" 
d="M184 0v1108h193v-180q137 205 352 205q244 0 348 -213q147 213 385 213q188 0 297 -118t109 -323v-692h-193v641q-1 151 -71 233t-196 82t-206 -85t-80 -236v-635h-192v645q0 147 -71 229t-195 82t-205 -91q-82 -91 -82 -234v-631h-193z" />
    <glyph glyph-name="n" unicode="n" horiz-adv-x="1331" 
d="M184 0v1108h193v-186q135 211 368 211q195 0 306 -120t110 -319v-694h-192v641q0 147 -75 231t-209 84t-221 -89t-87 -236v-631h-193z" />
    <glyph glyph-name="o" unicode="o" horiz-adv-x="1400" 
d="M313 553q-1 -170 111 -289t279 -119t275 117t107 287v4q0 170 -111 290q-112 120 -278 120t-274 -118t-109 -288v-4zM698 -25q-248 0 -414 168t-165 406v4q0 238 168 409q167 171 415 171t414 -168t166 -408v-4q0 -238 -168 -408t-416 -170z" />
    <glyph glyph-name="p" unicode="p" horiz-adv-x="1435" 
d="M184 -340v1448h193v-211q160 236 411 236q209 0 367 -158t158 -418v-4q0 -262 -157 -420t-368 -158q-252 0 -411 226v-541h-193zM371 553q1 -178 113 -293t267 -115t260 111t105 295v4q0 180 -107 294q-109 114 -261 114t-265 -115t-112 -291v-4z" />
    <glyph glyph-name="q" unicode="q" horiz-adv-x="1435" 
d="M319 553q-1 -180 107 -294t261 -114t265 115t111 293v4q0 176 -113 291q-112 115 -266 115t-259 -111t-106 -295v-4zM1059 -340v551q-164 -236 -412 -236q-211 0 -367 158t-157 418v4q0 262 157 420t367 158q248 0 412 -226v201h190v-1448h-190z" />
    <glyph glyph-name="r" unicode="r" horiz-adv-x="882" 
d="M184 0v1108h193v-277q61 139 174 221t260 74v-202h-12q-186 0 -304 -127t-118 -361v-436h-193z" />
    <glyph glyph-name="s" unicode="s" horiz-adv-x="1079" 
d="M555 -20q-256 0 -463 161l94 135q186 -139 377 -139q94 0 153 43q58 43 58 115v4q0 76 -83 117q-70 37 -168 64q-97 28 -146 46t-109 54q-120 73 -121 219v4q0 147 108 236t275 89q213 0 402 -124l-84 -142q-170 106 -324 107q-90 0 -143 -41t-53 -105v-4q0 -95 189 -153
q141 -43 203 -68q160 -63 208 -152q29 -53 28 -124v-5q0 -161 -112 -249t-289 -88z" />
    <glyph glyph-name="t" unicode="t" horiz-adv-x="880" 
d="M544 -18q-132 0 -217 76t-85 239v643h-150v168h150v326h190v-326h336v-168h-336v-616q0 -170 172 -170q80 0 160 39v-162q-88 -49 -220 -49z" />
    <glyph glyph-name="u" unicode="u" horiz-adv-x="1331" 
d="M584 -25q-196 0 -306 120t-110 319v694h192v-641q0 -147 76 -231t210 -84t221 90t87 235v631h191v-1108h-191v186q-134 -211 -370 -211z" />
    <glyph glyph-name="v" unicode="v" horiz-adv-x="1271" 
d="M551 -8l-473 1116h209l350 -887l352 887h205l-473 -1116h-170z" />
    <glyph glyph-name="w" unicode="w" horiz-adv-x="1849" 
d="M471 -8l-379 1116h201l270 -850l283 854h162l282 -854l273 850h196l-381 -1116h-170l-282 837l-285 -837h-170z" />
    <glyph glyph-name="x" unicode="x" horiz-adv-x="1243" 
d="M317 1108l306 -416l307 416h211l-412 -541l428 -567h-217l-322 438l-321 -438h-211l424 563l-408 545h215z" />
    <glyph glyph-name="y" unicode="y" horiz-adv-x="1280" 
d="M352 -180q78 0 125 41t90 141l-491 1106h209l374 -893l336 893h203l-457 -1143q-71 -172 -155 -243q-84 -70 -209 -70t-248 61l66 148q79 -41 157 -41z" />
    <glyph glyph-name="z" unicode="z" horiz-adv-x="1204" 
d="M125 0v127l706 821h-681v160h935v-127l-706 -819h706v-162h-960z" />
    <glyph glyph-name="braceleft" unicode="{" horiz-adv-x="1046" 
d="M125 537v147h55q135 0 192 60q56 60 56 192l-2 160q0 178 98 277t371 151l31 -127q-205 -55 -262 -120t-58 -208l2 -160q0 -127 -56 -195t-165 -104q113 -34 167 -102t54 -195l-2 -159q0 -143 58 -208t262 -120l-31 -127q-272 51 -371 150q-98 99 -98 278l2 160
q0 129 -56 189t-192 61h-55z" />
    <glyph glyph-name="bar" unicode="|" horiz-adv-x="679" 
d="M260 -272v1972h160v-1972h-160z" />
    <glyph glyph-name="braceright" unicode="}" horiz-adv-x="1046" 
d="M866 684h56v-147h-56q-135 -1 -191 -61t-57 -189l5 -160q-1 -177 -99 -277t-370 -151l-33 127q109 28 171 56t96 69t43 85t9 118l-2 159q0 125 56 194t165 103q-113 37 -167 105t-54 194l2 160q0 74 -9 118q-21 102 -139 153q-62 28 -171 57l33 127q272 -50 370 -150
t99 -278q0 -65 -5 -160q0 -132 56 -192t192 -60z" />
    <glyph glyph-name="asciitilde" unicode="~" horiz-adv-x="1038" 
d="M156 532q62 238 198 238q68 0 168 -43t139 -43t63 23t48 81l113 -32q-35 -124 -83 -180t-116 -56t-170 43q-100 43 -138 43t-62 -24t-50 -82z" />
    <glyph glyph-name="uni00A0" unicode="&#xa0;" horiz-adv-x="655" 
 />
    <glyph glyph-name="exclamdown" unicode="&#xa1;" horiz-adv-x="614" 
d="M195 0v106l59 949h106l60 -949v-106h-225zM197 1245v246h221v-246h-221z" />
    <glyph glyph-name="cent" unicode="&#xa2;" horiz-adv-x="1253" 
d="M702 348q178 0 328 156l117 -111q-186 -215 -455 -215q-29 0 -43 2l-37 -192h-153l43 223q-166 59 -270 207t-105 334v4q0 238 165 408t406 171h25l33 168h151l-39 -190q152 -43 275 -174l-123 -129q-100 100 -191 133l-155 -795h28zM319 756q1 -126 61 -226t163 -147
l153 782h-4q-158 1 -266 -117t-107 -288v-4z" />
    <glyph glyph-name="sterling" unicode="&#xa3;" horiz-adv-x="1388" 
d="M150 0v119l174 45v452h-174v170h174v222q0 240 133 376q131 127 344 127q287 0 459 -233l-150 -119q-68 86 -138 129t-180 43t-190 -80t-80 -247v-218h574v-170h-574v-442h735v-174h-1107z" />
    <glyph glyph-name="yen" unicode="&#xa5;" horiz-adv-x="1476" 
d="M215 565v150h369l-523 776h232l448 -696l453 696h223l-526 -776h373v-150h-430v-178h430v-149h-430v-238h-191v238h-428v149h428v178h-428z" />
    <glyph glyph-name="section" unicode="&#xa7;" horiz-adv-x="1361" 
d="M1106 270q0 -133 -109 -212t-292 -78q-293 0 -488 200l119 117q166 -162 373 -162q100 0 152 36t52 93v4q0 57 -71 99q-72 41 -287 92t-316 119t-102 178v4q0 96 73 158t193 86q-145 78 -145 213v4q0 133 108 212t291 78q297 0 488 -200l-117 -117q-166 162 -375 162
q-98 0 -151 -36t-53 -93v-4q0 -57 70 -99q71 -41 287 -92t317 -119t102 -178v-4q0 -97 -72 -159t-195 -85q147 -80 148 -213v-4zM838 569q88 0 147 40t59 98v4q0 53 -64 94q-65 41 -217 79q-151 38 -239 38t-147 -40t-60 -98v-4q0 -53 65 -94q64 -41 216 -79t240 -38z" />
    <glyph glyph-name="dieresis" unicode="&#xa8;" horiz-adv-x="1081" 
d="M627 1268v217h213v-217h-213zM242 1268v217h213v-217h-213z" />
    <glyph glyph-name="copyright" unicode="&#xa9;" horiz-adv-x="1783" 
d="M904 344q-173 0 -289 120t-115 290v4q0 170 116 291q117 121 289 121t309 -130l-86 -94q-112 102 -226 102t-192 -84q-78 -85 -77 -204v-4q0 -119 79 -205q78 -86 194 -86t231 104l82 -84q-142 -141 -315 -141zM891 45q295 0 497 205t201 495v5q1 292 -199 494t-496 202
t-498 -205t-201 -496v-4q1 -291 201 -493t495 -203zM1663 745q0 -317 -225 -543t-548 -227q-323 1 -546 225t-223 541v4q0 317 226 543t548 228q322 0 545 -224t223 -542v-5z" />
    <glyph glyph-name="ordfeminine" unicode="&#xaa;" horiz-adv-x="847" 
d="M129 610v107h559v-107h-559zM360 864q-92 0 -158 51t-67 142v4q0 96 71 147q71 52 174 52t183 -25v12q0 143 -162 144q-76 0 -180 -45l-35 98q117 53 239 53t189 -70q63 -61 64 -182v-366h-117v79q-74 -94 -201 -94zM256 1063q0 -47 37 -75t103 -27t116 41q51 40 51 102
v47q-63 23 -144 23t-122 -29t-41 -78v-4z" />
    <glyph glyph-name="guillemotleft" unicode="&#xab;" horiz-adv-x="1224" 
d="M956 90l-356 455v18l356 457l138 -76l-277 -387l277 -391zM465 90l-356 455v18l356 457l137 -76l-276 -387l276 -391z" />
    <glyph glyph-name="registered" unicode="&#xae;" horiz-adv-x="862" 
d="M283 956v381h174q69 1 109 -31t40 -92v-2q0 -44 -24 -74t-64 -40l100 -142h-96l-86 129h-74v-129h-79zM362 1149h89q74 0 73 59v2q0 27 -19 43t-54 15h-89v-119zM430 807q139 0 234 97q94 97 94 235v2q0 137 -94 234t-232 97t-234 -98q-95 -98 -96 -235v-2
q0 -137 94 -233t234 -97zM801 1139q-1 -153 -109 -263t-263 -110t-263 110t-107 261v2q0 153 109 263q110 110 264 110t262 -110q108 -108 107 -261v-2z" />
    <glyph glyph-name="macron" unicode="&#xaf;" horiz-adv-x="1081" 
d="M199 1305v149h684v-149h-684z" />
    <glyph glyph-name="degree" unicode="&#xb0;" horiz-adv-x="999" 
d="M500 961q88 0 148 62t61 146v5q-1 84 -61 147t-148 63t-148 -63t-59 -147v-5q-1 -84 59 -146t148 -62zM500 840q-135 0 -238 99q-102 99 -102 230v5q0 133 102 231t238 98t237 -98q102 -98 103 -231v-5q0 -131 -102 -230t-238 -99z" />
    <glyph glyph-name="plusminus" unicode="&#xb1;" horiz-adv-x="1353" 
d="M1184 0h-1014v168h1014v-168zM1184 780h-418v-409h-178v409h-418v174h418v410h178v-410h418v-174z" />
    <glyph glyph-name="two.sup" unicode="&#xb2;" 
d="M127 903v107l303 260q88 74 124 125t36 108t-43 95t-107 38q-119 0 -213 -137l-92 66q125 186 314 186q117 0 193 -69t77 -162q0 -94 -43 -158t-148 -152l-231 -194h428v-113h-598z" />
    <glyph glyph-name="three.sup" unicode="&#xb3;" 
d="M424 883q-186 0 -315 145l79 86q104 -121 238 -121q70 0 117 41t47 107q0 65 -56 103t-149 38h-76l-20 78l258 256h-389v113h547v-99l-259 -252q121 -10 196 -69t75 -171t-84 -184t-209 -71z" />
    <glyph glyph-name="acute" unicode="&#xb4;" horiz-adv-x="1081" 
d="M383 1268l207 319l188 -86l-248 -233h-147z" />
    <glyph glyph-name="mu" unicode="&#xb5;" horiz-adv-x="1433" 
d="M1257 -14q-217 0 -262 180q-115 -186 -315 -186q-106 0 -193 52q-86 52 -133 152h-4q25 -162 25 -268v-256h-191v1448h193v-635q0 -143 84 -234t215 -91t215 90q84 92 84 235v635h192v-823q6 -135 138 -135q50 0 77 8v-158q-57 -14 -125 -14z" />
    <glyph glyph-name="paragraph" unicode="&#xb6;" horiz-adv-x="1132" 
d="M733 0v551h-28q-264 0 -432 123q-167 123 -167 344v4q0 217 157 343t409 126h260v-1491h-199z" />
    <glyph glyph-name="periodcentered" unicode="&#xb7;" horiz-adv-x="552" 
d="M166 522v244h223v-244h-223z" />
    <glyph glyph-name="cedilla" unicode="&#xb8;" horiz-adv-x="1081" 
d="M494 -336l-179 78l197 289h147z" />
    <glyph glyph-name="one.sup" unicode="&#xb9;" horiz-adv-x="700" 
d="M461 903h-123v709l-178 -68l-35 107l240 92h96v-840z" />
    <glyph glyph-name="ordmasculine" unicode="&#xba;" horiz-adv-x="847" 
d="M117 610v107h614v-107h-614zM233 1182q1 -86 55 -146t137 -61q83 0 136 59t53 146v4q0 86 -55 146t-137 60t-135 -58q-53 -60 -54 -146v-4zM422 864q-135 0 -224 92t-89 224v4q0 131 91 224t225 93t224 -92t90 -223v-4q0 -130 -91 -224t-226 -94z" />
    <glyph glyph-name="guillemotright" unicode="&#xbb;" horiz-adv-x="1224" 
d="M760 90l-137 74l276 389l-276 389l137 78l356 -457v-18zM266 90l-137 74l279 389l-279 389l137 78l357 -457v-18z" />
    <glyph glyph-name="onequarter" unicode="&#xbc;" horiz-adv-x="1775" 
d="M1444 283v407l-307 -407h307zM1559 182v-186h-117v186h-402l-22 111l407 545h134v-553h114v-103h-114zM291 0l530 768l484 723h125l-531 -768l-483 -723h-125zM459 666h-123v708l-178 -67l-35 106l239 90h97v-837z" />
    <glyph glyph-name="onehalf" unicode="&#xbd;" horiz-adv-x="1775" 
d="M1057 0v106l303 261q88 74 124 125t36 108t-43 95t-107 38q-119 0 -213 -137l-92 66q125 186 313 186q117 0 194 -69t77 -162t-43 -157t-148 -153l-231 -194h428v-113h-598zM270 0l531 768l483 723h125l-530 -768l-484 -723h-125zM459 666h-123v708l-178 -67l-35 106
l239 90h97v-837z" />
    <glyph glyph-name="threequarters" unicode="&#xbe;" horiz-adv-x="1935" 
d="M1604 283v407l-308 -407h308zM1718 182v-186h-116v186h-402l-22 111l407 545h133v-553h115v-103h-115zM428 643q-186 0 -315 148l80 86q104 -121 237 -121q70 0 117 41t47 107t-56 103q-56 38 -149 37h-76l-20 76l258 256h-389v115h547v-98l-258 -252q121 -9 195 -69
t75 -172q0 -112 -84 -184t-209 -73zM440 0l531 768l483 723h125l-530 -768l-484 -723h-125z" />
    <glyph glyph-name="questiondown" unicode="&#xbf;" horiz-adv-x="1163" 
d="M590 -18q-217 0 -350 118t-134 306v6q0 188 121 294t318 136l20 213h129l35 -346l-10 -11q-205 -6 -309 -80t-105 -202v-4q0 -111 79 -182t210 -70q213 0 375 190l125 -125q-207 -243 -504 -243zM520 1245v246h223v-246h-223z" />
    <glyph glyph-name="Agrave" unicode="&#xc0;" horiz-adv-x="1699" 
d="M84 0l674 1501h184l672 -1501h-209l-170 385h-778l-170 -385h-203zM530 561h631l-315 711zM930 1640h-156l-254 201l189 84z" />
    <glyph glyph-name="Aacute" unicode="&#xc1;" horiz-adv-x="1699" 
d="M84 0l674 1501h184l672 -1501h-209l-170 385h-778l-170 -385h-203zM530 561h631l-315 711zM770 1640l223 285l187 -84l-252 -201h-158z" />
    <glyph glyph-name="Acircumflex" unicode="&#xc2;" horiz-adv-x="1699" 
d="M84 0l674 1501h184l672 -1501h-209l-170 385h-778l-170 -385h-203zM530 561h631l-315 711zM518 1636l242 262h180l242 -262h-174l-160 127l-160 -127h-170z" />
    <glyph glyph-name="Atilde" unicode="&#xc3;" horiz-adv-x="1699" 
d="M84 0l674 1501h184l672 -1501h-209l-170 385h-778l-170 -385h-203zM530 561h631l-315 711zM489 1655q67 231 197 231q64 0 168 -41t143 -41t63 23t48 78l117 -35q-65 -230 -197 -230q-66 0 -168 42q-104 42 -143 40q-39 0 -63 -22t-48 -78z" />
    <glyph glyph-name="Adieresis" unicode="&#xc4;" horiz-adv-x="1699" 
d="M84 0l674 1501h184l672 -1501h-209l-170 385h-778l-170 -385h-203zM530 561h631l-315 711zM946 1640v207h217v-207h-217zM535 1640v207h219v-207h-219z" />
    <glyph glyph-name="Aring" unicode="&#xc5;" horiz-adv-x="1699" 
d="M608 1595q0 91 71 153t171 62t171 -62t71 -153q0 -121 -111 -182l633 -1413h-209l-170 385h-778l-170 -385h-203l633 1413q-109 61 -109 182zM530 561h631l-315 711zM849 1466q60 0 100 37t40 91t-40 92t-100 36q-60 0 -100 -36t-40 -92q0 -54 40 -91t100 -37z" />
    <glyph glyph-name="AE" unicode="&#xc6;" horiz-adv-x="2242" 
d="M2097 1491v-178h-848v-473h752v-178h-752v-484h858v-178h-1054v385h-584l-223 -385h-205l864 1491h1192zM1053 561v756h-49l-439 -756h488z" />
    <glyph glyph-name="Ccedilla" unicode="&#xc7;" horiz-adv-x="1595" 
d="M147 745q0 322 215 546t543 225q191 0 325 -60t257 -174l-129 -145q-213 199 -452 199q-238 0 -396 -170q-158 -169 -158 -416v-5q0 -249 158 -419t393 -170q141 0 247 51t218 158l129 -127q-123 -123 -253 -189t-308 -72l-141 -313l-179 78l164 242q-280 39 -456 252
t-177 505v4z" />
    <glyph glyph-name="Egrave" unicode="&#xc8;" horiz-adv-x="1443" 
d="M213 0v1491h1085v-178h-888v-473h792v-178h-792v-484h899v-178h-1096zM840 1620h-156l-254 201l188 84z" />
    <glyph glyph-name="Eacute" unicode="&#xc9;" horiz-adv-x="1443" 
d="M213 0v1491h1085v-178h-888v-473h792v-178h-792v-484h899v-178h-1096zM680 1620l223 285l187 -84l-252 -201h-158z" />
    <glyph glyph-name="Ecircumflex" unicode="&#xca;" horiz-adv-x="1443" 
d="M213 0v1491h1085v-178h-888v-473h792v-178h-792v-484h899v-178h-1096zM428 1620l242 262h180l242 -262h-174l-160 127l-160 -127h-170z" />
    <glyph glyph-name="Edieresis" unicode="&#xcb;" horiz-adv-x="1443" 
d="M213 0v1491h1085v-178h-888v-473h792v-178h-792v-484h899v-178h-1096zM858 1620v207h217v-207h-217zM446 1620v207h220v-207h-220z" />
    <glyph glyph-name="Igrave" unicode="&#xcc;" horiz-adv-x="653" 
d="M227 0v1491h199v-1491h-199zM406 1620h-156l-254 201l188 84z" />
    <glyph glyph-name="Iacute" unicode="&#xcd;" horiz-adv-x="653" 
d="M227 0v1491h199v-1491h-199zM246 1620l223 285l186 -84l-252 -201h-157z" />
    <glyph glyph-name="Icircumflex" unicode="&#xce;" horiz-adv-x="653" 
d="M227 0v1491h199v-1491h-199zM-6 1620l242 262h180l241 -262h-174l-159 127l-160 -127h-170z" />
    <glyph glyph-name="Idieresis" unicode="&#xcf;" horiz-adv-x="653" 
d="M227 0v1491h199v-1491h-199zM424 1620v207h217v-207h-217zM12 1620v207h219v-207h-219z" />
    <glyph glyph-name="Eth" unicode="&#xd0;" horiz-adv-x="1744" 
d="M899 674h-424v-494h332q264 0 425 159t161 402v4q0 244 -162 405t-424 161h-332v-486h424v-151zM276 0v674h-159v151h159v666h531q348 0 570 -212t222 -529v-5q0 -319 -222 -532t-570 -213h-531z" />
    <glyph glyph-name="Ntilde" unicode="&#xd1;" horiz-adv-x="1699" 
d="M213 0v1491h182l897 -1145v1145h195v-1491h-162l-919 1174v-1174h-193zM717 1696q-39 0 -63 -23t-48 -78l-117 33q67 230 197 232q64 0 168 -42t143 -40q39 0 63 22t48 78l117 -35q-65 -229 -197 -229q-66 0 -168 41q-104 41 -143 41z" />
    <glyph glyph-name="Ograve" unicode="&#xd2;" horiz-adv-x="1826" 
d="M915 156q242 0 401 170t159 415v4q0 246 -161 418t-403 172q-243 0 -401 -170t-158 -415v-5q0 -245 160 -417t403 -172zM911 -25q-334 1 -549 225t-215 541v4q-1 317 217 543t552 228q334 0 548 -224q215 -224 215 -542v-5q0 -317 -217 -543t-551 -227zM993 1640h-155
l-254 201l188 84z" />
    <glyph glyph-name="Oacute" unicode="&#xd3;" horiz-adv-x="1826" 
d="M915 156q242 0 401 170t159 415v4q0 246 -161 418t-403 172q-243 0 -401 -170t-158 -415v-5q0 -245 160 -417t403 -172zM911 -25q-334 1 -549 225t-215 541v4q-1 317 217 543t552 228q334 0 548 -224q215 -224 215 -542v-5q0 -317 -217 -543t-551 -227zM834 1640l223 285
l186 -84l-252 -201h-157z" />
    <glyph glyph-name="Ocircumflex" unicode="&#xd4;" horiz-adv-x="1826" 
d="M915 156q242 0 401 170t159 415v4q0 246 -161 418t-403 172q-243 0 -401 -170t-158 -415v-5q0 -245 160 -417t403 -172zM911 -25q-334 1 -549 225t-215 541v4q-1 317 217 543t552 228q334 0 548 -224q215 -224 215 -542v-5q0 -317 -217 -543t-551 -227zM582 1640l241 263
h181l241 -263h-174l-160 127l-159 -127h-170z" />
    <glyph glyph-name="Otilde" unicode="&#xd5;" horiz-adv-x="1826" 
d="M915 156q242 0 401 170t159 415v4q0 246 -161 418t-403 172q-243 0 -401 -170t-158 -415v-5q0 -245 160 -417t403 -172zM911 -25q-334 1 -549 225t-215 541v4q-1 317 217 543t552 228q334 0 548 -224q215 -224 215 -542v-5q0 -317 -217 -543t-551 -227zM553 1655
q67 231 197 231q64 0 168 -41t143 -41t63 23t47 78l117 -35q-64 -230 -196 -230q-66 0 -170 42t-142 40q-38 0 -62 -22t-48 -78z" />
    <glyph glyph-name="Odieresis" unicode="&#xd6;" horiz-adv-x="1826" 
d="M915 156q242 0 401 170t159 415v4q0 246 -161 418t-403 172q-243 0 -401 -170t-158 -415v-5q0 -245 160 -417t403 -172zM911 -25q-334 1 -549 225t-215 541v4q-1 317 217 543t552 228q334 0 548 -224q215 -224 215 -542v-5q0 -317 -217 -543t-551 -227zM1012 1640v207
h217v-207h-217zM600 1640v207h219v-207h-219z" />
    <glyph glyph-name="multiply" unicode="&#xd7;" horiz-adv-x="1353" 
d="M1038 262l-362 369l-365 -369l-123 123l371 363l-371 362l127 127l365 -369l362 369l123 -121l-368 -364l368 -363z" />
    <glyph glyph-name="Oslash" unicode="&#xd8;" horiz-adv-x="1826" 
d="M915 152q244 0 404 171t160 418v2q0 215 -125 379l-779 -858q150 -112 340 -112zM348 748q0 -217 125 -381l776 858q-147 115 -338 114q-243 0 -403 -171t-160 -418v-2zM1679 745q0 -317 -217 -543t-551 -227q-260 0 -458 146l-121 -131h-203l211 233q-193 215 -193 518
v4q-1 317 217 543t551 228q258 0 459 -148l121 133h203l-211 -233q193 -219 192 -518v-5z" />
    <glyph glyph-name="Ugrave" unicode="&#xd9;" horiz-adv-x="1632" 
d="M815 -23q-289 0 -458 168t-169 482v864h199v-854q0 -229 114 -354q113 -125 315 -125t316 120t113 349v864h197v-852q0 -319 -169 -491t-458 -171zM895 1614h-156l-254 201l189 83z" />
    <glyph glyph-name="Uacute" unicode="&#xda;" horiz-adv-x="1632" 
d="M815 -23q-289 0 -458 168t-169 482v864h199v-854q0 -229 114 -354q113 -125 315 -125t316 120t113 349v864h197v-852q0 -319 -169 -491t-458 -171zM735 1614l223 284l187 -83l-252 -201h-158z" />
    <glyph glyph-name="Ucircumflex" unicode="&#xdb;" horiz-adv-x="1632" 
d="M815 -23q-289 0 -458 168t-169 482v864h199v-854q0 -229 114 -354q113 -125 315 -125t316 120t113 349v864h197v-852q0 -319 -169 -491t-458 -171zM483 1614l242 262h180l242 -262h-174l-160 127l-160 -127h-170z" />
    <glyph glyph-name="Udieresis" unicode="&#xdc;" horiz-adv-x="1632" 
d="M815 -23q-289 0 -458 168t-169 482v864h199v-854q0 -229 114 -354q113 -125 315 -125t316 120t113 349v864h197v-852q0 -319 -169 -491t-458 -171zM913 1614v207h217v-207h-217zM502 1614v207h219v-207h-219z" />
    <glyph glyph-name="Yacute" unicode="&#xdd;" horiz-adv-x="1542" 
d="M672 0v590l-613 901h236l477 -721l481 721h230l-613 -897v-594h-198zM690 1614l223 284l187 -83l-252 -201h-158z" />
    <glyph glyph-name="Thorn" unicode="&#xde;" horiz-adv-x="1449" 
d="M410 440h350q172 0 277 86t106 226v4q-1 147 -103 227t-276 80h-354v-623zM213 0v1491h197v-250h370q256 0 409 -129t152 -350v-4q0 -232 -169 -364t-420 -132h-342v-262h-197z" />
    <glyph glyph-name="germandbls" unicode="&#xdf;" horiz-adv-x="1337" 
d="M1016 418q0 118 -102 188t-281 88v140q291 111 291 327v6q0 104 -72 170t-192 66t-202 -90q-81 -90 -81 -240v-1073h-193v1067q0 229 133 365t347 137q214 0 334 -111q122 -111 122 -276v-6q0 -254 -278 -381q162 -41 266 -135t104 -244v-4q0 -199 -156 -310
q-157 -110 -423 -106v151q182 6 282 74t101 193v4z" />
    <glyph glyph-name="agrave" unicode="&#xe0;" horiz-adv-x="1253" 
d="M512 -25q-166 1 -287 93t-121 251v5q0 172 128 265t320 93t349 -47v37q0 137 -82 210q-83 72 -239 72t-322 -77l-55 153q207 94 426 94t338 -119t118 -333v-672h-186v158q-143 -183 -387 -183zM295 330q1 -94 75 -150t203 -55q129 0 230 79q100 79 100 202v96
q-145 47 -295 47t-232 -57q-81 -57 -81 -158v-4zM559 1268l-248 233l189 86l207 -319h-148z" />
    <glyph glyph-name="aacute" unicode="&#xe1;" horiz-adv-x="1253" 
d="M512 -25q-166 1 -287 93t-121 251v5q0 172 128 265t320 93t349 -47v37q0 137 -82 210q-83 72 -239 72t-322 -77l-55 153q207 94 426 94t338 -119t118 -333v-672h-186v158q-143 -183 -387 -183zM295 330q1 -94 75 -150t203 -55q129 0 230 79q100 79 100 202v96
q-145 47 -295 47t-232 -57q-81 -57 -81 -158v-4zM551 1268l207 319l188 -86l-248 -233h-147z" />
    <glyph glyph-name="acircumflex" unicode="&#xe2;" horiz-adv-x="1253" 
d="M512 -25q-166 1 -287 93t-121 251v5q0 172 128 265t320 93t349 -47v37q0 137 -82 210q-83 72 -239 72t-322 -77l-55 153q207 94 426 94t338 -119t118 -333v-672h-186v158q-143 -183 -387 -183zM295 330q1 -94 75 -150t203 -55q129 0 230 79q100 79 100 202v96
q-145 47 -295 47t-232 -57q-81 -57 -81 -158v-4zM309 1268l234 288h172l233 -288h-160l-161 143l-162 -143h-156z" />
    <glyph glyph-name="atilde" unicode="&#xe3;" horiz-adv-x="1253" 
d="M512 -25q-166 1 -287 93t-121 251v5q0 172 128 265t320 93t349 -47v37q0 137 -82 210q-83 72 -239 72t-322 -77l-55 153q207 94 426 94t338 -119t118 -333v-672h-186v158q-143 -183 -387 -183zM295 330q1 -94 75 -150t203 -55q129 0 230 79q100 79 100 202v96
q-145 47 -295 47t-232 -57q-81 -57 -81 -158v-4zM800 1268q-70 0 -171 43q-102 43 -137 43t-59 -24t-48 -83l-113 33q33 125 82 180q48 56 118 56t170 -42t138 -42q37 0 61 22t48 82l112 -33q-33 -125 -82 -180t-119 -55z" />
    <glyph glyph-name="adieresis" unicode="&#xe4;" horiz-adv-x="1253" 
d="M512 -25q-166 1 -287 93t-121 251v5q0 172 128 265t320 93t349 -47v37q0 137 -82 210q-83 72 -239 72t-322 -77l-55 153q207 94 426 94t338 -119t118 -333v-672h-186v158q-143 -183 -387 -183zM295 330q1 -94 75 -150t203 -55q129 0 230 79q100 79 100 202v96
q-145 47 -295 47t-232 -57q-81 -57 -81 -158v-4zM715 1268v217h213v-217h-213zM330 1268v217h213v-217h-213z" />
    <glyph glyph-name="aring" unicode="&#xe5;" horiz-adv-x="1253" 
d="M512 -25q-166 1 -287 93t-121 251v5q0 172 128 265t320 93t349 -47v37q0 137 -82 210q-83 72 -239 72t-322 -77l-55 153q207 94 426 94t338 -119t118 -333v-672h-186v158q-143 -183 -387 -183zM295 330q1 -94 75 -150t203 -55q129 0 230 79q100 79 100 202v96
q-145 47 -295 47t-232 -57q-81 -57 -81 -158v-4zM629 1346q59 0 102 43t43 102t-43 102t-102 43t-103 -43t-43 -102q-1 -59 43 -102t103 -43zM629 1264q-96 0 -166 66t-70 161q0 94 70 161q70 66 166 66t166 -66q69 -66 69 -161q0 -94 -69 -161q-70 -66 -166 -66z" />
    <glyph glyph-name="ae" unicode="&#xe6;" horiz-adv-x="2045" 
d="M549 127q211 0 377 180q-37 98 -43 197q-156 45 -293 45t-216 -57t-79 -158v-4q1 -94 73 -148t181 -55zM522 -25q-174 1 -296 93t-122 251v5q0 172 126 265t312 93t341 -47v37q0 137 -78 210q-77 72 -229 72t-318 -77l-55 153q203 94 399 94q311 0 402 -221
q68 105 176 167t237 63q242 0 380 -169t138 -421q0 -37 -2 -60h-860q17 -162 121 -254t248 -92q188 0 334 150l116 -105q-180 -207 -454 -207q-133 -1 -248 55t-191 156q-215 -211 -477 -211zM1073 621h668q-13 153 -99 251t-226 98t-234 -97q-94 -98 -109 -252z" />
    <glyph glyph-name="ccedilla" unicode="&#xe7;" horiz-adv-x="1232" 
d="M119 549v4q0 238 165 409q166 171 414 171t435 -197l-123 -131q-154 158 -317 158t-271 -119t-109 -287v-4q0 -172 111 -290q110 -118 278 -118t320 156l119 -115q-176 -197 -416 -209l-141 -313l-178 78l165 246q-199 38 -325 196t-127 365z" />
    <glyph glyph-name="egrave" unicode="&#xe8;" horiz-adv-x="1284" 
d="M311 621h670q-12 153 -98 251q-85 98 -227 98t-236 -97q-94 -98 -109 -252zM676 -25q-236 0 -396 161t-161 415v4q0 242 152 410q153 168 389 168t376 -168q139 -168 140 -422q0 -14 -5 -60h-858q19 -162 121 -254t246 -92q190 0 336 150l117 -105q-181 -207 -457 -207z
M582 1268l-248 233l188 86l207 -319h-147z" />
    <glyph glyph-name="eacute" unicode="&#xe9;" horiz-adv-x="1284" 
d="M311 621h670q-12 153 -98 251q-85 98 -227 98t-236 -97q-94 -98 -109 -252zM676 -25q-236 0 -396 161t-161 415v4q0 242 152 410q153 168 389 168t376 -168q139 -168 140 -422q0 -14 -5 -60h-858q19 -162 121 -254t246 -92q190 0 336 150l117 -105q-181 -207 -457 -207z
M573 1268l207 319l189 -86l-248 -233h-148z" />
    <glyph glyph-name="ecircumflex" unicode="&#xea;" horiz-adv-x="1284" 
d="M311 621h670q-12 153 -98 251q-85 98 -227 98t-236 -97q-94 -98 -109 -252zM676 -25q-236 0 -396 161t-161 415v4q0 242 152 410q153 168 389 168t376 -168q139 -168 140 -422q0 -14 -5 -60h-858q19 -162 121 -254t246 -92q190 0 336 150l117 -105q-181 -207 -457 -207z
M332 1268l233 288h172l234 -288h-160l-162 143l-162 -143h-155z" />
    <glyph glyph-name="edieresis" unicode="&#xeb;" horiz-adv-x="1284" 
d="M311 621h670q-12 153 -98 251q-85 98 -227 98t-236 -97q-94 -98 -109 -252zM676 -25q-236 0 -396 161t-161 415v4q0 242 152 410q153 168 389 168t376 -168q139 -168 140 -422q0 -14 -5 -60h-858q19 -162 121 -254t246 -92q190 0 336 150l117 -105q-181 -207 -457 -207z
M737 1268v217h213v-217h-213zM352 1268v217h213v-217h-213z" />
    <glyph glyph-name="igrave" unicode="&#xec;" horiz-adv-x="591" 
d="M201 0v1108h190v-1108h-190zM225 1268l-248 233l189 86l207 -319h-148z" />
    <glyph glyph-name="iacute" unicode="&#xed;" horiz-adv-x="591" 
d="M201 0v1108h190v-1108h-190zM219 1268l207 319l188 -86l-247 -233h-148z" />
    <glyph glyph-name="icircumflex" unicode="&#xee;" horiz-adv-x="591" 
d="M201 0v1108h190v-1108h-190zM-25 1268l234 288h172l233 -288h-159l-162 143l-162 -143h-156z" />
    <glyph glyph-name="idieresis" unicode="&#xef;" horiz-adv-x="591" 
d="M201 0v1108h190v-1108h-190zM381 1268v217h213v-217h-213zM-4 1268v217h213v-217h-213z" />
    <glyph glyph-name="eth" unicode="&#xf0;" horiz-adv-x="1398" 
d="M313 547q-1 -166 111 -284t278 -118t274 116t107 288v4q0 168 -111 281q-112 112 -282 112t-273 -112t-104 -281v-6zM1278 608v-4q0 -274 -161 -451t-415 -177t-418 168q-164 169 -165 415v4q0 233 152 388q153 155 356 155t368 -139q-76 154 -274 344l-248 -94l-51 114
l196 74q-61 51 -188 149h268q66 -53 97 -81l231 88l49 -113l-180 -70q383 -377 383 -770z" />
    <glyph glyph-name="ntilde" unicode="&#xf1;" horiz-adv-x="1331" 
d="M184 0v1108h193v-186q135 211 368 211q195 0 306 -120t110 -319v-694h-192v641q0 147 -75 231t-209 84t-221 -89t-87 -236v-631h-193zM844 1268q-70 0 -172 43t-137 43t-59 -24t-48 -83l-113 33q33 125 82 180q49 56 119 56t170 -42t137 -42t61 22t48 82l112 -33
q-33 -125 -82 -180q-48 -55 -118 -55z" />
    <glyph glyph-name="ograve" unicode="&#xf2;" horiz-adv-x="1400" 
d="M313 553q-1 -170 111 -289t279 -119t275 117t107 287v4q0 170 -111 290q-112 120 -278 120t-274 -118t-109 -288v-4zM698 -25q-248 0 -414 168t-165 406v4q0 238 168 409q167 171 415 171t414 -168t166 -408v-4q0 -238 -168 -408t-416 -170zM629 1268l-248 233l188 86
l207 -319h-147z" />
    <glyph glyph-name="oacute" unicode="&#xf3;" horiz-adv-x="1400" 
d="M313 553q-1 -170 111 -289t279 -119t275 117t107 287v4q0 170 -111 290q-112 120 -278 120t-274 -118t-109 -288v-4zM698 -25q-248 0 -414 168t-165 406v4q0 238 168 409q167 171 415 171t414 -168t166 -408v-4q0 -238 -168 -408t-416 -170zM623 1268l206 319l189 -86
l-248 -233h-147z" />
    <glyph glyph-name="ocircumflex" unicode="&#xf4;" horiz-adv-x="1400" 
d="M313 553q-1 -170 111 -289t279 -119t275 117t107 287v4q0 170 -111 290q-112 120 -278 120t-274 -118t-109 -288v-4zM698 -25q-248 0 -414 168t-165 406v4q0 238 168 409q167 171 415 171t414 -168t166 -408v-4q0 -238 -168 -408t-416 -170zM381 1268l233 288h172
l234 -288h-160l-162 143l-161 -143h-156z" />
    <glyph glyph-name="otilde" unicode="&#xf5;" horiz-adv-x="1400" 
d="M313 553q-1 -170 111 -289t279 -119t275 117t107 287v4q0 170 -111 290q-112 120 -278 120t-274 -118t-109 -288v-4zM698 -25q-248 0 -414 168t-165 406v4q0 238 168 409q167 171 415 171t414 -168t166 -408v-4q0 -238 -168 -408t-416 -170zM872 1268q-70 0 -172 43
t-137 43t-59 -24t-47 -83l-113 33q33 125 82 180q48 56 118 56t170 -42t138 -42q36 0 60 22t49 82l112 -33q-33 -125 -82 -180t-119 -55z" />
    <glyph glyph-name="odieresis" unicode="&#xf6;" horiz-adv-x="1400" 
d="M313 553q-1 -170 111 -289t279 -119t275 117t107 287v4q0 170 -111 290q-112 120 -278 120t-274 -118t-109 -288v-4zM698 -25q-248 0 -414 168t-165 406v4q0 238 168 409q167 171 415 171t414 -168t166 -408v-4q0 -238 -168 -408t-416 -170zM786 1268v217h213v-217h-213z
M401 1268v217h213v-217h-213z" />
    <glyph glyph-name="divide" unicode="&#xf7;" horiz-adv-x="1353" 
d="M559 203v235h236v-235h-236zM1200 664h-1046v172h1046v-172zM559 1061v235h236v-235h-236z" />
    <glyph glyph-name="oslash" unicode="&#xf8;" horiz-adv-x="1400" 
d="M702 139q170 0 280 119t110 291v2q0 135 -76 248l-541 -588q100 -72 227 -72zM309 555q0 -139 74 -248l543 586q-100 74 -228 74q-172 0 -280 -119t-109 -291v-2zM1282 557v-4q0 -238 -168 -408t-416 -170q-190 0 -340 105l-86 -90h-186l170 184q-137 156 -137 375v4
q0 238 168 409t415 171q190 0 338 -107l88 96h187l-172 -188q139 -158 139 -377z" />
    <glyph glyph-name="ugrave" unicode="&#xf9;" horiz-adv-x="1331" 
d="M584 -25q-196 0 -306 120t-110 319v694h192v-641q0 -147 76 -231t210 -84t221 90t87 235v631h191v-1108h-191v186q-134 -211 -370 -211zM586 1268l-248 233l188 86l207 -319h-147z" />
    <glyph glyph-name="uacute" unicode="&#xfa;" horiz-adv-x="1331" 
d="M584 -25q-196 0 -306 120t-110 319v694h192v-641q0 -147 76 -231t210 -84t221 90t87 235v631h191v-1108h-191v186q-134 -211 -370 -211zM580 1268l206 319l189 -86l-248 -233h-147z" />
    <glyph glyph-name="ucircumflex" unicode="&#xfb;" horiz-adv-x="1331" 
d="M584 -25q-196 0 -306 120t-110 319v694h192v-641q0 -147 76 -231t210 -84t221 90t87 235v631h191v-1108h-191v186q-134 -211 -370 -211zM336 1268l233 288h172l234 -288h-160l-162 143l-161 -143h-156z" />
    <glyph glyph-name="udieresis" unicode="&#xfc;" horiz-adv-x="1331" 
d="M584 -25q-196 0 -306 120t-110 319v694h192v-641q0 -147 76 -231t210 -84t221 90t87 235v631h191v-1108h-191v186q-134 -211 -370 -211zM741 1268v217h213v-217h-213zM356 1268v217h213v-217h-213z" />
    <glyph glyph-name="yacute" unicode="&#xfd;" horiz-adv-x="1280" 
d="M352 -180q78 0 125 41t90 141l-491 1106h209l374 -893l336 893h203l-457 -1143q-71 -172 -155 -243q-84 -70 -209 -70t-248 61l66 148q79 -41 157 -41zM567 1268l207 319l189 -86l-248 -233h-148z" />
    <glyph glyph-name="thorn" unicode="&#xfe;" horiz-adv-x="1435" 
d="M184 -340v1894h193v-657q160 236 411 236q209 0 367 -158t158 -418v-4q0 -262 -157 -420t-368 -158q-252 0 -411 226v-541h-193zM371 553q1 -178 113 -293t267 -115t260 111t105 295v4q0 180 -107 294q-109 114 -261 114t-265 -115t-112 -291v-4z" />
    <glyph glyph-name="ydieresis" unicode="&#xff;" horiz-adv-x="1280" 
d="M352 -180q78 0 125 41t90 141l-491 1106h209l374 -893l336 893h203l-457 -1143q-71 -172 -155 -243q-84 -70 -209 -70t-248 61l66 148q79 -41 157 -41zM729 1268v217h213v-217h-213zM344 1268v217h213v-217h-213z" />
    <glyph glyph-name="Amacron" unicode="&#x100;" horiz-adv-x="1699" 
d="M84 0l674 1501h184l672 -1501h-209l-170 385h-778l-170 -385h-203zM530 561h631l-315 711zM489 1679v154h721v-154h-721z" />
    <glyph glyph-name="amacron" unicode="&#x101;" horiz-adv-x="1253" 
d="M512 -25q-166 1 -287 93t-121 251v5q0 172 128 265t320 93t349 -47v37q0 137 -82 210q-83 72 -239 72t-322 -77l-55 153q207 94 426 94t338 -119t118 -333v-672h-186v158q-143 -183 -387 -183zM295 330q1 -94 75 -150t203 -55q129 0 230 79q100 79 100 202v96
q-145 47 -295 47t-232 -57q-81 -57 -81 -158v-4zM287 1305v149h684v-149h-684z" />
    <glyph glyph-name="Abreve" unicode="&#x102;" horiz-adv-x="1699" 
d="M84 0l674 1501h184l672 -1501h-209l-170 385h-778l-170 -385h-203zM530 561h631l-315 711zM850 1636q-141 0 -232 68q-90 68 -100 188h146q39 -108 186 -108t186 108h146q-10 -120 -100 -188t-232 -68z" />
    <glyph glyph-name="abreve" unicode="&#x103;" horiz-adv-x="1253" 
d="M512 -25q-166 1 -287 93t-121 251v5q0 172 128 265t320 93t349 -47v37q0 137 -82 210q-83 72 -239 72t-322 -77l-55 153q207 94 426 94t338 -119t118 -333v-672h-186v158q-143 -183 -387 -183zM295 330q1 -94 75 -150t203 -55q129 0 230 79q100 79 100 202v96
q-145 47 -295 47t-232 -57q-81 -57 -81 -158v-4zM629 1264q-139 0 -230 73q-90 74 -100 205h137q43 -133 193 -133t192 133h137q-10 -130 -100 -204t-229 -74z" />
    <glyph glyph-name="Aogonek" unicode="&#x104;" horiz-adv-x="1699" 
d="M530 561h631l-315 711zM1317 -172q0 82 96 172h-8l-170 385h-778l-170 -385h-203l674 1501h184l672 -1501h-49q-90 -82 -90 -150q-1 -90 155 -96v-104l-37 -2q-133 2 -205 50t-71 130z" />
    <glyph glyph-name="aogonek" unicode="&#x105;" horiz-adv-x="1253" 
d="M295 330q1 -94 75 -150t203 -55q129 0 230 79q100 79 100 202v96q-145 47 -295 47t-232 -57q-81 -57 -81 -158v-4zM104 319v5q0 172 128 265t320 93t349 -47v37q0 137 -82 210q-83 72 -239 72t-322 -77l-55 153q207 94 426 94t338 -119t118 -333v-672h-43
q-90 -82 -90 -150q0 -90 156 -96v-104l-37 -2q-133 2 -205 50t-72 130t105 180v150q-143 -182 -387 -183q-166 1 -287 93t-121 251z" />
    <glyph glyph-name="Cacute" unicode="&#x106;" horiz-adv-x="1595" 
d="M897 -25q-322 -1 -536 221t-214 545v4q0 322 215 546t543 225q191 0 325 -60t257 -174l-129 -145q-213 199 -452 199q-238 0 -396 -170q-158 -169 -158 -416v-5q0 -249 158 -419t393 -170q141 0 247 51t218 158l129 -127q-127 -129 -266 -196t-334 -67zM807 1640l223 285
l187 -84l-252 -201h-158z" />
    <glyph glyph-name="cacute" unicode="&#x107;" horiz-adv-x="1232" 
d="M698 -25q-252 0 -416 168t-163 406v4q0 238 165 409q166 171 414 171t435 -197l-123 -131q-154 158 -317 158t-271 -119t-109 -287v-4q0 -172 111 -290q110 -118 278 -118t320 156l119 -115q-191 -211 -443 -211zM600 1268l207 319l188 -86l-247 -233h-148z" />
    <glyph glyph-name="Cdotaccent" unicode="&#x10a;" horiz-adv-x="1595" 
d="M897 -25q-322 -1 -536 221t-214 545v4q0 322 215 546t543 225q191 0 325 -60t257 -174l-129 -145q-213 199 -452 199q-238 0 -396 -170q-158 -169 -158 -416v-5q0 -249 158 -419t393 -170q141 0 247 51t218 158l129 -127q-127 -129 -266 -196t-334 -67zM774 1640v207h225
v-207h-225z" />
    <glyph glyph-name="cdotaccent" unicode="&#x10b;" horiz-adv-x="1232" 
d="M698 -25q-252 0 -416 168t-163 406v4q0 238 165 409q166 171 414 171t435 -197l-123 -131q-154 158 -317 158t-271 -119t-109 -287v-4q0 -172 111 -290q110 -118 278 -118t320 156l119 -115q-191 -211 -443 -211zM567 1268v219h221v-219h-221z" />
    <glyph glyph-name="Ccaron" unicode="&#x10c;" horiz-adv-x="1595" 
d="M897 -25q-322 -1 -536 221t-214 545v4q0 322 215 546t543 225q191 0 325 -60t257 -174l-129 -145q-213 199 -452 199q-238 0 -396 -170q-158 -169 -158 -416v-5q0 -249 158 -419t393 -170q141 0 247 51t218 158l129 -127q-127 -129 -266 -196t-334 -67zM1219 1903
l-242 -263h-180l-242 263h174l160 -125l160 125h170z" />
    <glyph glyph-name="ccaron" unicode="&#x10d;" horiz-adv-x="1232" 
d="M698 -25q-252 0 -416 168t-163 406v4q0 238 165 409q166 171 414 171t435 -197l-123 -131q-154 158 -317 158t-271 -119t-109 -287v-4q0 -172 111 -290q110 -118 278 -118t320 156l119 -115q-191 -211 -443 -211zM997 1556l-233 -288h-172l-234 288h160l162 -143l162 143
h155z" />
    <glyph glyph-name="Dcaron" unicode="&#x10e;" horiz-adv-x="1681" 
d="M743 1311h-333v-1131h333q264 0 425 159t161 402v4q0 244 -162 405t-424 161zM213 0v1491h530q349 0 571 -212t222 -529v-5q0 -319 -222 -532t-571 -213h-530zM1141 1882l-242 -262h-180l-242 262h174l160 -125l160 125h170z" />
    <glyph glyph-name="dcaron" unicode="&#x10f;" horiz-adv-x="1435" 
d="M647 -25q-211 0 -367 158t-157 418v4q0 262 157 420t367 158q248 0 412 -226v647h190v-1554h-190v211q-164 -236 -412 -236zM319 553q-1 -180 107 -294t261 -114t265 115t111 293v4q0 176 -113 291q-112 115 -266 115t-259 -111t-106 -295v-4zM1583 1554v-6l-113 -360
h-90l31 366h172z" />
    <glyph glyph-name="Dcroat" unicode="&#x110;" horiz-adv-x="1744" 
d="M899 674h-424v-494h332q264 0 425 159t161 402v4q0 244 -162 405t-424 161h-332v-486h424v-151zM276 0v674h-159v151h159v666h531q348 0 570 -212t222 -529v-5q0 -319 -222 -532t-570 -213h-531z" />
    <glyph glyph-name="dcroat" unicode="&#x111;" horiz-adv-x="1435" 
d="M690 1294v131h369v129h190v-129h148v-131h-148v-1294h-190v211q-164 -236 -412 -236q-211 0 -367 158t-157 418v4q0 262 157 420t367 158q248 0 412 -226v387h-369zM319 553q-1 -180 107 -294t261 -114t265 115t111 293v4q0 176 -113 291q-112 115 -266 115t-259 -111
t-106 -295v-4z" />
    <glyph glyph-name="Emacron" unicode="&#x112;" horiz-adv-x="1443" 
d="M213 0v1491h1085v-178h-888v-473h792v-178h-792v-484h899v-178h-1096zM399 1659v153h721v-153h-721z" />
    <glyph glyph-name="emacron" unicode="&#x113;" horiz-adv-x="1284" 
d="M311 621h670q-12 153 -98 251q-85 98 -227 98t-236 -97q-94 -98 -109 -252zM676 -25q-236 0 -396 161t-161 415v4q0 242 152 410q153 168 389 168t376 -168q139 -168 140 -422q0 -14 -5 -60h-858q19 -162 121 -254t246 -92q190 0 336 150l117 -105q-181 -207 -457 -207z
M309 1305v149h684v-149h-684z" />
    <glyph glyph-name="Ebreve" unicode="&#x114;" horiz-adv-x="1443" 
d="M213 0v1491h1085v-178h-888v-473h792v-178h-792v-484h899v-178h-1096zM760 1616q-141 0 -232 67q-90 68 -100 189h145q39 -109 187 -109t186 109h146q-10 -120 -100 -188t-232 -68z" />
    <glyph glyph-name="ebreve" unicode="&#x115;" horiz-adv-x="1284" 
d="M311 621h670q-12 153 -98 251q-85 98 -227 98t-236 -97q-94 -98 -109 -252zM676 -25q-236 0 -396 161t-161 415v4q0 242 152 410q153 168 389 168t376 -168q139 -168 140 -422q0 -14 -5 -60h-858q19 -162 121 -254t246 -92q190 0 336 150l117 -105q-181 -207 -457 -207z
M651 1264q-139 0 -229 74t-100 204h137q43 -133 193 -133t192 133h137q-10 -131 -100 -205q-91 -73 -230 -73z" />
    <glyph glyph-name="Edotaccent" unicode="&#x116;" horiz-adv-x="1443" 
d="M213 0v1491h1085v-178h-888v-473h792v-178h-792v-484h899v-178h-1096zM647 1620v207h225v-207h-225z" />
    <glyph glyph-name="edotaccent" unicode="&#x117;" horiz-adv-x="1284" 
d="M311 621h670q-12 153 -98 251q-85 98 -227 98t-236 -97q-94 -98 -109 -252zM676 -25q-236 0 -396 161t-161 415v4q0 242 152 410q153 168 389 168t376 -168q139 -168 140 -422q0 -14 -5 -60h-858q19 -162 121 -254t246 -92q190 0 336 150l117 -105q-181 -207 -457 -207z
M541 1268v219h221v-219h-221z" />
    <glyph glyph-name="Eogonek" unicode="&#x118;" horiz-adv-x="1443" 
d="M993 -172q0 82 97 172h-877v1491h1085v-178h-888v-473h792v-178h-792v-484h899v-178h-68q-90 -82 -90 -150q0 -90 156 -96v-104l-37 -2q-133 2 -205 50t-72 130z" />
    <glyph glyph-name="eogonek" unicode="&#x119;" horiz-adv-x="1284" 
d="M311 621h670q-12 153 -98 251q-85 98 -227 98t-236 -97q-94 -98 -109 -252zM721 -175q0 79 76 161q-57 -10 -121 -11q-236 0 -396 161t-161 415v4q0 242 152 410q153 168 389 168t376 -168q139 -168 140 -422q0 -14 -5 -60h-858q19 -162 121 -254t246 -92q191 0 336 150
l117 -105q-49 -53 -117 -112q-139 -121 -139 -207q0 -100 157 -109v-104l-39 -2q-133 2 -203 50t-71 127z" />
    <glyph glyph-name="Ecaron" unicode="&#x11a;" horiz-adv-x="1443" 
d="M213 0v1491h1085v-178h-888v-473h792v-178h-792v-484h899v-178h-1096zM1092 1882l-242 -262h-180l-242 262h174l160 -125l160 125h170z" />
    <glyph glyph-name="ecaron" unicode="&#x11b;" horiz-adv-x="1284" 
d="M311 621h670q-12 153 -98 251q-85 98 -227 98t-236 -97q-94 -98 -109 -252zM676 -25q-236 0 -396 161t-161 415v4q0 242 152 410q153 168 389 168t376 -168q139 -168 140 -422q0 -14 -5 -60h-858q19 -162 121 -254t246 -92q190 0 336 150l117 -105q-181 -207 -457 -207z
M971 1556l-234 -288h-172l-233 288h160l161 -143l162 143h156z" />
    <glyph glyph-name="Gbreve" unicode="&#x11e;" horiz-adv-x="1685" 
d="M909 -25q-344 -1 -553 219t-209 547v4q0 317 213 543t541 228q182 0 311 -50t250 -149l-125 -150q-96 84 -198 126t-246 42q-229 0 -385 -172t-156 -413v-5q0 -260 155 -427q155 -166 401 -166t417 139v342h-430v174h621v-604q-263 -228 -607 -228zM885 1636
q-141 0 -232 68q-90 68 -100 188h145q38 -108 186 -108t187 108h146q-11 -120 -101 -188t-231 -68z" />
    <glyph glyph-name="gbreve" unicode="&#x11f;" horiz-adv-x="1435" 
d="M1249 205q0 -265 -144 -407t-426 -142t-505 145l82 150q192 -133 396 -133q404 0 407 377v116q-168 -225 -420 -225q-209 0 -363 144t-153 376v4q0 234 155 378t361 145q254 0 420 -215v190h190v-903zM319 608q-1 -156 105 -255t259 -99t267 100t113 252v4
q0 156 -114 255q-113 99 -267 99t-258 -96q-104 -98 -105 -256v-4zM727 1264q-139 0 -229 74t-101 204h138q43 -133 193 -133t192 133h137q-11 -130 -101 -204t-229 -74z" />
    <glyph glyph-name="Gdotaccent" unicode="&#x120;" horiz-adv-x="1685" 
d="M909 -25q-344 -1 -553 219t-209 547v4q0 317 213 543t541 228q182 0 311 -50t250 -149l-125 -150q-96 84 -198 126t-246 42q-229 0 -385 -172t-156 -413v-5q0 -260 155 -427q155 -166 401 -166t417 139v342h-430v174h621v-604q-263 -228 -607 -228zM772 1640v207h225
v-207h-225z" />
    <glyph glyph-name="gdotaccent" unicode="&#x121;" horiz-adv-x="1435" 
d="M1249 205q0 -265 -144 -407t-426 -142t-505 145l82 150q192 -133 396 -133q404 0 407 377v116q-168 -225 -420 -225q-209 0 -363 144t-153 376v4q0 234 155 378t361 145q254 0 420 -215v190h190v-903zM319 608q-1 -156 105 -255t259 -99t267 100t113 252v4
q0 156 -114 255q-113 99 -267 99t-258 -96q-104 -98 -105 -256v-4zM616 1268v219h222v-219h-222z" />
    <glyph glyph-name="Gcommaaccent" unicode="&#x122;" horiz-adv-x="1685" 
d="M780 -338v188h209v-161q1 -207 -235 -230l-15 70q74 12 107 45t28 88h-94zM909 -25q-344 -1 -553 219t-209 547v4q0 317 213 543t541 228q182 0 311 -50t250 -149l-125 -150q-96 84 -198 126t-246 42q-229 0 -385 -172t-156 -413v-5q0 -260 155 -427q155 -166 401 -166
t417 139v342h-430v174h621v-604q-263 -228 -607 -228z" />
    <glyph glyph-name="gcommaaccent" unicode="&#x123;" horiz-adv-x="1435" 
d="M1249 205q0 -265 -144 -407t-426 -142t-505 145l82 150q192 -133 396 -133q404 0 407 377v116q-168 -225 -420 -225q-209 0 -363 144t-153 376v4q0 234 155 378t361 145q254 0 420 -215v190h190v-903zM319 608q-1 -156 105 -255t259 -99t267 100t113 252v4
q0 156 -114 255q-113 99 -267 99t-258 -96q-104 -98 -105 -256v-4zM829 1456v-188h-211v162q0 211 238 229l14 -70q-74 -12 -106 -44t-29 -89h94z" />
    <glyph glyph-name="Hbar" unicode="&#x126;" horiz-adv-x="1712" 
d="M96 1087v146h156v258h197v-258h815v258h196v-258h156v-146h-156v-1087h-196v651h-815v-651h-197v1087h-156zM449 834h815v253h-815v-253z" />
    <glyph glyph-name="hbar" unicode="&#x127;" horiz-adv-x="1331" 
d="M745 1294h-368v-372q135 211 368 211q195 0 306 -120t110 -319v-694h-192v641q0 147 -75 231t-209 84t-221 -89t-87 -236v-631h-193v1294h-147v131h147v129h193v-129h368v-131z" />
    <glyph glyph-name="Imacron" unicode="&#x12a;" horiz-adv-x="653" 
d="M227 0v1491h199v-1491h-199zM-35 1659v153h721v-153h-721z" />
    <glyph glyph-name="imacron" unicode="&#x12b;" horiz-adv-x="591" 
d="M201 0v1108h190v-1108h-190zM-47 1305v149h684v-149h-684z" />
    <glyph glyph-name="Ibreve" unicode="&#x12c;" horiz-adv-x="653" 
d="M227 0v1491h199v-1491h-199zM326 1616q-141 0 -232 67q-90 68 -100 189h145q39 -109 187 -109t186 109h145q-10 -120 -100 -188t-231 -68z" />
    <glyph glyph-name="ibreve" unicode="&#x12d;" horiz-adv-x="591" 
d="M201 0v1108h190v-1108h-190zM295 1264q-139 0 -229 74t-101 204h137q43 -133 193 -133t192 133h138q-11 -130 -101 -204t-229 -74z" />
    <glyph glyph-name="Iogonek" unicode="&#x12e;" horiz-adv-x="653" 
d="M145 -172q0 82 97 172h-15v1491h199v-1491h-33q-90 -82 -90 -150q0 -90 156 -96v-104l-37 -2q-133 2 -205 50t-72 130z" />
    <glyph glyph-name="iogonek" unicode="&#x12f;" horiz-adv-x="591" 
d="M201 0v1108h190v-1108h-29q-90 -82 -90 -150q0 -90 156 -96v-104l-37 -2q-133 2 -205 50t-72 130t97 172h-10zM188 1329v201h215v-201h-215z" />
    <glyph glyph-name="Idotaccent" unicode="&#x130;" horiz-adv-x="653" 
d="M227 0v1491h199v-1491h-199zM213 1620v207h225v-207h-225z" />
    <glyph glyph-name="dotlessi" unicode="&#x131;" horiz-adv-x="591" 
d="M201 0v1108h190v-1108h-190z" />
    <glyph glyph-name="Kcommaaccent" unicode="&#x136;" horiz-adv-x="1552" 
d="M678 -324v189h209v-162q0 -206 -236 -229l-14 69q75 12 107 45t28 88h-94zM213 0v1491h197v-848l811 848h252l-635 -647l661 -844h-244l-553 707l-292 -297v-410h-197z" />
    <glyph glyph-name="kcommaaccent" unicode="&#x137;" horiz-adv-x="1236" 
d="M543 -334v189h209v-162q0 -207 -236 -230l-14 70q74 12 106 45t29 88h-94zM184 0v1554h193v-1030l555 584h239l-458 -469l473 -639h-230l-374 506l-205 -209v-297h-193z" />
    <glyph glyph-name="Lacute" unicode="&#x139;" horiz-adv-x="1329" 
d="M213 0v1491h197v-1311h823v-180h-1020zM258 1620l223 285l187 -84l-252 -201h-158z" />
    <glyph glyph-name="lacute" unicode="&#x13a;" horiz-adv-x="591" 
d="M201 0v1554h190v-1554h-190zM219 1663l223 285l187 -84l-252 -201h-158z" />
    <glyph glyph-name="Lcommaaccent" unicode="&#x13b;" horiz-adv-x="1329" 
d="M610 -334v189h209v-162q1 -207 -235 -230l-15 70q74 12 107 45t29 88h-95zM213 0v1491h197v-1311h823v-180h-1020z" />
    <glyph glyph-name="lcommaaccent" unicode="&#x13c;" horiz-adv-x="591" 
d="M190 -334v189h209v-162q1 -207 -235 -230l-14 70q74 12 106 45t29 88h-95zM201 0v1554h190v-1554h-190z" />
    <glyph glyph-name="Lcaron" unicode="&#x13d;" horiz-adv-x="1329" 
d="M213 0v1491h197v-1311h823v-180h-1020zM801 1491v-6l-113 -361h-90l31 367h172z" />
    <glyph glyph-name="lcaron" unicode="&#x13e;" horiz-adv-x="591" 
d="M725 1554v-6l-113 -360h-90l31 366h172zM201 0v1554h190v-1554h-190z" />
    <glyph glyph-name="Ldot" unicode="&#x13f;" horiz-adv-x="1329" 
d="M893 680v219h215v-219h-215zM213 0v1491h197v-1311h823v-180h-1020z" />
    <glyph glyph-name="ldot" unicode="&#x140;" horiz-adv-x="745" 
d="M565 684v211h193v-211h-193zM201 0v1554h190v-1554h-190z" />
    <glyph glyph-name="Lslash" unicode="&#x141;" horiz-adv-x="1392" 
d="M471 180h825v-180h-1020v584l-159 -72v190l159 72v717h195v-629l369 172v-190l-369 -170v-494z" />
    <glyph glyph-name="lslash" unicode="&#x142;" horiz-adv-x="718" 
d="M455 0h-191v643l-162 -86v191l162 83v723h191v-622l161 86v-189l-161 -86v-743z" />
    <glyph glyph-name="Nacute" unicode="&#x143;" horiz-adv-x="1699" 
d="M213 0v1491h182l897 -1145v1145h195v-1491h-162l-919 1174v-1174h-193zM770 1614l223 284l187 -83l-252 -201h-158z" />
    <glyph glyph-name="nacute" unicode="&#x144;" horiz-adv-x="1331" 
d="M184 0v1108h193v-186q135 211 368 211q195 0 306 -120t110 -319v-694h-192v641q0 147 -75 231t-209 84t-221 -89t-87 -236v-631h-193zM596 1268l207 319l188 -86l-248 -233h-147z" />
    <glyph glyph-name="Ncommaaccent" unicode="&#x145;" horiz-adv-x="1699" 
d="M743 -324v189h209v-162q1 -206 -235 -229l-15 69q74 12 107 45t29 88h-95zM213 0v1491h182l897 -1145v1145h195v-1491h-162l-919 1174v-1174h-193z" />
    <glyph glyph-name="ncommaaccent" unicode="&#x146;" horiz-adv-x="1331" 
d="M567 -334v189h209v-162q1 -207 -235 -230l-15 70q74 12 107 45t29 88h-95zM184 0v1108h193v-186q135 211 368 211q195 0 306 -120t110 -319v-694h-192v641q0 147 -75 231t-209 84t-221 -89t-87 -236v-631h-193z" />
    <glyph glyph-name="Ncaron" unicode="&#x147;" horiz-adv-x="1699" 
d="M213 0v1491h182l897 -1145v1145h195v-1491h-162l-919 1174v-1174h-193zM1182 1876l-242 -262h-180l-242 262h174l160 -125l160 125h170z" />
    <glyph glyph-name="ncaron" unicode="&#x148;" horiz-adv-x="1331" 
d="M184 0v1108h193v-186q135 211 368 211q195 0 306 -120t110 -319v-694h-192v641q0 147 -75 231t-209 84t-221 -89t-87 -236v-631h-193zM991 1556l-233 -288h-172l-234 288h160l162 -143l162 143h155z" />
    <glyph glyph-name="Omacron" unicode="&#x14c;" horiz-adv-x="1826" 
d="M915 156q242 0 401 170t159 415v4q0 246 -161 418t-403 172q-243 0 -401 -170t-158 -415v-5q0 -245 160 -417t403 -172zM911 -25q-334 1 -549 225t-215 541v4q-1 317 217 543t552 228q334 0 548 -224q215 -224 215 -542v-5q0 -317 -217 -543t-551 -227zM553 1679v154h721
v-154h-721z" />
    <glyph glyph-name="omacron" unicode="&#x14d;" horiz-adv-x="1400" 
d="M313 553q-1 -170 111 -289t279 -119t275 117t107 287v4q0 170 -111 290q-112 120 -278 120t-274 -118t-109 -288v-4zM698 -25q-248 0 -414 168t-165 406v4q0 238 168 409q167 171 415 171t414 -168t166 -408v-4q0 -238 -168 -408t-416 -170zM358 1305v149h684v-149h-684z
" />
    <glyph glyph-name="Obreve" unicode="&#x14e;" horiz-adv-x="1826" 
d="M915 156q242 0 401 170t159 415v4q0 246 -161 418t-403 172q-243 0 -401 -170t-158 -415v-5q0 -245 160 -417t403 -172zM911 -25q-334 1 -549 225t-215 541v4q-1 317 217 543t552 228q334 0 548 -224q215 -224 215 -542v-5q0 -317 -217 -543t-551 -227zM913 1636
q-141 0 -231 68t-100 188h145q39 -108 186 -108t187 108h145q-11 -120 -101 -188t-231 -68z" />
    <glyph glyph-name="obreve" unicode="&#x14f;" horiz-adv-x="1400" 
d="M313 553q-1 -170 111 -289t279 -119t275 117t107 287v4q0 170 -111 290q-112 120 -278 120t-274 -118t-109 -288v-4zM698 -25q-248 0 -414 168t-165 406v4q0 238 168 409q167 171 415 171t414 -168t166 -408v-4q0 -238 -168 -408t-416 -170zM700 1264q-139 0 -229 74
t-100 204h137q42 -133 192 -133t193 133h137q-10 -131 -100 -205q-91 -73 -230 -73z" />
    <glyph glyph-name="Ohungarumlaut" unicode="&#x150;" horiz-adv-x="1826" 
d="M915 156q242 0 401 170t159 415v4q0 246 -161 418t-403 172q-243 0 -401 -170t-158 -415v-5q0 -245 160 -417t403 -172zM911 -25q-334 1 -549 225t-215 541v4q-1 317 217 543t552 228q334 0 548 -224q215 -224 215 -542v-5q0 -317 -217 -543t-551 -227zM645 1640l223 285
l183 -84l-252 -201h-154zM987 1640l221 285l183 -84l-252 -201h-152z" />
    <glyph glyph-name="ohungarumlaut" unicode="&#x151;" horiz-adv-x="1400" 
d="M313 553q-1 -170 111 -289t279 -119t275 117t107 287v4q0 170 -111 290q-112 120 -278 120t-274 -118t-109 -288v-4zM698 -25q-248 0 -414 168t-165 406v4q0 238 168 409q167 171 415 171t414 -168t166 -408v-4q0 -238 -168 -408t-416 -170zM772 1268l209 319l180 -84
l-241 -235h-148zM442 1268l205 319l180 -84l-239 -235h-146z" />
    <glyph glyph-name="OE" unicode="&#x152;" horiz-adv-x="2404" 
d="M938 180h276v1131h-276q-264 0 -425 -159t-161 -402v-5q0 -245 162 -405t424 -160zM938 0q-346 0 -568 212t-223 529v4q1 319 223 533t568 213h1321v-178h-848v-473h754v-178h-754v-484h860v-178h-1333z" />
    <glyph glyph-name="oe" unicode="&#x153;" horiz-adv-x="2244" 
d="M313 553q1 -170 111 -289t275 -119t272 117q106 117 106 287v4q0 170 -109 290q-110 120 -275 120t-273 -119t-107 -287v-4zM1272 621h667q-12 153 -98 251t-226 98q-139 0 -233 -97q-94 -98 -110 -252zM688 -25q-238 0 -404 169t-165 405v4q0 238 167 409t410 171
q154 0 278 -75t193 -202q68 127 185 202t262 75q242 0 381 -169t139 -421q0 -37 -2 -60h-858q16 -162 118 -254t248 -92q188 0 334 150l119 -105q-182 -207 -455 -207q-150 0 -276 74t-197 203q-69 -125 -195 -201t-282 -76z" />
    <glyph glyph-name="Racute" unicode="&#x154;" horiz-adv-x="1556" 
d="M213 0v1491h647q281 0 426 -150q119 -115 119 -301v-4q1 -178 -105 -291t-284 -149l440 -596h-237l-412 561h-397v-561h-197zM410 737h436q162 0 261 78t99 211v4q0 133 -95 207t-265 74h-436v-574zM678 1620l223 285l186 -84l-251 -201h-158z" />
    <glyph glyph-name="racute" unicode="&#x155;" horiz-adv-x="882" 
d="M184 0v1108h193v-277q61 139 174 221t260 74v-202h-12q-186 0 -304 -127t-118 -361v-436h-193zM395 1268l207 319l189 -86l-248 -233h-148z" />
    <glyph glyph-name="Rcommaaccent" unicode="&#x156;" horiz-adv-x="1556" 
d="M651 -324v189h209v-162q1 -206 -235 -229l-15 69q74 12 107 45t28 88h-94zM213 0v1491h647q281 0 426 -150q119 -115 119 -301v-4q1 -178 -105 -291t-284 -149l440 -596h-237l-412 561h-397v-561h-197zM410 737h436q162 0 261 78t99 211v4q0 133 -95 207t-265 74h-436
v-574z" />
    <glyph glyph-name="rcommaaccent" unicode="&#x157;" horiz-adv-x="882" 
d="M190 -334v189h209v-162q1 -207 -235 -230l-14 70q74 12 106 45t29 88h-95zM184 0v1108h193v-277q61 139 174 221t260 74v-202h-12q-186 0 -304 -127t-118 -361v-436h-193z" />
    <glyph glyph-name="Rcaron" unicode="&#x158;" horiz-adv-x="1556" 
d="M213 0v1491h647q281 0 426 -150q119 -115 119 -301v-4q1 -178 -105 -291t-284 -149l440 -596h-237l-412 561h-397v-561h-197zM410 737h436q162 0 261 78t99 211v4q0 133 -95 207t-265 74h-436v-574zM1090 1882l-242 -262h-180l-242 262h174l160 -125l160 125h170z" />
    <glyph glyph-name="rcaron" unicode="&#x159;" horiz-adv-x="882" 
d="M184 0v1108h193v-277q61 139 174 221t260 74v-202h-12q-186 0 -304 -127t-118 -361v-436h-193zM793 1556l-234 -288h-172l-233 288h159l162 -143l162 143h156z" />
    <glyph glyph-name="Sacute" unicode="&#x15a;" horiz-adv-x="1380" 
d="M727 -20q-348 0 -612 237l121 143q229 -205 497 -204q141 0 228 64q86 65 86 169v4q0 101 -77 159q-76 58 -318 111t-360 149t-118 282v4q0 180 140 297t356 116q301 0 528 -184l-111 -151q-199 160 -421 159q-133 0 -214 -62t-81 -157v-4q0 -104 80 -164
q81 -60 321 -113q240 -55 356 -153t115 -270v-4q0 -195 -143 -312q-144 -116 -373 -116zM623 1640l223 285l186 -84l-252 -201h-157z" />
    <glyph glyph-name="sacute" unicode="&#x15b;" horiz-adv-x="1079" 
d="M555 -20q-256 0 -463 161l94 135q186 -139 377 -139q94 0 153 43q58 43 58 115v4q0 76 -83 117q-70 37 -168 64q-97 28 -146 46t-109 54q-120 73 -121 219v4q0 147 108 236t275 89q213 0 402 -124l-84 -142q-170 106 -324 107q-90 0 -143 -41t-53 -105v-4q0 -95 189 -153
q141 -43 203 -68q160 -63 208 -152q29 -53 28 -124v-5q0 -161 -112 -249t-289 -88zM469 1268l207 319l188 -86l-248 -233h-147z" />
    <glyph glyph-name="Scedilla" unicode="&#x15e;" horiz-adv-x="1380" 
d="M1047 389v4q0 101 -77 159q-76 58 -318 111t-360 149t-118 282v4q0 180 140 297t356 116q301 0 528 -184l-111 -151q-199 160 -421 159q-133 0 -214 -62t-81 -157v-4q0 -104 80 -164q81 -60 321 -113q240 -55 356 -153t115 -270v-4q0 -182 -126 -296t-331 -130l-143 -318
l-178 78l164 244q-289 29 -514 231l121 143q229 -205 497 -204q141 0 228 64q86 65 86 169z" />
    <glyph glyph-name="scedilla" unicode="&#x15f;" horiz-adv-x="1079" 
d="M563 137q94 0 153 43q58 43 58 115v4q0 76 -83 117q-70 37 -168 64q-97 28 -146 46t-109 54q-120 73 -121 219v4q0 147 108 236t275 89q213 0 402 -124l-84 -142q-170 106 -324 107q-90 0 -143 -41t-53 -105v-4q0 -95 189 -153q141 -43 203 -68q160 -63 208 -152
q29 -53 28 -124v-5q0 -147 -97 -235t-253 -100l-143 -318l-178 78l166 246q-203 29 -359 153l94 135q186 -139 377 -139z" />
    <glyph glyph-name="Scaron" unicode="&#x160;" horiz-adv-x="1380" 
d="M727 -20q-348 0 -612 237l121 143q229 -205 497 -204q141 0 228 64q86 65 86 169v4q0 101 -77 159q-76 58 -318 111t-360 149t-118 282v4q0 180 140 297t356 116q301 0 528 -184l-111 -151q-199 160 -421 159q-133 0 -214 -62t-81 -157v-4q0 -104 80 -164
q81 -60 321 -113q240 -55 356 -153t115 -270v-4q0 -195 -143 -312q-144 -116 -373 -116zM1034 1903l-241 -263h-181l-241 263h174l160 -125l159 125h170z" />
    <glyph glyph-name="scaron" unicode="&#x161;" horiz-adv-x="1079" 
d="M555 -20q-256 0 -463 161l94 135q186 -139 377 -139q94 0 153 43q58 43 58 115v4q0 76 -83 117q-70 37 -168 64q-97 28 -146 46t-109 54q-120 73 -121 219v4q0 147 108 236t275 89q213 0 402 -124l-84 -142q-170 106 -324 107q-90 0 -143 -41t-53 -105v-4q0 -95 189 -153
q141 -43 203 -68q160 -63 208 -152q29 -53 28 -124v-5q0 -161 -112 -249t-289 -88zM866 1556l-233 -288h-172l-234 288h160l162 -143l162 143h155z" />
    <glyph glyph-name="Tcommaaccent" unicode="&#x162;" horiz-adv-x="1384" 
d="M586 -334v189h209v-162q0 -207 -236 -230l-14 70q75 12 107 45t28 88h-94zM594 0v1309h-494v182h1184v-182h-493v-1309h-197z" />
    <glyph glyph-name="tcommaaccent" unicode="&#x163;" horiz-adv-x="880" 
d="M381 -334v189h209v-162q0 -207 -236 -230l-14 70q74 12 106 45t29 88h-94zM544 -18q-132 0 -217 76t-85 239v643h-150v168h150v326h190v-326h336v-168h-336v-616q0 -170 172 -170q80 0 160 39v-162q-88 -49 -220 -49z" />
    <glyph glyph-name="Tcaron" unicode="&#x164;" horiz-adv-x="1384" 
d="M594 0v1309h-494v182h1184v-182h-493v-1309h-197zM1024 1882l-242 -262h-180l-242 262h175l159 -125l160 125h170z" />
    <glyph glyph-name="tcaron" unicode="&#x165;" horiz-adv-x="880" 
d="M544 -18q-132 0 -217 76t-85 239v643h-150v168h150v326h190v-326h336v-168h-336v-616q0 -170 172 -170q80 0 160 39v-162q-88 -49 -220 -49zM809 1614v-6l-113 -361h-90l31 367h172z" />
    <glyph glyph-name="Umacron" unicode="&#x16a;" horiz-adv-x="1632" 
d="M815 -23q-289 0 -458 168t-169 482v864h199v-854q0 -229 114 -354q113 -125 315 -125t316 120t113 349v864h197v-852q0 -319 -169 -491t-458 -171zM455 1653v153h721v-153h-721z" />
    <glyph glyph-name="umacron" unicode="&#x16b;" horiz-adv-x="1331" 
d="M584 -25q-196 0 -306 120t-110 319v694h192v-641q0 -147 76 -231t210 -84t221 90t87 235v631h191v-1108h-191v186q-134 -211 -370 -211zM313 1305v149h684v-149h-684z" />
    <glyph glyph-name="Ubreve" unicode="&#x16c;" horiz-adv-x="1632" 
d="M815 -23q-289 0 -458 168t-169 482v864h199v-854q0 -229 114 -354q113 -125 315 -125t316 120t113 349v864h197v-852q0 -319 -169 -491t-458 -171zM815 1602q-141 0 -231 68t-101 188h146q39 -109 186 -109t186 109h146q-10 -121 -100 -189q-91 -67 -232 -67z" />
    <glyph glyph-name="ubreve" unicode="&#x16d;" horiz-adv-x="1331" 
d="M584 -25q-196 0 -306 120t-110 319v694h192v-641q0 -147 76 -231t210 -84t221 90t87 235v631h191v-1108h-191v186q-134 -211 -370 -211zM655 1264q-139 0 -229 74t-100 204h137q43 -133 193 -133t192 133h137q-10 -131 -100 -205q-91 -73 -230 -73z" />
    <glyph glyph-name="Uring" unicode="&#x16e;" horiz-adv-x="1632" 
d="M815 -23q-289 0 -458 168t-169 482v864h199v-854q0 -229 114 -354q113 -125 315 -125t316 120t113 349v864h197v-852q0 -319 -169 -491t-458 -171zM815 1663q61 0 101 37t40 91t-40 91t-101 37t-101 -37t-40 -91t40 -91t101 -37zM815 1575q-100 0 -171 62q-71 61 -71 153
t71 154t171 61q100 0 171 -61q71 -60 71 -152t-71 -154t-171 -63z" />
    <glyph glyph-name="uring" unicode="&#x16f;" horiz-adv-x="1331" 
d="M584 -25q-196 0 -306 120t-110 319v694h192v-641q0 -147 76 -231t210 -84t221 90t87 235v631h191v-1108h-191v186q-134 -211 -370 -211zM655 1321q59 0 103 43q43 43 43 102q0 58 -43 102q-42 44 -102 44t-103 -43t-43 -103t43 -102q43 -43 102 -43zM655 1239
q-96 0 -166 67q-69 66 -69 160t69 161q70 67 166 67t166 -67t70 -161t-70 -160t-166 -67z" />
    <glyph glyph-name="Uhungarumlaut" unicode="&#x170;" horiz-adv-x="1632" 
d="M815 -23q-289 0 -458 168t-169 482v864h199v-854q0 -229 114 -354q113 -125 315 -125t316 120t113 349v864h197v-852q0 -319 -169 -491t-458 -171zM547 1614l223 284l182 -83l-252 -201h-153zM889 1614l221 284l182 -83l-252 -201h-151z" />
    <glyph glyph-name="uhungarumlaut" unicode="&#x171;" horiz-adv-x="1331" 
d="M584 -25q-196 0 -306 120t-110 319v694h192v-641q0 -147 76 -231t210 -84t221 90t87 235v631h191v-1108h-191v186q-134 -211 -370 -211zM729 1268l209 319l180 -84l-241 -235h-148zM399 1268l205 319l180 -84l-239 -235h-146z" />
    <glyph glyph-name="Uogonek" unicode="&#x172;" horiz-adv-x="1632" 
d="M651 -177q0 77 78 159q-252 24 -396 190t-145 455v864h199v-854q0 -229 114 -354q113 -125 315 -125t316 120t113 349v864h197v-852q0 -303 -151 -472t-412 -185q-70 -70 -70 -132q0 -90 156 -96v-104l-37 -2q-133 2 -205 50t-72 125z" />
    <glyph glyph-name="uogonek" unicode="&#x173;" horiz-adv-x="1331" 
d="M860 -172q0 82 96 172h-2v186q-134 -211 -370 -211q-196 0 -306 120t-110 319v694h192v-641q0 -147 76 -231t210 -84t221 90t87 235v631h191v-1108h-37q-90 -82 -90 -150q0 -90 156 -96v-104l-37 -2q-133 2 -205 50t-72 130z" />
    <glyph glyph-name="Wcircumflex" unicode="&#x174;" horiz-adv-x="2379" 
d="M627 -10l-529 1501h215l404 -1200l395 1204h164l395 -1204l406 1200h207l-529 -1501h-168l-397 1167l-395 -1167h-168zM858 1620l242 262h180l242 -262h-174l-160 127l-160 -127h-170z" />
    <glyph glyph-name="wcircumflex" unicode="&#x175;" horiz-adv-x="1849" 
d="M471 -8l-379 1116h201l270 -850l283 854h162l282 -854l273 850h196l-381 -1116h-170l-282 837l-285 -837h-170zM604 1268l234 288h172l233 -288h-160l-161 143l-162 -143h-156z" />
    <glyph glyph-name="Ycircumflex" unicode="&#x176;" horiz-adv-x="1542" 
d="M672 0v590l-613 901h236l477 -721l481 721h230l-613 -897v-594h-198zM438 1614l242 262h180l242 -262h-174l-160 127l-160 -127h-170z" />
    <glyph glyph-name="ycircumflex" unicode="&#x177;" horiz-adv-x="1280" 
d="M352 -180q78 0 125 41t90 141l-491 1106h209l374 -893l336 893h203l-457 -1143q-71 -172 -155 -243q-84 -70 -209 -70t-248 61l66 148q79 -41 157 -41zM324 1268l233 288h172l234 -288h-160l-162 143l-162 -143h-155z" />
    <glyph glyph-name="Ydieresis" unicode="&#x178;" horiz-adv-x="1542" 
d="M672 0v590l-613 901h236l477 -721l481 721h230l-613 -897v-594h-198zM868 1614v207h217v-207h-217zM457 1614v207h219v-207h-219z" />
    <glyph glyph-name="Zacute" unicode="&#x179;" horiz-adv-x="1499" 
d="M150 0v137l940 1180h-910v174h1172v-137l-940 -1180h940v-174h-1202zM686 1620l223 285l187 -84l-252 -201h-158z" />
    <glyph glyph-name="zacute" unicode="&#x17a;" horiz-adv-x="1204" 
d="M125 0v127l706 821h-681v160h935v-127l-706 -819h706v-162h-960zM532 1268l207 319l189 -86l-248 -233h-148z" />
    <glyph glyph-name="Zdotaccent" unicode="&#x17b;" horiz-adv-x="1499" 
d="M150 0v137l940 1180h-910v174h1172v-137l-940 -1180h940v-174h-1202zM653 1620v207h226v-207h-226z" />
    <glyph glyph-name="zdotaccent" unicode="&#x17c;" horiz-adv-x="1204" 
d="M125 0v127l706 821h-681v160h935v-127l-706 -819h706v-162h-960zM500 1268v219h221v-219h-221z" />
    <glyph glyph-name="Zcaron" unicode="&#x17d;" horiz-adv-x="1499" 
d="M150 0v137l940 1180h-910v174h1172v-137l-940 -1180h940v-174h-1202zM1098 1882l-242 -262h-180l-242 262h174l160 -125l160 125h170z" />
    <glyph glyph-name="zcaron" unicode="&#x17e;" horiz-adv-x="1204" 
d="M125 0v127l706 821h-681v160h935v-127l-706 -819h706v-162h-960zM930 1556l-234 -288h-172l-233 288h160l161 -143l162 143h156z" />
    <glyph glyph-name="florin" unicode="&#x192;" horiz-adv-x="1120" 
d="M209 -10q-72 0 -113 8v162q39 -8 90 -8q133 0 164 157l86 475h-196v164h225l45 236q31 164 112 240t212 77q131 0 200 -22v-164q-86 20 -156 20q-144 0 -176 -184l-38 -203h297v-164h-326l-92 -499q-27 -155 -108 -225t-226 -70z" />
    <glyph glyph-name="Aringacute" unicode="&#x1fa;" horiz-adv-x="1699" 
d="M608 1595q0 91 71 153t171 62t171 -62t71 -153q0 -121 -111 -182l633 -1413h-209l-170 385h-778l-170 -385h-203l633 1413q-109 61 -109 182zM530 561h631l-315 711zM849 1466q60 0 100 37t40 91t-40 92t-100 36q-60 0 -100 -36t-40 -92q0 -54 40 -91t100 -37zM762 1872
l225 254l184 -84l-253 -170h-156z" />
    <glyph glyph-name="aringacute" unicode="&#x1fb;" horiz-adv-x="1253" 
d="M512 -25q-166 1 -287 93t-121 251v5q0 172 128 265t320 93t349 -47v37q0 137 -82 210q-83 72 -239 72t-322 -77l-55 153q207 94 426 94t338 -119t118 -333v-672h-186v158q-143 -183 -387 -183zM295 330q1 -94 75 -150t203 -55q129 0 230 79q100 79 100 202v96
q-145 47 -295 47t-232 -57q-81 -57 -81 -158v-4zM629 1346q59 0 102 43t43 102t-43 102t-102 43t-103 -43t-43 -102q-1 -59 43 -102t103 -43zM629 1264q-96 0 -166 66t-70 161q0 94 70 161q70 66 166 66t166 -66q69 -66 69 -161q0 -94 -69 -161q-70 -66 -166 -66zM549 1782
l215 276l184 -88l-248 -188h-151z" />
    <glyph glyph-name="AEacute" unicode="&#x1fc;" horiz-adv-x="2242" 
d="M2097 1491v-178h-848v-473h752v-178h-752v-484h858v-178h-1054v385h-584l-223 -385h-205l864 1491h1192zM1053 561v756h-49l-439 -756h488zM1264 1620l223 285l186 -84l-252 -201h-157z" />
    <glyph glyph-name="aeacute" unicode="&#x1fd;" horiz-adv-x="2045" 
d="M549 127q211 0 377 180q-37 98 -43 197q-156 45 -293 45t-216 -57t-79 -158v-4q1 -94 73 -148t181 -55zM522 -25q-174 1 -296 93t-122 251v5q0 172 126 265t312 93t341 -47v37q0 137 -78 210q-77 72 -229 72t-318 -77l-55 153q203 94 399 94q311 0 402 -221
q68 105 176 167t237 63q242 0 380 -169t138 -421q0 -37 -2 -60h-860q17 -162 121 -254t248 -92q188 0 334 150l116 -105q-180 -207 -454 -207q-133 -1 -248 55t-191 156q-215 -211 -477 -211zM1073 621h668q-13 153 -99 251t-226 98t-234 -97q-94 -98 -109 -252zM942 1268
l207 319l188 -86l-247 -233h-148z" />
    <glyph glyph-name="Oslashacute" unicode="&#x1fe;" horiz-adv-x="1826" 
d="M915 152q244 0 404 171t160 418v2q0 215 -125 379l-779 -858q150 -112 340 -112zM348 748q0 -217 125 -381l776 858q-147 115 -338 114q-243 0 -403 -171t-160 -418v-2zM1679 745q0 -317 -217 -543t-551 -227q-260 0 -458 146l-121 -131h-203l211 233q-193 215 -193 518
v4q-1 317 217 543t551 228q258 0 459 -148l121 133h203l-211 -233q193 -219 192 -518v-5zM834 1640l223 285l186 -84l-252 -201h-157z" />
    <glyph glyph-name="oslashacute" unicode="&#x1ff;" horiz-adv-x="1400" 
d="M702 139q170 0 280 119t110 291v2q0 135 -76 248l-541 -588q100 -72 227 -72zM309 555q0 -139 74 -248l543 586q-100 74 -228 74q-172 0 -280 -119t-109 -291v-2zM1282 557v-4q0 -238 -168 -408t-416 -170q-190 0 -340 105l-86 -90h-186l170 184q-137 156 -137 375v4
q0 238 168 409t415 171q190 0 338 -107l88 96h187l-172 -188q139 -158 139 -377zM623 1268l206 319l189 -86l-248 -233h-147z" />
    <glyph glyph-name="Scommaaccent" unicode="&#x218;" horiz-adv-x="1380" 
d="M598 -338v188h209v-161q0 -207 -236 -230l-14 70q74 12 107 45t28 88h-94zM727 -20q-348 0 -612 237l121 143q229 -205 497 -204q141 0 228 64q86 65 86 169v4q0 101 -77 159q-76 58 -318 111t-360 149t-118 282v4q0 180 140 297t356 116q301 0 528 -184l-111 -151
q-199 160 -421 159q-133 0 -214 -62t-81 -157v-4q0 -104 80 -164q81 -60 321 -113q240 -55 356 -153t115 -270v-4q0 -195 -143 -312q-144 -116 -373 -116z" />
    <glyph glyph-name="scommaaccent" unicode="&#x219;" horiz-adv-x="1079" 
d="M440 -334v189h209v-162q1 -207 -235 -230l-15 70q74 12 107 45t29 88h-95zM555 -20q-256 0 -463 161l94 135q186 -139 377 -139q94 0 153 43q58 43 58 115v4q0 76 -83 117q-70 37 -168 64q-97 28 -146 46t-109 54q-120 73 -121 219v4q0 147 108 236t275 89
q213 0 402 -124l-84 -142q-170 106 -324 107q-90 0 -143 -41t-53 -105v-4q0 -95 189 -153q141 -43 203 -68q160 -63 208 -152q29 -53 28 -124v-5q0 -161 -112 -249t-289 -88z" />
    <glyph glyph-name="schwa" unicode="&#x259;" horiz-adv-x="1284" 
d="M973 487h-668q12 -153 98 -251q87 -98 227 -98t234 97q94 98 109 252zM608 1135q236 0 398 -162t161 -416v-4q-1 -242 -153 -410t-388 -168t-376 169q-139 169 -139 421q0 37 2 60h858q-17 162 -119 254t-248 92q-188 0 -334 -150l-116 105q182 209 454 209z" />
    <glyph glyph-name="circumflex" unicode="&#x2c6;" horiz-adv-x="1081" 
d="M221 1268l234 288h172l233 -288h-160l-161 143l-162 -143h-156z" />
    <glyph glyph-name="caron" unicode="&#x2c7;" horiz-adv-x="1081" 
d="M860 1556l-233 -288h-172l-234 288h160l162 -143l162 143h155z" />
    <glyph glyph-name="breve" unicode="&#x2d8;" horiz-adv-x="1081" 
d="M541 1264q-139 0 -230 73q-90 74 -100 205h137q43 -133 193 -133t192 133h137q-10 -130 -100 -204t-229 -74z" />
    <glyph glyph-name="dotaccent" unicode="&#x2d9;" horiz-adv-x="1081" 
d="M430 1268v219h221v-219h-221z" />
    <glyph glyph-name="ring" unicode="&#x2da;" horiz-adv-x="1081" 
d="M541 1346q59 0 102 43t43 102t-43 102t-102 43t-103 -43t-43 -102q-1 -59 43 -102t103 -43zM541 1264q-96 0 -166 66t-70 161q0 94 70 161q70 66 166 66t166 -66q69 -66 69 -161q0 -94 -69 -161q-70 -66 -166 -66z" />
    <glyph glyph-name="ogonek" unicode="&#x2db;" horiz-adv-x="1081" 
d="M721 -350l-37 -2q-133 2 -205 50q-71 48 -71 132t129 201l131 -21q-102 -90 -103 -160q0 -90 156 -96v-104z" />
    <glyph glyph-name="tilde" unicode="&#x2dc;" horiz-adv-x="1081" 
d="M704 1268q-70 0 -172 43t-137 43t-59 -24t-47 -83l-113 33q33 125 82 180q48 56 118 56t170 -42t138 -42q36 0 60 22t49 82l112 -33q-33 -125 -82 -180t-119 -55z" />
    <glyph glyph-name="hungarumlaut" unicode="&#x2dd;" horiz-adv-x="1081" 
d="M516 1268l209 319l180 -84l-241 -235h-148zM186 1268l205 319l180 -84l-239 -235h-146z" />
    <glyph glyph-name="commaaccent" unicode="&#x326;" horiz-adv-x="1081" 
d="M436 -334v189h209v-162q1 -207 -235 -230l-15 70q74 12 107 45t28 88h-94z" />
    <glyph glyph-name="baht" unicode="&#xe3f;" horiz-adv-x="1376" 
d="M745 164q158 0 247 68t89 190v2q0 120 -90 188t-258 66h-16l-72 -514h100zM371 164h151l72 514h-223v-514zM1030 1087q0 95 -58 157t-165 77l-70 -496q137 4 215 72t78 188v2zM371 825h245l72 502h-317v-502zM190 0v1491h512l25 170h141l-26 -176q170 -23 270 -121
t100 -248v-2q0 -248 -251 -346q303 -96 303 -358v-2q0 -193 -142 -302t-381 -106h-110l-35 -252h-139l32 252h-299z" />
    <glyph glyph-name="Wgrave" unicode="&#x1e80;" horiz-adv-x="2379" 
d="M627 -10l-529 1501h215l404 -1200l395 1204h164l395 -1204l406 1200h207l-529 -1501h-168l-397 1167l-395 -1167h-168zM1270 1620h-156l-254 201l189 84z" />
    <glyph glyph-name="wgrave" unicode="&#x1e81;" horiz-adv-x="1849" 
d="M471 -8l-379 1116h201l270 -850l283 854h162l282 -854l273 850h196l-381 -1116h-170l-282 837l-285 -837h-170zM854 1268l-248 233l189 86l206 -319h-147z" />
    <glyph glyph-name="Wacute" unicode="&#x1e82;" horiz-adv-x="2379" 
d="M627 -10l-529 1501h215l404 -1200l395 1204h164l395 -1204l406 1200h207l-529 -1501h-168l-397 1167l-395 -1167h-168zM1110 1620l223 285l187 -84l-252 -201h-158z" />
    <glyph glyph-name="wacute" unicode="&#x1e83;" horiz-adv-x="1849" 
d="M471 -8l-379 1116h201l270 -850l283 854h162l282 -854l273 850h196l-381 -1116h-170l-282 837l-285 -837h-170zM848 1268l207 319l188 -86l-248 -233h-147z" />
    <glyph glyph-name="Wdieresis" unicode="&#x1e84;" horiz-adv-x="2379" 
d="M627 -10l-529 1501h215l404 -1200l395 1204h164l395 -1204l406 1200h207l-529 -1501h-168l-397 1167l-395 -1167h-168zM1288 1620v207h217v-207h-217zM877 1620v207h219v-207h-219z" />
    <glyph glyph-name="wdieresis" unicode="&#x1e85;" horiz-adv-x="1849" 
d="M471 -8l-379 1116h201l270 -850l283 854h162l282 -854l273 850h196l-381 -1116h-170l-282 837l-285 -837h-170zM1010 1268v217h213v-217h-213zM625 1268v217h213v-217h-213z" />
    <glyph glyph-name="Ygrave" unicode="&#x1ef2;" horiz-adv-x="1542" 
d="M672 0v590l-613 901h236l477 -721l481 721h230l-613 -897v-594h-198zM850 1614h-156l-254 201l189 83z" />
    <glyph glyph-name="ygrave" unicode="&#x1ef3;" horiz-adv-x="1280" 
d="M352 -180q78 0 125 41t90 141l-491 1106h209l374 -893l336 893h203l-457 -1143q-71 -172 -155 -243q-84 -70 -209 -70t-248 61l66 148q79 -41 157 -41zM573 1268l-247 233l188 86l207 -319h-148z" />
    <glyph glyph-name="enspace" unicode="&#x2002;" horiz-adv-x="1024" 
 />
    <glyph glyph-name="emspace" unicode="&#x2003;" horiz-adv-x="2048" 
 />
    <glyph glyph-name="threeperemspace" unicode="&#x2004;" horiz-adv-x="681" 
 />
    <glyph glyph-name="fourperemspace" unicode="&#x2005;" horiz-adv-x="512" 
 />
    <glyph glyph-name="figurespace" unicode="&#x2007;" horiz-adv-x="1290" 
 />
    <glyph glyph-name="thinspace" unicode="&#x2009;" horiz-adv-x="272" 
 />
    <glyph glyph-name="hairspace" unicode="&#x200a;" horiz-adv-x="153" 
 />
    <glyph glyph-name="endash" unicode="&#x2013;" horiz-adv-x="1140" 
d="M139 551v186h862v-186h-862z" />
    <glyph glyph-name="emdash" unicode="&#x2014;" horiz-adv-x="1929" 
d="M139 551v186h1649v-186h-1649z" />
    <glyph glyph-name="quoteleft" unicode="&#x2018;" horiz-adv-x="552" 
d="M156 981v211q0 141 64 214q65 73 200 95l24 -86q-166 -49 -153 -188h86v-246h-221z" />
    <glyph glyph-name="quoteright" unicode="&#x2019;" horiz-adv-x="552" 
d="M176 1245v246h223v-209q0 -141 -63 -215q-64 -73 -201 -96l-26 86q168 51 155 188h-88z" />
    <glyph glyph-name="quotesinglbase" unicode="&#x201a;" horiz-adv-x="552" 
d="M166 0v246h223v-211q0 -141 -64 -214q-65 -72 -200 -95l-27 86q168 49 156 188h-88z" />
    <glyph glyph-name="quotedblleft" unicode="&#x201c;" horiz-adv-x="999" 
d="M602 981v211q0 141 64 214t198 95l27 -86q-166 -49 -154 -188h86v-246h-221zM156 981v211q0 141 64 214q65 73 200 95l24 -86q-166 -49 -153 -188h86v-246h-221z" />
    <glyph glyph-name="quotedblright" unicode="&#x201d;" horiz-adv-x="999" 
d="M623 1245v246h223v-209q0 -140 -64 -214t-200 -97l-27 86q168 51 156 188h-88zM176 1245v246h223v-209q0 -141 -63 -215q-64 -73 -201 -96l-26 86q168 51 155 188h-88z" />
    <glyph glyph-name="quotedblbase" unicode="&#x201e;" horiz-adv-x="999" 
d="M612 0v246h224v-211q0 -141 -65 -213t-200 -96l-26 86q168 49 155 188h-88zM166 0v246h223v-211q0 -141 -64 -214q-65 -72 -200 -95l-27 86q168 49 156 188h-88z" />
    <glyph glyph-name="dagger" unicode="&#x2020;" horiz-adv-x="888" 
d="M381 508l14 594l-262 -17v127l260 -16l-20 295h143l-20 -295l260 16v-127l-262 17l14 -594h-127z" />
    <glyph glyph-name="daggerdbl" unicode="&#x2021;" horiz-adv-x="931" 
d="M395 0l21 295l-260 -16v127l260 -17l-15 356l15 357l-260 -17v127l260 -16l-21 295h142l-19 -295l258 16v-127l-260 17l14 -357l-14 -356l260 17v-127l-258 16l19 -295h-142z" />
    <glyph glyph-name="bullet" unicode="&#x2022;" horiz-adv-x="1042" 
d="M521 465q-118 0 -202 82t-83 201v4q0 118 85 200t201 82t200 -83q85 -83 85 -199v-4q0 -117 -84 -200t-202 -83z" />
    <glyph glyph-name="ellipsis" unicode="&#x2026;" horiz-adv-x="1601" 
d="M1219 0v240h217v-240h-217zM692 0v240h217v-240h-217zM166 0v240h217v-240h-217z" />
    <glyph glyph-name="perthousand" unicode="&#x2030;" horiz-adv-x="2607" 
d="M1348 115q80 1 131 71t51 174v5q0 104 -54 176q-54 71 -136 71t-132 -70q-51 -70 -51 -173v-4q0 -106 55 -179q56 -71 136 -71zM1962 365q0 -106 54 -178t135 -72q81 1 131 71t51 174v5q-1 104 -55 176q-54 71 -134 71t-131 -70t-51 -173v-4zM1686 365q0 -157 -96 -269
t-248 -112t-246 110t-95 266v5q-1 157 97 269t248 112t244 -112q94 -110 96 -265v-4zM2146 -16q-150 0 -244 110t-96 266v5q0 157 96 269t246 112q149 0 246 -111q96 -111 96 -266v-4q0 -157 -97 -269t-247 -112zM272 1126q0 -106 54 -176t136 -71q81 1 132 71t51 172v4
q0 104 -55 178t-135 72q-80 0 -131 -72t-52 -174v-4zM1532 1491l-580 -784l-512 -707h-170l578 780l514 711h170zM457 745q-150 0 -245 111t-95 266v4q0 158 96 270q95 112 245 112t247 -111q96 -111 96 -267v-4q0 -156 -97 -268t-247 -113z" />
    <glyph glyph-name="guilsinglleft" unicode="&#x2039;" horiz-adv-x="731" 
d="M465 90l-356 455v18l356 457l137 -76l-276 -387l276 -391z" />
    <glyph glyph-name="guilsinglright" unicode="&#x203a;" horiz-adv-x="731" 
d="M266 90l-137 74l279 389l-279 389l137 78l357 -457v-18z" />
    <glyph glyph-name="fraction" unicode="&#x2044;" horiz-adv-x="229" 
d="M-455 0l531 768l483 723h125l-530 -768l-484 -723h-125z" />
    <glyph glyph-name="zero.sup" unicode="&#x2070;" 
d="M623 1321q1 141 -53 228t-141 87t-139 -87t-52 -228v-10q0 -141 52 -227t140 -87q88 0 140 86t53 228v10zM750 1315q0 -190 -92 -311t-231 -121q-140 1 -228 119t-88 309v6q0 193 89 313t230 121q141 0 230 -120t90 -310v-6z" />
    <glyph glyph-name="four.sup" unicode="&#x2074;" 
d="M535 1186v407l-308 -407h308zM649 1085v-186h-117v186h-401l-22 111l407 545h133v-553h115v-103h-115z" />
    <glyph glyph-name="five.sup" unicode="&#x2075;" 
d="M422 883q-170 0 -309 133l80 90q111 -111 233 -111q80 0 131 45t51 114t-51 110t-138 41t-171 -39l-82 47l31 416h497v-117h-395l-16 -226q70 29 178 29q108 -1 191 -69t83 -188t-88 -198t-225 -77z" />
    <glyph glyph-name="six.sup" unicode="&#x2076;" 
d="M602 1161q0 76 -46 122t-125 46t-129 -46t-50 -122v-2q0 -72 51 -121t126 -48t124 48t49 123zM723 1167q0 -123 -84 -203t-211 -81q-127 0 -209 82q-104 104 -104 321v4q0 207 94 334q95 127 241 127t250 -94l-67 -94q-86 75 -174 75q-89 0 -151 -84t-66 -211
q86 91 206 91t198 -72t77 -195z" />
    <glyph glyph-name="seven.sup" unicode="&#x2077;" 
d="M147 1610v119h578v-95l-369 -735h-141l367 711h-435z" />
    <glyph glyph-name="eight.sup" unicode="&#x2078;" 
d="M431 1276q-83 0 -136 -41t-53 -105t52 -105q52 -40 137 -40t137 40q52 41 52 105t-52 105q-54 41 -137 41zM598 1511q0 59 -47 97t-120 39q-73 0 -120 -37q-47 -38 -47 -98t47 -99t120 -39t120 39t47 98zM430 883q-135 1 -221 67t-86 174q0 137 147 207q-125 61 -125 189
q0 100 83 166t204 66t202 -66t81 -166q0 -125 -125 -189q150 -66 149 -203q0 -111 -87 -178t-222 -67z" />
    <glyph glyph-name="nine.sup" unicode="&#x2079;" 
d="M432 1749q127 0 209 -82q104 -104 104 -321v-5q0 -209 -93 -333q-92 -124 -244 -125q-152 0 -261 98l68 94q88 -82 182 -82t156 80q61 80 63 205q-84 -88 -202 -88t-198 73q-79 73 -79 197t84 207q84 82 211 82zM429 1294q79 0 129 47t50 125v2q0 74 -51 124t-126 49
t-124 -49t-49 -127t46 -125t125 -46z" />
    <glyph glyph-name="zero.inf" unicode="&#x2080;" 
d="M623 137q1 141 -53 229t-141 87q-87 0 -139 -87t-52 -229v-10q0 -141 52 -227t140 -86t140 86t53 227v10zM750 131q0 -190 -92 -311t-231 -121q-140 0 -228 119t-88 309v6q0 193 89 313t230 121q141 0 230 -120t90 -310v-6z" />
    <glyph glyph-name="one.inf" unicode="&#x2081;" horiz-adv-x="700" 
d="M461 -281h-123v709l-178 -68l-35 107l240 92h96v-840z" />
    <glyph glyph-name="two.inf" unicode="&#x2082;" 
d="M127 -281v107l303 260q88 74 124 125t36 108t-43 95t-107 39q-119 0 -213 -138l-92 66q125 186 314 186q117 -1 193 -69t77 -161q0 -93 -43 -158t-148 -152l-231 -195h428v-113h-598z" />
    <glyph glyph-name="three.inf" unicode="&#x2083;" 
d="M424 -301q-186 0 -315 145l79 86q104 -121 238 -120q70 0 117 40t47 107q0 65 -56 103t-149 38h-76l-20 78l258 256h-389v113h547v-99l-259 -251q121 -9 196 -69t75 -172t-84 -184t-209 -71z" />
    <glyph glyph-name="four.inf" unicode="&#x2084;" 
d="M535 2v408l-308 -408h308zM649 -98v-187h-117v187h-401l-22 110l407 545h133v-553h115v-102h-115z" />
    <glyph glyph-name="five.inf" unicode="&#x2085;" 
d="M422 -301q-170 0 -309 133l80 90q111 -111 233 -110q80 0 131 45t51 113t-51 110q-51 41 -138 41t-171 -39l-82 47l31 416h497v-117h-395l-16 -225q70 29 178 29t191 -70q83 -68 83 -188t-88 -198t-225 -77z" />
    <glyph glyph-name="six.inf" unicode="&#x2086;" 
d="M252 -25q0 -72 51 -121t126 -48q75 0 124 48t49 124t-46 121q-46 46 -125 46t-129 -46t-50 -122v-2zM428 -301q-127 0 -209 82q-104 104 -104 321v4q0 207 94 334q95 127 241 127t250 -94l-67 -94q-86 76 -174 76q-89 0 -151 -84t-66 -211q86 90 206 90t198 -72t77 -194
q0 -122 -84 -204q-84 -81 -211 -81z" />
    <glyph glyph-name="seven.inf" unicode="&#x2087;" 
d="M147 426v119h578v-94l-369 -736h-141l367 711h-435z" />
    <glyph glyph-name="eight.inf" unicode="&#x2088;" 
d="M431 92q-83 0 -136 -41t-53 -105t52 -104t137 -41q85 0 137 40t52 105q0 66 -52 106q-54 40 -137 40zM431 463q-73 0 -120 -37t-47 -97q0 -59 47 -99t120 -40t120 39t47 99t-47 97q-47 38 -120 38zM430 -301q-135 0 -221 67t-86 175q0 137 147 206q-125 61 -125 189
q0 100 83 166t204 66t202 -66t81 -166q0 -125 -125 -189q150 -66 149 -202q0 -111 -87 -179t-222 -67z" />
    <glyph glyph-name="nine.inf" unicode="&#x2089;" 
d="M432 565q127 0 209 -82q104 -104 104 -321v-4q0 -209 -93 -334q-92 -125 -244 -125t-261 98l68 94q88 -81 182 -81t156 79q61 80 63 205q-84 -88 -202 -88t-198 73q-79 73 -79 197t84 207q84 82 211 82zM429 111q79 0 129 47t50 125v2q0 74 -51 124t-126 49t-124 -49
t-49 -127t46 -125t125 -46z" />
    <glyph glyph-name="colonmonetary" unicode="&#x20a1;" horiz-adv-x="1310" 
d="M113 735v19q-1 300 155 498t400 235l26 174h115l-25 -166q96 -2 183 -29l30 195h115l-37 -238q74 -39 135 -92l-82 -157q-47 41 -88 69l-168 -1075q119 29 250 149l99 -127q-172 -162 -367 -188l-39 -254h-115l37 250q-106 4 -182 31l-43 -281h-115l49 328
q-154 88 -243 260q-90 172 -90 399zM295 733q0 -322 186 -475l164 1059q-158 -43 -254 -193t-96 -374v-17zM764 1333h-10l-179 -1136q86 -39 193 -39l178 1136q-88 39 -182 39z" />
    <glyph glyph-name="naira" unicode="&#x20a6;" horiz-adv-x="1779" 
d="M1683 473h-213v-473h-215l-292 473h-469v-473h-185v473h-213v131h213v291h-213v131h213v465h234l284 -465h459v465h184v-465h213v-131h-213v-291h213v-131zM1288 276v621h-389l385 -621h4zM492 1239v-637h399l-395 637h-4z" />
    <glyph glyph-name="rupee" unicode="&#x20a8;" horiz-adv-x="2328" 
d="M1825 -20q-242 0 -445 153l88 133q180 -133 363 -133q90 0 150 43t61 113v6q0 59 -51 98t-221 95t-254 128q-82 72 -82 193v4q0 141 106 228t286 87t363 -118l-75 -142q-168 106 -312 107q-88 0 -142 -42t-54 -106v-4q0 -61 55 -102t224 -95t250 -126t81 -193v-4
q0 -151 -112 -237t-279 -86zM180 0v1491h520q238 0 377 -123t140 -332v-6q-1 -166 -93 -278t-243 -158l385 -594h-222l-358 559h-319v-559h-187zM367 725h321q154 0 247 80t93 217v6q0 141 -90 216t-250 75h-321v-594z" />
    <glyph glyph-name="won" unicode="&#x20a9;" horiz-adv-x="2375" 
d="M2288 1018v-135h-265l-73 -271h338v-135h-377l-133 -483h-226l-139 483h-450l-138 -483h-225l-135 483h-375v135h338l-76 271h-262v135h223l-131 473h213l119 -473h430l133 477h232l131 -477h430l121 473h202l-131 -473h226zM715 203h10l184 684h-366zM1661 203h10
l168 684h-366zM1184 1274l-187 -666h381l-184 666h-10z" />
    <glyph glyph-name="sheqel" unicode="&#x20aa;" horiz-adv-x="1345" 
d="M846 162h188v946h156v-1108h-346q-150 0 -230 72t-104 225l-66 424h121l60 -361q16 -102 69 -150t152 -48zM750 745q0 201 -209 201h-230v-946h-155v1108h405q309 0 309 -299v-408h-120v344z" />
    <glyph glyph-name="Euro" unicode="&#x20ac;" horiz-adv-x="1550" 
d="M904 1341q-128 0 -228 -90t-150 -243h523v-148h-553q-6 -55 -7 -112v-3q0 -68 5 -100h555v-147h-527q47 -162 155 -256t255 -92q112 0 196 58t166 175l142 -100q-98 -145 -219 -227t-289 -81q-227 1 -389 143t-220 380h-194v147h170q-4 33 -4 98v2q0 57 6 115h-172v148
h199q63 227 221 368q158 140 354 140q195 0 317 -75t216 -212l-150 -111q-80 115 -165 169t-213 54z" />
    <glyph glyph-name="peso" unicode="&#x20b1;" horiz-adv-x="1572" 
d="M725 653q164 0 267 76t120 205h-627v-281h240zM485 1319v-266h625q-18 129 -120 197t-261 69h-244zM293 0v928h-213v129h213v434h457q238 0 388 -118t167 -316h208v-129h-208q-19 -209 -185 -327t-401 -118h-230v-483h-196z" />
    <glyph glyph-name="published" unicode="&#x2117;" horiz-adv-x="1783" 
d="M756 741h172q88 0 139 40t51 110v4q0 72 -49 110t-137 37h-176v-301zM627 362v797h315q141 1 225 -69t84 -191v-4q0 -129 -93 -199t-232 -69h-170v-265h-129zM891 45q295 0 497 205t201 495v5q1 292 -199 494t-496 202t-498 -205t-201 -496v-4q1 -291 201 -493t495 -203z
M1663 745q0 -317 -225 -543t-548 -227q-323 1 -546 225t-223 541v4q0 317 226 543t548 228q322 0 545 -224t223 -542v-5z" />
    <glyph glyph-name="servicemark" unicode="&#x2120;" horiz-adv-x="1519" 
d="M362 823q-164 0 -286 107l59 74q109 -92 232 -93q63 0 101 28t38 70q0 41 -35 65t-143 48t-165 66q-57 41 -57 124t66 137t190 54t228 -86l-58 -74q-92 70 -192 70q-59 0 -95 -27q-36 -26 -36 -66t36 -65q37 -25 143 -49t163 -66q57 -44 57 -126t-70 -136t-176 -55z
M762 836v655h110l222 -344l223 344h106v-655h-100v491l-225 -344h-11l-225 344v-491h-100z" />
    <glyph glyph-name="trademark" unicode="&#x2122;" horiz-adv-x="1486" 
d="M727 836v655h111l223 -344l221 344h109v-655h-103v491l-223 -344h-12l-224 344v-491h-102zM270 836v559h-207v96h521v-96h-209v-559h-105z" />
    <glyph glyph-name="Omega" unicode="&#x2126;" horiz-adv-x="1867" 
d="M934 1516q338 0 543 -199t204 -506v-2q0 -377 -372 -639l417 2v-172h-641v166q190 127 290 270q99 143 100 357v2q-1 239 -149 391t-393 150t-393 -150q-148 -150 -149 -389v-2q1 -205 101 -353t290 -276v-166h-643v172l420 -2q-182 131 -277 285t-96 356v2q0 193 90 353
t262 254q172 96 396 96z" />
    <glyph glyph-name="onethird" unicode="&#x2153;" horiz-adv-x="1775" 
d="M1354 -20q-186 0 -316 145l80 86q104 -121 238 -121q70 0 117 41t47 107t-56 104t-149 37h-76l-20 78l258 256h-390v112h547v-98l-258 -252q121 -10 196 -69t75 -171q0 -111 -84 -183t-209 -72zM244 0l530 768l483 723h125l-530 -768l-483 -723h-125zM459 666h-123v708
l-178 -67l-35 106l239 90h97v-837z" />
    <glyph glyph-name="twothirds" unicode="&#x2154;" horiz-adv-x="1935" 
d="M1513 -20q-186 0 -315 145l80 86q104 -121 238 -121q70 0 116 41t47 107q0 66 -56 104t-148 37h-76l-21 78l258 256h-389v112h547v-98l-258 -252q121 -10 196 -69q74 -59 74 -171q0 -111 -84 -183t-209 -72zM397 0l531 768l483 723h125l-530 -768l-484 -723h-125z
M111 666v106l303 260q88 76 124 125t36 107t-44 97q-43 38 -106 38q-119 0 -213 -137l-92 65q61 92 134 138t185 46q112 1 188 -67t76 -161t-43 -158t-147 -152l-231 -195h428v-112h-598z" />
    <glyph glyph-name="onefifth" unicode="&#x2155;" horiz-adv-x="1775" 
d="M1352 -20q-170 0 -310 133l80 90q111 -111 234 -111q80 0 131 45t51 114t-51 109t-138 41q-87 0 -171 -39l-82 48l30 415h498v-116h-395l-17 -226q70 29 178 29t192 -69q83 -69 83 -189t-88 -196q-88 -78 -225 -78zM256 0l530 768l484 723h125l-531 -768l-483 -723h-125z
M459 666h-123v708l-178 -67l-35 106l239 90h97v-837z" />
    <glyph glyph-name="twofifths" unicode="&#x2156;" horiz-adv-x="1935" 
d="M1511 -20q-170 0 -309 133l80 90q111 -111 234 -111q80 0 131 45t51 114t-51 109t-139 41q-88 0 -171 -39l-82 48l31 415h498v-116h-395l-17 -226q70 29 178 29t192 -69q83 -69 83 -189t-88 -197q-89 -77 -226 -77zM418 0l530 768l484 723h124l-530 -768l-483 -723h-125z
M111 666v106l303 260q88 76 124 125t36 107t-44 97q-43 38 -106 38q-119 0 -213 -137l-92 65q61 92 134 138t185 46q112 1 188 -67t76 -161t-43 -158t-147 -152l-231 -195h428v-112h-598z" />
    <glyph glyph-name="threefifths" unicode="&#x2157;" horiz-adv-x="1935" 
d="M1511 -20q-170 0 -309 133l80 90q111 -111 234 -111q80 0 131 45t51 114t-51 109t-139 41q-88 0 -171 -39l-82 48l31 415h498v-116h-395l-17 -226q70 29 178 29t192 -69q83 -69 83 -189t-88 -197q-89 -77 -226 -77zM408 643q-186 0 -316 148l80 86q104 -121 238 -121
q70 0 116 41t47 107q0 66 -56 103q-56 38 -148 37h-76l-21 76l258 256h-389v115h547v-98l-258 -252q121 -9 196 -69q74 -60 74 -172t-84 -184t-208 -73zM387 0l531 768l483 723h125l-531 -768l-483 -723h-125z" />
    <glyph glyph-name="fourfifths" unicode="&#x2158;" horiz-adv-x="1935" 
d="M1511 -20q-170 0 -309 133l80 90q111 -111 234 -111q80 0 131 45t51 114t-51 109t-139 41q-88 0 -171 -39l-82 48l31 415h498v-116h-395l-17 -226q70 29 178 29t192 -69q83 -69 83 -189t-88 -197q-89 -77 -226 -77zM518 948v408l-307 -408h307zM418 0l530 768l484 723
h124l-530 -768l-483 -723h-125zM633 848v-186h-117v186h-401l-23 110l408 543h133v-551h115v-102h-115z" />
    <glyph glyph-name="onesixth" unicode="&#x2159;" horiz-adv-x="1775" 
d="M1532 258q0 76 -46 122t-125 46t-129 -46t-50 -122v-2q0 -72 51 -121t126 -48t124 48t49 123zM1653 264q0 -124 -84 -204t-211 -80t-209 81q-104 104 -105 322v4q0 207 94 334t242 127q146 0 250 -94l-67 -95q-87 76 -175 76t-150 -84t-67 -211q86 90 206 90t198 -72
t78 -194zM270 0l531 768l483 723h125l-530 -768l-484 -723h-125zM459 666h-123v708l-178 -67l-35 106l239 90h97v-837z" />
    <glyph glyph-name="fivesixths" unicode="&#x215a;" horiz-adv-x="1935" 
d="M1521 426q-79 0 -129 -46t-51 -122v-2q-1 -72 51 -121t127 -48t123 48t50 123q0 76 -46 122t-125 46zM1518 -20q-127 0 -209 81q-104 104 -105 322v4q0 207 94 334t240 127t252 -94l-68 -95q-86 76 -174 76t-150 -84t-67 -211q86 90 206 90t198 -72q77 -72 77 -194
q0 -123 -83 -204q-84 -80 -211 -80zM390 643q-152 0 -294 135l80 90q111 -111 234 -110q80 0 131 45t51 114t-51 109t-139 41q-88 0 -171 -41l-81 49l30 416h498v-117h-395l-17 -225q66 27 176 27t194 -68q83 -68 83 -188t-88 -199q-89 -78 -241 -78zM397 0l531 768l483 723
h125l-530 -768l-484 -723h-125z" />
    <glyph glyph-name="oneeighth" unicode="&#x215b;" horiz-adv-x="1775" 
d="M1361 373q-83 0 -136 -41q-53 -42 -53 -106t52 -104t137 -40t137 40t52 104t-53 106q-53 41 -136 41zM1528 608q0 59 -47 97t-120 38q-73 -1 -120 -37t-47 -96t47 -100q47 -39 120 -39t120 39t47 98zM1360 -20q-135 0 -221 66t-86 175q0 137 147 207q-125 63 -125 188
q0 100 83 166t204 66t202 -66t81 -166q0 -125 -125 -188q150 -66 149 -203q0 -111 -87 -178t-222 -67zM266 0l531 768l483 723h125l-531 -768l-483 -723h-125zM459 666h-123v708l-178 -67l-35 106l239 90h97v-837z" />
    <glyph glyph-name="threeeighths" unicode="&#x215c;" horiz-adv-x="1935" 
d="M1521 373q-83 0 -137 -41q-54 -42 -53 -106q0 -64 52 -104q51 -40 137 -40t138 40t52 104t-53 106q-53 41 -136 41zM1521 471q73 0 119 39t48 98q0 59 -47 97t-120 38q-73 -1 -120 -37t-47 -96t47 -100q47 -39 120 -39zM1520 -20q-135 0 -222 66q-86 67 -86 175
q0 137 148 207q-125 63 -125 188q0 100 83 166t204 66q122 0 202 -66t80 -166q0 -125 -125 -188q150 -66 150 -203q0 -111 -87 -178t-222 -67zM408 643q-186 0 -316 148l80 86q104 -121 238 -121q70 0 116 41t47 107q0 66 -56 103q-56 38 -148 37h-76l-21 76l258 256h-389
v115h547v-98l-258 -252q121 -9 196 -69q74 -60 74 -172t-84 -184t-208 -73zM397 0l531 768l483 723h125l-530 -768l-484 -723h-125z" />
    <glyph glyph-name="fiveeighths" unicode="&#x215d;" horiz-adv-x="1935" 
d="M1521 373q-83 0 -137 -41q-54 -42 -53 -106q0 -64 52 -104q51 -40 137 -40t138 40t52 104t-53 106q-53 41 -136 41zM1521 471q73 0 119 39t48 98q0 59 -47 97t-120 38q-73 -1 -120 -37t-47 -96t47 -100q47 -39 120 -39zM1520 -20q-135 0 -222 66q-86 67 -86 175
q0 137 148 207q-125 63 -125 188q0 100 83 166t204 66q122 0 202 -66t80 -166q0 -125 -125 -188q150 -66 150 -203q0 -111 -87 -178t-222 -67zM390 643q-152 0 -294 135l80 90q111 -111 234 -110q80 0 131 45t51 114t-51 109t-139 41q-88 0 -171 -41l-81 49l30 416h498v-117
h-395l-17 -225q66 27 176 27t194 -68q83 -68 83 -188t-88 -199q-89 -78 -241 -78zM397 0l531 768l483 723h125l-530 -768l-484 -723h-125z" />
    <glyph glyph-name="seveneighths" unicode="&#x215e;" horiz-adv-x="1935" 
d="M1521 373q-83 0 -137 -41q-54 -42 -53 -106q0 -64 52 -104q51 -40 137 -40t138 40t52 104t-53 106q-53 41 -136 41zM1521 471q73 0 119 39t48 98q0 59 -47 97t-120 38q-73 -1 -120 -37t-47 -96t47 -100q47 -39 120 -39zM1520 -20q-135 0 -222 66q-86 67 -86 175
q0 137 148 207q-125 63 -125 188q0 100 83 166t204 66q122 0 202 -66t80 -166q0 -125 -125 -188q150 -66 150 -203q0 -111 -87 -178t-222 -67zM152 1372v119h577v-94l-369 -735h-141l367 710h-434zM334 0l530 768l484 723h125l-531 -768l-483 -723h-125z" />
    <glyph glyph-name="Delta" unicode="&#x2206;" horiz-adv-x="1695" 
d="M846 1282l-514 -1104h1022zM127 0l-16 145l637 1356h200l637 -1356l-16 -145h-1442z" />
    <glyph glyph-name="minus" unicode="&#x2212;" horiz-adv-x="1353" 
d="M1200 657h-1046v185h1046v-185z" />
    <glyph glyph-name="f_f" unicode="&#xfb00;" horiz-adv-x="1593" 
d="M246 0v940h-150v164h150v92q0 188 94 283q90 86 242 86q106 0 188 -29v-166q-86 29 -156 29q-178 0 -178 -215v-80h332v-164h-330v-940h-192zM1034 0v940h-149v164h149v92q0 188 94 283q90 86 242 86q106 0 189 -29v-166q-86 29 -156 29q-178 0 -178 -215v-80h331v-164
h-329v-940h-193z" />
    <glyph glyph-name="fi" unicode="&#xfb01;" horiz-adv-x="1380" 
d="M989 0v1108h191v-1108h-191zM246 0v940h-150v164h150v92q0 188 94 283q90 86 242 86q106 0 188 -29v-166q-86 29 -156 29q-178 0 -178 -215v-80h332v-164h-330v-940h-192zM977 1329v201h215v-201h-215z" />
    <glyph glyph-name="fl" unicode="&#xfb02;" horiz-adv-x="1380" 
d="M246 0v940h-150v164h150v92q0 188 94 283q90 86 242 86q106 0 188 -29v-166q-86 29 -156 29q-178 0 -178 -215v-80h332v-164h-330v-940h-192zM987 0v1554h191v-1554h-191z" />
    <glyph glyph-name="f_f_i" unicode="&#xfb03;" horiz-adv-x="2168" 
d="M1776 0v1108h190v-1108h-190zM246 0v940h-150v164h150v92q0 188 94 283q90 86 242 86q106 0 188 -29v-166q-86 29 -156 29q-178 0 -178 -215v-80h332v-164h-330v-940h-192zM1034 0v940h-149v164h149v92q0 188 94 283q90 86 242 86q106 0 189 -29v-166q-86 29 -156 29
q-178 0 -178 -215v-80h331v-164h-329v-940h-193zM1763 1329v201h215v-201h-215z" />
    <glyph glyph-name="f_f_l" unicode="&#xfb04;" horiz-adv-x="2168" 
d="M246 0v940h-150v164h150v92q0 188 94 283q90 86 242 86q106 0 188 -29v-166q-86 29 -156 29q-178 0 -178 -215v-80h332v-164h-330v-940h-192zM1034 0v940h-149v164h149v92q0 188 94 283q90 86 242 86q106 0 189 -29v-166q-86 29 -156 29q-178 0 -178 -215v-80h331v-164
h-329v-940h-193zM1776 0v1554h190v-1554h-190z" />
    <glyph glyph-name="Q.alt" horiz-adv-x="1826" 
d="M915 156q242 0 401 170t159 415v4q0 246 -161 418t-403 172q-243 0 -401 -170t-158 -415v-5q0 -245 160 -417t403 -172zM147 741v4q-1 317 217 543t552 228q334 0 548 -224q215 -224 215 -542v-5q-1 -175 -71 -329t-197 -262l375 -361v-8h-295l-268 252
q-150 -61 -312 -62q-334 1 -549 225t-215 541z" />
    <glyph glyph-name="a.alt" horiz-adv-x="1435" 
d="M647 -25q-211 0 -367 158t-157 418v4q0 262 157 420t367 158q248 0 412 -226v201h190v-1108h-190v211q-164 -236 -412 -236zM319 553q-1 -180 107 -294t261 -114t265 115t111 293v4q0 176 -113 291q-112 115 -266 115t-259 -111t-106 -295v-4z" />
    <glyph glyph-name="uni0439.bgr" horiz-adv-x="1331" 
d="M584 -25q-196 0 -306 120t-110 319v694h192v-641q0 -147 76 -231t210 -84t221 90t87 235v631h191v-1108h-191v186q-134 -211 -370 -211zM655 1264q-139 0 -229 74t-100 204h137q43 -133 193 -133t192 133h137q-10 -131 -100 -205q-91 -73 -230 -73z" />
    <glyph glyph-name="aacute.alt" horiz-adv-x="1435" 
d="M647 -25q-211 0 -367 158t-157 418v4q0 262 157 420t367 158q248 0 412 -226v201h190v-1108h-190v211q-164 -236 -412 -236zM319 553q-1 -180 107 -294t261 -114t265 115t111 293v4q0 176 -113 291q-112 115 -266 115t-259 -111t-106 -295v-4zM649 1268l207 319l188 -86
l-247 -233h-148z" />
    <glyph glyph-name="abreve.alt" horiz-adv-x="1435" 
d="M647 -25q-211 0 -367 158t-157 418v4q0 262 157 420t367 158q248 0 412 -226v201h190v-1108h-190v211q-164 -236 -412 -236zM319 553q-1 -180 107 -294t261 -114t265 115t111 293v4q0 176 -113 291q-112 115 -266 115t-259 -111t-106 -295v-4zM727 1264q-139 0 -229 74
t-101 204h138q43 -133 193 -133t192 133h137q-11 -130 -101 -204t-229 -74z" />
    <glyph glyph-name="acircumflex.alt" horiz-adv-x="1435" 
d="M647 -25q-211 0 -367 158t-157 418v4q0 262 157 420t367 158q248 0 412 -226v201h190v-1108h-190v211q-164 -236 -412 -236zM319 553q-1 -180 107 -294t261 -114t265 115t111 293v4q0 176 -113 291q-112 115 -266 115t-259 -111t-106 -295v-4zM408 1268l233 288h172
l234 -288h-160l-162 143l-162 -143h-155z" />
    <glyph glyph-name="adieresis.alt" horiz-adv-x="1435" 
d="M647 -25q-211 0 -367 158t-157 418v4q0 262 157 420t367 158q248 0 412 -226v201h190v-1108h-190v211q-164 -236 -412 -236zM319 553q-1 -180 107 -294t261 -114t265 115t111 293v4q0 176 -113 291q-112 115 -266 115t-259 -111t-106 -295v-4zM813 1268v217h213v-217
h-213zM428 1268v217h213v-217h-213z" />
    <glyph glyph-name="agrave.alt" horiz-adv-x="1435" 
d="M647 -25q-211 0 -367 158t-157 418v4q0 262 157 420t367 158q248 0 412 -226v201h190v-1108h-190v211q-164 -236 -412 -236zM319 553q-1 -180 107 -294t261 -114t265 115t111 293v4q0 176 -113 291q-112 115 -266 115t-259 -111t-106 -295v-4zM655 1268l-247 233l188 86
l207 -319h-148z" />
    <glyph glyph-name="amacron.alt" horiz-adv-x="1435" 
d="M647 -25q-211 0 -367 158t-157 418v4q0 262 157 420t367 158q248 0 412 -226v201h190v-1108h-190v211q-164 -236 -412 -236zM319 553q-1 -180 107 -294t261 -114t265 115t111 293v4q0 176 -113 291q-112 115 -266 115t-259 -111t-106 -295v-4zM385 1305v149h684v-149
h-684z" />
    <glyph glyph-name="aogonek.alt" horiz-adv-x="1435" 
d="M319 553q-1 -180 107 -294t261 -114t265 115t111 293v4q0 176 -113 291q-112 115 -266 115t-259 -111t-106 -295v-4zM1059 0v211q-164 -236 -412 -236q-211 0 -367 158t-157 418v4q0 262 157 420t367 158q248 0 412 -226v201h190v-1108h-37q-90 -82 -90 -150
q0 -90 156 -96v-104l-37 -2q-133 2 -205 50t-72 130t97 172h-2z" />
    <glyph glyph-name="aring.alt" horiz-adv-x="1435" 
d="M647 -25q-211 0 -367 158t-157 418v4q0 262 157 420t367 158q248 0 412 -226v201h190v-1108h-190v211q-164 -236 -412 -236zM319 553q-1 -180 107 -294t261 -114t265 115t111 293v4q0 176 -113 291q-112 115 -266 115t-259 -111t-106 -295v-4zM727 1346q59 0 102 43
t43 102t-43 102t-102 43t-102 -43t-43 -102t43 -102t102 -43zM727 1264q-96 0 -166 66t-69 161q0 94 69 161q70 66 166 66t166 -66t70 -161t-70 -161t-166 -66z" />
    <glyph glyph-name="aring.alt2" horiz-adv-x="1253" 
d="M512 -25q-166 1 -287 93t-121 251v5q0 172 128 265t320 93t349 -47v37q0 137 -82 210q-83 72 -239 72t-322 -77l-55 153q129 61 262 84q-72 62 -72 156t70 161t166 67t166 -68q69 -66 69 -164t-84 -162q111 -27 191 -103q115 -115 114 -329v-672h-186v158
q-143 -183 -387 -183zM295 330q1 -94 75 -150t203 -55q129 0 230 79q100 79 100 202v96q-145 47 -295 47t-232 -57q-81 -57 -81 -158v-4zM483 1270q0 -58 43 -102q42 -44 102 -44t103 43t43 103t-43 102q-43 43 -102 43t-103 -43t-43 -102z" />
    <glyph glyph-name="aringacute.alt" horiz-adv-x="1435" 
d="M647 -25q-211 0 -367 158t-157 418v4q0 262 157 420t367 158q248 0 412 -226v201h190v-1108h-190v211q-164 -236 -412 -236zM319 553q-1 -180 107 -294t261 -114t265 115t111 293v4q0 176 -113 291q-112 115 -266 115t-259 -111t-106 -295v-4zM727 1346q59 0 102 43
t43 102t-43 102t-102 43t-102 -43t-43 -102t43 -102t102 -43zM727 1264q-96 0 -166 66t-69 161q0 94 69 161q70 66 166 66t166 -66t70 -161t-70 -161t-166 -66zM647 1782l215 276l185 -88l-248 -188h-152z" />
    <glyph glyph-name="aringacute.alt2" horiz-adv-x="1253" 
d="M512 -25q-166 1 -287 93t-121 251v5q0 172 128 265t320 93t349 -47v37q0 137 -82 210q-83 72 -239 72t-322 -77l-55 153q129 61 262 84q-72 62 -72 156t70 161t166 67t166 -68q69 -66 69 -164t-84 -162q111 -27 191 -103q115 -115 114 -329v-672h-186v158
q-143 -183 -387 -183zM295 330q1 -94 75 -150t203 -55q129 0 230 79q100 79 100 202v96q-145 47 -295 47t-232 -57q-81 -57 -81 -158v-4zM483 1270q0 -58 43 -102q42 -44 102 -44t103 43t43 103t-43 102q-43 43 -102 43t-103 -43t-43 -102zM549 1573l215 276l184 -88
l-248 -188h-151z" />
    <glyph glyph-name="atilde.alt" horiz-adv-x="1435" 
d="M647 -25q-211 0 -367 158t-157 418v4q0 262 157 420t367 158q248 0 412 -226v201h190v-1108h-190v211q-164 -236 -412 -236zM319 553q-1 -180 107 -294t261 -114t265 115t111 293v4q0 176 -113 291q-112 115 -266 115t-259 -111t-106 -295v-4zM900 1268q-70 0 -172 43
t-138 43q-35 0 -59 -24t-48 -83l-112 33q33 125 82 180q49 56 119 56t169 -42q100 -42 137 -42t61 22t48 82l113 -33q-33 -125 -82 -180q-48 -55 -118 -55z" />
    <glyph glyph-name="i.dot" horiz-adv-x="591" 
d="M201 0v1108h190v-1108h-190zM188 1329v201h215v-201h-215z" />
    <glyph glyph-name="three.alt" horiz-adv-x="1306" 
d="M664 -25q-174 0 -320 72t-248 195l144 123q176 -213 428 -213q141 0 228 72t87 188v4q0 120 -99 186t-278 66h-155v168h159q150 0 241 70t91 186v4q0 106 -83 175t-218 68q-209 0 -371 -206l-141 108q201 274 516 275q219 0 356 -112t138 -286v-4q0 -248 -248 -350
q289 -98 289 -348v-4q0 -186 -142 -312t-374 -125z" />
    <glyph glyph-name="registered.alt" horiz-adv-x="1783" 
d="M588 369v796h354q156 0 240 -84q61 -61 61 -157v-4q0 -94 -53 -154t-146 -82l238 -315h-156l-219 295h-192v-295h-127zM715 776h219q82 0 131 37t49 100v5q0 61 -47 96t-129 35h-223v-273zM891 45q295 0 497 205t201 495v5q1 292 -199 494t-496 202t-498 -205t-201 -496
v-4q1 -291 201 -493t495 -203zM1663 745q0 -317 -225 -543t-548 -227q-323 1 -546 225t-223 541v4q0 317 226 543t548 228q322 0 545 -224t223 -542v-5z" />
    <glyph glyph-name="one.sup_alt" 
d="M750 903h-588v109h241v600l-210 -78l-33 106l270 103h96v-731h224v-109z" />
    <glyph glyph-name="one.inf_alt" 
d="M750 -281h-588v109h241v600l-210 -78l-33 107l270 102h96v-731h224v-109z" />
    <glyph glyph-name="zero.num" 
d="M428 1397q-88 0 -139 -86t-51 -228v-10q0 -141 52 -228t140 -87t140 87t53 228v10q1 139 -53 227t-142 87zM428 643q-141 0 -229 120t-88 310v6q0 189 89 311t230 122t230 -120q89 -118 90 -309v-6q0 -190 -90 -312t-232 -122z" />
    <glyph glyph-name="one.num" horiz-adv-x="700" 
d="M461 666h-123v708l-178 -67l-35 106l240 90h96v-837z" />
    <glyph glyph-name="one.num_alt" 
d="M750 666h-588v108h241v600l-210 -78l-33 107l270 100h96v-729h224v-108z" />
    <glyph glyph-name="two.num" 
d="M127 666v106l303 260q88 76 124 125t36 107t-43 97q-43 38 -107 38q-119 0 -213 -137l-92 65q61 92 134 138t185 46q112 1 188 -67t77 -161q0 -93 -43 -158t-148 -152l-231 -195h428v-112h-598z" />
    <glyph glyph-name="three.num" 
d="M424 643q-186 0 -315 148l79 86q104 -121 238 -121q70 0 117 41t47 107t-56 103q-56 38 -149 37h-76l-20 76l258 256h-389v115h547v-98l-259 -252q121 -9 196 -69t75 -172t-84 -184t-209 -73z" />
    <glyph glyph-name="four.num" 
d="M535 948v408l-308 -408h308zM649 848v-186h-117v186h-401l-22 110l407 543h133v-551h115v-102h-115z" />
    <glyph glyph-name="five.num" 
d="M406 643q-152 0 -293 135l80 90q111 -111 233 -110q80 0 131 45t51 114t-51 109t-139 41q-88 0 -170 -41l-82 49l31 416h497v-117h-395l-16 -225q66 27 176 27t193 -68t83 -188t-88 -199q-89 -78 -241 -78z" />
    <glyph glyph-name="six.num" 
d="M602 924q0 76 -46 122t-125 46t-129 -46t-50 -122v-2q0 -72 51 -121t126 -48t124 48t49 123zM428 645q-127 0 -209 82q-104 104 -104 322v4q0 207 94 333q93 126 241 125q148 0 250 -92l-67 -94q-86 76 -174 76q-89 0 -151 -84t-66 -211q84 88 205 88t199 -72t77 -194
q0 -122 -84 -202q-84 -81 -211 -81z" />
    <glyph glyph-name="seven.num" 
d="M147 1372v119h578v-94l-369 -735h-141l367 710h-435z" />
    <glyph glyph-name="eight.num" 
d="M242 892q0 -64 52 -104t137 -40t137 40t52 104q0 66 -52 106q-54 40 -137 40t-136 -41t-53 -105zM431 1409q-73 0 -120 -37t-47 -97t47 -99t120 -39t120 39t47 98t-47 97t-120 38zM430 643q-135 0 -221 68t-86 176q0 137 147 207q-125 61 -125 188q0 100 83 165t204 65
t202 -66t81 -164q0 -125 -125 -188q150 -66 149 -203q0 -111 -87 -179t-222 -69z" />
    <glyph glyph-name="nine.num" 
d="M137 1223q0 125 84 207t211 81q127 0 209 -81q104 -104 104 -322v-4q0 -211 -93 -336q-94 -125 -244 -125t-261 100l68 95q88 -82 182 -82t156 80q61 80 63 204q-84 -88 -202 -88t-198 73q-79 73 -79 198zM429 1057q79 0 129 47t50 125v2q0 74 -51 124t-126 49t-124 -49
t-49 -127t46 -125t125 -46z" />
    <glyph glyph-name="zero.den" 
d="M623 418q1 141 -53 228t-141 87t-139 -87t-52 -228v-10q0 -142 52 -228t140 -86t140 86t53 228v10zM750 412q0 -190 -92 -311t-231 -121q-140 0 -228 118t-88 310v6q0 194 89 314t230 120t230 -120t90 -310v-6z" />
    <glyph glyph-name="one.den" horiz-adv-x="700" 
d="M461 0h-123v709l-178 -68l-35 107l240 92h96v-840z" />
    <glyph glyph-name="one.den_alt" 
d="M750 0h-588v109h241v600l-210 -78l-33 106l270 103h96v-731h224v-109z" />
    <glyph glyph-name="two.den" 
d="M127 0v106l303 261q88 74 124 125t36 108t-43 95t-107 38q-119 0 -213 -137l-92 66q125 186 314 186q117 0 193 -69t77 -162q0 -93 -43 -157t-148 -153l-231 -194h428v-113h-598z" />
    <glyph glyph-name="three.den" 
d="M424 -20q-186 0 -315 145l79 86q104 -121 238 -121q70 0 117 41t47 107t-56 104t-149 37h-76l-20 78l258 256h-389v112h547v-98l-259 -252q121 -10 196 -69t75 -171q0 -111 -84 -183t-209 -72z" />
    <glyph glyph-name="four.den" 
d="M535 283v407l-308 -407h308zM649 182v-186h-117v186h-401l-22 111l407 545h133v-553h115v-103h-115z" />
    <glyph glyph-name="five.den" 
d="M422 -20q-170 0 -309 133l80 90q111 -111 233 -111q80 0 131 45t51 114t-51 109t-138 41q-87 0 -171 -39l-82 48l31 415h497v-116h-395l-16 -226q70 29 178 29t191 -69t83 -189t-88 -196q-88 -78 -225 -78z" />
    <glyph glyph-name="six.den" 
d="M602 258q0 76 -46 122t-125 46t-129 -46t-50 -122v-2q0 -72 51 -121t126 -48t124 48t49 123zM723 264q0 -124 -84 -204t-211 -80t-209 81q-104 104 -104 322v4q0 207 94 334q95 127 241 127t250 -94l-67 -95q-86 76 -174 76q-89 0 -151 -84t-66 -211q86 90 206 90
t198 -72t77 -194z" />
    <glyph glyph-name="seven.den" 
d="M147 707v118h578v-94l-369 -735h-141l367 711h-435z" />
    <glyph glyph-name="eight.den" 
d="M431 373q-83 0 -136 -41q-53 -42 -53 -106t52 -104t137 -40t137 40t52 104t-52 106q-54 41 -137 41zM598 608q0 59 -47 97t-120 38q-73 -1 -120 -37t-47 -96t47 -100q47 -39 120 -39t120 39t47 98zM430 -20q-135 0 -221 66t-86 175q0 137 147 207q-125 63 -125 188
q0 100 83 166t204 66t202 -66t81 -166q0 -125 -125 -188q150 -66 149 -203q0 -111 -87 -178t-222 -67z" />
    <glyph glyph-name="nine.den" 
d="M432 846q127 0 209 -82q104 -104 104 -322v-4q0 -209 -93 -334q-92 -124 -244 -124t-261 98l68 94q88 -82 182 -82t156 80q61 80 63 205q-84 -88 -202 -88q-118 1 -198 73q-79 72 -79 197t84 207t211 82zM429 391q79 0 129 47t50 125v2q0 74 -51 124t-126 49t-124 -49
t-49 -127t46 -125t125 -46z" />
    <glyph glyph-name="onehalf.alt" horiz-adv-x="1935" 
d="M1217 0v106l303 261q88 74 124 125t36 108t-44 95q-43 38 -106 38q-119 0 -213 -137l-92 66q125 186 313 186q117 0 194 -69q76 -69 76 -162t-43 -157t-147 -153l-232 -194h429v-113h-598zM440 0l531 768l483 723h125l-530 -768l-484 -723h-125zM743 666h-587v108h241
v600l-211 -78l-32 107l270 100h96v-729h223v-108z" />
    <glyph glyph-name="onethird.alt" horiz-adv-x="1935" 
d="M1513 -20q-186 0 -315 145l80 86q104 -121 238 -121q70 0 116 41t47 107q0 66 -56 104t-148 37h-76l-21 78l258 256h-389v112h547v-98l-258 -252q121 -10 196 -69q74 -59 74 -171q0 -111 -84 -183t-209 -72zM418 0l530 768l484 723h124l-530 -768l-483 -723h-125z
M743 666h-587v108h241v600l-211 -78l-32 107l270 100h96v-729h223v-108z" />
    <glyph glyph-name="onequarter.alt" horiz-adv-x="1935" 
d="M1604 283v407l-308 -407h308zM1718 182v-186h-116v186h-402l-22 111l407 545h133v-553h115v-103h-115zM451 0l530 768l483 723h125l-530 -768l-484 -723h-124zM743 666h-587v108h241v600l-211 -78l-32 107l270 100h96v-729h223v-108z" />
    <glyph glyph-name="onefifth.alt" horiz-adv-x="1935" 
d="M1511 -20q-170 0 -309 133l80 90q111 -111 234 -111q80 0 131 45t51 114t-51 109t-139 41q-88 0 -171 -39l-82 48l31 415h498v-116h-395l-17 -226q70 29 178 29t192 -69q83 -69 83 -189t-88 -197q-89 -77 -226 -77zM430 0l531 768l483 723h125l-531 -768l-483 -723h-125z
M743 666h-587v108h241v600l-211 -78l-32 107l270 100h96v-729h223v-108z" />
    <glyph glyph-name="onesixth.alt" horiz-adv-x="1935" 
d="M1521 426q-79 0 -129 -46t-51 -122v-2q-1 -72 51 -121t127 -48t123 48t50 123q0 76 -46 122t-125 46zM1518 -20q-127 0 -209 81q-104 104 -105 322v4q0 207 94 334t240 127t252 -94l-68 -95q-86 76 -174 76t-150 -84t-67 -211q86 90 206 90t198 -72q77 -72 77 -194
q0 -123 -83 -204q-84 -80 -211 -80zM430 0l531 768l483 723h125l-531 -768l-483 -723h-125zM743 666h-587v108h241v600l-211 -78l-32 107l270 100h96v-729h223v-108z" />
    <glyph glyph-name="oneeighth.alt" horiz-adv-x="1935" 
d="M1521 373q-83 0 -137 -41q-54 -42 -53 -106q0 -64 52 -104q51 -40 137 -40t138 40t52 104t-53 106q-53 41 -136 41zM1521 471q73 0 119 39t48 98q0 59 -47 97t-120 38q-73 -1 -120 -37t-47 -96t47 -100q47 -39 120 -39zM1520 -20q-135 0 -222 66q-86 67 -86 175
q0 137 148 207q-125 63 -125 188q0 100 83 166t204 66q122 0 202 -66t80 -166q0 -125 -125 -188q150 -66 150 -203q0 -111 -87 -178t-222 -67zM430 0l531 768l483 723h125l-531 -768l-483 -723h-125zM743 666h-587v108h241v600l-211 -78l-32 107l270 100h96v-729h223v-108z
" />
    <glyph glyph-name="zero.tab" horiz-adv-x="1290" 
d="M645 1346q-152 0 -246 -154t-94 -434v-21q0 -281 94 -437t246 -155q152 0 246 155t94 433v21q0 280 -94 436t-246 156zM1178 737q0 -348 -150 -555t-386 -207q-237 0 -383 204t-146 554v21q0 350 148 556t385 206t384 -205t148 -553v-21z" />
    <glyph glyph-name="one.tab" horiz-adv-x="1290" 
d="M1202 0h-1018v168h434v1128l-385 -135l-49 162l486 178h137v-1333h395v-168z" />
    <glyph glyph-name="two.tab" horiz-adv-x="1290" 
d="M1149 0h-1034v152l524 471q165 153 231 247t66 207t-82 187t-201 74t-208 -62q-89 -61 -177 -193l-137 109q109 162 229 241q121 79 317 79t328 -120q132 -118 132 -307v-4q0 -145 -76 -260t-256 -276l-412 -369h756v-176z" />
    <glyph glyph-name="three.tab" horiz-adv-x="1290" 
d="M635 -25q-328 0 -535 244l129 137q182 -205 410 -204q129 0 222 76t93 202v4q0 125 -97 192t-267 66h-129l-47 123l471 502h-715v174h958v-160l-466 -489q213 -6 351 -106t138 -294v-4q1 -203 -149 -333t-367 -130z" />
    <glyph glyph-name="three.tab_alt" horiz-adv-x="1290" 
d="M639 -25q-166 0 -307 70t-236 191l135 120q166 -209 416 -209q145 0 236 73q90 73 90 195q1 123 -99 189t-280 66h-150v166h166q150 0 242 70t92 185q0 117 -82 185t-219 67q-223 0 -385 -204l-133 106q195 270 522 271q221 0 357 -112t135 -292q0 -246 -256 -350
q283 -100 282 -356q0 -186 -146 -309q-147 -122 -380 -122z" />
    <glyph glyph-name="four.tab" horiz-adv-x="1290" 
d="M838 496v792l-578 -792h578zM836 0v340h-721l-41 174l717 985h225v-1001h205v-158h-205v-340h-180z" />
    <glyph glyph-name="five.tab" horiz-adv-x="1290" 
d="M631 -25q-295 0 -527 224l119 141q203 -193 412 -193q152 0 246 85t94 223v4q0 133 -94 214t-250 81t-312 -78l-126 82l51 733h858v-178h-696l-33 -449q139 59 284 60q219 0 365 -123t147 -334v-4q-1 -217 -153 -353t-385 -135z" />
    <glyph glyph-name="six.tab" horiz-adv-x="1290" 
d="M983 471v2q0 141 -88 229q-87 88 -233 87t-237 -93t-91 -229v-2q0 -141 94 -235t235 -92q141 1 231 95q89 94 89 238zM698 948q201 0 338 -126t138 -339v-4q0 -219 -146 -361t-368 -142q-221 0 -357 139q-92 90 -135 221t-43 358v11q0 367 157 589t441 222
q219 0 395 -150l-98 -152q-148 127 -292 127t-238 -89q-174 -164 -175 -490v-8q131 194 383 194z" />
    <glyph glyph-name="seven.tab" horiz-adv-x="1290" 
d="M154 1311v180h1013v-150l-661 -1341h-219l659 1311h-792z" />
    <glyph glyph-name="eight.tab" horiz-adv-x="1290" 
d="M645 139q158 0 250 77t92 194v4q0 120 -98 194q-99 74 -245 74t-244 -75t-99 -193v-4q0 -117 93 -194t251 -77zM645 840q127 0 214 72t87 188v4q0 106 -85 177t-216 71t-216 -71t-85 -177v-4q0 -112 87 -186t214 -74zM645 -23q-231 0 -383 118t-151 304v7q0 129 74 222
q75 93 206 144q-236 117 -235 340v6q0 172 142 284t347 112t347 -112t143 -284v-6q0 -221 -238 -340q283 -113 283 -362v-7q0 -190 -152 -308t-383 -118z" />
    <glyph glyph-name="nine.tab" horiz-adv-x="1290" 
d="M117 1001v5q0 223 145 366q146 144 368 144t357 -140q92 -90 135 -221t43 -358v-11q-1 -366 -157 -588t-441 -223q-229 0 -415 160l98 152q164 -137 309 -137t240 89q174 164 178 482h-2q-139 -195 -385 -193q-201 0 -337 128t-136 345zM307 1014v-2q0 -144 87 -234
t234 -89q148 1 238 95t90 234v2q0 142 -94 238t-235 95t-231 -97t-89 -242z" />
    <glyph glyph-name="dollar.tab" horiz-adv-x="1290" 
d="M1169 410v-2q0 -182 -140 -297t-359 -113h-25l-31 -250h-143l33 266q-221 41 -402 191l95 141q158 -137 335 -178l60 510q-222 56 -324 154t-102 258v2q0 178 134 290t343 111q27 0 41 -2l23 170h141l-23 -186q166 -35 312 -144l-86 -145q-131 98 -252 129l-60 -494
q221 -55 325 -154t105 -257zM993 397q0 93 -62 153t-214 99l-62 -495h23q143 0 230 68t85 173v2zM342 1100q0 -86 60 -148t212 -102l60 485q-14 2 -41 2q-133 1 -213 -65t-78 -170v-2z" />
    <glyph glyph-name="sterling.tab" horiz-adv-x="1290" 
d="M299 788v226q0 238 133 372q129 125 332 125q250 0 414 -200l-134 -127q-123 150 -278 149q-115 0 -193 -73q-82 -82 -81 -246v-226h532v-161h-532v-457h686v-170h-1043v115l164 47v465h-166v161h166z" />
    <glyph glyph-name="Euro.tab" horiz-adv-x="1290" 
d="M84 862v137h174q52 233 196 375t349 142q240 0 401 -201l-121 -127q-125 162 -284 162q-129 0 -220 -94t-133 -257h457v-137h-479q-4 -35 -4 -108v-13q0 -35 4 -100h479v-137h-459q37 -166 129 -264t222 -99q95 0 163 41t136 127l116 -112q-172 -221 -424 -222
q-201 1 -344 143t-190 386h-168v137h154q-4 31 -5 96v17q0 53 7 108h-156z" />
    <glyph glyph-name="yen.tab" horiz-adv-x="1290" 
d="M188 367h365v202h-365v138h326l-471 784h215l389 -684l391 684h209l-475 -784h330v-138h-365v-202h365v-138h-365v-229h-184v229h-365v138z" />
    <glyph glyph-name="cent.tab" horiz-adv-x="1290" 
d="M700 342q195 0 355 170l110 -104q-199 -223 -475 -224h-35l-39 -196h-151l45 223q-168 55 -272 201t-105 333v5q0 238 165 408t409 169h28l35 176h152l-41 -198q156 -41 278 -179l-112 -120q-106 113 -205 143l-162 -807h20zM313 743q0 -133 65 -232t173 -142l158 800h-2
q-170 1 -282 -119t-112 -302v-5z" />
    <glyph glyph-name="numbersign.tab" horiz-adv-x="1290" 
d="M74 532h213l61 435h-205v161h230l51 363h154l-54 -363h348l52 363h155l-51 -363h189v-161h-213l-62 -435h205v-161h-227l-54 -371h-155l53 371h-346l-53 -371h-154l53 371h-190v161zM500 971l-62 -443h350l64 443h-352z" />
    <glyph glyph-name="paragraph.tab" horiz-adv-x="1290" 
d="M854 0v551h-125q-262 0 -426 123t-164 342v2q0 219 162 347t426 126h326v-1491h-199z" />
    <glyph glyph-name="section.tab" horiz-adv-x="1290" 
d="M670 131q88 0 137 36t49 91v2q0 59 -64 102q-65 43 -270 100q-205 56 -303 126t-98 180v2q0 94 74 158t198 80q-143 86 -143 221v2q0 121 105 202t270 78q276 0 458 -178l-104 -125q-162 152 -358 152q-87 0 -137 -36t-50 -91v-2q0 -59 65 -103t269 -100t303 -126
q98 -70 98 -179v-2q0 -94 -73 -158q-74 -63 -199 -80q143 -86 143 -221v-2q0 -122 -105 -202t-269 -78q-276 0 -459 178l104 125q162 -152 359 -152zM295 793v-2q0 -57 57 -99t216 -83q159 -42 239 -43t134 36t54 96v2q0 56 -57 98q-58 42 -216 84t-238 43t-134 -36t-55 -96
z" />
    <glyph glyph-name="degree.tab" horiz-adv-x="1290" 
d="M942 1081v2q0 125 -86 213t-213 87t-211 -88t-84 -214v-2q0 -125 86 -213t214 -87t211 87t83 215zM209 1081v2q0 174 131 301t308 126t305 -127t128 -302v-2q0 -174 -131 -301t-308 -126t-305 127t-128 302z" />
    <glyph glyph-name="percent.tab" horiz-adv-x="1290" 
d="M963 618q-61 0 -96 -67q-34 -68 -33 -178v-27q0 -110 34 -178t94 -68q62 0 96 68t34 178v27q0 111 -34 178t-95 67zM963 733q113 0 183 -102t68 -264v-13q0 -162 -70 -265t-182 -103t-182 101t-69 263v15q0 162 69 265q70 103 183 103zM328 1391q-62 0 -96 -68t-33 -178
v-27q-1 -110 33 -178t96 -68t95 68q34 68 34 178v27q0 111 -34 179t-95 67zM973 1491h119l-408 -766l-367 -725h-118l407 766zM328 1505q112 0 182 -101t70 -263v-15q0 -162 -70 -265t-182 -103t-183 102q-70 102 -69 264v13q0 162 69 265q70 103 183 103z" />
    <glyph glyph-name="quotedbl.tab" horiz-adv-x="1290" 
d="M1079 1491v-10l-239 -586h-103l115 596h227zM602 1491v-10l-240 -586h-104l117 596h227z" />
    <glyph glyph-name="quotesingle.tab" horiz-adv-x="645" 
d="M520 1491v-10l-239 -586h-107l117 596h229z" />
    <glyph glyph-name="period.tab" horiz-adv-x="645" 
d="M201 0v262h245v-262h-245z" />
    <glyph glyph-name="comma.tab" horiz-adv-x="645" 
d="M201 0v262h245v-227q0 -139 -68 -212q-69 -72 -206 -97l-27 86q166 49 154 188h-98z" />
    <glyph glyph-name="colon.tab" horiz-adv-x="645" 
d="M203 0v258h241v-258h-241zM203 850v258h241v-258h-241z" />
    <glyph glyph-name="semicolon.tab" horiz-adv-x="645" 
d="M203 0v258h241v-223q0 -139 -67 -212q-68 -72 -205 -97l-27 86q166 49 154 188h-96zM203 850v258h241v-258h-241z" />
    <glyph glyph-name="twodotleader.tab" horiz-adv-x="1290" 
d="M848 0v246h233v-246h-233zM209 0v246h233v-246h-233z" />
    <glyph glyph-name="periodcentered.tab" horiz-adv-x="645" 
d="M201 514v260h245v-260h-245z" />
    <glyph glyph-name="slash.tab" horiz-adv-x="1290" 
d="M1249 1700l-1065 -1972h-174l1065 1972h174z" />
    <glyph glyph-name="bar.tab" horiz-adv-x="645" 
d="M244 -272v1972h159v-1972h-159z" />
    <glyph glyph-name="underscore.tab" horiz-adv-x="1290" 
d="M2 -340v154h1286v-154h-1286z" />
    <glyph glyph-name="plus.tab" horiz-adv-x="1290" 
d="M1147 664h-414l2 -422h-180l2 422h-414v174l414 -2l-2 424h180l-2 -424l414 2v-174z" />
    <glyph glyph-name="minus.tab" horiz-adv-x="1290" 
d="M1147 657h-1004v185h1004v-185z" />
    <glyph glyph-name="divide.tab" horiz-adv-x="1290" 
d="M528 203v235h234v-235h-234zM1147 664h-1004v172h1004v-172zM528 1061v235h234v-235h-234z" />
    <glyph glyph-name="equal.tab" horiz-adv-x="1290" 
d="M1112 414h-934v174h934v-174zM1112 911h-934v176h934v-176z" />
    <glyph glyph-name="multiply.tab" horiz-adv-x="1290" 
d="M997 270l-354 361l-354 -361l-123 123l360 355l-360 354l127 127l354 -361l354 361l123 -123l-360 -354l360 -355z" />
    <glyph glyph-name="less.tab" horiz-adv-x="1290" 
d="M1094 184l-949 484v166l949 481v-187l-758 -376l758 -379v-189z" />
    <glyph glyph-name="greater.tab" horiz-adv-x="1290" 
d="M1145 668l-948 -484v187l757 377l-757 378v189l948 -481v-166z" />
    <glyph glyph-name="plusminus.tab" horiz-adv-x="1290" 
d="M1147 0h-1004v168h1004v-168zM1147 780h-414l2 -405h-180l2 405h-414v174h414l-2 406h180l-2 -406h414v-174z" />
    <glyph glyph-name="R_p" horiz-adv-x="2555" 
d="M1464 -340v1454h183v-205q137 227 358 228q184 0 318 -153t135 -415v-22q0 -262 -134 -416t-319 -154q-221 0 -358 218v-535h-183zM180 0v1491h520q238 0 377 -123t140 -332v-6q-1 -166 -93 -278t-243 -158l385 -594h-222l-358 559h-319v-559h-187zM1640 547
q0 -180 96 -294t228 -114q131 0 220 111t89 297v18q0 184 -91 297t-220 113t-225 -115t-97 -293v-20zM367 725h321q154 0 247 80t93 217v6q0 141 -90 216t-250 75h-321v-594z" />
    <glyph glyph-name="space.tab" horiz-adv-x="645" 
 />
    <glyph glyph-name="NUL" horiz-adv-x="0" 
 />
    <glyph glyph-name="caron.alt" horiz-adv-x="1081" 
d="M649 1614v-6l-112 -361h-91l31 367h172z" />
    <glyph glyph-name="acute.cap" horiz-adv-x="1081" 
d="M373 1620l223 285l186 -84l-252 -201h-157z" />
    <glyph glyph-name="hungarumlaut.cap" horiz-adv-x="1081" 
d="M172 1620l223 285l183 -84l-252 -201h-154zM514 1620l221 285l183 -84l-252 -201h-152z" />
    <glyph glyph-name="grave.cap" horiz-adv-x="1081" 
d="M707 1620h-156l-254 201l188 84z" />
    <glyph glyph-name="circumflex.cap" horiz-adv-x="1081" 
d="M209 1620l242 262h180l241 -262h-174l-159 127l-160 -127h-170z" />
    <glyph glyph-name="caron.cap" horiz-adv-x="1081" 
d="M872 1882l-241 -262h-180l-242 262h174l160 -125l159 125h170z" />
    <glyph glyph-name="breve.cap" horiz-adv-x="1081" 
d="M541 1616q-141 0 -232 67q-90 68 -100 189h145q38 -109 186 -109t187 109h145q-10 -120 -100 -188t-231 -68z" />
    <glyph glyph-name="tilde.cap" horiz-adv-x="1081" 
d="M710 1620q-66 0 -168 41q-104 41 -143 41t-63 -23t-47 -77l-117 32q68 230 198 232q64 0 168 -41t142 -41t62 22t49 78l116 -35q-64 -229 -197 -229z" />
    <glyph glyph-name="macron.cap" horiz-adv-x="1081" 
d="M180 1659v153h721v-153h-721z" />
    <glyph glyph-name="dieresis.cap" horiz-adv-x="1081" 
d="M637 1620v207h217v-207h-217zM225 1620v207h219v-207h-219z" />
    <glyph glyph-name="dotaccent.cap" horiz-adv-x="1081" 
d="M428 1620v207h225v-207h-225z" />
    <glyph glyph-name="ring.cap" horiz-adv-x="1081" 
d="M541 1704q61 0 101 37t40 91t-40 91t-101 37t-101 -37t-41 -91q1 -54 41 -91t101 -37zM541 1616q-100 0 -171 62t-71 154t71 152q71 62 171 62t171 -61q70 -61 70 -153t-70 -154q-71 -62 -171 -62z" />
    <glyph glyph-name="commaaccent.rot" horiz-adv-x="1081" 
d="M645 1456v-188h-211v162q0 211 238 229l14 -70q-74 -12 -106 -44t-29 -89h94z" />
    <glyph glyph-name="acute.altlc" horiz-adv-x="1081" 
d="M381 1782l215 276l184 -88l-248 -188h-151z" />
    <glyph glyph-name="acute.altuc" horiz-adv-x="1081" 
d="M375 1872l225 254l184 -84l-254 -170h-155z" />
    <glyph glyph-name="caron.alt.cap" horiz-adv-x="1081" 
d="M649 1614v-6l-112 -361h-91l31 367h172z" />
    <glyph glyph-name="cedilla.cap" horiz-adv-x="1081" 
d="M494 -336l-179 78l197 289h147z" />
    <glyph glyph-name="commaaccent.cap" horiz-adv-x="1081" 
d="M436 -334v189h209v-162q1 -207 -235 -230l-15 70q74 12 107 45t28 88h-94z" />
    <glyph glyph-name="hcoslug" horiz-adv-x="1421" 
d="M1194 12q0 14 -14 15q-14 -1 -14 -15t14 -14t14 14zM879 12q-20 0 -21 21q0 10 8 18q9 -8 29 -33q-10 -6 -16 -6zM254 14v-14h59v14h-16v37h45v-37h-16v-14h59v14h-16v84h16v15h-59v-15h16v-32h-45v32h16v15h-59v-15h16v-84h-16zM565 14v-14h47v14h-10v52h29v-52h-10v-14
h47v14h-13v107l-20 -4q-8 4 -19 4q-39 0 -38 -39v-2h-15v-14h15v-52h-13zM754 14v-14h53v14h-16v33q8 18 14 19v-3q0 -12 13 -12q13 -1 13 15t-16 16t-24 -23v21h-37v-14h12v-52h-12zM506 47q0 25 14 25t15 -25h-29zM430 72q16 0 16 -32t-16 -32t-16 32t16 32zM1135 40
q-1 -32 -17 -32t-16 32t16 32t17 -32zM696 47q0 25 14 25t15 -25h-29zM506 37h53q4 45 -39 45q-16 0 -28 -12t-13 -31q0 -41 43 -41q31 0 37 29h-14q-2 -14 -19 -15q-20 0 -20 25zM430 82q-43 0 -43 -42t43 -42q18 0 31 12q12 12 12 31q0 41 -43 41zM1118 82q-43 0 -43 -42
t43 -42q18 0 31 12q12 12 12 31q0 41 -43 41zM696 37h54q4 45 -39 45q-17 0 -29 -12t-12 -31q0 -41 43 -41q29 0 37 29h-15q-2 -14 -18 -15q-21 0 -21 25zM882 98q12 0 11 -12q0 -12 -10 -18q-12 12 -13 20q0 10 12 10zM961 55q0 -57 59 -57q45 0 49 47h-16q-4 -33 -29 -33
q-33 0 -33 45t29 45q20 0 31 -32h16v45h-16l-2 -13q-14 14 -35 14t-37 -16q-16 -18 -16 -45zM950 68h-37v-15h13q-4 -10 -13 -18q-4 4 -11 12t-13 14q23 10 22 25q1 25 -31 25t-32 -29q0 -12 12 -25q-27 -8 -26 -30q0 -29 36 -29q18 0 31 12q10 -12 25 -12q20 0 26 25l-10 2
q-2 -11 -8 -11t-12 11q12 16 18 28h10v15zM602 80v6q0 25 12 25l7 -2q-3 -3 -3 -11t13 -8v-10h-29zM805 138q-1 -16 23 -17q24 0 36 33l27 63h10v14h-35v-14h11l-17 -41l-18 41h12v14h-51v-14h10q25 -47 33 -67q-5 -17 -17 -17q6 4 4 12q-3 8 -14 9q-14 0 -14 -16zM721 256
v-106h12l8 16q10 -16 29 -16q33 0 33 42t-31 41q-20 0 -27 -18v55h-36v-14h12zM618 180v-28h15l2 8q14 -10 27 -10q29 0 28 26q0 18 -24 25q-25 6 -25 13t10 7t21 -14h14v26h-12l-4 -10q-6 10 -23 10q-29 0 -29 -24q0 -17 25 -25t25 -15t-12 -7t-23 18h-15zM256 166v-14h61
v14h-20v33h8q10 0 12 -17h15v47h-15q-2 -16 -12 -16h-8v37h25q18 0 22 -27h16v41h-104v-14h14v-84h-14zM776 190q0 -27 -14 -26q-16 0 -16 26t14 27q16 0 16 -27zM449 166v-14h45v14h-9v31q-1 20 13 20t14 -14v-37h-8v-14h45v14h-12v39q0 29 -25 28q-18 0 -29 -22v20h-34
v-14h12v-51h-12zM416 192q0 -32 -16 -32t-17 32q0 32 16 31q17 1 17 -31zM442 193q0 41 -43 41t-43 -42t43 -42q18 0 31 12q12 12 12 31zM561 231h-14v-14h14v-41q0 -27 25 -26q23 0 28 26l-10 4q-2 -14 -10 -14t-8 10v41h26v14h-26v23l-25 -4v-19zM1067 686q0 47 -30 77
t-72 30q-72 0 -123 -78q-6 80 -101 76q19 31 19 79t-52 96q-52 46 -146 46t-158 -52q-62 -52 -62 -126q0 -72 64 -138q-168 -57 -168 -186q0 -80 66 -135t157 -56q129 0 213 93q90 -92 166 -92t123 52t49 140l-15 4q-35 -59 -89 -59t-126 84q41 53 95 86q31 -51 81 -51
t80 31q30 32 29 79zM536 449q-46 -1 -77 31t-31 80t33 81q70 -66 151 -168q-30 -24 -76 -24zM639 700q61 41 86 70q59 -59 -2 -164q-68 78 -84 94zM506 879q0 25 15 41t41 16t42 -22q44 -60 -20 -158q-51 48 -65 73q-13 25 -13 50zM1319 1434v-1639h-1217v1639h1217z" />
    <glyph glyph-name="ogonek.cap" horiz-adv-x="1081" 
d="M721 -350l-37 -2q-133 2 -205 50q-71 48 -71 132t129 201l131 -21q-102 -90 -103 -160q0 -90 156 -96v-104z" />
    </font>
</defs>
</svg>
