<?xml version="1.0" standalone="no"?>
<!DOCTYPE svg PUBLIC "-//W3C//DTD SVG 1.1//EN" "http://www.w3.org/Graphics/SVG/1.1/DTD/svg11.dtd" >
<svg xmlns="http://www.w3.org/2000/svg">
<metadata>
Created by FontPrep 20130207 at Tue Sep 20 09:54:29 2016
 By baxy
Copyright (C) 2010, 2014 Hoefler &#38; Co. http://www.typography.com
</metadata>
<defs>
<font id="3f14124d1aa4bfd588675ccc394cccd1" horiz-adv-x='1024' >
  <font-face 
    font-family="GothamSSm-Light"
    font-weight="300"
    font-stretch="normal"
    units-per-em="2048"
    panose-1="0 0 0 0 0 0 0 0 0 0"
    ascent="1638"
    descent="-410"
    x-height="1094"
    cap-height="1491"
    bbox="-442 -502 2466 2109"
    underline-thickness="102"
    underline-position="-102"
    unicode-range="U+0020-FB04"
  />
<missing-glyph horiz-adv-x="1024" 
d="M512 492l-367 -799h734zM102 -156l353 770l-353 770v-1540zM922 1384l-353 -770l353 -770v1540zM145 1536l367 -799l367 799h-734zM0 -410v2048h1024v-2048h-1024z" />
    <glyph glyph-name=".notdef" horiz-adv-x="1024" 
d="M512 492l-367 -799h734zM102 -156l353 770l-353 770v-1540zM922 1384l-353 -770l353 -770v1540zM145 1536l367 -799l367 799h-734zM0 -410v2048h1024v-2048h-1024z" />
    <glyph glyph-name=".null" horiz-adv-x="0" 
 />
    <glyph glyph-name="nonmarkingreturn" horiz-adv-x="681" 
 />
    <glyph glyph-name="space" unicode=" " horiz-adv-x="659" 
 />
    <glyph glyph-name="exclam" unicode="!" horiz-adv-x="579" 
d="M205 0v205h170v-205h-170zM209 1491h162v-133l-41 -950h-78l-43 950v133z" />
    <glyph glyph-name="quotedbl" unicode="&#x22;" horiz-adv-x="929" 
d="M793 1491v-10l-162 -551h-78l70 561h170zM391 1491v-10l-162 -551h-77l69 561h170z" />
    <glyph glyph-name="numbersign" unicode="#" horiz-adv-x="1511" 
d="M1317 512v-125h-285l-65 -387h-129l65 387h-420l-67 -387h-129l65 387h-241v125h264l82 475h-262v125h282l66 379h129l-66 -379h422l66 379h129l-66 -379h242v-125h-262l-82 -475h262zM584 989l-82 -477h424l82 477h-424z" />
    <glyph glyph-name="dollar" unicode="$" horiz-adv-x="1370" 
d="M1212 397q0 -167 -126 -277t-328 -120v-209h-121v211q-276 27 -504 225l84 107q197 -180 426 -209v565q-239 56 -347 152t-106 258v2q0 162 125 272t322 117v123h121v-127q219 -22 409 -172l-82 -109q-160 133 -333 158v-557q242 -53 352 -151t108 -257v-2zM1073 391
q0 104 -68 168q-69 63 -253 109v-547q145 6 234 81t87 187v2zM330 1108q0 -102 66 -167t247 -112v541q-139 -4 -227 -79t-86 -181v-2z" />
    <glyph glyph-name="percent" unicode="%" horiz-adv-x="1787" 
d="M1124 365q0 -117 60 -196t149 -79q88 0 146 78q57 78 57 192v5q0 117 -61 195t-149 79q-88 0 -144 -79q-57 -79 -58 -191v-4zM1328 -16q-146 0 -238 110t-93 266v5q1 157 95 269t239 112t239 -112q93 -112 93 -265v-4q0 -156 -94 -269q-95 -112 -241 -112zM664 1126
q0 117 -62 196t-148 79t-144 -79t-58 -192v-4q0 -118 60 -196t148 -78t146 78q57 78 58 192v4zM848 772l524 719h135l-1093 -1491h-135zM791 1126q-1 -156 -95 -268t-240 -113q-146 0 -239 112q-92 112 -92 265v4q0 158 93 270q94 112 240 112t239 -112t94 -266v-4z" />
    <glyph glyph-name="ampersand" unicode="&#x26;" horiz-adv-x="1503" 
d="M582 100q213 0 399 213l-418 430q-157 -55 -233 -144t-76 -196v-4q0 -127 92 -213t236 -86zM926 1174v4q0 96 -64 158t-162 62t-168 -65q-70 -66 -69 -162v-4q0 -68 35 -130t125 -158q303 98 303 295zM111 395v4q0 291 370 432q-84 96 -121 171t-36 163v4q0 147 108 247
q109 100 269 100t261 -96t101 -234v-4q0 -260 -358 -387l362 -373q96 135 186 346l121 -53q-104 -231 -217 -385l266 -273l-110 -88l-244 254q-215 -244 -496 -243q-201 0 -331 116t-131 299z" />
    <glyph glyph-name="quotesingle" unicode="'" horiz-adv-x="528" 
d="M393 1491v-10l-164 -551h-77l69 561h172z" />
    <glyph glyph-name="parenleft" unicode="(" horiz-adv-x="942" 
d="M158 612q0 287 152 520q153 232 438 392l59 -92q-508 -319 -508 -822v-2q0 -502 508 -817l-59 -92q-287 162 -439 393t-151 518v2z" />
    <glyph glyph-name="parenright" unicode=")" horiz-adv-x="942" 
d="M641 610v2q0 504 -508 820l60 92q287 -162 439 -394t152 -520v-2q0 -285 -152 -517t-439 -392l-60 92q508 319 508 819z" />
    <glyph glyph-name="asterisk" unicode="*" horiz-adv-x="935" 
d="M418 854l20 268l-223 -153l-53 90l250 117l-250 114l53 90l223 -153l-20 268h102l-22 -268l223 153l53 -90l-250 -114l250 -117l-53 -90l-223 153l22 -268h-102z" />
    <glyph glyph-name="plus" unicode="+" horiz-adv-x="1347" 
d="M606 238v446h-450v131h450v447h135v-447h451v-131h-451v-446h-135z" />
    <glyph glyph-name="comma" unicode="," horiz-adv-x="528" 
d="M178 0v205h172v-176q0 -115 -49 -179t-160 -96l-26 66q77 33 107 75t26 105h-70z" />
    <glyph glyph-name="hyphen" unicode="-" horiz-adv-x="888" 
d="M154 563v148h583v-148h-583z" />
    <glyph glyph-name="period" unicode="." horiz-adv-x="528" 
d="M178 0v205h172v-205h-172z" />
    <glyph glyph-name="slash" unicode="/" horiz-adv-x="1095" 
d="M-31 -272l996 1972h131l-998 -1972h-129z" />
    <glyph glyph-name="zero" unicode="0" horiz-adv-x="1540" 
d="M293 745q0 -261 133 -451t345 -190t343 188t131 449v4q0 261 -133 451t-345 190t-343 -187t-131 -449v-5zM768 -25q-279 1 -451 223t-172 543v4q0 319 174 545t453 226t451 -224t172 -542v-5q0 -319 -174 -545t-453 -225z" />
    <glyph glyph-name="one" unicode="1" horiz-adv-x="761" 
d="M391 0v1354l-282 -92l-37 114l354 125h106v-1501h-141z" />
    <glyph glyph-name="two" unicode="2" horiz-adv-x="1288" 
d="M113 0v111l546 487q178 162 249 267t71 229t-92 208t-222 82q-130 0 -227 -64q-96 -65 -192 -200l-105 74q109 162 229 240t312 78t318 -118q128 -118 128 -298v-4q0 -152 -82 -273t-292 -307l-424 -379h813v-133h-1030z" />
    <glyph glyph-name="three" unicode="3" horiz-adv-x="1323" 
d="M672 -25q-346 0 -551 267l106 92q184 -229 449 -230q145 0 245 86q99 86 99 222v4q0 143 -121 223t-317 80h-90l-31 84l489 557h-751v131h944v-105l-486 -544q219 -14 363 -120t145 -300v-4q0 -195 -143 -319t-350 -124z" />
    <glyph glyph-name="four" unicode="4" horiz-adv-x="1441" 
d="M942 479v819l-663 -819h663zM942 0v358h-795l-41 105l848 1038h127v-1022h236v-121h-236v-358h-139z" />
    <glyph glyph-name="five" unicode="5" horiz-adv-x="1316" 
d="M655 -25q-291 0 -528 238l96 102q215 -211 434 -211q165 0 271 100t106 251v4q0 145 -107 237q-108 92 -275 92t-328 -88l-101 68l43 723h850v-133h-725l-33 -514q154 74 310 74q221 0 367 -126t147 -329v-4q0 -213 -149 -349t-378 -135z" />
    <glyph glyph-name="six" unicode="6" horiz-adv-x="1394" 
d="M326 453q0 -151 112 -251t283 -100q170 0 274 104t105 257v4q0 145 -108 241t-276 95t-279 -105q-112 -104 -111 -239v-6zM1247 469q-1 -213 -153 -353t-384 -141q-232 0 -378 150q-96 96 -143 227q-46 131 -46 353v4q0 348 167 577t448 230q227 0 436 -170l-86 -111
q-174 152 -358 151q-215 0 -338 -194t-123 -485v-29q162 250 442 250q213 0 365 -128t151 -327v-4z" />
    <glyph glyph-name="seven" unicode="7" horiz-adv-x="1280" 
d="M156 1358v133h1001v-107l-678 -1384h-160l676 1358h-839z" />
    <glyph glyph-name="eight" unicode="8" horiz-adv-x="1361" 
d="M682 104q186 0 299 86t113 209v4q0 131 -119 215t-293 84t-293 -84t-119 -215v-4q0 -123 113 -209t299 -86zM682 821q152 0 256 81t104 208v4q0 119 -103 196q-103 76 -257 76t-258 -78t-105 -194v-4q-1 -127 105 -208t258 -81zM682 -20q-240 0 -398 118t-159 301v4
q0 127 86 223t229 146q-264 115 -264 344v4q0 170 151 281t355 111t356 -112q150 -110 150 -280v-4q0 -227 -266 -344q143 -51 230 -146t87 -220v-5q-1 -185 -159 -303t-398 -118z" />
    <glyph glyph-name="nine" unicode="9" horiz-adv-x="1394" 
d="M654 104q198 0 325 192t127 468v43q-158 -258 -440 -258q-225 0 -372 130q-146 130 -147 329v6q1 213 149 357q148 145 383 145t386 -152q186 -186 186 -580v-4q0 -352 -173 -578t-427 -226t-469 182l86 110q188 -164 386 -164zM680 674q170 0 280 106t109 248v4
q0 152 -113 254q-112 102 -284 102t-274 -108q-102 -109 -103 -262v-4q0 -147 107 -244q108 -96 278 -96z" />
    <glyph glyph-name="colon" unicode=":" horiz-adv-x="548" 
d="M188 0v205h172v-205h-172zM188 889v205h172v-205h-172z" />
    <glyph glyph-name="semicolon" unicode=";" horiz-adv-x="548" 
d="M188 0v205h172v-176q0 -115 -48 -179t-160 -96l-27 66q77 33 107 75t26 105h-70zM188 889v205h172v-205h-172z" />
    <glyph glyph-name="less" unicode="&#x3c;" horiz-adv-x="1347" 
d="M1141 188l-996 504v117l996 504v-144l-838 -417l838 -420v-144z" />
    <glyph glyph-name="equal" unicode="=" horiz-adv-x="1347" 
d="M184 436v137h979v-137h-979zM184 928v135h979v-135h-979z" />
    <glyph glyph-name="greater" unicode="&#x3e;" horiz-adv-x="1347" 
d="M207 188v142l837 418l-837 421v144l995 -504v-117z" />
    <glyph glyph-name="question" unicode="?" horiz-adv-x="1161" 
d="M446 0v205h172v-205h-172zM899 1081v4q0 127 -90 212t-240 85q-225 0 -397 -208l-94 86q205 250 497 249q211 -1 340 -119t129 -298v-5q0 -187 -124 -297t-322 -137l-20 -245h-91l-30 344l10 12q209 4 321 88t111 229z" />
    <glyph glyph-name="at" unicode="@" horiz-adv-x="2107" 
d="M971 270q127 0 243 116t115 280q0 122 -77 202q-76 80 -202 80t-241 -114t-115 -287q0 -129 75 -203t202 -74zM1090 -344q-284 0 -502 125q-219 125 -342 338t-123 465q0 385 272 658q271 274 659 274t659 -251t272 -591q0 -254 -118 -387t-276 -133q-111 0 -187 50
t-108 136q-154 -186 -356 -186q-160 0 -270 108t-109 275q0 221 153 375q154 154 354 155q200 0 300 -182l29 153l125 -18l-82 -467q-18 -100 -19 -141q0 -86 49 -132t138 -47q123 0 212 113t89 328q0 145 -66 284q-139 293 -448 421q-160 67 -338 67q-365 0 -612 -252
t-247 -611t248 -609q248 -249 627 -248q283 0 531 145l34 -55q-264 -160 -548 -160z" />
    <glyph glyph-name="A" unicode="A" horiz-adv-x="1703" 
d="M98 0l686 1501h136l686 -1501h-156l-180 406h-842l-182 -406h-148zM485 535h727l-362 804z" />
    <glyph glyph-name="B" unicode="B" horiz-adv-x="1558" 
d="M1276 418q0 130 -109 200t-313 70h-487v-559h518q180 0 285 77t106 208v4zM1192 1100v4q0 118 -92 188t-256 70h-477v-547h464q162 0 262 75q99 75 99 210zM225 0v1491h627q254 0 389 -131q96 -100 96 -238v-4q0 -246 -245 -350q328 -90 327 -356v-4q0 -188 -146 -298
t-390 -110h-658z" />
    <glyph glyph-name="C" unicode="C" horiz-adv-x="1601" 
d="M903 -25q-317 -1 -530 221t-213 545v4q0 322 214 546t535 225q187 0 321 -60t261 -176l-98 -106q-223 212 -483 212t-430 -184q-171 -184 -171 -452v-5q0 -270 173 -455t427 -186q149 0 263 56t233 168l94 -92q-129 -129 -267 -195t-329 -66z" />
    <glyph glyph-name="D" unicode="D" horiz-adv-x="1685" 
d="M735 1360h-366v-1229h366q289 0 466 174t177 436v4q0 263 -177 439t-466 176zM225 0v1491h510q347 0 569 -212t222 -529v-5q0 -319 -222 -532t-569 -213h-510z" />
    <glyph glyph-name="E" unicode="E" horiz-adv-x="1447" 
d="M225 0v1491h1071v-131h-927v-543h831v-131h-831v-555h938v-131h-1082z" />
    <glyph glyph-name="F" unicode="F" horiz-adv-x="1417" 
d="M225 0v1491h1063v-131h-919v-567h823v-131h-823v-662h-144z" />
    <glyph glyph-name="G" unicode="G" horiz-adv-x="1689" 
d="M911 -25q-339 -1 -545 219t-206 547v4q0 313 209 541t534 230q176 0 304 -48t247 -149l-92 -109q-98 86 -206 131t-261 45q-252 0 -419 -187t-167 -449v-5q0 -283 166 -463t445 -180q126 0 246 44t204 114v397h-473v129h610v-585q-256 -226 -596 -226z" />
    <glyph glyph-name="H" unicode="H" horiz-adv-x="1638" 
d="M225 0v1491h144v-676h901v676h143v-1491h-143v684h-901v-684h-144z" />
    <glyph glyph-name="I" unicode="I" horiz-adv-x="624" 
d="M240 0v1491h143v-1491h-143z" />
    <glyph glyph-name="J" unicode="J" horiz-adv-x="1193" 
d="M539 -20q-299 0 -457 270l108 84q70 -115 152 -170t209 -55t212 98t85 278v1006h145v-1002q0 -252 -137 -389q-124 -120 -317 -120z" />
    <glyph glyph-name="K" unicode="K" horiz-adv-x="1548" 
d="M225 0v1491h144v-930l897 930h190l-647 -653l674 -838h-183l-591 735l-340 -344v-391h-144z" />
    <glyph glyph-name="L" unicode="L" horiz-adv-x="1329" 
d="M225 0v1491h144v-1360h856v-131h-1000z" />
    <glyph glyph-name="M" unicode="M" horiz-adv-x="1869" 
d="M225 0v1491h142l567 -844l567 844h144v-1491h-144v1247l-565 -825h-8l-563 823v-1245h-140z" />
    <glyph glyph-name="N" unicode="N" horiz-adv-x="1703" 
d="M225 0v1491h135l979 -1241v1241h140v-1491h-113l-1001 1268v-1268h-140z" />
    <glyph glyph-name="O" unicode="O" horiz-adv-x="1830" 
d="M918 104q260 0 432 184t172 453v4q0 269 -174 455t-434 186t-433 -184q-172 -184 -172 -452v-5q1 -269 175 -455t434 -186zM913 -25q-333 -1 -543 225t-210 541v4q0 315 213 543t545 228t542 -226t211 -540v-5q0 -315 -213 -543t-545 -227z" />
    <glyph glyph-name="P" unicode="P" horiz-adv-x="1443" 
d="M369 670h387q194 0 314 95t120 251v4q0 164 -115 252t-309 88h-397v-690zM225 0v1491h551q252 0 405 -125t152 -340v-4q0 -227 -168 -355t-417 -128h-379v-539h-144z" />
    <glyph glyph-name="Q" unicode="Q" horiz-adv-x="1830" 
d="M918 104q211 0 366 123l-283 244l99 111l282 -258q139 178 140 417v4q0 269 -174 455t-434 186t-433 -184q-172 -184 -172 -452v-5q1 -269 175 -455t434 -186zM913 -25q-333 -1 -543 225t-210 541v4q0 315 213 543t545 228t542 -226t211 -540v-5q0 -293 -184 -509
l203 -173l-99 -108l-202 184q-203 -164 -476 -164z" />
    <glyph glyph-name="R" unicode="R" horiz-adv-x="1560" 
d="M225 0v1491h635q274 0 422 -148q115 -115 115 -286v-4q0 -178 -115 -289t-305 -143l473 -621h-176l-453 596h-452v-596h-144zM369 725h477q180 0 294 86t113 236v4q0 143 -106 226t-297 83h-481v-635z" />
    <glyph glyph-name="S" unicode="S" horiz-adv-x="1384" 
d="M733 -20q-340 0 -604 237l90 107q123 -113 245 -165q122 -53 278 -53t253 77q98 77 99 198v4q0 115 -84 181t-335 119q-251 51 -369 149t-118 274v4q0 172 138 286t348 113q160 0 280 -44t238 -138l-86 -110q-199 166 -436 165q-150 0 -244 -74t-94 -186v-4
q0 -118 87 -186t337 -120t366 -150t115 -267v-4q0 -184 -141 -299q-142 -114 -363 -114z" />
    <glyph glyph-name="T" unicode="T" horiz-adv-x="1382" 
d="M621 0v1358h-510v133h1161v-133h-508v-1358h-143z" />
    <glyph glyph-name="U" unicode="U" horiz-adv-x="1638" 
d="M1436 635q0 -317 -167 -487t-449 -171q-282 0 -450 169t-167 477v868h143v-858q0 -250 126 -388q126 -139 348 -139t347 132t125 385v868h144v-856z" />
    <glyph glyph-name="V" unicode="V" horiz-adv-x="1617" 
d="M745 -10l-647 1501h158l555 -1323l557 1323h152l-648 -1501h-127z" />
    <glyph glyph-name="W" unicode="W" horiz-adv-x="2373" 
d="M647 -10l-536 1501h157l445 -1280l422 1284h114l420 -1284l445 1280h149l-534 -1501h-121l-420 1247l-422 -1247h-119z" />
    <glyph glyph-name="X" unicode="X" horiz-adv-x="1560" 
d="M1262 1491h165l-559 -731l582 -760h-170l-502 664l-499 -664h-166l581 760l-561 731h170l479 -635z" />
    <glyph glyph-name="Y" unicode="Y" horiz-adv-x="1546" 
d="M700 0v590l-628 901h176l526 -770l531 770h168l-629 -899v-592h-144z" />
    <glyph glyph-name="Z" unicode="Z" horiz-adv-x="1492" 
d="M154 0v90l989 1272h-955v129h1153v-90l-991 -1272h991v-129h-1187z" />
    <glyph glyph-name="bracketleft" unicode="[" horiz-adv-x="948" 
d="M215 -276v1767h596v-107h-467v-1554h467v-106h-596z" />
    <glyph glyph-name="backslash" unicode="\" horiz-adv-x="1095" 
d="M997 -272l-997 1972h131l995 -1972h-129z" />
    <glyph glyph-name="bracketright" unicode="]" horiz-adv-x="948" 
d="M135 -276v106h469v1554h-469v107h598v-1767h-598z" />
    <glyph glyph-name="asciicircum" unicode="^" horiz-adv-x="1085" 
d="M154 1051l331 446h115l332 -446h-131l-260 340l-260 -340h-127z" />
    <glyph glyph-name="underscore" unicode="_" horiz-adv-x="1298" 
d="M6 -340v117h1286v-117h-1286z" />
    <glyph glyph-name="grave" unicode="`" horiz-adv-x="1085" 
d="M565 1268l-235 225l151 72l195 -297h-111z" />
    <glyph glyph-name="a" unicode="a" horiz-adv-x="1249" 
d="M530 -25q-166 -1 -290 91t-125 251v5q0 168 129 261q130 93 328 93t362 -47v43q0 154 -89 234t-252 81q-163 0 -337 -84l-43 115q199 92 409 92t334 -119q113 -117 113 -315v-676h-135v172q-146 -197 -404 -197zM568 92q142 0 256 89t114 225v114q-184 47 -345 47
q-161 -1 -249 -65t-88 -172v-6q0 -104 85 -168t227 -64z" />
    <glyph glyph-name="b" unicode="b" horiz-adv-x="1431" 
d="M752 102q170 0 286 120t115 321v4q0 199 -118 323q-117 124 -285 123q-168 0 -293 -126t-125 -318v-4q0 -193 125 -318t295 -125zM772 -25q-266 0 -434 246v-221h-137v1554h137v-690q172 256 434 256q209 0 368 -156t158 -413v-4q0 -256 -158 -414t-368 -158z" />
    <glyph glyph-name="c" unicode="c" horiz-adv-x="1236" 
d="M699 -25q-247 0 -409 167t-161 401v4q0 233 163 403q162 170 404 170t430 -200l-92 -97q-168 172 -345 172t-297 -130t-120 -314v-4q0 -187 123 -317t309 -130t340 172l91 -84q-189 -213 -436 -213z" />
    <glyph glyph-name="d" unicode="d" horiz-adv-x="1431" 
d="M659 -25q-209 0 -367 156t-159 412v4q0 256 159 415t367 158q268 0 435 -248v682h137v-1554h-137v231q-173 -256 -435 -256zM681 102q167 0 293 125t126 318v4q0 193 -126 319t-295 125q-169 0 -286 -121t-117 -321v-4q0 -197 119 -321t286 -124z" />
    <glyph glyph-name="e" unicode="e" horiz-adv-x="1273" 
d="M270 604h746q-12 170 -108 283t-254 113q-160 0 -264 -112t-120 -284zM672 -25q-227 0 -385 160t-158 410v4q0 239 150 405q151 166 377 166t364 -165t139 -412q0 -29 -4 -49h-885q16 -182 132 -290t274 -108q201 0 358 164l88 -80q-188 -205 -450 -205z" />
    <glyph glyph-name="f" unicode="f" horiz-adv-x="798" 
d="M262 0v971h-153v123h153v100q0 186 91 278t239 91q88 0 172 -27v-123q-86 27 -160 27q-205 0 -205 -252v-94h363v-123h-363v-971h-137z" />
    <glyph glyph-name="g" unicode="g" horiz-adv-x="1431" 
d="M1231 182q-1 -242 -143 -384t-411 -142t-495 158l70 108q199 -145 432 -145q188 0 299 104t111 301v142q-174 -242 -441 -242q-207 0 -363 144t-157 372v4q0 230 157 374t363 144q268 0 441 -233v207h137v-912zM276 600q0 -170 118 -280t284 -111q166 1 294 111t128 280
v4q0 170 -128 280t-296 110t-284 -108t-116 -282v-4z" />
    <glyph glyph-name="h" unicode="h" horiz-adv-x="1329" 
d="M201 0v1554h137v-655q129 221 383 221q199 0 313 -123t115 -321v-676h-137v643q0 162 -86 256t-237 94t-251 -102t-100 -262v-629h-137z" />
    <glyph glyph-name="i" unicode="i" horiz-adv-x="567" 
d="M215 0v1094h137v-1094h-137zM203 1354v166h162v-166h-162z" />
    <glyph glyph-name="j" unicode="j" horiz-adv-x="567" 
d="M100 -348q-39 0 -96 10v117q35 -8 84 -8q127 0 127 149v1174h137v-1172q0 -135 -66 -203q-67 -67 -186 -67zM203 1354v166h162v-166h-162z" />
    <glyph glyph-name="k" unicode="k" horiz-adv-x="1222" 
d="M201 0v1554h137v-1114l629 654h176l-469 -476l483 -618h-168l-409 520l-242 -244v-276h-137z" />
    <glyph glyph-name="l" unicode="l" horiz-adv-x="567" 
d="M215 0v1554h137v-1554h-137z" />
    <glyph glyph-name="m" unicode="m" horiz-adv-x="2045" 
d="M201 0v1094h137v-189q135 215 358 215q250 0 359 -227q143 227 389 227q190 0 302 -122t112 -326v-672h-138v643q0 166 -80 258t-218 92t-231 -97t-93 -263v-633h-137v649q0 160 -80 252t-218 92q-137 0 -231 -104t-94 -260v-629h-137z" />
    <glyph glyph-name="n" unicode="n" horiz-adv-x="1329" 
d="M201 0v1094h137v-195q129 221 383 221q199 0 313 -123t115 -321v-676h-137v643q0 162 -86 256t-237 94t-251 -102t-100 -262v-629h-137z" />
    <glyph glyph-name="o" unicode="o" horiz-adv-x="1390" 
d="M272 547q0 -187 123 -317t304 -130t300 129t119 314v4q0 186 -123 317t-303 131t-300 -129t-120 -315v-4zM694 -25q-242 0 -404 167t-161 401v4q0 237 163 405q164 168 406 168t404 -167t162 -402v-4q0 -233 -164 -403t-406 -169z" />
    <glyph glyph-name="p" unicode="p" horiz-adv-x="1431" 
d="M201 -340v1434h137v-230q172 256 434 256q209 0 368 -156t158 -413v-4q0 -256 -158 -414t-368 -158q-266 0 -434 246v-561h-137zM752 102q170 0 286 120t115 321v4q0 199 -118 323q-117 124 -285 123q-168 0 -293 -126t-125 -318v-4q0 -193 125 -318t295 -125z" />
    <glyph glyph-name="q" unicode="q" horiz-adv-x="1431" 
d="M681 102q167 0 293 125t126 318v4q0 193 -126 319t-295 125q-169 0 -286 -121t-117 -321v-4q0 -197 119 -321t286 -124zM1094 -340v571q-172 -256 -435 -256q-209 0 -367 156t-159 412v4q0 256 159 415t367 158q268 0 435 -248v222h137v-1434h-137z" />
    <glyph glyph-name="r" unicode="r" horiz-adv-x="878" 
d="M201 0v1094h137v-297q63 147 186 234t277 81v-147h-10q-193 -1 -323 -139t-130 -384v-442h-137z" />
    <glyph glyph-name="s" unicode="s" horiz-adv-x="1081" 
d="M559 -20q-119 0 -241 43t-212 116l74 103q184 -141 385 -142q106 0 175 52t69 137v4q0 80 -71 122q-72 41 -176 71t-140 42t-95 40q-168 81 -165 233v4q0 137 102 224t264 87q211 0 392 -123l-66 -106q-170 109 -330 108q-102 0 -166 -49t-63 -125v-4q0 -89 126 -143
q56 -23 151 -52q96 -29 147 -49t109 -56q116 -72 116 -210v-4q0 -147 -110 -235t-275 -88z" />
    <glyph glyph-name="t" unicode="t" horiz-adv-x="876" 
d="M546 -18q-118 0 -203 74t-85 231v684h-156v123h156v340h137v-340h365v-123h-365v-668q0 -197 199 -197q74 0 160 39v-122q-90 -41 -208 -41z" />
    <glyph glyph-name="u" unicode="u" horiz-adv-x="1329" 
d="M608 -25q-200 0 -314 122t-114 323v674h137v-643q0 -162 86 -256q86 -95 237 -95t251 102t100 263v629h137v-1094h-137v197q-129 -222 -383 -222z" />
    <glyph glyph-name="v" unicode="v" horiz-adv-x="1265" 
d="M573 -8l-483 1102h156l387 -938l391 938h152l-484 -1102h-119z" />
    <glyph glyph-name="w" unicode="w" horiz-adv-x="1853" 
d="M498 -8l-392 1102h150l305 -914l311 920h113l311 -920l308 914h143l-391 -1102h-119l-309 895l-312 -895h-118z" />
    <glyph glyph-name="x" unicode="x" horiz-adv-x="1239" 
d="M279 1094l342 -443l344 443h157l-422 -533l441 -561h-164l-361 469l-360 -469h-158l439 557l-420 537h162z" />
    <glyph glyph-name="y" unicode="y" horiz-adv-x="1275" 
d="M358 -348q-119 0 -231 53l47 113q86 -41 172 -41t141 51t111 176l-510 1090h154l424 -942l368 942h150l-467 -1131q-70 -167 -155 -239t-204 -72z" />
    <glyph glyph-name="z" unicode="z" horiz-adv-x="1204" 
d="M131 0v84l756 891h-727v119h919v-84l-755 -891h755v-119h-948z" />
    <glyph glyph-name="braceleft" unicode="{" horiz-adv-x="1046" 
d="M440 295q0 133 -56 199t-196 65h-55v105h55q139 0 196 65q56 66 56 199v164q0 90 19 152q42 144 206 214q91 39 232 66l21 -90q-117 -31 -186 -62q-70 -31 -104 -75t-44 -91t-11 -131v-160q0 -131 -56 -201t-165 -104q115 -34 168 -102t53 -201v-160q1 -84 11 -131
q24 -109 148 -166q69 -31 186 -61l-21 -90q-280 54 -372 161q-48 56 -66 118t-19 153v164z" />
    <glyph glyph-name="bar" unicode="|" horiz-adv-x="649" 
d="M266 -272v1972h119v-1972h-119z" />
    <glyph glyph-name="braceright" unicode="}" horiz-adv-x="1046" 
d="M473 147v160q0 131 56 201t165 102q-115 37 -168 106t-53 199v160q0 84 -10 131t-45 91t-104 75t-185 62l21 90q279 -53 371 -161q49 -57 67 -119t18 -152v-164q0 -133 56 -199t196 -65h55v-105h-55q-139 1 -195 -65t-57 -199v-164q0 -91 -18 -153q-41 -142 -206 -214
q-91 -38 -232 -65l-21 90q117 31 185 61t104 75q35 44 45 91t10 131z" />
    <glyph glyph-name="asciitilde" unicode="~" horiz-adv-x="1015" 
d="M662 528q-60 0 -158 44t-135 44t-60 -24t-47 -82l-88 25q33 117 76 163q44 46 106 47q62 0 158 -43t133 -43t61 23t46 84l88 -25q-31 -117 -75 -165q-45 -48 -105 -48z" />
    <glyph glyph-name="uni00A0" unicode="&#xa0;" horiz-adv-x="659" 
 />
    <glyph glyph-name="exclamdown" unicode="&#xa1;" horiz-adv-x="579" 
d="M209 0v133l43 950h78l41 -950v-133h-162zM205 1286v205h170v-205h-170z" />
    <glyph glyph-name="cent" unicode="&#xa2;" horiz-adv-x="1257" 
d="M702 309q195 0 353 172l88 -82q-186 -215 -447 -215q-47 0 -69 4l-39 -200h-123l43 227q-164 59 -267 207t-104 330v4q0 236 163 404t398 169h27l35 174h125l-39 -192q156 -39 291 -181l-93 -96q-123 123 -229 154l-170 -875q18 -4 57 -4zM281 756q1 -139 71 -251
t187 -161l170 860h-15q-174 0 -294 -129t-119 -315v-4z" />
    <glyph glyph-name="sterling" unicode="&#xa3;" horiz-adv-x="1392" 
d="M156 0v78l180 43v516h-180v129h180v238q0 246 131 376t334 131q279 0 452 -227l-110 -86q-72 90 -150 137q-77 47 -203 47t-218 -92t-93 -284v-240h613v-129h-613v-510h774v-127h-1097z" />
    <glyph glyph-name="yen" unicode="&#xa5;" horiz-adv-x="1480" 
d="M227 569v115h400l-555 807h172l499 -758l502 758h164l-557 -807h401v-115h-444v-198h444v-115h-444v-256h-137v256h-445v115h445v198h-445z" />
    <glyph glyph-name="section" unicode="&#xa7;" horiz-adv-x="1366" 
d="M1094 258v-4q0 -125 -104 -200t-279 -74q-291 0 -486 200l94 92q170 -170 398 -170q113 0 172 42t59 110v4q0 66 -81 113t-303 101t-320 121t-99 173v4q0 94 80 159t217 85q-170 80 -170 219v4q0 125 106 200t279 74q289 0 486 -200l-96 -92q-166 170 -398 170
q-113 0 -172 -42t-59 -110v-4q0 -66 82 -114t303 -101t319 -120t99 -173v-4q0 -96 -80 -160t-215 -84q168 -78 168 -219zM283 780q-1 -59 69 -105t225 -85t261 -39t178 46q70 46 69 110v4q0 59 -69 105q-70 46 -228 85t-261 39q-105 0 -175 -46t-69 -110v-4z" />
    <glyph glyph-name="dieresis" unicode="&#xa8;" horiz-adv-x="1085" 
d="M637 1268v188h172v-188h-172zM276 1268v188h173v-188h-173z" />
    <glyph glyph-name="copyright" unicode="&#xa9;" horiz-adv-x="1787" 
d="M905 350q-167 0 -281 118t-114 286v4q0 166 115 286t281 119q166 0 302 -129l-71 -76q-115 106 -235 106t-202 -88q-82 -89 -82 -216v-4q0 -127 84 -217t206 -90t237 108l69 -70q-141 -137 -309 -137zM893 39q299 0 502 207t202 499v5q1 294 -201 498t-500 204t-502 -207
t-204 -500v-4q0 -293 202 -497t501 -205zM1665 745q0 -317 -225 -543t-548 -227q-323 1 -546 225t-223 541v4q0 317 226 543t548 228q322 0 545 -224t223 -542v-5z" />
    <glyph glyph-name="ordfeminine" unicode="&#xaa;" horiz-adv-x="851" 
d="M137 618v95h547v-95h-547zM375 872q-92 0 -161 50t-69 141v4q0 94 72 146q73 53 175 53t188 -23v10q0 76 -45 116t-123 40t-187 -47l-30 80q115 55 231 55t186 -67q61 -66 62 -177v-368h-94v84q-74 -97 -205 -97zM396 954q70 0 128 44q57 44 58 114v53q-74 23 -162 23
t-132 -32t-44 -83v-4q0 -53 41 -84t111 -31z" />
    <glyph glyph-name="guillemotleft" unicode="&#xab;" horiz-adv-x="1159" 
d="M918 90l-347 449v16l347 451l102 -62l-287 -395l287 -399zM463 90l-348 449v16l348 451l100 -62l-287 -395l287 -399z" />
    <glyph glyph-name="registered" unicode="&#xae;" horiz-adv-x="890" 
d="M303 958v377h170q61 -1 101 -31t40 -87v-3q0 -42 -26 -72t-64 -40l105 -144h-84l-90 134h-84v-134h-68zM371 1147h96q80 0 80 65v2q0 28 -22 46t-58 16h-96v-129zM117 1137q0 -137 95 -233t233 -97q138 0 234 97q95 97 95 235v2q0 137 -94 234t-234 97t-234 -98
q-95 -98 -95 -235v-2zM817 1139q-1 -153 -109 -263t-263 -110t-263 110t-106 261v2q0 153 108 263t262 110t263 -110q109 -108 108 -261v-2z" />
    <glyph glyph-name="macron" unicode="&#xaf;" horiz-adv-x="1085" 
d="M219 1317v117h647v-117h-647z" />
    <glyph glyph-name="degree" unicode="&#xb0;" horiz-adv-x="989" 
d="M495 967q89 1 150 65t62 150v4q1 86 -61 150t-151 65q-89 0 -151 -65t-61 -150v-4q0 -86 61 -151q62 -64 151 -64zM494 864q-129 0 -229 95q-99 95 -99 223v4q0 127 99 222t229 95t229 -95q100 -95 100 -222v-4q0 -126 -100 -222t-229 -96z" />
    <glyph glyph-name="plusminus" unicode="&#xb1;" horiz-adv-x="1347" 
d="M1174 0h-1000v127h1000v-127zM1174 770h-433v-424h-135v424h-432v129l432 -2v426h135v-426l433 2v-129z" />
    <glyph glyph-name="two.sup" unicode="&#xb2;" 
d="M131 905v84l313 273q90 80 128 134t38 116t-47 106q-47 43 -119 43q-129 0 -227 -148l-74 50q119 186 308 186q113 0 187 -67q74 -66 73 -158q0 -92 -44 -157t-151 -157l-250 -213h453v-92h-588z" />
    <glyph glyph-name="three.sup" unicode="&#xb3;" 
d="M426 885q-193 0 -309 151l67 66q104 -129 244 -129q76 0 128 45t52 118q0 74 -63 116t-164 42h-66l-18 62l274 280h-409v93h534v-80l-266 -273q123 -10 201 -70t78 -171t-82 -181t-201 -69z" />
    <glyph glyph-name="acute" unicode="&#xb4;" horiz-adv-x="1085" 
d="M410 1268l194 297l152 -72l-236 -225h-110z" />
    <glyph glyph-name="mu" unicode="&#xb5;" horiz-adv-x="1435" 
d="M1278 -16q-223 0 -254 204q-124 -213 -356 -213t-344 228h-2q14 -121 14 -273v-270h-135v1434h137v-631q0 -154 97 -259q97 -106 243 -106t242 106t96 259v631h137v-840q6 -150 150 -150q44 1 81 11v-119q-61 -12 -106 -12z" />
    <glyph glyph-name="paragraph" unicode="&#xb6;" horiz-adv-x="1077" 
d="M725 0v575h-18q-258 0 -424 121t-166 336v4q0 209 154 332q155 123 403 123h196v-1491h-145z" />
    <glyph glyph-name="periodcentered" unicode="&#xb7;" horiz-adv-x="528" 
d="M178 535v204h172v-204h-172z" />
    <glyph glyph-name="cedilla" unicode="&#xb8;" horiz-adv-x="1085" 
d="M481 -324l-139 64l193 285h112z" />
    <glyph glyph-name="one.sup" unicode="&#xb9;" horiz-adv-x="700" 
d="M446 905h-98v733l-186 -69l-25 86l230 88h79v-838z" />
    <glyph glyph-name="ordmasculine" unicode="&#xba;" horiz-adv-x="851" 
d="M119 618v95h614v-95h-614zM428 965q88 0 145 63t58 154v4q1 92 -59 156t-149 65t-147 -63t-57 -154v-4q1 -92 61 -156t148 -65zM735 1186q0 -128 -89 -222t-221 -94t-221 92t-89 220v4q0 129 90 222t222 93t220 -91t88 -220v-4z" />
    <glyph glyph-name="guillemotright" unicode="&#xbb;" horiz-adv-x="1159" 
d="M696 90l-100 60l287 395l-287 399l100 62l346 -451v-16zM240 90l-101 60l287 395l-287 399l101 62l348 -451v-16z" />
    <glyph glyph-name="onequarter" unicode="&#xbc;" horiz-adv-x="1775" 
d="M1458 270v443l-325 -443h325zM1550 186v-190h-92v190h-405l-25 84l412 566h110v-566h115v-84h-115zM303 0l526 762l488 729h104l-526 -762l-487 -729h-105zM444 668h-98v733l-186 -70l-25 86l230 88h79v-837z" />
    <glyph glyph-name="onehalf" unicode="&#xbd;" horiz-adv-x="1775" 
d="M1063 0v84l313 272q90 80 128 134t38 117t-47 106t-119 43q-129 0 -227 -148l-74 49q119 186 307 187q113 0 187 -67q73 -67 73 -159t-44 -156t-150 -157l-250 -213h453v-92h-588zM283 0l526 762l487 729h105l-527 -762l-487 -729h-104zM444 668h-98v733l-186 -70l-25 86
l230 88h79v-837z" />
    <glyph glyph-name="threequarters" unicode="&#xbe;" horiz-adv-x="1935" 
d="M1618 270v443l-326 -443h326zM1710 186v-190h-92v190h-406l-24 84l411 566h111v-566h115v-84h-115zM432 647q-193 0 -309 152l67 65q100 -129 244 -129q76 0 128 45t52 118t-63 116t-164 43h-65l-19 61l275 281h-410v92h534v-80l-266 -272q123 -11 201 -71t78 -171
t-82 -181t-201 -69zM453 0l526 762l487 729h105l-527 -762l-487 -729h-104z" />
    <glyph glyph-name="questiondown" unicode="&#xbf;" horiz-adv-x="1161" 
d="M586 -18q-211 0 -340 118t-129 299v4q0 188 124 298t322 137l21 245h90l31 -344l-11 -12q-210 -4 -322 -88t-112 -229v-4q0 -127 91 -212t241 -85q221 0 397 208l94 -86q-204 -249 -497 -249zM543 1286v205h172v-205h-172z" />
    <glyph glyph-name="Agrave" unicode="&#xc0;" horiz-adv-x="1703" 
d="M98 0l686 1501h136l686 -1501h-156l-180 406h-842l-182 -406h-148zM485 535h727l-362 804zM909 1647h-118l-238 194l149 70z" />
    <glyph glyph-name="Aacute" unicode="&#xc1;" horiz-adv-x="1703" 
d="M98 0l686 1501h136l686 -1501h-156l-180 406h-842l-182 -406h-148zM485 535h727l-362 804zM795 1647l206 264l150 -70l-238 -194h-118z" />
    <glyph glyph-name="Acircumflex" unicode="&#xc2;" horiz-adv-x="1703" 
d="M98 0l686 1501h136l686 -1501h-156l-180 406h-842l-182 -406h-148zM485 535h727l-362 804zM559 1647l227 241h132l227 -241h-137l-158 129l-158 -129h-133z" />
    <glyph glyph-name="Atilde" unicode="&#xc3;" horiz-adv-x="1703" 
d="M98 0l686 1501h136l686 -1501h-156l-180 406h-842l-182 -406h-148zM485 535h727l-362 804zM723 1729q-37 0 -59 -23t-48 -78l-94 25q33 109 77 157q43 48 103 48t166 -48q92 -34 126 -34t57 22t47 76l94 -27q-62 -200 -178 -200q-58 0 -156 41t-135 41z" />
    <glyph glyph-name="Adieresis" unicode="&#xc4;" horiz-adv-x="1703" 
d="M98 0l686 1501h136l686 -1501h-156l-180 406h-842l-182 -406h-148zM485 535h727l-362 804zM958 1647v178h179v-178h-179zM569 1647v178h181v-178h-181z" />
    <glyph glyph-name="Aring" unicode="&#xc5;" horiz-adv-x="1703" 
d="M852 1808q96 0 164 -60t67 -149q0 -125 -125 -184l648 -1415h-156l-180 406h-842l-182 -406h-148l645 1417q-123 57 -122 182q0 88 67 149q68 60 164 60zM485 535h727l-362 804zM851 1468q60 0 102 38t42 94t-42 94t-102 39q-60 0 -101 -38q-41 -39 -41 -95t41 -94
t101 -38z" />
    <glyph glyph-name="AE" unicode="&#xc6;" horiz-adv-x="2246" 
d="M2095 1491v-131h-893v-543h797v-131h-797v-555h903v-131h-1046v406h-619l-239 -406h-152l889 1491h1157zM1059 535v829h-53l-492 -829h545z" />
    <glyph glyph-name="Ccedilla" unicode="&#xc7;" horiz-adv-x="1601" 
d="M160 741v4q0 322 214 546t535 225q187 0 321 -60t261 -176l-98 -106q-223 212 -483 212t-430 -184q-171 -184 -171 -452v-5q0 -270 173 -455t427 -186q149 0 263 56t233 168l94 -92q-123 -123 -254 -188t-309 -71l-141 -301l-140 64l162 240q-287 32 -472 246t-185 515z
" />
    <glyph glyph-name="Egrave" unicode="&#xc8;" horiz-adv-x="1447" 
d="M225 0v1491h1071v-131h-927v-543h831v-131h-831v-555h938v-131h-1082zM823 1626h-118l-238 195l149 69z" />
    <glyph glyph-name="Eacute" unicode="&#xc9;" horiz-adv-x="1447" 
d="M225 0v1491h1071v-131h-927v-543h831v-131h-831v-555h938v-131h-1082zM707 1626l206 264l150 -69l-238 -195h-118z" />
    <glyph glyph-name="Ecircumflex" unicode="&#xca;" horiz-adv-x="1447" 
d="M225 0v1491h1071v-131h-927v-543h831v-131h-831v-555h938v-131h-1082zM471 1626l227 242h131l228 -242h-137l-158 129l-158 -129h-133z" />
    <glyph glyph-name="Edieresis" unicode="&#xcb;" horiz-adv-x="1447" 
d="M225 0v1491h1071v-131h-927v-543h831v-131h-831v-555h938v-131h-1082zM870 1626v178h179v-178h-179zM481 1626v178h181v-178h-181z" />
    <glyph glyph-name="Igrave" unicode="&#xcc;" horiz-adv-x="624" 
d="M240 0v1491h143v-1491h-143zM371 1626h-119l-238 195l150 69z" />
    <glyph glyph-name="Iacute" unicode="&#xcd;" horiz-adv-x="624" 
d="M240 0v1491h143v-1491h-143zM254 1626l207 264l149 -69l-237 -195h-119z" />
    <glyph glyph-name="Icircumflex" unicode="&#xce;" horiz-adv-x="624" 
d="M240 0v1491h143v-1491h-143zM18 1626l228 242h131l227 -242h-137l-158 129l-157 -129h-134z" />
    <glyph glyph-name="Idieresis" unicode="&#xcf;" horiz-adv-x="624" 
d="M240 0v1491h143v-1491h-143zM418 1626v178h178v-178h-178zM29 1626v178h180v-178h-180z" />
    <glyph glyph-name="Eth" unicode="&#xd0;" horiz-adv-x="1748" 
d="M901 690h-469v-559h367q289 0 466 174t177 436v4q0 263 -177 439t-466 176h-367v-549h469v-121zM289 0v690h-160v121h160v680h510q348 0 570 -212t222 -529v-5q0 -319 -222 -532t-570 -213h-510z" />
    <glyph glyph-name="Ntilde" unicode="&#xd1;" horiz-adv-x="1703" 
d="M225 0v1491h135l979 -1241v1241h140v-1491h-113l-1001 1268v-1268h-140zM1014 1618q-58 0 -156 41t-135 41t-59 -23t-48 -78l-94 25q33 109 77 157q43 48 103 48t166 -47q92 -35 126 -35q34 -1 57 21t47 77l94 -26q-63 -201 -178 -201z" />
    <glyph glyph-name="Ograve" unicode="&#xd2;" horiz-adv-x="1830" 
d="M918 104q260 0 432 184t172 453v4q0 269 -174 455t-434 186t-433 -184q-172 -184 -172 -452v-5q1 -269 175 -455t434 -186zM913 -25q-333 -1 -543 225t-210 541v4q0 315 213 543t545 228t542 -226t211 -540v-5q0 -315 -213 -543t-545 -227zM975 1647h-119l-238 194
l150 70z" />
    <glyph glyph-name="Oacute" unicode="&#xd3;" horiz-adv-x="1830" 
d="M918 104q260 0 432 184t172 453v4q0 269 -174 455t-434 186t-433 -184q-172 -184 -172 -452v-5q1 -269 175 -455t434 -186zM913 -25q-333 -1 -543 225t-210 541v4q0 315 213 543t545 228t542 -226t211 -540v-5q0 -315 -213 -543t-545 -227zM858 1647l207 264l149 -70
l-237 -194h-119z" />
    <glyph glyph-name="Ocircumflex" unicode="&#xd4;" horiz-adv-x="1830" 
d="M918 104q260 0 432 184t172 453v4q0 269 -174 455t-434 186t-433 -184q-172 -184 -172 -452v-5q1 -269 175 -455t434 -186zM913 -25q-333 -1 -543 225t-210 541v4q0 315 213 543t545 228t542 -226t211 -540v-5q0 -315 -213 -543t-545 -227zM623 1647l227 241h131
l227 -241h-137l-158 129l-157 -129h-133z" />
    <glyph glyph-name="Otilde" unicode="&#xd5;" horiz-adv-x="1830" 
d="M918 104q260 0 432 184t172 453v4q0 269 -174 455t-434 186t-433 -184q-172 -184 -172 -452v-5q1 -269 175 -455t434 -186zM913 -25q-333 -1 -543 225t-210 541v4q0 315 213 543t545 228t542 -226t211 -540v-5q0 -315 -213 -543t-545 -227zM786 1729q-38 0 -60 -23
t-46 -78l-94 25q33 109 77 157t103 48t166 -48q92 -34 126 -34t56 22t47 76l94 -27q-61 -200 -177 -200q-58 0 -156 41t-136 41z" />
    <glyph glyph-name="Odieresis" unicode="&#xd6;" horiz-adv-x="1830" 
d="M918 104q260 0 432 184t172 453v4q0 269 -174 455t-434 186t-433 -184q-172 -184 -172 -452v-5q1 -269 175 -455t434 -186zM913 -25q-333 -1 -543 225t-210 541v4q0 315 213 543t545 228t542 -226t211 -540v-5q0 -315 -213 -543t-545 -227zM1022 1647v178h178v-178h-178z
M633 1647v178h180v-178h-180z" />
    <glyph glyph-name="multiply" unicode="&#xd7;" horiz-adv-x="1347" 
d="M1049 279l-377 383l-377 -383l-92 92l383 377l-383 376l96 97l377 -383l377 383l92 -93l-383 -376l383 -377z" />
    <glyph glyph-name="Oslash" unicode="&#xd8;" horiz-adv-x="1830" 
d="M1526 741v2q0 242 -148 426l-852 -925q169 -144 392 -142q262 0 435 186t173 453zM305 748q0 -242 148 -426l850 925q-164 141 -408 141t-417 -184q-173 -186 -173 -454v-2zM1671 745q0 -315 -213 -542t-545 -228q-276 0 -477 164l-139 -149h-156l213 227
q-195 217 -194 524v4q0 315 213 543t545 228q274 0 475 -164l141 149h156l-213 -229q195 -217 194 -522v-5z" />
    <glyph glyph-name="Ugrave" unicode="&#xd9;" horiz-adv-x="1638" 
d="M1436 635q0 -317 -167 -487t-449 -171q-282 0 -450 169t-167 477v868h143v-858q0 -250 126 -388q126 -139 348 -139t347 132t125 385v868h144v-856zM877 1618h-119l-238 194l150 70z" />
    <glyph glyph-name="Uacute" unicode="&#xda;" horiz-adv-x="1638" 
d="M1436 635q0 -317 -167 -487t-449 -171q-282 0 -450 169t-167 477v868h143v-858q0 -250 126 -388q126 -139 348 -139t347 132t125 385v868h144v-856zM762 1618l207 264l149 -70l-237 -194h-119z" />
    <glyph glyph-name="Ucircumflex" unicode="&#xdb;" horiz-adv-x="1638" 
d="M1436 635q0 -317 -167 -487t-449 -171q-282 0 -450 169t-167 477v868h143v-858q0 -250 126 -388q126 -139 348 -139t347 132t125 385v868h144v-856zM526 1618l228 242h131l227 -242h-137l-158 129l-158 -129h-133z" />
    <glyph glyph-name="Udieresis" unicode="&#xdc;" horiz-adv-x="1638" 
d="M1436 635q0 -317 -167 -487t-449 -171q-282 0 -450 169t-167 477v868h143v-858q0 -250 126 -388q126 -139 348 -139t347 132t125 385v868h144v-856zM926 1618v178h178v-178h-178zM537 1618v178h180v-178h-180z" />
    <glyph glyph-name="Yacute" unicode="&#xdd;" horiz-adv-x="1546" 
d="M700 0v590l-628 901h176l526 -770l531 770h168l-629 -899v-592h-144zM715 1618l207 264l149 -70l-237 -194h-119z" />
    <glyph glyph-name="Thorn" unicode="&#xde;" horiz-adv-x="1454" 
d="M369 406h387q194 0 314 96t120 252v4q0 164 -115 252t-309 88h-397v-692zM225 0v1491h144v-262h407q252 0 405 -125t152 -340v-4q0 -230 -168 -358t-417 -128h-379v-274h-144z" />
    <glyph glyph-name="germandbls" unicode="&#xdf;" horiz-adv-x="1341" 
d="M1059 403v5q0 130 -114 208t-316 101v104q336 115 336 357v6q0 114 -82 188t-220 74q-137 0 -231 -104t-94 -275v-1067h-137v1065q0 225 130 365t335 139q206 0 324 -108t118 -269v-6q0 -140 -90 -242t-223 -153q179 -35 293 -128t114 -253v-4q0 -195 -153 -304
q-154 -108 -420 -106v115q203 5 317 79t113 213z" />
    <glyph glyph-name="agrave" unicode="&#xe0;" horiz-adv-x="1249" 
d="M530 -25q-166 -1 -290 91t-125 251v5q0 168 129 261q130 93 328 93t362 -47v43q0 154 -89 234t-252 81q-163 0 -337 -84l-43 115q199 92 409 92t334 -119q113 -117 113 -315v-676h-135v172q-146 -197 -404 -197zM568 92q142 0 256 89t114 225v114q-184 47 -345 47
q-161 -1 -249 -65t-88 -172v-6q0 -104 85 -168t227 -64zM571 1268l-235 225l151 72l195 -297h-111z" />
    <glyph glyph-name="aacute" unicode="&#xe1;" horiz-adv-x="1249" 
d="M530 -25q-166 -1 -290 91t-125 251v5q0 168 129 261q130 93 328 93t362 -47v43q0 154 -89 234t-252 81q-163 0 -337 -84l-43 115q199 92 409 92t334 -119q113 -117 113 -315v-676h-135v172q-146 -197 -404 -197zM568 92q142 0 256 89t114 225v114q-184 47 -345 47
q-161 -1 -249 -65t-88 -172v-6q0 -104 85 -168t227 -64zM569 1268l195 297l151 -72l-235 -225h-111z" />
    <glyph glyph-name="acircumflex" unicode="&#xe2;" horiz-adv-x="1249" 
d="M530 -25q-166 -1 -290 91t-125 251v5q0 168 129 261q130 93 328 93t362 -47v43q0 154 -89 234t-252 81q-163 0 -337 -84l-43 115q199 92 409 92t334 -119q113 -117 113 -315v-676h-135v172q-146 -197 -404 -197zM568 92q142 0 256 89t114 225v114q-184 47 -345 47
q-161 -1 -249 -65t-88 -172v-6q0 -104 85 -168t227 -64zM346 1268l219 270h119l221 -270h-123l-159 143l-160 -143h-117z" />
    <glyph glyph-name="atilde" unicode="&#xe3;" horiz-adv-x="1249" 
d="M530 -25q-166 -1 -290 91t-125 251v5q0 168 129 261q130 93 328 93t362 -47v43q0 154 -89 234t-252 81q-163 0 -337 -84l-43 115q199 92 409 92t334 -119q113 -117 113 -315v-676h-135v172q-146 -197 -404 -197zM568 92q142 0 256 89t114 225v114q-184 47 -345 47
q-161 -1 -249 -65t-88 -172v-6q0 -104 85 -168t227 -64zM790 1268q-58 0 -159 43q-100 43 -137 43t-61 -23t-46 -84l-88 25q31 117 75 165t102 48t159 -43q100 -43 137 -43q37 1 61 23t46 81l88 -22q-31 -117 -75 -165t-102 -48z" />
    <glyph glyph-name="adieresis" unicode="&#xe4;" horiz-adv-x="1249" 
d="M530 -25q-166 -1 -290 91t-125 251v5q0 168 129 261q130 93 328 93t362 -47v43q0 154 -89 234t-252 81q-163 0 -337 -84l-43 115q199 92 409 92t334 -119q113 -117 113 -315v-676h-135v172q-146 -197 -404 -197zM568 92q142 0 256 89t114 225v114q-184 47 -345 47
q-161 -1 -249 -65t-88 -172v-6q0 -104 85 -168t227 -64zM719 1268v188h172v-188h-172zM358 1268v188h172v-188h-172z" />
    <glyph glyph-name="aring" unicode="&#xe5;" horiz-adv-x="1249" 
d="M530 -25q-166 -1 -290 91t-125 251v5q0 168 129 261q130 93 328 93t362 -47v43q0 154 -89 234t-252 81q-163 0 -337 -84l-43 115q199 92 409 92t334 -119q113 -117 113 -315v-676h-135v172q-146 -197 -404 -197zM568 92q142 0 256 89t114 225v114q-184 47 -345 47
q-161 -1 -249 -65t-88 -172v-6q0 -104 85 -168t227 -64zM625 1333q59 0 103 44q44 45 44 105t-44 104t-103 44t-103 -44t-45 -104q0 -60 44 -105q45 -44 104 -44zM625 1264q-94 0 -161 63t-67 153t67 156q67 64 161 64q95 0 161 -65t66 -155t-66 -152q-66 -64 -161 -64z" />
    <glyph glyph-name="ae" unicode="&#xe6;" horiz-adv-x="2052" 
d="M541 92q233 0 413 211q-41 100 -47 219q-187 45 -333 45q-146 -1 -232 -65t-86 -172v-6q0 -106 82 -169t203 -63zM526 -25q-168 -1 -290 91t-121 251v5q0 168 127 261q128 93 316 93t351 -47v43q0 154 -85 234q-86 80 -240 81q-154 0 -328 -84l-43 115q195 92 381 92
q328 0 407 -252q66 121 180 192t251 70q229 0 366 -165t137 -412q0 -29 -2 -49h-884q14 -182 130 -290t273 -108q205 0 358 164l91 -80q-188 -205 -453 -205q-133 -1 -249 59t-189 169q-210 -228 -484 -228zM1049 604h745q-12 170 -107 283t-255 113t-263 -112
q-104 -112 -120 -284z" />
    <glyph glyph-name="ccedilla" unicode="&#xe7;" horiz-adv-x="1236" 
d="M129 543v4q0 233 163 403q162 170 404 170t430 -200l-92 -97q-168 172 -345 172t-297 -130t-120 -314v-4q0 -187 123 -317t309 -130t340 172l91 -84q-182 -203 -418 -213l-142 -299l-139 64l164 242q-205 32 -338 192t-133 369z" />
    <glyph glyph-name="egrave" unicode="&#xe8;" horiz-adv-x="1273" 
d="M270 604h746q-12 170 -108 283t-254 113q-160 0 -264 -112t-120 -284zM672 -25q-227 0 -385 160t-158 410v4q0 239 150 405q151 166 377 166t364 -165t139 -412q0 -29 -4 -49h-885q16 -182 132 -290t274 -108q201 0 358 164l88 -80q-188 -205 -450 -205zM596 1268
l-236 225l152 72l195 -297h-111z" />
    <glyph glyph-name="eacute" unicode="&#xe9;" horiz-adv-x="1273" 
d="M270 604h746q-12 170 -108 283t-254 113q-160 0 -264 -112t-120 -284zM672 -25q-227 0 -385 160t-158 410v4q0 239 150 405q151 166 377 166t364 -165t139 -412q0 -29 -4 -49h-885q16 -182 132 -290t274 -108q201 0 358 164l88 -80q-188 -205 -450 -205zM594 1268
l194 297l152 -72l-235 -225h-111z" />
    <glyph glyph-name="ecircumflex" unicode="&#xea;" horiz-adv-x="1273" 
d="M270 604h746q-12 170 -108 283t-254 113q-160 0 -264 -112t-120 -284zM672 -25q-227 0 -385 160t-158 410v4q0 239 150 405q151 166 377 166t364 -165t139 -412q0 -29 -4 -49h-885q16 -182 132 -290t274 -108q201 0 358 164l88 -80q-188 -205 -450 -205zM373 1268
l219 270h119l221 -270h-123l-160 143l-160 -143h-116z" />
    <glyph glyph-name="edieresis" unicode="&#xeb;" horiz-adv-x="1273" 
d="M270 604h746q-12 170 -108 283t-254 113q-160 0 -264 -112t-120 -284zM672 -25q-227 0 -385 160t-158 410v4q0 239 150 405q151 166 377 166t364 -165t139 -412q0 -29 -4 -49h-885q16 -182 132 -290t274 -108q201 0 358 164l88 -80q-188 -205 -450 -205zM745 1268v188
h173v-188h-173zM385 1268v188h172v-188h-172z" />
    <glyph glyph-name="igrave" unicode="&#xec;" horiz-adv-x="567" 
d="M215 0v1094h137v-1094h-137zM229 1268l-235 225l151 72l195 -297h-111z" />
    <glyph glyph-name="iacute" unicode="&#xed;" horiz-adv-x="567" 
d="M215 0v1094h137v-1094h-137zM227 1268l195 297l151 -72l-235 -225h-111z" />
    <glyph glyph-name="icircumflex" unicode="&#xee;" horiz-adv-x="567" 
d="M215 0v1094h137v-1094h-137zM4 1268l219 270h119l221 -270h-123l-159 143l-160 -143h-117z" />
    <glyph glyph-name="idieresis" unicode="&#xef;" horiz-adv-x="567" 
d="M215 0v1094h137v-1094h-137zM377 1268v188h172v-188h-172zM16 1268v188h172v-188h-172z" />
    <glyph glyph-name="eth" unicode="&#xf0;" horiz-adv-x="1390" 
d="M272 541q0 -181 122 -311t303 -130t300 127t119 318v4q0 182 -123 304t-309 122t-299 -122t-113 -308v-4zM1260 598q0 -276 -159 -450t-403 -173q-244 0 -407 168q-162 168 -162 406v4q0 237 155 389q156 152 372 152t395 -166q-86 188 -316 403l-241 -108l-48 90l205 92
q-57 51 -184 149h203l108 -92l217 99l49 -91l-186 -84q401 -387 402 -784v-4z" />
    <glyph glyph-name="ntilde" unicode="&#xf1;" horiz-adv-x="1329" 
d="M201 0v1094h137v-195q129 221 383 221q199 0 313 -123t115 -321v-676h-137v643q0 162 -86 256t-237 94t-251 -102t-100 -262v-629h-137zM836 1268q-58 0 -158 43t-137 43t-61 -23t-46 -84l-88 25q31 117 75 165q45 48 103 48t158 -43t137 -43q37 1 61 23t46 81l88 -22
q-31 -117 -75 -165q-45 -48 -103 -48z" />
    <glyph glyph-name="ograve" unicode="&#xf2;" horiz-adv-x="1390" 
d="M272 547q0 -187 123 -317t304 -130t300 129t119 314v4q0 186 -123 317t-303 131t-300 -129t-120 -315v-4zM694 -25q-242 0 -404 167t-161 401v4q0 237 163 405q164 168 406 168t404 -167t162 -402v-4q0 -233 -164 -403t-406 -169zM641 1268l-235 225l151 72l195 -297
h-111z" />
    <glyph glyph-name="oacute" unicode="&#xf3;" horiz-adv-x="1390" 
d="M272 547q0 -187 123 -317t304 -130t300 129t119 314v4q0 186 -123 317t-303 131t-300 -129t-120 -315v-4zM694 -25q-242 0 -404 167t-161 401v4q0 237 163 405q164 168 406 168t404 -167t162 -402v-4q0 -233 -164 -403t-406 -169zM639 1268l195 297l151 -72l-235 -225
h-111z" />
    <glyph glyph-name="ocircumflex" unicode="&#xf4;" horiz-adv-x="1390" 
d="M272 547q0 -187 123 -317t304 -130t300 129t119 314v4q0 186 -123 317t-303 131t-300 -129t-120 -315v-4zM694 -25q-242 0 -404 167t-161 401v4q0 237 163 405q164 168 406 168t404 -167t162 -402v-4q0 -233 -164 -403t-406 -169zM418 1268l219 270h119l221 -270h-123
l-160 143l-159 -143h-117z" />
    <glyph glyph-name="otilde" unicode="&#xf5;" horiz-adv-x="1390" 
d="M272 547q0 -187 123 -317t304 -130t300 129t119 314v4q0 186 -123 317t-303 131t-300 -129t-120 -315v-4zM694 -25q-242 0 -404 167t-161 401v4q0 237 163 405q164 168 406 168t404 -167t162 -402v-4q0 -233 -164 -403t-406 -169zM860 1268q-58 0 -160 43
q-100 43 -137 43t-61 -23t-45 -84l-88 25q31 117 74 165q45 48 103 48t158 -43t138 -43q36 1 60 23t46 81l88 -22q-30 -117 -74 -165t-102 -48z" />
    <glyph glyph-name="odieresis" unicode="&#xf6;" horiz-adv-x="1390" 
d="M272 547q0 -187 123 -317t304 -130t300 129t119 314v4q0 186 -123 317t-303 131t-300 -129t-120 -315v-4zM694 -25q-242 0 -404 167t-161 401v4q0 237 163 405q164 168 406 168t404 -167t162 -402v-4q0 -233 -164 -403t-406 -169zM791 1268v188h172v-188h-172zM430 1268
v188h172v-188h-172z" />
    <glyph glyph-name="divide" unicode="&#xf7;" horiz-adv-x="1347" 
d="M575 229v207h195v-207h-195zM1192 686h-1036v127h1036v-127zM575 1063v207h195v-207h-195z" />
    <glyph glyph-name="oslash" unicode="&#xf8;" horiz-adv-x="1390" 
d="M1122 543v2q0 162 -94 284l-598 -636q116 -99 268 -97q184 0 304 129t120 318zM270 549q0 -160 90 -283l601 635q-117 96 -267 96q-184 0 -304 -129t-120 -317v-2zM1264 547q0 -233 -164 -403t-406 -169q-199 0 -350 119l-102 -104h-146l170 178q-137 160 -137 375v4
q0 237 163 405t406 168q201 0 351 -121l100 109h145l-170 -180q139 -158 140 -377v-4z" />
    <glyph glyph-name="ugrave" unicode="&#xf9;" horiz-adv-x="1329" 
d="M608 -25q-200 0 -314 122t-114 323v674h137v-643q0 -162 86 -256q86 -95 237 -95t251 102t100 263v629h137v-1094h-137v197q-129 -222 -383 -222zM600 1268l-235 225l151 72l195 -297h-111z" />
    <glyph glyph-name="uacute" unicode="&#xfa;" horiz-adv-x="1329" 
d="M608 -25q-200 0 -314 122t-114 323v674h137v-643q0 -162 86 -256q86 -95 237 -95t251 102t100 263v629h137v-1094h-137v197q-129 -222 -383 -222zM598 1268l195 297l151 -72l-235 -225h-111z" />
    <glyph glyph-name="ucircumflex" unicode="&#xfb;" horiz-adv-x="1329" 
d="M608 -25q-200 0 -314 122t-114 323v674h137v-643q0 -162 86 -256q86 -95 237 -95t251 102t100 263v629h137v-1094h-137v197q-129 -222 -383 -222zM375 1268l219 270h119l221 -270h-123l-160 143l-159 -143h-117z" />
    <glyph glyph-name="udieresis" unicode="&#xfc;" horiz-adv-x="1329" 
d="M608 -25q-200 0 -314 122t-114 323v674h137v-643q0 -162 86 -256q86 -95 237 -95t251 102t100 263v629h137v-1094h-137v197q-129 -222 -383 -222zM748 1268v188h172v-188h-172zM387 1268v188h172v-188h-172z" />
    <glyph glyph-name="yacute" unicode="&#xfd;" horiz-adv-x="1275" 
d="M358 -348q-119 0 -231 53l47 113q86 -41 172 -41t141 51t111 176l-510 1090h154l424 -942l368 942h150l-467 -1131q-70 -167 -155 -239t-204 -72zM590 1268l194 297l152 -72l-236 -225h-110z" />
    <glyph glyph-name="thorn" unicode="&#xfe;" horiz-adv-x="1431" 
d="M201 -340v1894h137v-690q172 256 434 256q209 0 368 -156t158 -413v-4q0 -256 -158 -414t-368 -158q-266 0 -434 246v-561h-137zM752 102q170 0 286 120t115 321v4q0 199 -118 323q-117 124 -285 123q-168 0 -293 -126t-125 -318v-4q0 -193 125 -318t295 -125z" />
    <glyph glyph-name="ydieresis" unicode="&#xff;" horiz-adv-x="1275" 
d="M358 -348q-119 0 -231 53l47 113q86 -41 172 -41t141 51t111 176l-510 1090h154l424 -942l368 942h150l-467 -1131q-70 -167 -155 -239t-204 -72zM739 1268v188h172v-188h-172zM379 1268v188h172v-188h-172z" />
    <glyph glyph-name="Amacron" unicode="&#x100;" horiz-adv-x="1703" 
d="M98 0l686 1501h136l686 -1501h-156l-180 406h-842l-182 -406h-148zM485 535h727l-362 804zM510 1696v123h684v-123h-684z" />
    <glyph glyph-name="amacron" unicode="&#x101;" horiz-adv-x="1249" 
d="M530 -25q-166 -1 -290 91t-125 251v5q0 168 129 261q130 93 328 93t362 -47v43q0 154 -89 234t-252 81q-163 0 -337 -84l-43 115q199 92 409 92t334 -119q113 -117 113 -315v-676h-135v172q-146 -197 -404 -197zM568 92q142 0 256 89t114 225v114q-184 47 -345 47
q-161 -1 -249 -65t-88 -172v-6q0 -104 85 -168t227 -64zM301 1317v117h647v-117h-647z" />
    <glyph glyph-name="Abreve" unicode="&#x102;" horiz-adv-x="1703" 
d="M98 0l686 1501h136l686 -1501h-156l-180 406h-842l-182 -406h-148zM485 535h727l-362 804zM852 1642q-127 0 -210 62t-91 168h113q38 -111 188 -111t188 111h113q-8 -106 -91 -168t-210 -62z" />
    <glyph glyph-name="abreve" unicode="&#x103;" horiz-adv-x="1249" 
d="M530 -25q-166 -1 -290 91t-125 251v5q0 168 129 261q130 93 328 93t362 -47v43q0 154 -89 234t-252 81q-163 0 -337 -84l-43 115q199 92 409 92t334 -119q113 -117 113 -315v-676h-135v172q-146 -197 -404 -197zM568 92q142 0 256 89t114 225v114q-184 47 -345 47
q-161 -1 -249 -65t-88 -172v-6q0 -104 85 -168t227 -64zM625 1264q-127 0 -210 68t-91 186h102q45 -136 199 -136t198 136h103q-8 -118 -91 -186t-210 -68z" />
    <glyph glyph-name="Aogonek" unicode="&#x104;" horiz-adv-x="1703" 
d="M485 535h727l-362 804zM1610 -350q-271 8 -271 178q0 84 109 176v2l-178 400h-842l-182 -406h-148l686 1501h136l686 -1501h-31q-59 -51 -85 -86t-26 -76q0 -88 160 -100v-88h-14z" />
    <glyph glyph-name="aogonek" unicode="&#x105;" horiz-adv-x="1249" 
d="M568 92q142 0 256 89t114 225v114q-184 47 -345 47q-161 -1 -249 -65t-88 -172v-6q0 -104 85 -168t227 -64zM1083 -350q-270 8 -270 180q0 86 121 184v158q-145 -197 -404 -197q-166 -1 -290 91t-125 251v5q0 168 129 261q130 93 328 93t362 -47v43q0 154 -89 234
t-252 81q-163 0 -337 -84l-43 115q199 92 409 92t334 -119q113 -117 113 -315v-676h-20q-59 -51 -85 -86t-26 -76q0 -88 160 -100v-88h-15z" />
    <glyph glyph-name="Cacute" unicode="&#x106;" horiz-adv-x="1601" 
d="M903 -25q-317 -1 -530 221t-213 545v4q0 322 214 546t535 225q187 0 321 -60t261 -176l-98 -106q-223 212 -483 212t-430 -184q-171 -184 -171 -452v-5q0 -270 173 -455t427 -186q149 0 263 56t233 168l94 -92q-129 -129 -267 -195t-329 -66zM838 1647l206 264l150 -70
l-238 -194h-118z" />
    <glyph glyph-name="cacute" unicode="&#x107;" horiz-adv-x="1236" 
d="M699 -25q-247 0 -409 167t-161 401v4q0 233 163 403q162 170 404 170t430 -200l-92 -97q-168 172 -345 172t-297 -130t-120 -314v-4q0 -187 123 -317t309 -130t340 172l91 -84q-189 -213 -436 -213zM623 1268l194 297l152 -72l-236 -225h-110z" />
    <glyph glyph-name="Cdotaccent" unicode="&#x10a;" horiz-adv-x="1601" 
d="M903 -25q-317 -1 -530 221t-213 545v4q0 322 214 546t535 225q187 0 321 -60t261 -176l-98 -106q-223 212 -483 212t-430 -184q-171 -184 -171 -452v-5q0 -270 173 -455t427 -186q149 0 263 56t233 168l94 -92q-129 -129 -267 -195t-329 -66zM805 1647v178h184v-178h-184
z" />
    <glyph glyph-name="cdotaccent" unicode="&#x10b;" horiz-adv-x="1236" 
d="M699 -25q-247 0 -409 167t-161 401v4q0 233 163 403q162 170 404 170t430 -200l-92 -97q-168 172 -345 172t-297 -130t-120 -314v-4q0 -187 123 -317t309 -130t340 172l91 -84q-189 -213 -436 -213zM588 1268v188h180v-188h-180z" />
    <glyph glyph-name="Ccaron" unicode="&#x10c;" horiz-adv-x="1601" 
d="M903 -25q-317 -1 -530 221t-213 545v4q0 322 214 546t535 225q187 0 321 -60t261 -176l-98 -106q-223 212 -483 212t-430 -184q-171 -184 -171 -452v-5q0 -270 173 -455t427 -186q149 0 263 56t233 168l94 -92q-129 -129 -267 -195t-329 -66zM1190 1888l-227 -241h-132
l-227 241h137l158 -129l158 129h133z" />
    <glyph glyph-name="ccaron" unicode="&#x10d;" horiz-adv-x="1236" 
d="M699 -25q-247 0 -409 167t-161 401v4q0 233 163 403q162 170 404 170t430 -200l-92 -97q-168 172 -345 172t-297 -130t-120 -314v-4q0 -187 123 -317t309 -130t340 172l91 -84q-189 -213 -436 -213zM958 1538l-221 -270h-119l-219 270h121l160 -143l160 143h118z" />
    <glyph glyph-name="Dcaron" unicode="&#x10e;" horiz-adv-x="1685" 
d="M735 1360h-366v-1229h366q289 0 466 174t177 436v4q0 263 -177 439t-466 176zM225 0v1491h510q347 0 569 -212t222 -529v-5q0 -319 -222 -532t-569 -213h-510zM1102 1868l-228 -242h-131l-227 242h137l158 -129l158 129h133z" />
    <glyph glyph-name="dcaron" unicode="&#x10f;" horiz-adv-x="1431" 
d="M659 -25q-209 0 -367 156t-159 412v4q0 256 159 415t367 158q268 0 435 -248v682h137v-1554h-137v231q-173 -256 -435 -256zM681 102q167 0 293 125t126 318v4q0 193 -126 319t-295 125q-169 0 -286 -121t-117 -321v-4q0 -197 119 -321t286 -124zM1552 1554v-6l-106 -329
h-72l33 335h145z" />
    <glyph glyph-name="Dcroat" unicode="&#x110;" horiz-adv-x="1748" 
d="M901 690h-469v-559h367q289 0 466 174t177 436v4q0 263 -177 439t-466 176h-367v-549h469v-121zM289 0v690h-160v121h160v680h510q348 0 570 -212t222 -529v-5q0 -319 -222 -532t-570 -213h-510z" />
    <glyph glyph-name="dcroat" unicode="&#x111;" horiz-adv-x="1431" 
d="M709 1309v108h385v137h137v-137h147v-108h-147v-1309h-137v231q-172 -256 -435 -256q-209 0 -367 156t-159 412v4q0 256 159 415t367 158q268 0 435 -248v437h-385zM681 102q167 0 293 125t126 318v4q0 193 -126 319t-295 125q-169 0 -286 -121t-117 -321v-4
q0 -197 119 -321t286 -124z" />
    <glyph glyph-name="Emacron" unicode="&#x112;" horiz-adv-x="1447" 
d="M225 0v1491h1071v-131h-927v-543h831v-131h-831v-555h938v-131h-1082zM422 1675v123h684v-123h-684z" />
    <glyph glyph-name="emacron" unicode="&#x113;" horiz-adv-x="1273" 
d="M270 604h746q-12 170 -108 283t-254 113q-160 0 -264 -112t-120 -284zM672 -25q-227 0 -385 160t-158 410v4q0 239 150 405q151 166 377 166t364 -165t139 -412q0 -29 -4 -49h-885q16 -182 132 -290t274 -108q201 0 358 164l88 -80q-188 -205 -450 -205zM328 1317v117
h647v-117h-647z" />
    <glyph glyph-name="Ebreve" unicode="&#x114;" horiz-adv-x="1447" 
d="M225 0v1491h1071v-131h-927v-543h831v-131h-831v-555h938v-131h-1082zM764 1622q-127 0 -210 61t-91 168h112q39 -111 189 -111t188 111h113q-8 -105 -91 -167t-210 -62z" />
    <glyph glyph-name="ebreve" unicode="&#x115;" horiz-adv-x="1273" 
d="M270 604h746q-12 170 -108 283t-254 113q-160 0 -264 -112t-120 -284zM672 -25q-227 0 -385 160t-158 410v4q0 239 150 405q151 166 377 166t364 -165t139 -412q0 -29 -4 -49h-885q16 -182 132 -290t274 -108q201 0 358 164l88 -80q-188 -205 -450 -205zM651 1264
q-127 0 -210 68t-91 186h103q45 -136 199 -136t198 136h102q-8 -118 -91 -186t-210 -68z" />
    <glyph glyph-name="Edotaccent" unicode="&#x116;" horiz-adv-x="1447" 
d="M225 0v1491h1071v-131h-927v-543h831v-131h-831v-555h938v-131h-1082zM672 1626v178h184v-178h-184z" />
    <glyph glyph-name="edotaccent" unicode="&#x117;" horiz-adv-x="1273" 
d="M270 604h746q-12 170 -108 283t-254 113q-160 0 -264 -112t-120 -284zM672 -25q-227 0 -385 160t-158 410v4q0 239 150 405q151 166 377 166t364 -165t139 -412q0 -29 -4 -49h-885q16 -182 132 -290t274 -108q201 0 358 164l88 -80q-188 -205 -450 -205zM561 1268v188
h180v-188h-180z" />
    <glyph glyph-name="Eogonek" unicode="&#x118;" horiz-adv-x="1447" 
d="M225 0v1491h1071v-131h-927v-543h831v-131h-831v-555h938v-131h-52q-59 -51 -85 -86t-25 -76q0 -88 160 -100v-88h-15q-130 4 -200 49t-70 127t102 174h-897z" />
    <glyph glyph-name="eogonek" unicode="&#x119;" horiz-adv-x="1273" 
d="M270 604h746q-12 170 -108 283t-254 113q-160 0 -264 -112t-120 -284zM854 -151q0 -51 38 -77t124 -34v-88h-15q-270 10 -270 178q0 78 80 162q-59 -14 -139 -15q-227 0 -385 160t-158 410v4q0 239 150 405q151 166 377 166t364 -165t139 -412q0 -29 -4 -49h-885
q16 -182 132 -290t274 -108q200 0 358 164l88 -80q-44 -52 -122 -116t-112 -114t-34 -101z" />
    <glyph glyph-name="Ecaron" unicode="&#x11a;" horiz-adv-x="1447" 
d="M225 0v1491h1071v-131h-927v-543h831v-131h-831v-555h938v-131h-1082zM1057 1868l-228 -242h-131l-227 242h137l158 -129l158 129h133z" />
    <glyph glyph-name="ecaron" unicode="&#x11b;" horiz-adv-x="1273" 
d="M270 604h746q-12 170 -108 283t-254 113q-160 0 -264 -112t-120 -284zM672 -25q-227 0 -385 160t-158 410v4q0 239 150 405q151 166 377 166t364 -165t139 -412q0 -29 -4 -49h-885q16 -182 132 -290t274 -108q201 0 358 164l88 -80q-188 -205 -450 -205zM932 1538
l-221 -270h-119l-219 270h121l159 -143l160 143h119z" />
    <glyph glyph-name="Gbreve" unicode="&#x11e;" horiz-adv-x="1689" 
d="M911 -25q-339 -1 -545 219t-206 547v4q0 313 209 541t534 230q176 0 304 -48t247 -149l-92 -109q-98 86 -206 131t-261 45q-252 0 -419 -187t-167 -449v-5q0 -283 166 -463t445 -180q126 0 246 44t204 114v397h-473v129h610v-585q-256 -226 -596 -226zM887 1642
q-127 0 -210 62t-91 168h112q39 -111 189 -111t188 111h113q-8 -106 -91 -168t-210 -62z" />
    <glyph glyph-name="gbreve" unicode="&#x11f;" horiz-adv-x="1431" 
d="M1231 182q-1 -242 -143 -384t-411 -142t-495 158l70 108q199 -145 432 -145q188 0 299 104t111 301v142q-174 -242 -441 -242q-207 0 -363 144t-157 372v4q0 230 157 374t363 144q268 0 441 -233v207h137v-912zM276 600q0 -170 118 -280t284 -111q166 1 294 111t128 280
v4q0 170 -128 280t-296 110t-284 -108t-116 -282v-4zM721 1264q-127 0 -210 68t-91 186h102q45 -136 199 -136t199 136h102q-8 -118 -91 -186t-210 -68z" />
    <glyph glyph-name="Gdotaccent" unicode="&#x120;" horiz-adv-x="1689" 
d="M911 -25q-339 -1 -545 219t-206 547v4q0 313 209 541t534 230q176 0 304 -48t247 -149l-92 -109q-98 86 -206 131t-261 45q-252 0 -419 -187t-167 -449v-5q0 -283 166 -463t445 -180q126 0 246 44t204 114v397h-473v129h610v-585q-256 -226 -596 -226zM795 1647v178h184
v-178h-184z" />
    <glyph glyph-name="gdotaccent" unicode="&#x121;" horiz-adv-x="1431" 
d="M1231 182q-1 -242 -143 -384t-411 -142t-495 158l70 108q199 -145 432 -145q188 0 299 104t111 301v142q-174 -242 -441 -242q-207 0 -363 144t-157 372v4q0 230 157 374t363 144q268 0 441 -233v207h137v-912zM276 600q0 -170 118 -280t284 -111q166 1 294 111t128 280
v4q0 170 -128 280t-296 110t-284 -108t-116 -282v-4zM631 1268v188h180v-188h-180z" />
    <glyph glyph-name="Gcommaaccent" unicode="&#x122;" horiz-adv-x="1689" 
d="M799 -319v163h176v-143q0 -178 -209 -203l-14 58q133 27 125 125h-78zM911 -25q-339 -1 -545 219t-206 547v4q0 313 209 541t534 230q176 0 304 -48t247 -149l-92 -109q-98 86 -206 131t-261 45q-252 0 -419 -187t-167 -449v-5q0 -283 166 -463t445 -180q126 0 246 44
t204 114v397h-473v129h610v-585q-256 -226 -596 -226z" />
    <glyph glyph-name="gcommaaccent" unicode="&#x123;" horiz-adv-x="1431" 
d="M1231 182q-1 -242 -143 -384t-411 -142t-495 158l70 108q199 -145 432 -145q188 0 299 104t111 301v142q-174 -242 -441 -242q-207 0 -363 144t-157 372v4q0 230 157 374t363 144q268 0 441 -233v207h137v-912zM276 600q0 -170 118 -280t284 -111q166 1 294 111t128 280
v4q0 170 -128 280t-296 110t-284 -108t-116 -282v-4zM807 1434v-166h-174v143q0 178 209 205l14 -60q-70 -12 -100 -42t-25 -80h76z" />
    <glyph glyph-name="Hbar" unicode="&#x126;" horiz-adv-x="1746" 
d="M121 1085v115h160v291h143v-291h901v291h143v-291h158v-115h-158v-1085h-143v674h-901v-674h-143v1085h-160zM424 807h901v278h-901v-278z" />
    <glyph glyph-name="hbar" unicode="&#x127;" horiz-adv-x="1329" 
d="M723 1309h-385v-410q129 221 383 221q199 0 313 -123t115 -321v-676h-137v643q0 162 -86 256t-237 94t-251 -102t-100 -262v-629h-137v1309h-150v108h150v137h137v-137h385v-108z" />
    <glyph glyph-name="Imacron" unicode="&#x12a;" horiz-adv-x="624" 
d="M240 0v1491h143v-1491h-143zM-31 1675v123h684v-123h-684z" />
    <glyph glyph-name="imacron" unicode="&#x12b;" horiz-adv-x="567" 
d="M215 0v1094h137v-1094h-137zM-41 1317v117h647v-117h-647z" />
    <glyph glyph-name="Ibreve" unicode="&#x12c;" horiz-adv-x="624" 
d="M240 0v1491h143v-1491h-143zM311 1622q-127 0 -210 61t-91 168h113q39 -111 189 -111t188 111h112q-8 -105 -91 -167t-210 -62z" />
    <glyph glyph-name="ibreve" unicode="&#x12d;" horiz-adv-x="567" 
d="M215 0v1094h137v-1094h-137zM283 1264q-127 0 -210 68t-91 186h102q45 -136 199 -136t198 136h103q-8 -118 -91 -186t-210 -68z" />
    <glyph glyph-name="Iogonek" unicode="&#x12e;" horiz-adv-x="624" 
d="M418 -350h-15q-131 4 -201 49t-69 127q0 82 107 176v1489h143v-1491h-14q-59 -51 -85 -86t-26 -76q0 -88 160 -100v-88z" />
    <glyph glyph-name="iogonek" unicode="&#x12f;" horiz-adv-x="567" 
d="M375 -350q-271 8 -271 178q0 84 111 178v1088h137v-1094h-12q-59 -51 -85 -86t-26 -76q0 -88 160 -100v-88h-14zM203 1354v166h162v-166h-162z" />
    <glyph glyph-name="Idotaccent" unicode="&#x130;" horiz-adv-x="624" 
d="M240 0v1491h143v-1491h-143zM219 1626v178h184v-178h-184z" />
    <glyph glyph-name="dotlessi" unicode="&#x131;" horiz-adv-x="567" 
d="M215 0v1094h137v-1094h-137z" />
    <glyph glyph-name="Kcommaaccent" unicode="&#x136;" horiz-adv-x="1548" 
d="M692 -307v164h176v-144q0 -177 -209 -202l-14 57q133 27 125 125h-78zM225 0v1491h144v-930l897 930h190l-647 -653l674 -838h-183l-591 735l-340 -344v-391h-144z" />
    <glyph glyph-name="kcommaaccent" unicode="&#x137;" horiz-adv-x="1222" 
d="M557 -317v163h176v-143q0 -178 -209 -203l-14 58q133 27 125 125h-78zM201 0v1554h137v-1114l629 654h176l-469 -476l483 -618h-168l-409 520l-242 -244v-276h-137z" />
    <glyph glyph-name="Lacute" unicode="&#x139;" horiz-adv-x="1329" 
d="M225 0v1491h144v-1360h856v-131h-1000zM260 1626l207 264l149 -69l-237 -195h-119z" />
    <glyph glyph-name="lacute" unicode="&#x13a;" horiz-adv-x="567" 
d="M215 0v1554h137v-1554h-137zM227 1673l207 264l150 -69l-238 -195h-119z" />
    <glyph glyph-name="Lcommaaccent" unicode="&#x13b;" horiz-adv-x="1329" 
d="M627 -317v163h176v-143q0 -178 -209 -203l-14 58q133 27 125 125h-78zM225 0v1491h144v-1360h856v-131h-1000z" />
    <glyph glyph-name="lcommaaccent" unicode="&#x13c;" horiz-adv-x="567" 
d="M193 -317v163h176v-143q0 -178 -209 -203l-15 58q133 27 125 125h-77zM215 0v1554h137v-1554h-137z" />
    <glyph glyph-name="Lcaron" unicode="&#x13d;" horiz-adv-x="1329" 
d="M225 0v1491h144v-1360h856v-131h-1000zM754 1491v-6l-107 -330h-72l33 336h146z" />
    <glyph glyph-name="lcaron" unicode="&#x13e;" horiz-adv-x="567" 
d="M674 1554v-6l-107 -329h-71l32 335h146zM215 0v1554h137v-1554h-137z" />
    <glyph glyph-name="Ldot" unicode="&#x13f;" horiz-adv-x="1329" 
d="M899 684v188h176v-188h-176zM225 0v1491h144v-1360h856v-131h-1000z" />
    <glyph glyph-name="ldot" unicode="&#x140;" horiz-adv-x="704" 
d="M543 690v187h170v-187h-170zM215 0v1554h137v-1554h-137z" />
    <glyph glyph-name="Lslash" unicode="&#x141;" horiz-adv-x="1394" 
d="M430 131h858v-131h-999v612l-160 -73v141l160 74v737h141v-670l389 183v-142l-389 -182v-549z" />
    <glyph glyph-name="lslash" unicode="&#x142;" horiz-adv-x="696" 
d="M416 0h-137v676l-162 -88v143l162 86v737h137v-663l162 90v-141l-162 -90v-750z" />
    <glyph glyph-name="Nacute" unicode="&#x143;" horiz-adv-x="1703" 
d="M225 0v1491h135l979 -1241v1241h140v-1491h-113l-1001 1268v-1268h-140zM795 1618l206 264l150 -70l-238 -194h-118z" />
    <glyph glyph-name="nacute" unicode="&#x144;" horiz-adv-x="1329" 
d="M201 0v1094h137v-195q129 221 383 221q199 0 313 -123t115 -321v-676h-137v643q0 162 -86 256t-237 94t-251 -102t-100 -262v-629h-137zM616 1268l195 297l152 -72l-236 -225h-111z" />
    <glyph glyph-name="Ncommaaccent" unicode="&#x145;" horiz-adv-x="1703" 
d="M762 -307v164h176v-144q0 -177 -209 -202l-14 57q133 27 125 125h-78zM225 0v1491h135l979 -1241v1241h140v-1491h-113l-1001 1268v-1268h-140z" />
    <glyph glyph-name="ncommaaccent" unicode="&#x146;" horiz-adv-x="1329" 
d="M584 -317v163h176v-143q0 -178 -209 -203l-14 58q133 27 125 125h-78zM201 0v1094h137v-195q129 221 383 221q199 0 313 -123t115 -321v-676h-137v643q0 162 -86 256t-237 94t-251 -102t-100 -262v-629h-137z" />
    <glyph glyph-name="Ncaron" unicode="&#x147;" horiz-adv-x="1703" 
d="M225 0v1491h135l979 -1241v1241h140v-1491h-113l-1001 1268v-1268h-140zM1145 1860l-227 -242h-132l-227 242h137l158 -129l158 129h133z" />
    <glyph glyph-name="ncaron" unicode="&#x148;" horiz-adv-x="1329" 
d="M201 0v1094h137v-195q129 221 383 221q199 0 313 -123t115 -321v-676h-137v643q0 162 -86 256t-237 94t-251 -102t-100 -262v-629h-137zM954 1538l-221 -270h-119l-219 270h121l160 -143l160 143h118z" />
    <glyph glyph-name="Omacron" unicode="&#x14c;" horiz-adv-x="1830" 
d="M918 104q260 0 432 184t172 453v4q0 269 -174 455t-434 186t-433 -184q-172 -184 -172 -452v-5q1 -269 175 -455t434 -186zM913 -25q-333 -1 -543 225t-210 541v4q0 315 213 543t545 228t542 -226t211 -540v-5q0 -315 -213 -543t-545 -227zM573 1696v123h684v-123h-684z
" />
    <glyph glyph-name="omacron" unicode="&#x14d;" horiz-adv-x="1390" 
d="M272 547q0 -187 123 -317t304 -130t300 129t119 314v4q0 186 -123 317t-303 131t-300 -129t-120 -315v-4zM694 -25q-242 0 -404 167t-161 401v4q0 237 163 405q164 168 406 168t404 -167t162 -402v-4q0 -233 -164 -403t-406 -169zM373 1317v117h647v-117h-647z" />
    <glyph glyph-name="Obreve" unicode="&#x14e;" horiz-adv-x="1830" 
d="M918 104q260 0 432 184t172 453v4q0 269 -174 455t-434 186t-433 -184q-172 -184 -172 -452v-5q1 -269 175 -455t434 -186zM913 -25q-333 -1 -543 225t-210 541v4q0 315 213 543t545 228t542 -226t211 -540v-5q0 -315 -213 -543t-545 -227zM915 1642q-127 0 -209 62
t-92 168h113q39 -111 189 -111t188 111h113q-7 -106 -91 -168t-211 -62z" />
    <glyph glyph-name="obreve" unicode="&#x14f;" horiz-adv-x="1390" 
d="M272 547q0 -187 123 -317t304 -130t300 129t119 314v4q0 186 -123 317t-303 131t-300 -129t-120 -315v-4zM694 -25q-242 0 -404 167t-161 401v4q0 237 163 405q164 168 406 168t404 -167t162 -402v-4q0 -233 -164 -403t-406 -169zM696 1264q-127 0 -210 68t-91 186h103
q44 -136 198 -136t199 136h102q-8 -118 -91 -186t-210 -68z" />
    <glyph glyph-name="Ohungarumlaut" unicode="&#x150;" horiz-adv-x="1830" 
d="M918 104q260 0 432 184t172 453v4q0 269 -174 455t-434 186t-433 -184q-172 -184 -172 -452v-5q1 -269 175 -455t434 -186zM913 -25q-333 -1 -543 225t-210 541v4q0 315 213 543t545 228t542 -226t211 -540v-5q0 -315 -213 -543t-545 -227zM680 1647l207 264l147 -70
l-237 -194h-117zM993 1647l207 264l148 -70l-236 -194h-119z" />
    <glyph glyph-name="ohungarumlaut" unicode="&#x151;" horiz-adv-x="1390" 
d="M272 547q0 -187 123 -317t304 -130t300 129t119 314v4q0 186 -123 317t-303 131t-300 -129t-120 -315v-4zM694 -25q-242 0 -404 167t-161 401v4q0 237 163 405q164 168 406 168t404 -167t162 -402v-4q0 -233 -164 -403t-406 -169zM774 1268l197 297l141 -72l-225 -225
h-113zM469 1268l197 297l139 -72l-223 -225h-113z" />
    <glyph glyph-name="OE" unicode="&#x152;" horiz-adv-x="2449" 
d="M952 131h310v1229h-310q-289 0 -466 -174t-177 -436v-5q0 -262 177 -438t466 -176zM952 0q-348 0 -570 212t-222 529v4q0 319 222 533t570 213h1346v-131h-893v-543h797v-131h-797v-555h903v-131h-1356z" />
    <glyph glyph-name="oe" unicode="&#x153;" horiz-adv-x="2260" 
d="M272 547q0 -187 123 -317t303 -130t299 129t119 314v4q0 186 -123 317t-303 131t-299 -130t-119 -314v-4zM1257 604h746q-11 170 -107 283t-255 113t-263 -112t-121 -284zM688 -25q-236 0 -398 167t-161 401v4q0 237 164 405t401 168q162 0 292 -85t196 -226
q63 141 184 226t274 85q230 0 368 -165t138 -412q0 -8 -4 -49h-885q15 -182 131 -290t273 -108q205 0 358 164l90 -80q-188 -205 -448 -205q-156 0 -285 84t-194 230q-66 -141 -197 -227t-297 -87z" />
    <glyph glyph-name="Racute" unicode="&#x154;" horiz-adv-x="1560" 
d="M225 0v1491h635q274 0 422 -148q115 -115 115 -286v-4q0 -178 -115 -289t-305 -143l473 -621h-176l-453 596h-452v-596h-144zM369 725h477q180 0 294 86t113 236v4q0 143 -106 226t-297 83h-481v-635zM700 1626l207 264l150 -69l-238 -195h-119z" />
    <glyph glyph-name="racute" unicode="&#x155;" horiz-adv-x="878" 
d="M201 0v1094h137v-297q63 147 186 234t277 81v-147h-10q-193 -1 -323 -139t-130 -384v-442h-137zM410 1268l194 297l152 -72l-236 -225h-110z" />
    <glyph glyph-name="Rcommaaccent" unicode="&#x156;" horiz-adv-x="1560" 
d="M668 -307v164h176v-144q0 -177 -209 -202l-14 57q133 27 124 125h-77zM225 0v1491h635q274 0 422 -148q115 -115 115 -286v-4q0 -178 -115 -289t-305 -143l473 -621h-176l-453 596h-452v-596h-144zM369 725h477q180 0 294 86t113 236v4q0 143 -106 226t-297 83h-481v-635
z" />
    <glyph glyph-name="rcommaaccent" unicode="&#x157;" horiz-adv-x="878" 
d="M197 -317v163h176v-143q0 -178 -209 -203l-14 58q133 27 124 125h-77zM201 0v1094h137v-297q63 147 186 234t277 81v-147h-10q-193 -1 -323 -139t-130 -384v-442h-137z" />
    <glyph glyph-name="Rcaron" unicode="&#x158;" horiz-adv-x="1560" 
d="M225 0v1491h635q274 0 422 -148q115 -115 115 -286v-4q0 -178 -115 -289t-305 -143l473 -621h-176l-453 596h-452v-596h-144zM369 725h477q180 0 294 86t113 236v4q0 143 -106 226t-297 83h-481v-635zM1051 1868l-228 -242h-131l-227 242h137l158 -129l158 129h133z" />
    <glyph glyph-name="rcaron" unicode="&#x159;" horiz-adv-x="878" 
d="M201 0v1094h137v-297q63 147 186 234t277 81v-147h-10q-193 -1 -323 -139t-130 -384v-442h-137zM745 1538l-221 -270h-118l-220 270h121l160 -143l160 143h118z" />
    <glyph glyph-name="Sacute" unicode="&#x15a;" horiz-adv-x="1384" 
d="M733 -20q-340 0 -604 237l90 107q123 -113 245 -165q122 -53 278 -53t253 77q98 77 99 198v4q0 115 -84 181t-335 119q-251 51 -369 149t-118 274v4q0 172 138 286t348 113q160 0 280 -44t238 -138l-86 -110q-199 166 -436 165q-150 0 -244 -74t-94 -186v-4
q0 -118 87 -186t337 -120t366 -150t115 -267v-4q0 -184 -141 -299q-142 -114 -363 -114zM649 1647l207 264l150 -70l-238 -194h-119z" />
    <glyph glyph-name="sacute" unicode="&#x15b;" horiz-adv-x="1081" 
d="M559 -20q-119 0 -241 43t-212 116l74 103q184 -141 385 -142q106 0 175 52t69 137v4q0 80 -71 122q-72 41 -176 71t-140 42t-95 40q-168 81 -165 233v4q0 137 102 224t264 87q211 0 392 -123l-66 -106q-170 109 -330 108q-102 0 -166 -49t-63 -125v-4q0 -89 126 -143
q56 -23 151 -52q96 -29 147 -49t109 -56q116 -72 116 -210v-4q0 -147 -110 -235t-275 -88zM492 1268l194 297l152 -72l-236 -225h-110z" />
    <glyph glyph-name="Scedilla" unicode="&#x15e;" horiz-adv-x="1384" 
d="M1094 385q0 115 -84 181t-335 119q-251 51 -369 149t-118 274v4q0 172 138 286t348 113q160 0 280 -44t238 -138l-86 -110q-199 166 -436 165q-150 0 -244 -74t-94 -186v-4q0 -118 87 -186t337 -120t366 -150t115 -267v-4q0 -174 -128 -287t-331 -124l-145 -306l-139 64
l163 244q-295 20 -528 233l90 107q123 -113 245 -165q122 -53 278 -53t253 77q98 77 99 198v4z" />
    <glyph glyph-name="scedilla" unicode="&#x15f;" horiz-adv-x="1081" 
d="M809 289v4q0 80 -71 122q-72 41 -176 71t-140 42t-95 40q-168 81 -165 233v4q0 137 102 224t264 87q211 0 392 -123l-66 -106q-170 109 -330 108q-102 0 -166 -49t-63 -125v-4q0 -89 126 -143q56 -23 151 -52q96 -29 147 -49t109 -56q116 -72 116 -210v-4
q0 -141 -99 -227t-253 -94l-146 -306l-139 64l166 246q-213 27 -367 153l74 103q184 -141 385 -142q106 0 175 52t69 137z" />
    <glyph glyph-name="Scaron" unicode="&#x160;" horiz-adv-x="1384" 
d="M733 -20q-340 0 -604 237l90 107q123 -113 245 -165q122 -53 278 -53t253 77q98 77 99 198v4q0 115 -84 181t-335 119q-251 51 -369 149t-118 274v4q0 172 138 286t348 113q160 0 280 -44t238 -138l-86 -110q-199 166 -436 165q-150 0 -244 -74t-94 -186v-4
q0 -118 87 -186t337 -120t366 -150t115 -267v-4q0 -184 -141 -299q-142 -114 -363 -114zM999 1888l-227 -241h-131l-227 241h137l158 -129l157 129h133z" />
    <glyph glyph-name="scaron" unicode="&#x161;" horiz-adv-x="1081" 
d="M559 -20q-119 0 -241 43t-212 116l74 103q184 -141 385 -142q106 0 175 52t69 137v4q0 80 -71 122q-72 41 -176 71t-140 42t-95 40q-168 81 -165 233v4q0 137 102 224t264 87q211 0 392 -123l-66 -106q-170 109 -330 108q-102 0 -166 -49t-63 -125v-4q0 -89 126 -143
q56 -23 151 -52q96 -29 147 -49t109 -56q116 -72 116 -210v-4q0 -147 -110 -235t-275 -88zM827 1538l-221 -270h-119l-219 270h121l160 -143l160 143h118z" />
    <glyph glyph-name="Tcommaaccent" unicode="&#x162;" horiz-adv-x="1382" 
d="M602 -317v163h176v-143q0 -178 -209 -203l-14 58q133 27 125 125h-78zM621 0v1358h-510v133h1161v-133h-508v-1358h-143z" />
    <glyph glyph-name="tcommaaccent" unicode="&#x163;" horiz-adv-x="876" 
d="M401 -317v163h177v-143q0 -178 -209 -203l-15 58q133 27 125 125h-78zM546 -18q-118 0 -203 74t-85 231v684h-156v123h156v340h137v-340h365v-123h-365v-668q0 -197 199 -197q74 0 160 39v-122q-90 -41 -208 -41z" />
    <glyph glyph-name="Tcaron" unicode="&#x164;" horiz-adv-x="1382" 
d="M621 0v1358h-510v133h1161v-133h-508v-1358h-143zM985 1868l-227 -242h-131l-228 242h138l157 -129l158 129h133z" />
    <glyph glyph-name="tcaron" unicode="&#x165;" horiz-adv-x="876" 
d="M546 -18q-118 0 -203 74t-85 231v684h-156v123h156v340h137v-340h365v-123h-365v-668q0 -197 199 -197q74 0 160 39v-122q-90 -41 -208 -41zM762 1577v-6l-107 -330h-71l32 336h146z" />
    <glyph glyph-name="Umacron" unicode="&#x16a;" horiz-adv-x="1638" 
d="M1436 635q0 -317 -167 -487t-449 -171q-282 0 -450 169t-167 477v868h143v-858q0 -250 126 -388q126 -139 348 -139t347 132t125 385v868h144v-856zM477 1667v123h684v-123h-684z" />
    <glyph glyph-name="umacron" unicode="&#x16b;" horiz-adv-x="1329" 
d="M608 -25q-200 0 -314 122t-114 323v674h137v-643q0 -162 86 -256q86 -95 237 -95t251 102t100 263v629h137v-1094h-137v197q-129 -222 -383 -222zM330 1317v117h647v-117h-647z" />
    <glyph glyph-name="Ubreve" unicode="&#x16c;" horiz-adv-x="1638" 
d="M1436 635q0 -317 -167 -487t-449 -171q-282 0 -450 169t-167 477v868h143v-858q0 -250 126 -388q126 -139 348 -139t347 132t125 385v868h144v-856zM819 1610q-127 0 -210 61t-91 168h113q39 -111 189 -111t188 111h112q-8 -105 -91 -167t-210 -62z" />
    <glyph glyph-name="ubreve" unicode="&#x16d;" horiz-adv-x="1329" 
d="M608 -25q-200 0 -314 122t-114 323v674h137v-643q0 -162 86 -256q86 -95 237 -95t251 102t100 263v629h137v-1094h-137v197q-129 -222 -383 -222zM653 1264q-127 0 -210 68t-91 186h103q45 -136 199 -136t198 136h102q-8 -118 -91 -186t-210 -68z" />
    <glyph glyph-name="Uring" unicode="&#x16e;" horiz-adv-x="1638" 
d="M1436 635q0 -317 -167 -487t-449 -171q-282 0 -450 169t-167 477v868h143v-858q0 -250 126 -388q126 -139 348 -139t347 132t125 385v868h144v-856zM819 1663q61 0 103 37q41 37 41 94t-41 95q-40 38 -102 38t-103 -38t-41 -95t41 -94t102 -37zM819 1587q-96 -1 -164 59
t-67 148q0 88 67 148q68 59 164 59t164 -59q68 -60 68 -148t-68 -148t-164 -59z" />
    <glyph glyph-name="uring" unicode="&#x16f;" horiz-adv-x="1329" 
d="M608 -25q-200 0 -314 122t-114 323v674h137v-643q0 -162 86 -256q86 -95 237 -95t251 102t100 263v629h137v-1094h-137v197q-129 -222 -383 -222zM653 1311q59 0 104 44q44 44 44 104q0 61 -44 105q-43 44 -103 44t-104 -44t-44 -104t44 -105q44 -44 103 -44zM653 1241
q-95 -1 -161 63t-66 154t67 155t161 65t160 -66q67 -64 67 -154t-67 -154t-161 -63z" />
    <glyph glyph-name="Uhungarumlaut" unicode="&#x170;" horiz-adv-x="1638" 
d="M1436 635q0 -317 -167 -487t-449 -171q-282 0 -450 169t-167 477v868h143v-858q0 -250 126 -388q126 -139 348 -139t347 132t125 385v868h144v-856zM584 1618l207 264l147 -70l-238 -194h-116zM897 1618l207 264l147 -70l-235 -194h-119z" />
    <glyph glyph-name="uhungarumlaut" unicode="&#x171;" horiz-adv-x="1329" 
d="M608 -25q-200 0 -314 122t-114 323v674h137v-643q0 -162 86 -256q86 -95 237 -95t251 102t100 263v629h137v-1094h-137v197q-129 -222 -383 -222zM733 1268l197 297l141 -72l-225 -225h-113zM428 1268l197 297l139 -72l-223 -225h-113z" />
    <glyph glyph-name="Uogonek" unicode="&#x172;" horiz-adv-x="1638" 
d="M950 -350h-14q-131 4 -201 49q-69 45 -69 123t82 160q-250 20 -398 186q-147 166 -147 455v868h143v-858q0 -250 126 -388q126 -139 348 -139t347 132t125 385v868h144v-856q0 -301 -151 -470t-406 -185q-88 -76 -88 -142q-1 -88 159 -100v-88z" />
    <glyph glyph-name="uogonek" unicode="&#x173;" horiz-adv-x="1329" 
d="M1161 -350h-14q-273 8 -271 178q0 84 115 182v187q-129 -221 -383 -222q-200 0 -314 122t-114 323v674h137v-643q0 -162 86 -256q86 -95 237 -95t251 102t100 263v629h137v-1094h-16q-59 -51 -85 -86t-26 -76q0 -88 160 -100v-88z" />
    <glyph glyph-name="Wcircumflex" unicode="&#x174;" horiz-adv-x="2373" 
d="M647 -10l-536 1501h157l445 -1280l422 1284h114l420 -1284l445 1280h149l-534 -1501h-121l-420 1247l-422 -1247h-119zM895 1626l227 242h131l228 -242h-138l-157 129l-158 -129h-133z" />
    <glyph glyph-name="wcircumflex" unicode="&#x175;" horiz-adv-x="1853" 
d="M498 -8l-392 1102h150l305 -914l311 920h113l311 -920l308 914h143l-391 -1102h-119l-309 895l-312 -895h-118zM647 1268l219 270h119l221 -270h-123l-159 143l-160 -143h-117z" />
    <glyph glyph-name="Ycircumflex" unicode="&#x176;" horiz-adv-x="1546" 
d="M700 0v590l-628 901h176l526 -770l531 770h168l-629 -899v-592h-144zM479 1618l228 242h131l227 -242h-137l-158 129l-158 -129h-133z" />
    <glyph glyph-name="ycircumflex" unicode="&#x177;" horiz-adv-x="1275" 
d="M358 -348q-119 0 -231 53l47 113q86 -41 172 -41t141 51t111 176l-510 1090h154l424 -942l368 942h150l-467 -1131q-70 -167 -155 -239t-204 -72zM367 1268l219 270h119l221 -270h-123l-160 143l-160 -143h-116z" />
    <glyph glyph-name="Ydieresis" unicode="&#x178;" horiz-adv-x="1546" 
d="M700 0v590l-628 901h176l526 -770l531 770h168l-629 -899v-592h-144zM879 1618v178h178v-178h-178zM489 1618v178h181v-178h-181z" />
    <glyph glyph-name="Zacute" unicode="&#x179;" horiz-adv-x="1492" 
d="M154 0v90l989 1272h-955v129h1153v-90l-991 -1272h991v-129h-1187zM707 1626l206 264l150 -69l-238 -195h-118z" />
    <glyph glyph-name="zacute" unicode="&#x17a;" horiz-adv-x="1204" 
d="M131 0v84l756 891h-727v119h919v-84l-755 -891h755v-119h-948zM555 1268l195 297l151 -72l-235 -225h-111z" />
    <glyph glyph-name="Zdotaccent" unicode="&#x17b;" horiz-adv-x="1492" 
d="M154 0v90l989 1272h-955v129h1153v-90l-991 -1272h991v-129h-1187zM672 1626v178h184v-178h-184z" />
    <glyph glyph-name="zdotaccent" unicode="&#x17c;" horiz-adv-x="1204" 
d="M131 0v84l756 891h-727v119h919v-84l-755 -891h755v-119h-948zM520 1268v188h180v-188h-180z" />
    <glyph glyph-name="Zcaron" unicode="&#x17d;" horiz-adv-x="1492" 
d="M154 0v90l989 1272h-955v129h1153v-90l-991 -1272h991v-129h-1187zM1057 1868l-228 -242h-131l-227 242h137l158 -129l158 129h133z" />
    <glyph glyph-name="zcaron" unicode="&#x17e;" horiz-adv-x="1204" 
d="M131 0v84l756 891h-727v119h919v-84l-755 -891h755v-119h-948zM891 1538l-221 -270h-119l-219 270h121l159 -143l160 143h119z" />
    <glyph glyph-name="florin" unicode="&#x192;" horiz-adv-x="1107" 
d="M205 -10q-49 0 -107 8v119q41 -8 95 -8q139 0 169 167l99 529h-219v121h241l52 270q59 305 299 305q116 0 186 -22v-119q-82 20 -157 20t-121 -47t-66 -153l-47 -254h317v-121h-338l-102 -541q-27 -141 -99 -208q-73 -66 -202 -66z" />
    <glyph glyph-name="Aringacute" unicode="&#x1fa;" horiz-adv-x="1703" 
d="M852 1808q96 0 164 -60t67 -149q0 -125 -125 -184l648 -1415h-156l-180 406h-842l-182 -406h-148l645 1417q-123 57 -122 182q0 88 67 149q68 60 164 60zM485 535h727l-362 804zM851 1468q60 0 102 38t42 94t-42 94t-102 39q-60 0 -101 -38q-41 -39 -41 -95t41 -94
t101 -38zM786 1870l209 239l146 -67l-236 -172h-119z" />
    <glyph glyph-name="aringacute" unicode="&#x1fb;" horiz-adv-x="1249" 
d="M530 -25q-166 -1 -290 91t-125 251v5q0 168 129 261q130 93 328 93t362 -47v43q0 154 -89 234t-252 81q-163 0 -337 -84l-43 115q199 92 409 92t334 -119q113 -117 113 -315v-676h-135v172q-146 -197 -404 -197zM568 92q142 0 256 89t114 225v114q-184 47 -345 47
q-161 -1 -249 -65t-88 -172v-6q0 -104 85 -168t227 -64zM625 1333q59 0 103 44q44 45 44 105t-44 104t-103 44t-103 -44t-45 -104q0 -60 44 -105q45 -44 104 -44zM625 1264q-94 0 -161 63t-67 153t67 156q67 64 161 64q95 0 161 -65t66 -155t-66 -152q-66 -64 -161 -64z
M565 1759l199 260l149 -71l-231 -189h-117z" />
    <glyph glyph-name="AEacute" unicode="&#x1fc;" horiz-adv-x="2246" 
d="M2095 1491v-131h-893v-543h797v-131h-797v-555h903v-131h-1046v406h-619l-239 -406h-152l889 1491h1157zM1059 535v829h-53l-492 -829h545zM1296 1626l207 264l150 -69l-238 -195h-119z" />
    <glyph glyph-name="aeacute" unicode="&#x1fd;" horiz-adv-x="2052" 
d="M541 92q233 0 413 211q-41 100 -47 219q-187 45 -333 45q-146 -1 -232 -65t-86 -172v-6q0 -106 82 -169t203 -63zM526 -25q-168 -1 -290 91t-121 251v5q0 168 127 261q128 93 316 93t351 -47v43q0 154 -85 234q-86 80 -240 81q-154 0 -328 -84l-43 115q195 92 381 92
q328 0 407 -252q66 121 180 192t251 70q229 0 366 -165t137 -412q0 -29 -2 -49h-884q14 -182 130 -290t273 -108q205 0 358 164l91 -80q-188 -205 -453 -205q-133 -1 -249 59t-189 169q-210 -228 -484 -228zM1049 604h745q-12 170 -107 283t-255 113t-263 -112
q-104 -112 -120 -284zM969 1268l194 297l152 -72l-236 -225h-110z" />
    <glyph glyph-name="Oslashacute" unicode="&#x1fe;" horiz-adv-x="1830" 
d="M1526 741v2q0 242 -148 426l-852 -925q169 -144 392 -142q262 0 435 186t173 453zM305 748q0 -242 148 -426l850 925q-164 141 -408 141t-417 -184q-173 -186 -173 -454v-2zM1671 745q0 -315 -213 -542t-545 -228q-276 0 -477 164l-139 -149h-156l213 227
q-195 217 -194 524v4q0 315 213 543t545 228q274 0 475 -164l141 149h156l-213 -229q195 -217 194 -522v-5zM858 1647l207 264l149 -70l-237 -194h-119z" />
    <glyph glyph-name="oslashacute" unicode="&#x1ff;" horiz-adv-x="1390" 
d="M1122 543v2q0 162 -94 284l-598 -636q116 -99 268 -97q184 0 304 129t120 318zM270 549q0 -160 90 -283l601 635q-117 96 -267 96q-184 0 -304 -129t-120 -317v-2zM1264 547q0 -233 -164 -403t-406 -169q-199 0 -350 119l-102 -104h-146l170 178q-137 160 -137 375v4
q0 237 163 405t406 168q201 0 351 -121l100 109h145l-170 -180q139 -158 140 -377v-4zM639 1268l195 297l151 -72l-235 -225h-111z" />
    <glyph glyph-name="Scommaaccent" unicode="&#x218;" horiz-adv-x="1384" 
d="M618 -319v163h177v-143q0 -178 -209 -203l-15 58q133 27 125 125h-78zM733 -20q-340 0 -604 237l90 107q123 -113 245 -165q122 -53 278 -53t253 77q98 77 99 198v4q0 115 -84 181t-335 119q-251 51 -369 149t-118 274v4q0 172 138 286t348 113q160 0 280 -44t238 -138
l-86 -110q-199 166 -436 165q-150 0 -244 -74t-94 -186v-4q0 -118 87 -186t337 -120t366 -150t115 -267v-4q0 -184 -141 -299q-142 -114 -363 -114z" />
    <glyph glyph-name="scommaaccent" unicode="&#x219;" horiz-adv-x="1081" 
d="M459 -317v163h176v-143q0 -178 -209 -203l-14 58q133 27 125 125h-78zM559 -20q-119 0 -241 43t-212 116l74 103q184 -141 385 -142q106 0 175 52t69 137v4q0 80 -71 122q-72 41 -176 71t-140 42t-95 40q-168 81 -165 233v4q0 137 102 224t264 87q211 0 392 -123
l-66 -106q-170 109 -330 108q-102 0 -166 -49t-63 -125v-4q0 -89 126 -143q56 -23 151 -52q96 -29 147 -49t109 -56q116 -72 116 -210v-4q0 -147 -110 -235t-275 -88z" />
    <glyph glyph-name="schwa" unicode="&#x259;" horiz-adv-x="1273" 
d="M620 96q160 0 264 112t120 281h-746q12 -169 108 -281t254 -112zM602 1120q227 0 385 -160t158 -409v-4q0 -240 -150 -406q-151 -166 -377 -166t-365 164q-138 164 -138 412q0 31 2 49h887q-16 182 -132 290t-274 107q-203 0 -358 -161l-88 77q182 207 450 207z" />
    <glyph glyph-name="circumflex" unicode="&#x2c6;" horiz-adv-x="1085" 
d="M264 1268l219 270h119l221 -270h-123l-159 143l-160 -143h-117z" />
    <glyph glyph-name="caron" unicode="&#x2c7;" horiz-adv-x="1085" 
d="M823 1538l-221 -270h-119l-219 270h121l160 -143l160 143h118z" />
    <glyph glyph-name="breve" unicode="&#x2d8;" horiz-adv-x="1085" 
d="M543 1264q-127 0 -210 68t-91 186h102q45 -136 199 -136t198 136h103q-8 -118 -91 -186t-210 -68z" />
    <glyph glyph-name="dotaccent" unicode="&#x2d9;" horiz-adv-x="1085" 
d="M453 1268v188h180v-188h-180z" />
    <glyph glyph-name="ring" unicode="&#x2da;" horiz-adv-x="1085" 
d="M543 1333q59 0 103 44q44 45 44 105t-44 104t-103 44t-103 -44t-45 -104q0 -60 44 -105q45 -44 104 -44zM543 1264q-94 0 -161 63t-67 153t67 156q67 64 161 64q95 0 161 -65t66 -155t-66 -152q-66 -64 -161 -64z" />
    <glyph glyph-name="ogonek" unicode="&#x2db;" horiz-adv-x="1085" 
d="M705 -350h-15q-131 4 -201 49t-69 121q0 98 145 215l97 -31q-62 -51 -90 -88t-27 -78q0 -88 160 -100v-88z" />
    <glyph glyph-name="tilde" unicode="&#x2dc;" horiz-adv-x="1085" 
d="M700 1268q-58 0 -159 43q-100 43 -137 43t-61 -23t-46 -84l-88 25q31 117 75 165t102 48t158 -43t138 -43q36 1 60 23t46 81l89 -22q-31 -117 -75 -165t-102 -48z" />
    <glyph glyph-name="hungarumlaut" unicode="&#x2dd;" horiz-adv-x="1085" 
d="M528 1268l197 297l141 -72l-225 -225h-113zM223 1268l197 297l139 -72l-223 -225h-113z" />
    <glyph glyph-name="commaaccent" unicode="&#x326;" horiz-adv-x="1085" 
d="M455 -317v163h176v-143q0 -178 -209 -203l-14 58q133 27 124 125h-77z" />
    <glyph glyph-name="baht" unicode="&#xe3f;" horiz-adv-x="1368" 
d="M733 121q176 0 278 76q101 76 101 211v2q0 137 -102 213q-103 75 -293 73h-15l-94 -575h125zM344 121h164l94 575h-258v-575zM1053 1102q1 102 -63 171t-179 89l-90 -555q154 4 243 81t89 212v2zM344 807h277l90 563h-367v-563zM211 0v1491h514l27 168h114l-28 -178
q160 -27 254 -122t94 -239v-2q0 -260 -264 -354q324 -84 323 -356v-2q0 -188 -141 -297t-375 -109h-135l-39 -252h-115l39 252h-268z" />
    <glyph glyph-name="Wgrave" unicode="&#x1e80;" horiz-adv-x="2373" 
d="M647 -10l-536 1501h157l445 -1280l422 1284h114l420 -1284l445 1280h149l-534 -1501h-121l-420 1247l-422 -1247h-119zM1245 1626h-119l-237 195l149 69z" />
    <glyph glyph-name="wgrave" unicode="&#x1e81;" horiz-adv-x="1853" 
d="M498 -8l-392 1102h150l305 -914l311 920h113l311 -920l308 914h143l-391 -1102h-119l-309 895l-312 -895h-118zM872 1268l-235 225l151 72l195 -297h-111z" />
    <glyph glyph-name="Wacute" unicode="&#x1e82;" horiz-adv-x="2373" 
d="M647 -10l-536 1501h157l445 -1280l422 1284h114l420 -1284l445 1280h149l-534 -1501h-121l-420 1247l-422 -1247h-119zM1128 1626l207 264l150 -69l-238 -195h-119z" />
    <glyph glyph-name="wacute" unicode="&#x1e83;" horiz-adv-x="1853" 
d="M498 -8l-392 1102h150l305 -914l311 920h113l311 -920l308 914h143l-391 -1102h-119l-309 895l-312 -895h-118zM870 1268l195 297l152 -72l-236 -225h-111z" />
    <glyph glyph-name="Wdieresis" unicode="&#x1e84;" horiz-adv-x="2373" 
d="M647 -10l-536 1501h157l445 -1280l422 1284h114l420 -1284l445 1280h149l-534 -1501h-121l-420 1247l-422 -1247h-119zM1292 1626v178h178v-178h-178zM903 1626v178h180v-178h-180z" />
    <glyph glyph-name="wdieresis" unicode="&#x1e85;" horiz-adv-x="1853" 
d="M498 -8l-392 1102h150l305 -914l311 920h113l311 -920l308 914h143l-391 -1102h-119l-309 895l-312 -895h-118zM1020 1268v188h172v-188h-172zM659 1268v188h172v-188h-172z" />
    <glyph glyph-name="Ygrave" unicode="&#x1ef2;" horiz-adv-x="1546" 
d="M700 0v590l-628 901h176l526 -770l531 770h168l-629 -899v-592h-144zM831 1618h-118l-238 194l150 70z" />
    <glyph glyph-name="ygrave" unicode="&#x1ef3;" horiz-adv-x="1275" 
d="M358 -348q-119 0 -231 53l47 113q86 -41 172 -41t141 51t111 176l-510 1090h154l424 -942l368 942h150l-467 -1131q-70 -167 -155 -239t-204 -72zM592 1268l-236 225l152 72l194 -297h-110z" />
    <glyph glyph-name="enspace" unicode="&#x2002;" horiz-adv-x="1024" 
 />
    <glyph glyph-name="emspace" unicode="&#x2003;" horiz-adv-x="2048" 
 />
    <glyph glyph-name="threeperemspace" unicode="&#x2004;" horiz-adv-x="681" 
 />
    <glyph glyph-name="fourperemspace" unicode="&#x2005;" horiz-adv-x="512" 
 />
    <glyph glyph-name="figurespace" unicode="&#x2007;" horiz-adv-x="1290" 
 />
    <glyph glyph-name="thinspace" unicode="&#x2009;" horiz-adv-x="272" 
 />
    <glyph glyph-name="hairspace" unicode="&#x200a;" horiz-adv-x="153" 
 />
    <glyph glyph-name="endash" unicode="&#x2013;" horiz-adv-x="1144" 
d="M154 567v140h837v-140h-837z" />
    <glyph glyph-name="emdash" unicode="&#x2014;" horiz-adv-x="1933" 
d="M154 567v140h1626v-140h-1626z" />
    <glyph glyph-name="quoteleft" unicode="&#x2018;" horiz-adv-x="528" 
d="M168 1051v178q0 115 49 178t160 94l26 -65q-77 -31 -107 -73t-26 -108h70v-204h-172z" />
    <glyph glyph-name="quoteright" unicode="&#x2019;" horiz-adv-x="528" 
d="M188 1286v205h172v-176q0 -115 -48 -179t-160 -96l-27 66q77 33 107 74t26 106h-70z" />
    <glyph glyph-name="quotesinglbase" unicode="&#x201a;" horiz-adv-x="528" 
d="M178 0v205h172v-176q0 -115 -49 -179t-160 -96l-26 66q77 33 107 75t26 105h-70z" />
    <glyph glyph-name="quotedblleft" unicode="&#x201c;" horiz-adv-x="935" 
d="M575 1051v178q-1 115 49 178t160 94l27 -65q-76 -31 -108 -73t-25 -108h67v-204h-170zM168 1051v178q0 115 49 178t160 94l26 -65q-77 -31 -107 -73t-26 -108h70v-204h-172z" />
    <glyph glyph-name="quotedblright" unicode="&#x201d;" horiz-adv-x="935" 
d="M596 1286v205h172v-176q0 -115 -49 -179t-162 -96l-25 66q76 33 107 74t27 106h-70zM188 1286v205h172v-176q0 -115 -48 -179t-160 -96l-27 66q77 33 107 74t26 106h-70z" />
    <glyph glyph-name="quotedblbase" unicode="&#x201e;" horiz-adv-x="935" 
d="M586 0v205h172v-176q0 -115 -49 -179t-162 -96l-25 66q76 33 107 75t24 105h-67zM178 0v205h172v-176q0 -115 -49 -179t-160 -96l-26 66q77 33 107 75t26 105h-70z" />
    <glyph glyph-name="dagger" unicode="&#x2020;" horiz-adv-x="892" 
d="M393 508l13 602l-265 -14v106l262 -14l-16 303h119l-17 -303l263 14v-106l-265 14l13 -602h-107z" />
    <glyph glyph-name="daggerdbl" unicode="&#x2021;" horiz-adv-x="935" 
d="M408 0l18 303l-264 -14v106l264 -14l-10 364l10 365l-264 -14v106l264 -14l-18 303h120l-16 -303l262 14v-106l-264 14l12 -365l-12 -364l264 14v-106l-262 14l16 -303h-120z" />
    <glyph glyph-name="bullet" unicode="&#x2022;" horiz-adv-x="1030" 
d="M516 477q-112 0 -192 79t-80 192v4q0 110 81 190t191 80t191 -80q82 -80 81 -190v-4q0 -113 -80 -192t-192 -79z" />
    <glyph glyph-name="ellipsis" unicode="&#x2026;" horiz-adv-x="1519" 
d="M1176 0v201h165v-201h-165zM676 0v201h168v-201h-168zM178 0v201h166v-201h-166z" />
    <glyph glyph-name="perthousand" unicode="&#x2030;" horiz-adv-x="2588" 
d="M1124 365q0 -117 60 -196t149 -79q88 0 146 78q57 78 57 192v5q0 117 -61 195t-149 79q-88 0 -144 -79q-57 -79 -58 -191v-4zM1927 365q1 -117 61 -196t148 -79t144 78t57 192v5q-1 117 -61 195t-147 79q-87 0 -144 -79t-58 -191v-4zM1328 -16q-146 0 -238 110t-93 266v5
q1 157 95 269t239 112t239 -112q93 -112 93 -265v-4q0 -156 -94 -269q-95 -112 -241 -112zM2131 -16q-146 0 -240 110q-93 111 -93 266v5q0 157 94 269t240 112t241 -112q93 -112 93 -265v-4q0 -156 -94 -269q-95 -112 -241 -112zM252 1126q0 -118 60 -196t149 -78
q88 0 145 78t58 192v4q0 117 -62 196t-148 79t-144 -79t-58 -192v-4zM1507 1491l-1093 -1491h-135l569 772l524 719h135zM791 1126q-1 -156 -95 -268t-240 -113q-146 0 -239 112q-92 112 -92 265v4q0 158 93 270q94 112 240 112t239 -112t94 -266v-4z" />
    <glyph glyph-name="guilsinglleft" unicode="&#x2039;" horiz-adv-x="702" 
d="M463 90l-348 449v16l348 451l100 -62l-287 -395l287 -399z" />
    <glyph glyph-name="guilsinglright" unicode="&#x203a;" horiz-adv-x="702" 
d="M240 90l-101 60l287 395l-287 399l101 62l348 -451v-16z" />
    <glyph glyph-name="fraction" unicode="&#x2044;" horiz-adv-x="233" 
d="M-442 0l526 762l487 729h105l-526 -762l-488 -729h-104z" />
    <glyph glyph-name="zero.sup" unicode="&#x2070;" 
d="M428 1661q-94 0 -149 -95t-56 -245v-6q1 -150 57 -246t150 -96t151 96q56 96 56 246v6q0 147 -57 244q-58 96 -152 96zM428 885q-137 0 -220 120t-83 308v4q0 188 84 310t221 122t222 -120t85 -308v-4q0 -188 -86 -310t-223 -122z" />
    <glyph glyph-name="four.sup" unicode="&#x2074;" 
d="M547 1176v442l-326 -442h326zM639 1092v-191h-92v191h-406l-24 84l411 565h111v-565h115v-84h-115z" />
    <glyph glyph-name="five.sup" unicode="&#x2075;" 
d="M424 885q-172 0 -301 139l65 70q111 -121 238 -121q90 0 145 51t55 128t-56 122t-145 45t-185 -45l-66 39l29 416h487v-97h-405l-19 -258q80 35 188 35t191 -69q84 -70 84 -186t-88 -192t-217 -77z" />
    <glyph glyph-name="six.sup" unicode="&#x2076;" 
d="M616 1161q0 84 -50 134q-50 51 -134 51t-140 -52t-56 -133v-2q0 -80 55 -134t136 -53t135 53t54 136zM713 1165q0 -119 -82 -199t-205 -81q-123 0 -203 80q-100 100 -100 321v4q0 205 92 332q91 127 235 127t242 -98l-57 -72q-86 82 -181 82t-163 -96t-70 -242
q88 107 212 107t202 -73t78 -192z" />
    <glyph glyph-name="seven.sup" unicode="&#x2077;" 
d="M152 1632v97h569v-74l-373 -754h-112l370 731h-454z" />
    <glyph glyph-name="eight.sup" unicode="&#x2078;" 
d="M432 1288q-92 0 -150 -46t-58 -116t56 -114q58 -44 151 -43q93 0 151 44q57 43 57 113t-57 116q-58 46 -150 46zM616 1518q0 66 -52 106t-133 41q-81 0 -132 -41q-51 -40 -51 -106t52 -109t132 -43t132 43t52 109zM431 885q-132 1 -217 67t-85 172q0 139 156 207
q-131 63 -131 191q0 98 82 162t196 65q114 0 197 -65q82 -65 82 -162q0 -129 -131 -191q70 -29 112 -82t43 -121q0 -109 -86 -176t-218 -67z" />
    <glyph glyph-name="nine.sup" unicode="&#x2079;" 
d="M434 1749q123 0 203 -80q100 -100 100 -321v-5q0 -209 -92 -333q-91 -124 -237 -125q-146 0 -252 102l59 72q91 -86 189 -86t166 93t69 237q-88 -107 -212 -107t-202 73t-78 195t82 203q82 82 205 82zM428 1280q84 0 140 53t57 135v2q1 82 -55 138t-138 54
q-82 -1 -135 -54q-53 -54 -53 -140t50 -137t134 -51z" />
    <glyph glyph-name="zero.inf" unicode="&#x2080;" 
d="M428 475q-94 0 -149 -95t-56 -245v-6q1 -150 57 -246t150 -96t151 96q56 96 56 246v6q0 147 -57 244q-58 96 -152 96zM428 -301q-137 0 -220 120t-83 308v4q0 188 84 310t221 122t222 -120t85 -308v-4q0 -188 -86 -310t-223 -122z" />
    <glyph glyph-name="one.inf" unicode="&#x2081;" horiz-adv-x="700" 
d="M446 -281h-98v734l-186 -70l-25 86l230 88h79v-838z" />
    <glyph glyph-name="two.inf" unicode="&#x2082;" 
d="M131 -281v84l313 273q90 80 128 134t38 117t-47 105t-119 43q-129 0 -227 -147l-74 49q119 186 308 186q113 -1 187 -67t73 -158q0 -92 -44 -157t-151 -156l-250 -213h453v-93h-588z" />
    <glyph glyph-name="three.inf" unicode="&#x2083;" 
d="M426 -301q-193 0 -309 151l67 66q104 -129 244 -129q76 0 128 45t52 119t-63 116t-164 42h-66l-18 61l274 281h-409v92h534v-80l-266 -273q123 -10 201 -70t78 -171t-82 -181t-201 -69z" />
    <glyph glyph-name="four.inf" unicode="&#x2084;" 
d="M547 -10v442l-326 -442h326zM639 -94v-191h-92v191h-406l-24 84l411 565h111v-565h115v-84h-115z" />
    <glyph glyph-name="five.inf" unicode="&#x2085;" 
d="M424 -301q-172 0 -301 139l65 70q111 -121 238 -121q90 0 145 51t55 128t-56 122t-145 45t-185 -45l-66 39l29 416h487v-97h-405l-19 -258q80 35 188 35q108 -1 191 -69q84 -68 84 -185t-88 -193t-217 -77z" />
    <glyph glyph-name="six.inf" unicode="&#x2086;" 
d="M616 -25q0 85 -50 135t-134 50t-140 -52t-56 -133v-2q0 -80 55 -134t136 -53t135 53t54 136zM426 -301q-123 0 -203 80q-100 100 -100 321v4q0 205 92 332q91 127 235 127t242 -98l-57 -72q-86 82 -181 82t-163 -96t-70 -242q88 107 212 107t202 -73t78 -191t-82 -200
q-82 -81 -205 -81z" />
    <glyph glyph-name="seven.inf" unicode="&#x2087;" 
d="M152 446v97h569v-74l-373 -754h-112l370 731h-454z" />
    <glyph glyph-name="eight.inf" unicode="&#x2088;" 
d="M432 102q-92 0 -150 -46t-58 -116t56 -113q58 -44 151 -44t151 44q57 44 57 114q1 69 -57 115t-150 46zM616 332q0 66 -52 106t-133 41q-81 0 -132 -41q-51 -40 -51 -106t52 -109t132 -43t132 43t52 109zM735 -57q0 -109 -86 -177t-218 -67q-132 0 -217 67t-85 173
q0 139 156 206q-131 63 -131 191q0 98 82 163t196 65t197 -66q82 -64 82 -162q0 -129 -131 -191q70 -29 112 -82t43 -120z" />
    <glyph glyph-name="nine.inf" unicode="&#x2089;" 
d="M147 278q0 122 82 204t205 81q123 0 203 -80q100 -100 100 -321v-4q0 -209 -92 -334q-91 -125 -237 -125t-252 102l59 72q91 -86 189 -86t166 93t69 237q-88 -107 -212 -107t-202 73t-78 195zM428 94q84 0 140 53t57 136v2q1 82 -55 137t-138 54t-135 -54t-53 -139
q0 -85 50 -137t134 -52z" />
    <glyph glyph-name="colonmonetary" unicode="&#x20a1;" horiz-adv-x="1304" 
d="M123 737v15q0 307 156 509t401 230l27 168h102l-29 -162q106 -2 199 -39l35 201h100l-39 -246q57 -35 119 -86l-70 -106q-59 51 -80 63l-194 -1163q139 25 280 155l74 -90q-172 -162 -370 -186l-41 -252h-101l41 248q-104 2 -201 37l-45 -285h-102l55 332
q-147 90 -232 261t-85 396zM256 737q0 -354 213 -526l195 1157q-180 -37 -294 -201t-114 -413v-17zM758 1378h-2l-207 -1218q98 -47 209 -47l205 1220q-94 45 -205 45z" />
    <glyph glyph-name="naira" unicode="&#x20a6;" horiz-adv-x="1773" 
d="M1663 494h-211v-494h-172l-307 494h-518v-494h-133v494h-211v106h211v299h-211v107h211v485h186l301 -485h510v485h133v-485h211v-107h-211v-299h211v-106zM1319 498h-201l201 -320v320zM453 901v-303h460l-188 303h-272zM1319 598v303h-453l191 -303h262zM453 1335v-334
h209l-207 334h-2z" />
    <glyph glyph-name="rupee" unicode="&#x20a8;" horiz-adv-x="2312" 
d="M1808 -20q-238 0 -428 153l72 100q178 -137 363 -137q102 0 172 51t69 136v4q0 69 -56 113t-230 100t-256 127q-83 72 -82 186v4q0 131 101 215t275 84t355 -121l-64 -106q-162 111 -315 110q-98 0 -160 -50t-63 -124v-4q0 -71 60 -115t218 -96q188 -57 268 -128t80 -189
v-4q0 -141 -109 -226q-110 -83 -270 -83zM188 0v1491h504q234 0 372 -121t138 -319v-7q0 -168 -100 -280t-262 -152l415 -612h-165l-396 588h-370v-588h-136zM324 709h356q172 0 278 89t107 242v4q0 152 -101 237t-280 85h-360v-657z" />
    <glyph glyph-name="won" unicode="&#x20a9;" horiz-adv-x="2369" 
d="M2271 1001v-104h-266l-86 -297h352v-104h-381l-143 -502h-164l-149 502h-498l-148 -502h-165l-144 502h-381v104h351l-84 297h-267v104h236l-139 490h155l133 -490h475l144 494h174l139 -494h481l134 490h145l-141 -490h237zM707 135h10l100 361h-205zM1661 135h10
l94 361h-204zM506 899l78 -299h262l84 299h-424zM1446 899l84 -299h262l78 299h-424zM1065 940l-98 -340h436l-98 340h-240zM1180 1339l-86 -295h180l-84 295h-10z" />
    <glyph glyph-name="sheqel" unicode="&#x20aa;" horiz-adv-x="1343" 
d="M852 121h201v973h123v-1094h-326q-150 0 -230 72t-106 225l-70 438h109l65 -401q16 -109 72 -161t162 -52zM762 756q0 115 -56 166t-176 51h-239v-973h-121v1094h371q165 0 245 -75t80 -237v-403h-104v377z" />
    <glyph glyph-name="Euro" unicode="&#x20ac;" horiz-adv-x="1554" 
d="M1051 995v-118h-598q-10 -72 -11 -129v-3q0 -57 7 -112h602v-121h-580q49 -186 171 -299t288 -111q125 0 218 66t177 192l102 -71q-201 -313 -501 -314q-223 1 -384 147t-216 390h-193v121h172q-4 35 -4 110v2q0 72 8 132h-176v118h199q61 229 217 375t347 146t312 -77
t215 -216l-108 -78q-88 127 -180 185t-235 58q-144 0 -258 -107q-114 -108 -165 -286h574z" />
    <glyph glyph-name="peso" unicode="&#x20b1;" horiz-adv-x="1550" 
d="M696 641q186 0 304 87t130 233h-692v-320h258zM438 1364v-305h692q-14 147 -128 226t-297 79h-267zM297 0v956h-207v107h207v428h422q239 0 389 -115t164 -313h209v-107h-209q-18 -208 -183 -324t-399 -116h-250v-516h-143z" />
    <glyph glyph-name="published" unicode="&#x2117;" horiz-adv-x="1787" 
d="M743 735h187q96 0 152 43t57 117v6q-1 76 -55 116t-150 40h-191v-322zM637 369v786h305q139 -1 222 -67t83 -185v-4q0 -125 -91 -193t-228 -67h-185v-270h-106zM893 39q299 0 502 207t202 499v5q1 294 -201 498t-500 204t-502 -207t-204 -500v-4q0 -293 202 -497
t501 -205zM1665 745q0 -317 -225 -543t-548 -227q-323 1 -546 225t-223 541v4q0 317 226 543t548 228q322 0 545 -224t223 -542v-5z" />
    <glyph glyph-name="servicemark" unicode="&#x2120;" horiz-adv-x="1527" 
d="M360 823q-158 0 -280 107l53 63q104 -94 232 -94q67 0 107 32t40 78q0 45 -37 71t-145 50t-164 66q-55 41 -55 121t65 132q66 52 184 52t222 -82l-50 -61q-88 68 -192 67q-66 -1 -104 -29t-39 -73q1 -45 37 -71t145 -50t164 -68q55 -42 55 -123t-68 -135t-170 -53z
M760 836v655h90l244 -373l243 373h88v-655h-84v512l-243 -367h-11l-243 367v-512h-84z" />
    <glyph glyph-name="trademark" unicode="&#x2122;" horiz-adv-x="1490" 
d="M723 836v655h90l244 -373l243 373h89v-655h-84v512l-244 -367h-10l-244 367v-512h-84zM279 836v573h-213v82h509v-82h-210v-573h-86z" />
    <glyph glyph-name="Omega" unicode="&#x2126;" horiz-adv-x="1869" 
d="M1673 803v-2q0 -397 -401 -676l452 4v-129h-634v121q214 141 324 295t110 379v2q0 260 -164 426q-164 167 -426 165t-425 -166t-163 -425v-2q0 -217 111 -376t323 -298v-121h-635v129l451 -4q-197 141 -298 304t-101 374v2q0 301 205 507q206 206 534 205t532 -204
t205 -510z" />
    <glyph glyph-name="onethird" unicode="&#x2153;" horiz-adv-x="1775" 
d="M1358 -20q-193 0 -309 151l67 66q104 -129 244 -129q76 0 128 45t52 117t-63 116q-63 43 -164 43h-66l-18 62l274 280h-409v92h534v-80l-266 -272q123 -11 201 -71q77 -60 77 -171t-82 -180t-200 -69zM256 0l526 762l488 729h104l-526 -762l-488 -729h-104zM444 668h-98
v733l-186 -70l-25 86l230 88h79v-837z" />
    <glyph glyph-name="twothirds" unicode="&#x2154;" horiz-adv-x="1935" 
d="M1518 -20q-193 0 -310 151l68 66q104 -129 244 -129q76 0 128 45t52 117t-64 116q-64 43 -163 43h-66l-18 62l274 280h-410v92h535v-80l-266 -272q122 -11 200 -71t78 -171t-82 -180t-200 -69zM410 0l526 762l487 729h105l-527 -762l-487 -729h-104zM117 668v84l313 272
q90 80 128 134t38 117t-47 105t-119 43q-129 0 -227 -147l-74 49q119 186 307 186q111 1 186 -67q74 -68 74 -159t-44 -156t-150 -156l-250 -213h453v-92h-588z" />
    <glyph glyph-name="onefifth" unicode="&#x2155;" horiz-adv-x="1775" 
d="M1356 -20q-172 0 -301 139l65 69q111 -121 238 -120q90 0 145 51t55 128t-56 122t-145 45t-186 -45l-65 39l29 415h487v-96h-405l-19 -258q80 35 188 35t191 -69q84 -69 84 -185t-88 -194q-88 -76 -217 -76zM266 0l527 762l487 729h104l-526 -762l-487 -729h-105z
M444 668h-98v733l-186 -70l-25 86l230 88h79v-837z" />
    <glyph glyph-name="twofifths" unicode="&#x2156;" horiz-adv-x="1935" 
d="M1516 -20q-172 0 -302 139l66 69q111 -121 238 -120q90 0 145 51t55 128t-56 122t-145 45t-186 -45l-65 39l28 415h488v-96h-406l-18 -258q80 35 188 35t191 -69q84 -69 84 -185t-88 -194q-88 -76 -217 -76zM430 0l526 762l488 729h104l-526 -762l-487 -729h-105z
M117 668v84l313 272q90 80 128 134t38 117t-47 105t-119 43q-129 0 -227 -147l-74 49q119 186 307 186q111 1 186 -67q74 -68 74 -159t-44 -156t-150 -156l-250 -213h453v-92h-588z" />
    <glyph glyph-name="threefifths" unicode="&#x2157;" horiz-adv-x="1935" 
d="M1516 -20q-172 0 -302 139l66 69q111 -121 238 -120q90 0 145 51t55 128t-56 122t-145 45t-186 -45l-65 39l28 415h488v-96h-406l-18 -258q80 35 188 35t191 -69q84 -69 84 -185t-88 -194q-88 -76 -217 -76zM412 647q-193 0 -310 152l68 65q100 -129 244 -129
q76 0 128 45t52 118t-64 116t-163 43h-66l-18 61l274 281h-410v92h535v-80l-266 -272q122 -11 200 -71t78 -171t-82 -181t-200 -69zM399 0l527 762l487 729h105l-527 -762l-487 -729h-105z" />
    <glyph glyph-name="fourfifths" unicode="&#x2158;" horiz-adv-x="1935" 
d="M1516 -20q-172 0 -302 139l66 69q111 -121 238 -120q90 0 145 51t55 128t-56 122t-145 45t-186 -45l-65 39l28 415h488v-96h-406l-18 -258q80 35 188 35t191 -69q84 -69 84 -185t-88 -194q-88 -76 -217 -76zM532 938v442l-325 -442h325zM430 0l526 762l488 729h104
l-526 -762l-487 -729h-105zM625 854v-190h-93v190h-405l-25 84l412 565h111v-565h114v-84h-114z" />
    <glyph glyph-name="onesixth" unicode="&#x2159;" horiz-adv-x="1775" 
d="M1548 256q0 84 -50 134t-134 50t-140 -52t-57 -132v-2q-1 -80 55 -134t137 -53t135 53t54 136zM1645 260q0 -120 -82 -200t-205 -80t-203 79q-100 100 -100 322v4q0 205 92 332q91 127 235 127t242 -99l-57 -71q-85 82 -181 82t-164 -96t-69 -242q88 106 212 106t202 -72
t78 -192zM283 0l526 762l487 729h105l-527 -762l-487 -729h-104zM444 668h-98v733l-186 -70l-25 86l230 88h79v-837z" />
    <glyph glyph-name="fivesixths" unicode="&#x215a;" horiz-adv-x="1935" 
d="M1708 256q0 84 -50 134t-134 50t-140 -52t-57 -132v-2q-1 -80 55 -134t137 -53t135 53t54 136zM1804 260q0 -120 -82 -200t-204 -80q-123 0 -203 79q-100 100 -101 322v4q0 205 92 332t236 127q143 0 242 -99l-58 -71q-86 82 -181 82t-163 -96t-69 -242q88 106 212 106
q123 0 201 -72t78 -192zM410 647q-172 0 -301 139l65 70q111 -121 238 -121q90 0 145 51t55 128t-56 122t-145 45t-186 -45l-65 39l28 416h488v-96h-406l-18 -258q80 35 188 35t191 -70q84 -68 84 -184t-88 -194q-88 -77 -217 -77zM410 0l526 762l487 729h105l-527 -762
l-487 -729h-104z" />
    <glyph glyph-name="oneeighth" unicode="&#x215b;" horiz-adv-x="1775" 
d="M1364 383q-92 0 -150 -46t-59 -116q0 -69 57 -113q56 -44 150 -44t151 44t57 114t-56 115q-58 46 -150 46zM1363 760q-81 0 -132 -41t-51 -107t52 -108t132 -43q80 0 132 43q52 42 52 108t-52 107t-133 41zM1363 -20q-132 0 -217 66t-85 173q0 139 156 207
q-131 63 -132 190q0 98 82 163t197 65t197 -65t81 -163q0 -129 -131 -190q70 -29 113 -82t43 -121q0 -109 -86 -176t-218 -67zM281 0l526 762l487 729h105l-527 -762l-487 -729h-104zM444 668h-98v733l-186 -70l-25 86l230 88h79v-837z" />
    <glyph glyph-name="threeeighths" unicode="&#x215c;" horiz-adv-x="1935" 
d="M1524 383q-92 0 -150 -46t-59 -116q0 -69 57 -113q56 -44 150 -44t151 44t57 114t-56 115q-58 46 -150 46zM1523 760q-81 0 -132 -41t-51 -107t52 -108t132 -43q80 0 132 43q52 42 52 108t-52 107t-133 41zM1523 -20q-132 0 -217 66t-85 173q0 139 155 207
q-131 63 -131 190q0 98 82 163t197 65q114 0 196 -65t82 -163q0 -129 -131 -190q70 -29 113 -82t43 -121q0 -109 -86 -176t-218 -67zM412 647q-193 0 -310 152l68 65q100 -129 244 -129q76 0 128 45t52 118t-64 116t-163 43h-66l-18 61l274 281h-410v92h535v-80l-266 -272
q122 -11 200 -71t78 -171t-82 -181t-200 -69zM410 0l526 762l487 729h105l-527 -762l-487 -729h-104z" />
    <glyph glyph-name="fiveeighths" unicode="&#x215d;" horiz-adv-x="1935" 
d="M1524 383q-92 0 -150 -46t-59 -116q0 -69 57 -113q56 -44 150 -44t151 44t57 114t-56 115q-58 46 -150 46zM1523 760q-81 0 -132 -41t-51 -107t52 -108t132 -43q80 0 132 43q52 42 52 108t-52 107t-133 41zM1523 -20q-132 0 -217 66t-85 173q0 139 155 207
q-131 63 -131 190q0 98 82 163t197 65q114 0 196 -65t82 -163q0 -129 -131 -190q70 -29 113 -82t43 -121q0 -109 -86 -176t-218 -67zM410 647q-172 0 -301 139l65 70q111 -121 238 -121q90 0 145 51t55 128t-56 122t-145 45t-186 -45l-65 39l28 416h488v-96h-406l-18 -258
q80 35 188 35t191 -70q84 -68 84 -184t-88 -194q-88 -77 -217 -77zM410 0l526 762l487 729h105l-527 -762l-487 -729h-104z" />
    <glyph glyph-name="seveneighths" unicode="&#x215e;" horiz-adv-x="1935" 
d="M1524 383q-92 0 -150 -46t-59 -116q0 -69 57 -113q56 -44 150 -44t151 44t57 114t-56 115q-58 46 -150 46zM1523 760q-81 0 -132 -41t-51 -107t52 -108t132 -43q80 0 132 43q52 42 52 108t-52 107t-133 41zM1523 -20q-132 0 -217 66t-85 173q0 139 155 207
q-131 63 -131 190q0 98 82 163t197 65q114 0 196 -65t82 -163q0 -129 -131 -190q70 -29 113 -82t43 -121q0 -109 -86 -176t-218 -67zM158 1395v96h569v-74l-373 -753h-112l370 731h-454zM346 0l526 762l488 729h104l-526 -762l-487 -729h-105z" />
    <glyph glyph-name="Delta" unicode="&#x2206;" horiz-adv-x="1701" 
d="M848 1341l-572 -1210h1141zM127 0l-12 106l665 1395h142l665 -1395l-12 -106h-1448z" />
    <glyph glyph-name="minus" unicode="&#x2212;" horiz-adv-x="1347" 
d="M1192 682h-1036v135h1036v-135z" />
    <glyph glyph-name="f_f" unicode="&#xfb00;" horiz-adv-x="1574" 
d="M262 0v971h-153v123h153v100q0 186 91 278t239 91q88 0 172 -27v-123q-86 27 -160 27q-205 0 -205 -252v-94h363v-123h-363v-971h-137zM1040 0v971h-153v123h153v100q0 186 92 278t238 91q88 0 172 -27v-123q-86 27 -160 27q-205 0 -204 -252v-94h362v-123h-362v-971
h-138z" />
    <glyph glyph-name="fi" unicode="&#xfb01;" horiz-adv-x="1345" 
d="M993 0v1094h137v-1094h-137zM262 0v971h-153v123h153v100q0 186 91 278t239 91q88 0 172 -27v-123q-86 27 -160 27q-205 0 -205 -252v-94h363v-123h-363v-971h-137zM981 1354v166h162v-166h-162z" />
    <glyph glyph-name="fl" unicode="&#xfb02;" horiz-adv-x="1345" 
d="M262 0v971h-153v123h153v100q0 186 91 278t239 91q88 0 172 -27v-123q-86 27 -160 27q-205 0 -205 -252v-94h363v-123h-363v-971h-137zM993 0v1554h137v-1554h-137z" />
    <glyph glyph-name="f_f_i" unicode="&#xfb03;" horiz-adv-x="2121" 
d="M1769 0v1094h138v-1094h-138zM262 0v971h-153v123h153v100q0 186 91 278t239 91q88 0 172 -27v-123q-86 27 -160 27q-205 0 -205 -252v-94h363v-123h-363v-971h-137zM1040 0v971h-153v123h153v100q0 186 92 278t238 91q88 0 172 -27v-123q-86 27 -160 27
q-205 0 -204 -252v-94h362v-123h-362v-971h-138zM1757 1354v166h162v-166h-162z" />
    <glyph glyph-name="f_f_l" unicode="&#xfb04;" horiz-adv-x="2121" 
d="M262 0v971h-153v123h153v100q0 186 91 278t239 91q88 0 172 -27v-123q-86 27 -160 27q-205 0 -205 -252v-94h363v-123h-363v-971h-137zM1040 0v971h-153v123h153v100q0 186 92 278t238 91q88 0 172 -27v-123q-86 27 -160 27q-205 0 -204 -252v-94h362v-123h-362v-971
h-138zM1769 0v1554h138v-1554h-138z" />
    <glyph glyph-name="Q.alt" horiz-adv-x="1830" 
d="M918 104q260 0 432 184t172 453v4q0 269 -174 455t-434 186t-433 -184q-172 -184 -172 -452v-5q1 -269 175 -455t434 -186zM913 -25q-333 -1 -543 225t-210 541v4q0 315 213 543t545 228t542 -226t211 -540v-5q0 -181 -74 -339t-206 -267l368 -348v-6h-211l-291 268
q-160 -78 -344 -78z" />
    <glyph glyph-name="a.alt" horiz-adv-x="1431" 
d="M659 -25q-209 0 -367 156t-159 412v4q0 256 159 415t367 158q268 0 435 -248v222h137v-1094h-137v231q-173 -256 -435 -256zM681 102q167 0 293 125t126 318v4q0 193 -126 319t-295 125q-169 0 -286 -121t-117 -321v-4q0 -197 119 -321t286 -124z" />
    <glyph glyph-name="uni0439.bgr" horiz-adv-x="1329" 
d="M608 -25q-200 0 -314 122t-114 323v674h137v-643q0 -162 86 -256q86 -95 237 -95t251 102t100 263v629h137v-1094h-137v197q-129 -222 -383 -222zM653 1264q-127 0 -210 68t-91 186h103q45 -136 199 -136t198 136h102q-8 -118 -91 -186t-210 -68z" />
    <glyph glyph-name="aacute.alt" horiz-adv-x="1431" 
d="M659 -25q-209 0 -367 156t-159 412v4q0 256 159 415t367 158q268 0 435 -248v222h137v-1094h-137v231q-173 -256 -435 -256zM681 102q167 0 293 125t126 318v4q0 193 -126 319t-295 125q-169 0 -286 -121t-117 -321v-4q0 -197 119 -321t286 -124zM666 1268l194 297
l152 -72l-236 -225h-110z" />
    <glyph glyph-name="abreve.alt" horiz-adv-x="1431" 
d="M659 -25q-209 0 -367 156t-159 412v4q0 256 159 415t367 158q268 0 435 -248v222h137v-1094h-137v231q-173 -256 -435 -256zM681 102q167 0 293 125t126 318v4q0 193 -126 319t-295 125q-169 0 -286 -121t-117 -321v-4q0 -197 119 -321t286 -124zM721 1264
q-127 0 -210 68t-91 186h102q45 -136 199 -136t199 136h102q-8 -118 -91 -186t-210 -68z" />
    <glyph glyph-name="acircumflex.alt" horiz-adv-x="1431" 
d="M659 -25q-209 0 -367 156t-159 412v4q0 256 159 415t367 158q268 0 435 -248v222h137v-1094h-137v231q-173 -256 -435 -256zM681 102q167 0 293 125t126 318v4q0 193 -126 319t-295 125q-169 0 -286 -121t-117 -321v-4q0 -197 119 -321t286 -124zM442 1268l220 270h118
l221 -270h-122l-160 143l-160 -143h-117z" />
    <glyph glyph-name="adieresis.alt" horiz-adv-x="1431" 
d="M659 -25q-209 0 -367 156t-159 412v4q0 256 159 415t367 158q268 0 435 -248v222h137v-1094h-137v231q-173 -256 -435 -256zM681 102q167 0 293 125t126 318v4q0 193 -126 319t-295 125q-169 0 -286 -121t-117 -321v-4q0 -197 119 -321t286 -124zM815 1268v188h172v-188
h-172zM455 1268v188h172v-188h-172z" />
    <glyph glyph-name="agrave.alt" horiz-adv-x="1431" 
d="M659 -25q-209 0 -367 156t-159 412v4q0 256 159 415t367 158q268 0 435 -248v222h137v-1094h-137v231q-173 -256 -435 -256zM681 102q167 0 293 125t126 318v4q0 193 -126 319t-295 125q-169 0 -286 -121t-117 -321v-4q0 -197 119 -321t286 -124zM668 1268l-236 225
l152 72l194 -297h-110z" />
    <glyph glyph-name="amacron.alt" horiz-adv-x="1431" 
d="M659 -25q-209 0 -367 156t-159 412v4q0 256 159 415t367 158q268 0 435 -248v222h137v-1094h-137v231q-173 -256 -435 -256zM681 102q167 0 293 125t126 318v4q0 193 -126 319t-295 125q-169 0 -286 -121t-117 -321v-4q0 -197 119 -321t286 -124zM397 1317v117h647v-117
h-647z" />
    <glyph glyph-name="aogonek.alt" horiz-adv-x="1431" 
d="M681 102q167 0 293 125t126 318v4q0 193 -126 319t-295 125q-169 0 -286 -121t-117 -321v-4q0 -197 119 -321t286 -124zM1247 -350q-270 8 -270 180q0 86 117 180v221q-172 -256 -435 -256q-209 0 -367 156t-159 412v4q0 256 159 415t367 158q268 0 435 -248v222h137
v-1094h-19q-59 -51 -85 -86t-25 -76q0 -88 160 -100v-88h-15z" />
    <glyph glyph-name="aring.alt" horiz-adv-x="1431" 
d="M659 -25q-209 0 -367 156t-159 412v4q0 256 159 415t367 158q268 0 435 -248v222h137v-1094h-137v231q-173 -256 -435 -256zM681 102q167 0 293 125t126 318v4q0 193 -126 319t-295 125q-169 0 -286 -121t-117 -321v-4q0 -197 119 -321t286 -124zM721 1333q59 0 103 44
q44 45 44 105t-44 104t-103 44t-103 -44t-45 -104q0 -60 44 -105q45 -44 104 -44zM721 1264q-94 0 -161 63q-66 63 -66 153t66 156q66 64 161 64q94 0 161 -65q66 -65 66 -155t-66 -153q-67 -63 -161 -63z" />
    <glyph glyph-name="aring.alt2" horiz-adv-x="1249" 
d="M530 -25q-166 -1 -290 91t-125 251v5q0 168 129 261q130 93 328 93t362 -47v43q0 154 -89 234t-252 81q-163 0 -337 -84l-43 115q156 68 262 84q-78 60 -78 154t67 157t161 63q95 0 161 -62q66 -64 66 -161t-88 -159q109 -27 192 -103q113 -117 113 -315v-676h-135v172
q-146 -197 -404 -197zM568 92q142 0 256 89t114 225v114q-184 47 -345 47q-161 -1 -249 -65t-88 -172v-6q0 -104 85 -168t227 -64zM477 1260q0 -60 44 -104q43 -44 103 -44t104 44t44 104t-44 103q-44 44 -103 44t-103 -44t-45 -103z" />
    <glyph glyph-name="aringacute.alt" horiz-adv-x="1431" 
d="M659 -25q-209 0 -367 156t-159 412v4q0 256 159 415t367 158q268 0 435 -248v222h137v-1094h-137v231q-173 -256 -435 -256zM681 102q167 0 293 125t126 318v4q0 193 -126 319t-295 125q-169 0 -286 -121t-117 -321v-4q0 -197 119 -321t286 -124zM721 1333q59 0 103 44
q44 45 44 105t-44 104t-103 44t-103 -44t-45 -104q0 -60 44 -105q45 -44 104 -44zM721 1264q-94 0 -161 63q-66 63 -66 153t66 156q66 64 161 64q94 0 161 -65q66 -65 66 -155t-66 -153q-67 -63 -161 -63zM662 1759l198 260l150 -71l-232 -189h-116z" />
    <glyph glyph-name="aringacute.alt2" horiz-adv-x="1249" 
d="M530 -25q-166 -1 -290 91t-125 251v5q0 168 129 261q130 93 328 93t362 -47v43q0 154 -89 234t-252 81q-163 0 -337 -84l-43 115q156 68 262 84q-78 60 -78 154t67 157t161 63q95 0 161 -62q66 -64 66 -161t-88 -159q109 -27 192 -103q113 -117 113 -315v-676h-135v172
q-146 -197 -404 -197zM568 92q142 0 256 89t114 225v114q-184 47 -345 47q-161 -1 -249 -65t-88 -172v-6q0 -104 85 -168t227 -64zM477 1260q0 -60 44 -104q43 -44 103 -44t104 44t44 104t-44 103q-44 44 -103 44t-103 -44t-45 -103zM565 1554l199 261l149 -72l-231 -189
h-117z" />
    <glyph glyph-name="atilde.alt" horiz-adv-x="1431" 
d="M659 -25q-209 0 -367 156t-159 412v4q0 256 159 415t367 158q268 0 435 -248v222h137v-1094h-137v231q-173 -256 -435 -256zM681 102q167 0 293 125t126 318v4q0 193 -126 319t-295 125q-169 0 -286 -121t-117 -321v-4q0 -197 119 -321t286 -124zM886 1268q-58 0 -159 43
q-100 43 -137 43t-61 -23t-46 -84l-88 25q31 117 75 165t102 48t159 -43q100 -43 137 -43q37 1 61 23t46 81l88 -22q-31 -117 -75 -165t-102 -48z" />
    <glyph glyph-name="i.dot" horiz-adv-x="567" 
d="M215 0v1094h137v-1094h-137zM203 1354v166h162v-166h-162z" />
    <glyph glyph-name="three.alt" horiz-adv-x="1302" 
d="M659 -25q-174 0 -317 74t-238 197l109 88q176 -229 451 -230q156 0 255 81t99 212v4q0 135 -110 212t-306 77h-151v123h153q166 0 270 79t105 212v4q0 123 -93 201t-245 77q-236 0 -397 -219l-107 72q188 276 508 277q209 0 344 -113t135 -283v-4q0 -254 -270 -352
q311 -98 311 -361v-4q1 -180 -141 -302t-365 -122z" />
    <glyph glyph-name="registered.alt" horiz-adv-x="1787" 
d="M594 375v784h352q156 0 232 -80q61 -57 61 -149v-4q0 -92 -56 -150t-151 -80l250 -321h-133l-236 305h-213v-305h-106zM700 776h234q86 0 141 38t55 106v4q0 63 -50 100t-138 37h-242v-285zM893 39q299 0 502 207t202 499v5q1 294 -201 498t-500 204t-502 -207t-204 -500
v-4q0 -293 202 -497t501 -205zM1665 745q0 -317 -225 -543t-548 -227q-323 1 -546 225t-223 541v4q0 317 226 543t548 228q322 0 545 -224t223 -542v-5z" />
    <glyph glyph-name="one.sup_alt" 
d="M745 905h-577v86h248v647l-219 -77l-23 88l260 94h80v-752h231v-86z" />
    <glyph glyph-name="one.inf_alt" 
d="M745 -281h-577v86h248v648l-219 -78l-23 88l260 94h80v-752h231v-86z" />
    <glyph glyph-name="zero.num" 
d="M428 1423q-94 0 -149 -96t-56 -246v-6q1 -147 57 -243t150 -97q94 0 151 95q56 95 56 245v6q0 150 -57 246q-58 96 -152 96zM428 647q-137 0 -220 120t-83 308v4q0 189 84 311t221 122t222 -120t85 -309v-4q0 -188 -86 -310t-223 -122z" />
    <glyph glyph-name="one.num" horiz-adv-x="700" 
d="M446 668h-98v733l-186 -70l-25 86l230 88h79v-837z" />
    <glyph glyph-name="one.num_alt" 
d="M745 668h-577v86h248v647l-219 -78l-23 88l260 94h80v-751h231v-86z" />
    <glyph glyph-name="two.num" 
d="M131 668v84l313 272q90 80 128 134t38 117t-47 105t-119 43q-129 0 -227 -147l-74 49q119 186 308 186q111 1 185 -67t75 -159q0 -91 -44 -156t-151 -156l-250 -213h453v-92h-588z" />
    <glyph glyph-name="three.num" 
d="M426 647q-193 0 -309 152l67 65q100 -129 244 -129q76 0 128 45t52 118t-63 116t-164 43h-66l-18 61l274 281h-409v92h534v-80l-266 -272q123 -11 201 -71t78 -171t-82 -181t-201 -69z" />
    <glyph glyph-name="four.num" 
d="M547 938v442l-326 -442h326zM639 854v-190h-92v190h-406l-24 84l411 565h111v-565h115v-84h-115z" />
    <glyph glyph-name="five.num" 
d="M424 647q-172 0 -301 139l65 70q111 -121 238 -121q90 0 145 51t55 128t-56 122t-145 45t-185 -45l-66 39l29 416h487v-96h-405l-19 -258q80 35 188 35t191 -70q84 -68 84 -184t-88 -194q-88 -77 -217 -77z" />
    <glyph glyph-name="six.num" 
d="M616 922q0 84 -50 134t-135 50t-140 -52t-55 -132v-2q0 -78 55 -132t136 -54q81 1 135 53q54 51 54 135zM426 647q-123 0 -203 80q-100 100 -100 322v4q0 205 92 331q91 126 235 127q144 0 242 -98l-57 -72q-86 82 -181 82t-163 -96t-70 -242q88 107 212 107t202 -73
t78 -191t-82 -200q-82 -81 -205 -81z" />
    <glyph glyph-name="seven.num" 
d="M152 1395v96h569v-74l-373 -753h-112l370 731h-454z" />
    <glyph glyph-name="eight.num" 
d="M432 1051q-92 0 -150 -46t-58 -116t56 -114q58 -44 151 -44t151 44q57 44 57 114t-57 116q-58 46 -150 46zM616 1280q0 66 -52 106t-133 41q-81 0 -132 -41q-51 -40 -51 -106t52 -109t132 -43t132 43t52 109zM735 891q0 -109 -86 -177t-218 -67q-132 0 -217 67t-85 173
q0 139 156 207q-131 59 -131 190q0 98 82 163t196 65t197 -66q82 -64 82 -162q0 -129 -131 -190q70 -29 112 -82t43 -121z" />
    <glyph glyph-name="nine.num" 
d="M147 1226q0 122 82 204t205 81q123 0 203 -79q100 -100 100 -322v-4q0 -209 -92 -334q-91 -125 -237 -125t-252 103l59 71q91 -86 189 -86t166 93t69 237q-88 -107 -212 -107t-202 73t-78 195zM428 1042q84 0 140 54t57 135v2q1 82 -55 137t-138 54t-135 -54t-53 -139
q0 -85 50 -137t134 -52z" />
    <glyph glyph-name="zero.den" 
d="M428 756q-94 0 -149 -96t-56 -244v-6q1 -150 57 -246t150 -96t151 96q56 96 56 246v6q1 148 -57 244t-152 96zM428 -20q-137 0 -220 120t-83 308v4q0 188 84 310t221 122t222 -120t85 -308v-4q0 -188 -86 -310t-223 -122z" />
    <glyph glyph-name="one.den" horiz-adv-x="700" 
d="M446 0h-98v733l-186 -69l-25 86l230 88h79v-838z" />
    <glyph glyph-name="one.den_alt" 
d="M745 0h-577v86h248v647l-219 -78l-23 88l260 95h80v-752h231v-86z" />
    <glyph glyph-name="two.den" 
d="M131 0v84l313 272q90 80 128 134t38 117t-47 106t-119 43q-129 0 -227 -148l-74 49q119 186 308 187q113 0 187 -67t73 -159q0 -92 -44 -156t-151 -157l-250 -213h453v-92h-588z" />
    <glyph glyph-name="three.den" 
d="M426 -20q-193 0 -309 151l67 66q104 -129 244 -129q76 0 128 45t52 117t-63 116q-63 43 -164 43h-66l-18 62l274 280h-409v92h534v-80l-266 -272q123 -11 201 -71t78 -171t-82 -180t-201 -69z" />
    <glyph glyph-name="four.den" 
d="M547 270v443l-326 -443h326zM639 186v-190h-92v190h-406l-24 84l411 566h111v-566h115v-84h-115z" />
    <glyph glyph-name="five.den" 
d="M424 -20q-172 0 -301 139l65 69q111 -121 238 -120q90 0 145 51t55 128t-56 122t-145 45t-185 -45l-66 39l29 415h487v-96h-405l-19 -258q80 35 188 35t191 -69q84 -69 84 -185t-88 -194q-88 -76 -217 -76z" />
    <glyph glyph-name="six.den" 
d="M616 256q0 84 -50 134t-134 50t-140 -52t-56 -132v-2q0 -80 55 -134t136 -53t135 53t54 136zM713 260q0 -120 -82 -200t-205 -80t-203 79q-100 100 -100 322v4q0 205 92 332q91 127 235 127t242 -99l-57 -71q-86 82 -181 82t-163 -96t-70 -242q88 106 212 106t202 -72
t78 -192z" />
    <glyph glyph-name="seven.den" 
d="M152 727v96h569v-73l-373 -754h-112l370 731h-454z" />
    <glyph glyph-name="eight.den" 
d="M432 383q-92 0 -150 -46t-58 -116q0 -69 56 -113q58 -44 151 -44t151 44t57 114q0 70 -57 115q-58 46 -150 46zM431 760q-81 0 -132 -41t-51 -107t52 -108t132 -43q80 0 132 43q52 42 52 108t-52 107t-133 41zM431 -20q-132 0 -217 66t-85 173q0 139 156 207
q-131 63 -131 190q0 98 82 163t196 65t197 -65q82 -65 82 -163q0 -129 -131 -190q70 -29 112 -82t43 -121q0 -109 -86 -176t-218 -67z" />
    <glyph glyph-name="nine.den" 
d="M434 844q123 0 203 -80q100 -100 100 -322v-4q0 -209 -92 -334q-91 -124 -237 -124t-252 102l59 72q91 -86 189 -86t166 93t69 236q-88 -106 -212 -106t-202 73q-78 72 -78 194t82 204t205 82zM428 375q84 0 140 53t57 135v2q1 82 -55 137q-56 54 -138 54t-135 -54
t-53 -139q0 -86 50 -137t134 -51z" />
    <glyph glyph-name="onehalf.alt" horiz-adv-x="1935" 
d="M1223 0v84l313 272q90 80 128 134t38 117t-47 106t-119 43q-129 0 -227 -148l-74 49q119 186 307 187q113 0 187 -67q73 -67 73 -159t-44 -156t-150 -157l-250 -213h452v-92h-587zM453 0l526 762l487 729h105l-527 -762l-487 -729h-104zM741 668h-577v86h248v647
l-219 -78l-23 88l260 94h80v-751h231v-86z" />
    <glyph glyph-name="onethird.alt" horiz-adv-x="1935" 
d="M1518 -20q-193 0 -310 151l68 66q104 -129 244 -129q76 0 128 45t52 117t-64 116q-64 43 -163 43h-66l-18 62l274 280h-410v92h535v-80l-266 -272q122 -11 200 -71t78 -171t-82 -180t-200 -69zM430 0l526 762l488 729h104l-526 -762l-487 -729h-105zM741 668h-577v86h248
v647l-219 -78l-23 88l260 94h80v-751h231v-86z" />
    <glyph glyph-name="onequarter.alt" horiz-adv-x="1935" 
d="M1618 270v443l-326 -443h326zM1710 186v-190h-92v190h-406l-24 84l411 566h111v-566h115v-84h-115zM463 0l526 762l488 729h104l-526 -762l-488 -729h-104zM741 668h-577v86h248v647l-219 -78l-23 88l260 94h80v-751h231v-86z" />
    <glyph glyph-name="onefifth.alt" horiz-adv-x="1935" 
d="M1516 -20q-172 0 -302 139l66 69q111 -121 238 -120q90 0 145 51t55 128t-56 122t-145 45t-186 -45l-65 39l28 415h488v-96h-406l-18 -258q80 35 188 35t191 -69q84 -69 84 -185t-88 -194q-88 -76 -217 -76zM442 0l527 762l487 729h105l-527 -762l-487 -729h-105z
M741 668h-577v86h248v647l-219 -78l-23 88l260 94h80v-751h231v-86z" />
    <glyph glyph-name="onesixth.alt" horiz-adv-x="1935" 
d="M1708 256q0 84 -50 134t-134 50t-140 -52t-57 -132v-2q-1 -80 55 -134t137 -53t135 53t54 136zM1804 260q0 -120 -82 -200t-204 -80q-123 0 -203 79q-100 100 -101 322v4q0 205 92 332t236 127q143 0 242 -99l-58 -71q-86 82 -181 82t-163 -96t-69 -242q88 106 212 106
q123 0 201 -72t78 -192zM442 0l527 762l487 729h105l-527 -762l-487 -729h-105zM741 668h-577v86h248v647l-219 -78l-23 88l260 94h80v-751h231v-86z" />
    <glyph glyph-name="oneeighth.alt" horiz-adv-x="1935" 
d="M1524 383q-92 0 -150 -46t-59 -116q0 -69 57 -113q56 -44 150 -44t151 44t57 114t-56 115q-58 46 -150 46zM1523 760q-81 0 -132 -41t-51 -107t52 -108t132 -43q80 0 132 43q52 42 52 108t-52 107t-133 41zM1523 -20q-132 0 -217 66t-85 173q0 139 155 207
q-131 63 -131 190q0 98 82 163t197 65q114 0 196 -65t82 -163q0 -129 -131 -190q70 -29 113 -82t43 -121q0 -109 -86 -176t-218 -67zM442 0l527 762l487 729h105l-527 -762l-487 -729h-105zM741 668h-577v86h248v647l-219 -78l-23 88l260 94h80v-751h231v-86z" />
    <glyph glyph-name="zero.tab" horiz-adv-x="1290" 
d="M645 1391q-168 0 -274 -169t-107 -466v-17q0 -297 106 -468t275 -171q168 0 275 169q106 169 106 466v17q0 297 -106 468q-107 171 -275 171zM1169 739q-1 -350 -149 -557t-378 -207t-376 205q-145 205 -145 555v17q0 350 147 557q148 207 378 207t376 -205t147 -555v-17
z" />
    <glyph glyph-name="one.tab" horiz-adv-x="1290" 
d="M1202 0h-1007v127h454v1223l-405 -140l-37 119l475 172h104v-1374h416v-127z" />
    <glyph glyph-name="two.tab" horiz-adv-x="1290" 
d="M1143 0h-1026v109l545 491q178 162 248 267q71 105 71 228t-93 207t-225 82q-132 0 -229 -67q-96 -68 -186 -207l-107 74q109 166 230 247t309 81t318 -118q128 -118 128 -296v-4q0 -148 -80 -268t-276 -298l-440 -395h813v-133z" />
    <glyph glyph-name="three.tab" horiz-adv-x="1290" 
d="M635 -25q-324 0 -522 254l100 95q182 -221 426 -222q147 0 253 88q105 88 105 232v4q0 137 -107 212q-108 75 -290 75h-123l-43 92l508 555h-764v131h940v-123l-495 -537q225 -2 372 -104t148 -295v-4q1 -201 -149 -327t-359 -126z" />
    <glyph glyph-name="three.tab_alt" horiz-adv-x="1290" 
d="M637 -25q-166 0 -306 73t-229 196l107 82q164 -227 434 -228q164 0 267 83q104 83 104 220t-111 213t-309 76h-148v123h162q168 0 273 79q104 79 104 211t-92 211t-248 79q-244 0 -409 -222l-103 70q193 274 516 275q211 0 345 -112t134 -286q0 -137 -78 -226t-198 -134
q303 -94 303 -361q1 -180 -145 -301t-373 -121z" />
    <glyph glyph-name="four.tab" horiz-adv-x="1290" 
d="M866 469v872l-639 -872h639zM866 0v352h-747l-35 123l747 1024h166v-1028h215v-119h-215v-352h-131z" />
    <glyph glyph-name="five.tab" horiz-adv-x="1290" 
d="M637 -25q-297 0 -520 234l96 98q197 -207 428 -207q166 0 271 98t106 251v4q0 147 -104 239t-269 92q-166 0 -338 -86l-98 64l49 729h838v-133h-717l-39 -518q154 72 317 71q217 0 361 -125t145 -327v-4q-1 -211 -151 -345t-375 -135z" />
    <glyph glyph-name="six.tab" horiz-adv-x="1290" 
d="M1028 469v2q0 158 -99 255t-262 96t-265 -104t-103 -253v-2q1 -161 107 -265t265 -103t258 107t99 267zM690 942q201 0 339 -127t138 -338v-4q0 -215 -144 -356t-357 -141t-355 137q-92 94 -136 224t-44 357v8q0 362 160 588t436 226q209 0 385 -154l-80 -109
q-146 137 -300 137t-258 -94q-200 -183 -202 -563v-24q139 233 418 233z" />
    <glyph glyph-name="seven.tab" horiz-adv-x="1290" 
d="M160 1358v133h997v-107l-672 -1384h-157l669 1358h-837z" />
    <glyph glyph-name="eight.tab" horiz-adv-x="1290" 
d="M645 98q176 0 283 86q106 86 106 213v6q0 129 -112 215q-113 86 -277 86q-165 0 -277 -86t-112 -215v-6q0 -127 106 -213t283 -86zM645 821q143 0 243 83q99 83 99 208v4q0 119 -97 198q-96 79 -244 79t-246 -79t-97 -198v-4q-1 -125 99 -208t243 -83zM645 -23
q-229 0 -380 118t-150 300v8q0 127 83 223t220 146q-256 115 -256 346v6q0 170 143 280t340 110t340 -110t143 -280v-6q0 -231 -256 -346q136 -49 220 -145t84 -224v-6q0 -186 -151 -303t-380 -117z" />
    <glyph glyph-name="nine.tab" horiz-adv-x="1290" 
d="M598 537q-201 0 -338 128t-137 343v4q0 219 143 361q144 143 358 143t355 -138q92 -94 136 -224t44 -357v-9q0 -362 -160 -587t-436 -226q-219 0 -405 164l80 109q170 -147 333 -148q209 0 328 197t119 463v10q-139 -233 -420 -233zM262 1016v-2q0 -160 98 -259t261 -99
t267 106t103 258v2q0 162 -106 268t-265 106q-158 -1 -258 -110t-100 -270z" />
    <glyph glyph-name="dollar.tab" horiz-adv-x="1290" 
d="M1161 397v-2q0 -171 -138 -285t-353 -112q-27 0 -39 2l-33 -252h-115l33 262q-225 41 -401 201l75 102q166 -150 347 -184l69 567q-223 50 -327 150t-105 258v2q0 170 132 280t333 107l59 -2l21 168h115l-23 -184q166 -35 313 -148l-71 -108q-129 104 -265 137l-67 -555
q229 -51 335 -147t105 -257zM1028 391q0 109 -72 177t-249 108l-70 -559h41q158 0 255 78t95 194v2zM307 1108q0 -100 69 -171t245 -114l69 549q-20 2 -59 2q-145 0 -236 -72q-90 -73 -88 -192v-2z" />
    <glyph glyph-name="sterling.tab" horiz-adv-x="1290" 
d="M311 768v248q0 240 127 368t326 127q244 0 403 -196l-98 -94q-131 164 -305 163q-137 0 -219 -86q-96 -96 -96 -278v-252h569v-121h-569v-522h725v-125h-1033v76l170 43v528h-172v121h172z" />
    <glyph glyph-name="Euro.tab" horiz-adv-x="1290" 
d="M92 877v108h174q48 236 188 383t343 148q238 0 393 -207l-94 -88q-129 174 -303 174q-145 0 -247 -113t-143 -297h502v-108h-520q-6 -57 -6 -123v-13q0 -78 4 -112h522v-109h-504q39 -192 139 -308t248 -116q102 0 176 44t144 136l88 -77q-166 -223 -412 -224
q-199 -1 -339 147t-183 398h-170v109h156q-4 35 -4 106v21q0 59 6 121h-158z" />
    <glyph glyph-name="yen.tab" horiz-adv-x="1290" 
d="M197 350h383v223h-383v107h348l-492 811h160l434 -748l436 748h154l-498 -811h355v-107h-383v-223h383v-106h-383v-244h-131v244h-383v106z" />
    <glyph glyph-name="cent.tab" horiz-adv-x="1290" 
d="M692 305q213 0 383 184l86 -77q-201 -225 -477 -226q-39 0 -57 2l-41 -200h-123l47 225q-170 53 -273 199t-104 333v5q0 236 164 406t405 169q23 0 35 -2l37 180h121l-41 -196q168 -41 299 -187l-88 -90q-119 129 -242 162l-178 -885q16 -2 47 -2zM268 745
q0 -151 74 -261t199 -154l174 878h-15q-186 0 -309 -132t-123 -326v-5z" />
    <glyph glyph-name="numbersign.tab" horiz-adv-x="1290" 
d="M78 510h225l66 479h-222v121h240l53 381h117l-55 -381h387l53 381h117l-53 -381h206v-121h-225l-67 -479h223v-121h-240l-55 -389h-115l53 389h-385l-53 -389h-117l54 389h-207v121zM485 991l-69 -483h389l67 483h-387z" />
    <glyph glyph-name="paragraph.tab" horiz-adv-x="1290" 
d="M891 0v575h-156q-255 0 -415 121t-160 332v2q0 213 161 338t424 123h291v-1491h-145z" />
    <glyph glyph-name="section.tab" horiz-adv-x="1290" 
d="M680 96q100 0 156 42q55 42 55 106v2q0 70 -72 121q-73 51 -281 107t-309 126q-100 70 -100 180v2q0 92 80 157t213 77q-162 90 -162 223v2q0 119 101 196t245 75q290 -3 469 -181l-84 -98q-166 162 -381 162q-100 0 -155 -42t-56 -106v-2q0 -70 72 -121q72 -52 281 -108
t309 -126t100 -179v-2q0 -92 -80 -157t-213 -77q162 -90 162 -223v-2q0 -120 -101 -196t-245 -75q-290 2 -469 181l84 98q166 -162 381 -162zM262 793v-2q0 -63 65 -111t225 -89q160 -42 254 -43q93 -1 158 43t64 107v2q0 66 -64 112q-66 46 -226 88t-253 43t-158 -43
t-65 -107z" />
    <glyph glyph-name="degree.tab" horiz-adv-x="1290" 
d="M958 1083v2q0 133 -91 227t-225 92q-134 -1 -222 -93t-88 -228v-2q0 -131 91 -224t225 -92t222 92t88 226zM215 1083v2q0 172 129 298t304 125t301 -126t126 -299v-2q0 -173 -128 -297t-304 -123t-302 125t-126 297z" />
    <glyph glyph-name="percent.tab" horiz-adv-x="1290" 
d="M957 623q-71 0 -109 -75t-39 -190v-20q0 -114 39 -188q40 -74 110 -74t109 75t39 187v20q0 115 -39 190t-110 75zM707 352q0 156 69 260t181 103q112 1 182 -101t69 -258v-10q0 -156 -70 -259t-181 -103t-181 101t-69 257v10zM481 1153q-1 113 -39 187t-109 75
q-71 0 -110 -75t-39 -187v-20q0 -115 39 -190t110 -75t109 75t39 190v20zM991 1491h101l-412 -764l-381 -727h-100l411 764zM82 1145q0 156 70 259t181 103t181 -101t70 -257v-10q0 -156 -70 -259q-70 -104 -182 -104t-180 102q-70 102 -70 257v10z" />
    <glyph glyph-name="quotedbl.tab" horiz-adv-x="1290" 
d="M1047 1491v-10l-226 -551h-78l129 561h175zM588 1491v-10l-226 -551h-77l129 561h174z" />
    <glyph glyph-name="quotesingle.tab" horiz-adv-x="645" 
d="M496 1491v-10l-224 -551h-79l129 561h174z" />
    <glyph glyph-name="period.tab" horiz-adv-x="645" 
d="M223 0v225h201v-225h-201z" />
    <glyph glyph-name="comma.tab" horiz-adv-x="645" 
d="M223 0v225h201v-196q0 -113 -55 -177t-168 -98l-27 66q76 33 107 75t26 105h-84z" />
    <glyph glyph-name="colon.tab" horiz-adv-x="645" 
d="M223 0v223h201v-223h-201zM223 872v222h201v-222h-201z" />
    <glyph glyph-name="semicolon.tab" horiz-adv-x="645" 
d="M223 0v223h201v-194q0 -113 -55 -177t-168 -98l-27 66q76 33 107 75t26 105h-84zM223 872v222h201v-222h-201z" />
    <glyph glyph-name="twodotleader.tab" horiz-adv-x="1290" 
d="M868 0v211h193v-211h-193zM229 0v211h193v-211h-193z" />
    <glyph glyph-name="periodcentered.tab" horiz-adv-x="645" 
d="M223 526v224h201v-224h-201z" />
    <glyph glyph-name="slash.tab" horiz-adv-x="1290" 
d="M1235 1700l-1079 -1972h-131l1079 1972h131z" />
    <glyph glyph-name="bar.tab" horiz-adv-x="645" 
d="M264 -272v1972h119v-1972h-119z" />
    <glyph glyph-name="underscore.tab" horiz-adv-x="1290" 
d="M2 -340v117h1286v-117h-1286z" />
    <glyph glyph-name="plus.tab" horiz-adv-x="1290" 
d="M1143 686h-430v-442h-135v442h-431v129l431 -2v442h135v-442l430 2v-129z" />
    <glyph glyph-name="minus.tab" horiz-adv-x="1290" 
d="M1143 682h-996v135h996v-135z" />
    <glyph glyph-name="divide.tab" horiz-adv-x="1290" 
d="M547 229v207h196v-207h-196zM1143 686h-996v127h996v-127zM547 1063v207h196v-207h-196z" />
    <glyph glyph-name="equal.tab" horiz-adv-x="1290" 
d="M1106 444h-922v131h922v-131zM1106 924h-922v133h922v-133z" />
    <glyph glyph-name="multiply.tab" horiz-adv-x="1290" 
d="M1018 283l-375 379l-375 -379l-90 90l379 375l-379 374l94 95l375 -379l375 379l90 -91l-379 -374l379 -375z" />
    <glyph glyph-name="less.tab" horiz-adv-x="1290" 
d="M1085 199l-938 495v113l938 493v-137l-792 -411l792 -414v-139z" />
    <glyph glyph-name="greater.tab" horiz-adv-x="1290" 
d="M1143 694l-938 -495v137l792 412l-792 415v137l938 -493v-113z" />
    <glyph glyph-name="plusminus.tab" horiz-adv-x="1290" 
d="M1143 0h-996v127h996v-127zM1143 770h-430v-424h-135v424h-431v129l431 -2v424h135v-424l430 2v-129z" />
    <glyph glyph-name="R_p" horiz-adv-x="2543" 
d="M1466 -340v1442h131v-223q143 246 379 245q184 0 322 -152q137 -153 137 -411v-18q0 -256 -138 -411t-321 -155q-236 0 -379 238v-555h-131zM188 0v1491h504q234 0 372 -121t138 -319v-7q0 -168 -100 -280t-262 -152l415 -612h-165l-396 588h-370v-588h-136zM1956 96
q145 0 245 121q99 121 99 326v16q0 201 -101 324t-245 123t-253 -125q-110 -125 -110 -320v-18q0 -197 110 -322t255 -125zM324 709h356q172 0 278 89t107 242v4q0 152 -101 237t-280 85h-360v-657z" />
    <glyph glyph-name="space.tab" horiz-adv-x="645" 
 />
    <glyph glyph-name="NUL" horiz-adv-x="0" 
 />
    <glyph glyph-name="caron.alt" horiz-adv-x="1085" 
d="M635 1577v-6l-107 -330h-71l32 336h146z" />
    <glyph glyph-name="acute.cap" horiz-adv-x="1085" 
d="M401 1626l207 264l150 -69l-238 -195h-119z" />
    <glyph glyph-name="hungarumlaut.cap" horiz-adv-x="1085" 
d="M213 1626l207 264l147 -69l-237 -195h-117zM526 1626l207 264l148 -69l-236 -195h-119z" />
    <glyph glyph-name="grave.cap" horiz-adv-x="1085" 
d="M684 1626h-119l-237 195l149 69z" />
    <glyph glyph-name="circumflex.cap" horiz-adv-x="1085" 
d="M250 1626l227 242h131l228 -242h-138l-157 129l-158 -129h-133z" />
    <glyph glyph-name="caron.cap" horiz-adv-x="1085" 
d="M836 1868l-228 -242h-131l-227 242h137l158 -129l157 129h134z" />
    <glyph glyph-name="breve.cap" horiz-adv-x="1085" 
d="M543 1622q-127 0 -210 61t-91 168h112q39 -111 189 -111t188 111h113q-8 -105 -91 -167t-210 -62z" />
    <glyph glyph-name="tilde.cap" horiz-adv-x="1085" 
d="M207 1632q62 205 180 205q59 0 166 -47q92 -35 126 -35q35 0 57 22t46 76l95 -26q-63 -201 -179 -201q-58 0 -156 41t-134 41t-60 -22q-23 -22 -47 -78z" />
    <glyph glyph-name="macron.cap" horiz-adv-x="1085" 
d="M201 1675v123h684v-123h-684z" />
    <glyph glyph-name="dieresis.cap" horiz-adv-x="1085" 
d="M647 1626v178h178v-178h-178zM258 1626v178h180v-178h-180z" />
    <glyph glyph-name="dotaccent.cap" horiz-adv-x="1085" 
d="M451 1626v178h184v-178h-184z" />
    <glyph glyph-name="ring.cap" horiz-adv-x="1085" 
d="M543 1698q61 0 102 37t41 94t-41 95t-102 38t-103 -38t-41 -95q-1 -57 41 -94t103 -37zM543 1622q-96 0 -164 59t-68 147t68 148t164 60t164 -60q67 -60 67 -147q0 -88 -67 -148q-68 -59 -164 -59z" />
    <glyph glyph-name="commaaccent.rot" horiz-adv-x="1085" 
d="M582 1434v-166h-174v143q-1 178 208 205l15 -60q-70 -12 -100 -42t-25 -80h76z" />
    <glyph glyph-name="acute.altlc" horiz-adv-x="1085" 
d="M410 1759l198 260l150 -71l-232 -189h-116z" />
    <glyph glyph-name="acute.altuc" horiz-adv-x="1085" 
d="M406 1870l208 239l146 -67l-236 -172h-118z" />
    <glyph glyph-name="caron.alt.cap" horiz-adv-x="1085" 
d="M635 1577v-6l-107 -330h-71l32 336h146z" />
    <glyph glyph-name="cedilla.cap" horiz-adv-x="1085" 
d="M481 -324l-139 64l193 285h112z" />
    <glyph glyph-name="commaaccent.cap" horiz-adv-x="1085" 
d="M455 -317v163h176v-143q0 -178 -209 -203l-14 58q133 27 124 125h-77z" />
    <glyph glyph-name="hcoslug" horiz-adv-x="1421" 
d="M1194 12q0 14 -14 15q-14 -1 -14 -15t14 -14t14 14zM879 12q-20 0 -21 21q0 10 8 18q9 -8 29 -33q-10 -6 -16 -6zM254 14v-14h59v14h-16v37h45v-37h-16v-14h59v14h-16v84h16v15h-59v-15h16v-32h-45v32h16v15h-59v-15h16v-84h-16zM565 14v-14h47v14h-10v52h29v-52h-10v-14
h47v14h-13v107l-20 -4q-8 4 -19 4q-39 0 -38 -39v-2h-15v-14h15v-52h-13zM754 14v-14h53v14h-16v33q8 18 14 19v-3q0 -12 13 -12q13 -1 13 15t-16 16t-24 -23v21h-37v-14h12v-52h-12zM506 47q0 25 14 25t15 -25h-29zM430 72q16 0 16 -32t-16 -32t-16 32t16 32zM1135 40
q-1 -32 -17 -32t-16 32t16 32t17 -32zM696 47q0 25 14 25t15 -25h-29zM506 37h53q4 45 -39 45q-16 0 -28 -12t-13 -31q0 -41 43 -41q31 0 37 29h-14q-2 -14 -19 -15q-20 0 -20 25zM430 82q-43 0 -43 -42t43 -42q18 0 31 12q12 12 12 31q0 41 -43 41zM1118 82q-43 0 -43 -42
t43 -42q18 0 31 12q12 12 12 31q0 41 -43 41zM696 37h54q4 45 -39 45q-17 0 -29 -12t-12 -31q0 -41 43 -41q29 0 37 29h-15q-2 -14 -18 -15q-21 0 -21 25zM882 98q12 0 11 -12q0 -12 -10 -18q-12 12 -13 20q0 10 12 10zM961 55q0 -57 59 -57q45 0 49 47h-16q-4 -33 -29 -33
q-33 0 -33 45t29 45q20 0 31 -32h16v45h-16l-2 -13q-14 14 -35 14t-37 -16q-16 -18 -16 -45zM950 68h-37v-15h13q-4 -10 -13 -18q-4 4 -11 12t-13 14q23 10 22 25q1 25 -31 25t-32 -29q0 -12 12 -25q-27 -8 -26 -30q0 -29 36 -29q18 0 31 12q10 -12 25 -12q20 0 26 25l-10 2
q-2 -11 -8 -11t-12 11q12 16 18 28h10v15zM602 80v6q0 25 12 25l7 -2q-3 -3 -3 -11t13 -8v-10h-29zM805 138q-1 -16 23 -17q24 0 36 33l27 63h10v14h-35v-14h11l-17 -41l-18 41h12v14h-51v-14h10q25 -47 33 -67q-5 -17 -17 -17q6 4 4 12q-3 8 -14 9q-14 0 -14 -16zM721 256
v-106h12l8 16q10 -16 29 -16q33 0 33 42t-31 41q-20 0 -27 -18v55h-36v-14h12zM618 180v-28h15l2 8q14 -10 27 -10q29 0 28 26q0 18 -24 25q-25 6 -25 13t10 7t21 -14h14v26h-12l-4 -10q-6 10 -23 10q-29 0 -29 -24q0 -17 25 -25t25 -15t-12 -7t-23 18h-15zM256 166v-14h61
v14h-20v33h8q10 0 12 -17h15v47h-15q-2 -16 -12 -16h-8v37h25q18 0 22 -27h16v41h-104v-14h14v-84h-14zM776 190q0 -27 -14 -26q-16 0 -16 26t14 27q16 0 16 -27zM449 166v-14h45v14h-9v31q-1 20 13 20t14 -14v-37h-8v-14h45v14h-12v39q0 29 -25 28q-18 0 -29 -22v20h-34
v-14h12v-51h-12zM416 192q0 -32 -16 -32t-17 32q0 32 16 31q17 1 17 -31zM442 193q0 41 -43 41t-43 -42t43 -42q18 0 31 12q12 12 12 31zM561 231h-14v-14h14v-41q0 -27 25 -26q23 0 28 26l-10 4q-2 -14 -10 -14t-8 10v41h26v14h-26v23l-25 -4v-19zM1067 686q0 47 -30 77
t-72 30q-72 0 -123 -78q-6 80 -101 76q19 31 19 79t-52 96q-52 46 -146 46t-158 -52q-62 -52 -62 -126q0 -72 64 -138q-168 -57 -168 -186q0 -80 66 -135t157 -56q129 0 213 93q90 -92 166 -92t123 52t49 140l-15 4q-35 -59 -89 -59t-126 84q41 53 95 86q31 -51 81 -51
t80 31q30 32 29 79zM536 449q-46 -1 -77 31t-31 80t33 81q70 -66 151 -168q-30 -24 -76 -24zM639 700q61 41 86 70q59 -59 -2 -164q-68 78 -84 94zM506 879q0 25 15 41t41 16t42 -22q44 -60 -20 -158q-51 48 -65 73q-13 25 -13 50zM1319 1434v-1639h-1217v1639h1217z" />
    <glyph glyph-name="ogonek.cap" horiz-adv-x="1085" 
d="M705 -350h-15q-131 4 -201 49t-69 121q0 98 145 215l97 -31q-62 -51 -90 -88t-27 -78q0 -88 160 -100v-88z" />
    </font>
</defs>
</svg>
