<?xml version="1.0" standalone="no"?>
<!DOCTYPE svg PUBLIC "-//W3C//DTD SVG 1.1//EN" "http://www.w3.org/Graphics/SVG/1.1/DTD/svg11.dtd" >
<svg xmlns="http://www.w3.org/2000/svg">
<metadata>
Created by FontPrep 20130207 at Tue Sep 20 09:54:23 2016
 By baxy
Copyright (C) 2010, 2014 Hoefler &#38; Co. http://www.typography.com
</metadata>
<defs>
<font id="2d4c04ad501ccd8fd63c7744e6332ac7" horiz-adv-x='1024' >
  <font-face 
    font-family="GothamSSm-Bold"
    font-weight="400"
    font-stretch="normal"
    units-per-em="2048"
    panose-1="0 0 0 0 0 0 0 0 0 0"
    ascent="1638"
    descent="-410"
    x-height="1139"
    cap-height="1491"
    bbox="-477 -623 2548 2163"
    underline-thickness="102"
    underline-position="-102"
    unicode-range="U+0020-FB04"
  />
<missing-glyph horiz-adv-x="1024" 
d="M512 492l-367 -799h734zM102 -156l353 770l-353 770v-1540zM922 1384l-353 -770l353 -770v1540zM145 1536l367 -799l367 799h-734zM0 -410v2048h1024v-2048h-1024z" />
    <glyph glyph-name=".notdef" horiz-adv-x="1024" 
d="M512 492l-367 -799h734zM102 -156l353 770l-353 770v-1540zM922 1384l-353 -770l353 -770v1540zM145 1536l367 -799l367 799h-734zM0 -410v2048h1024v-2048h-1024z" />
    <glyph glyph-name=".null" horiz-adv-x="0" 
 />
    <glyph glyph-name="nonmarkingreturn" horiz-adv-x="681" 
 />
    <glyph glyph-name="space" unicode=" " horiz-adv-x="655" 
 />
    <glyph glyph-name="exclam" unicode="!" horiz-adv-x="696" 
d="M182 0v332h332v-332h-332zM166 1491h364v-49l-96 -942h-172l-96 942v49z" />
    <glyph glyph-name="quotedbl" unicode="&#x22;" horiz-adv-x="1110" 
d="M1012 1491v-10l-228 -662h-157l41 672h344zM516 1491v-10l-227 -662h-158l41 672h344z" />
    <glyph glyph-name="numbersign" unicode="#" horiz-adv-x="1507" 
d="M1348 586v-262h-240l-55 -324h-271l56 324h-316l-55 -324h-270l55 324h-168v262h213l55 327h-192v263h237l56 315h270l-55 -315h315l55 315h271l-56 -315h170v-263h-215l-55 -327h195zM616 922l-57 -344h330l57 344h-330z" />
    <glyph glyph-name="dollar" unicode="$" horiz-adv-x="1390" 
d="M1274 424v-4q0 -176 -123 -286t-330 -132v-211h-215v215q-283 35 -502 205l160 231q188 -143 352 -174v355q-240 63 -348 164t-108 284v4q0 174 122 285t324 131v123h215v-127q212 -29 398 -160l-140 -237q-137 90 -268 127v-340q243 -66 353 -171t110 -282zM975 408
q0 59 -36 97t-128 68v-315q164 23 164 145v5zM459 1090q0 -54 34 -92t123 -70v307q-158 -20 -157 -141v-4z" />
    <glyph glyph-name="percent" unicode="%" horiz-adv-x="1843" 
d="M1235 365q0 -79 41 -137q42 -58 106 -58t102 55t38 135v5q0 80 -41 136t-106 56t-103 -54t-37 -134v-4zM1376 -16q-158 0 -258 108t-100 268v5q0 161 101 271t260 110t259 -110t101 -267v-4q-1 -161 -103 -271t-260 -110zM608 1126q0 80 -41 138t-105 57q-64 0 -103 -55
q-38 -55 -37 -136v-4q0 -80 40 -136t106 -56q64 0 102 54t38 134v4zM850 801l493 690h246l-596 -801l-493 -690h-246zM825 1126q0 -160 -101 -270t-260 -111q-159 0 -259 109t-101 268v4q0 162 102 272t260 110q159 0 259 -110q100 -108 100 -268v-4z" />
    <glyph glyph-name="ampersand" unicode="&#x26;" horiz-adv-x="1499" 
d="M399 420q1 -82 61 -132t166 -50t220 94l-295 299q-152 -76 -152 -207v-4zM856 1122v4q0 66 -40 105t-108 39t-108 -43q-41 -43 -41 -113v-4q0 -88 92 -192q205 74 205 204zM591 -20q-226 0 -368 117q-141 118 -141 311v4q0 279 297 411q-109 147 -109 301v4
q0 160 122 274t316 114t309 -106q116 -106 116 -265v-4q0 -268 -318 -389l211 -211q78 125 148 262l231 -127q-104 -195 -197 -320l222 -223l-232 -164l-176 181q-205 -170 -431 -170z" />
    <glyph glyph-name="quotesingle" unicode="'" horiz-adv-x="618" 
d="M520 1491v-10l-227 -662h-162l41 672h348z" />
    <glyph glyph-name="parenleft" unicode="(" horiz-adv-x="962" 
d="M135 612q0 594 590 912l137 -207q-221 -152 -319 -317t-99 -390v-2q0 -223 100 -388t318 -314l-137 -207q-297 162 -443 385t-147 526v2z" />
    <glyph glyph-name="parenright" unicode=")" horiz-adv-x="962" 
d="M518 610v2q0 223 -99 389t-319 316l138 207q590 -322 589 -914v-2q1 -592 -589 -909l-138 207q221 152 320 315q98 164 98 389z" />
    <glyph glyph-name="asterisk" unicode="*" horiz-adv-x="931" 
d="M381 797l33 256l-207 -158l-86 149l237 103l-237 100l86 150l207 -158l-33 256h170l-33 -256l207 158l88 -150l-240 -100l240 -103l-88 -149l-207 158l33 -256h-170z" />
    <glyph glyph-name="plus" unicode="+" horiz-adv-x="1376" 
d="M543 221v387h-389v283h389v387h291v-387h391v-283h-391v-387h-291z" />
    <glyph glyph-name="comma" unicode="," horiz-adv-x="618" 
d="M143 0v332h332v-281q1 -199 -95 -292t-286 -97l-26 129q219 25 202 209h-127z" />
    <glyph glyph-name="hyphen" unicode="-" horiz-adv-x="884" 
d="M117 508v301h651v-301h-651z" />
    <glyph glyph-name="period" unicode="." horiz-adv-x="618" 
d="M143 0v332h332v-332h-332z" />
    <glyph glyph-name="slash" unicode="/" horiz-adv-x="1140" 
d="M-49 -272l946 1972h264l-946 -1972h-264z" />
    <glyph glyph-name="zero" unicode="0" horiz-adv-x="1568" 
d="M786 258q152 0 243 137t91 346v4q0 209 -94 349t-244 139q-150 0 -242 -136t-91 -347v-5q1 -211 93 -349t244 -138zM782 -25q-293 1 -475 219t-182 547v4q0 328 184 549q184 222 476 222q291 0 475 -218t184 -548v-5q0 -328 -184 -549t-478 -221z" />
    <glyph glyph-name="one" unicode="1" horiz-adv-x="903" 
d="M387 0v1182l-262 -66l-66 258l424 127h215v-1501h-311z" />
    <glyph glyph-name="two" unicode="2" horiz-adv-x="1339" 
d="M113 0v250l499 412q150 124 206 200t56 169t-57 147t-147 53q-90 0 -159 -48t-157 -157l-221 176q117 162 240 236t313 73q230 0 370 -125t140 -331v-4q0 -181 -98 -306q-54 -70 -118 -128t-175 -144l-256 -201h661v-272h-1097z" />
    <glyph glyph-name="three" unicode="3" horiz-adv-x="1337" 
d="M670 -25q-360 0 -578 258l217 205q160 -182 365 -182q98 0 160 52q61 52 61 138v5q0 94 -80 146t-221 52h-133l-51 199l366 373h-598v270h1004v-238l-385 -372q178 -29 293 -128t114 -290v-4q0 -213 -145 -349t-389 -135z" />
    <glyph glyph-name="four" unicode="4" horiz-adv-x="1480" 
d="M862 580v489l-416 -489h416zM862 0v324h-733l-53 223l821 954h266v-921h203v-256h-203v-324h-301z" />
    <glyph glyph-name="five" unicode="5" horiz-adv-x="1355" 
d="M657 -25q-322 0 -555 224l191 227q182 -166 360 -166q119 0 189 57t69 160v4q0 98 -74 155q-75 56 -197 56t-255 -57l-184 123l43 733h911v-277h-641l-18 -276q106 29 204 29q232 0 376 -119t145 -356v-5q0 -233 -154 -373t-410 -139z" />
    <glyph glyph-name="six" unicode="6" horiz-adv-x="1423" 
d="M717 244q123 0 193 64t71 165v6q0 97 -73 161q-74 64 -196 64t-193 -62q-71 -64 -70 -163v-4q0 -100 72 -166q73 -65 196 -65zM1294 487q0 -225 -160 -369t-416 -143q-255 0 -417 158q-176 180 -176 565v4q0 362 167 588t484 226q258 0 463 -164l-166 -244
q-81 63 -149 93t-155 30q-168 0 -246 -134q-61 -108 -70 -241h2q135 111 317 111q230 0 376 -125t146 -348v-7z" />
    <glyph glyph-name="seven" unicode="7" horiz-adv-x="1331" 
d="M154 1219v272h1067v-238l-668 -1253h-356l667 1219h-710z" />
    <glyph glyph-name="eight" unicode="8" horiz-adv-x="1357" 
d="M410 432q0 -82 72 -137t197 -55q124 0 197 54t72 138v4q0 88 -76 139t-194 51t-193 -50q-76 -52 -75 -140v-4zM680 879q100 0 162 52q61 52 61 136v4q0 76 -61 128q-60 52 -162 52t-164 -52t-61 -126v-4q1 -84 63 -137t162 -53zM681 -20q-251 0 -414 118t-163 310v4
q0 250 248 360q-197 115 -196 328v4q0 174 146 291t378 117t377 -116t145 -292v-4q0 -211 -194 -328q123 -61 184 -143t61 -209v-4q0 -201 -160 -319q-161 -117 -412 -117z" />
    <glyph glyph-name="nine" unicode="9" horiz-adv-x="1423" 
d="M657 260q83 0 147 37q148 86 169 330h-2q-119 -115 -312 -115q-244 0 -387 128t-143 351v4q0 225 159 373t406 148q146 0 244 -38t184 -122q176 -176 176 -563v-5q0 -372 -170 -592t-462 -220t-502 176l166 239q161 -131 327 -131zM711 774q123 0 193 66t71 166v4
q0 104 -74 171q-75 67 -197 67t-192 -66t-70 -172v-4q0 -104 73 -168t196 -64z" />
    <glyph glyph-name="colon" unicode=":" horiz-adv-x="638" 
d="M154 0v332h331v-332h-331zM154 807v332h331v-332h-331z" />
    <glyph glyph-name="semicolon" unicode=";" horiz-adv-x="638" 
d="M154 0v332h331v-281q1 -199 -95 -292t-286 -97l-26 129q219 25 203 209h-127zM154 807v332h331v-332h-331z" />
    <glyph glyph-name="less" unicode="&#x3c;" horiz-adv-x="1376" 
d="M1182 154l-1030 454v283l1030 455v-289l-729 -305l729 -306v-292z" />
    <glyph glyph-name="equal" unicode="=" horiz-adv-x="1376" 
d="M166 334v282h1046v-282h-1046zM166 883v282h1046v-282h-1046z" />
    <glyph glyph-name="greater" unicode="&#x3e;" horiz-adv-x="1376" 
d="M197 154v288l727 306l-727 305v293l1028 -455v-283z" />
    <glyph glyph-name="question" unicode="?" horiz-adv-x="1173" 
d="M365 0v332h331v-332h-331zM772 1059v4q0 76 -54 119t-151 43q-178 0 -325 -152l-189 205q207 231 520 231q233 0 373 -115q139 -116 139 -323v-4q0 -346 -421 -428l-23 -139h-209l-47 346l10 10q377 14 377 203z" />
    <glyph glyph-name="at" unicode="@" horiz-adv-x="2103" 
d="M991 352q94 0 166 72q94 94 94 242q0 92 -57 148t-148 56t-169 -73q-92 -92 -93 -234q0 -99 56 -155t151 -56zM1088 -344q-284 0 -502 125q-219 125 -342 338t-123 465q0 385 272 658t662 274q190 0 363 -71q341 -140 492 -456q73 -154 72 -315q0 -256 -120 -395
t-301 -140q-215 0 -324 133q-141 -133 -312 -133t-283 113q-112 114 -112 316t144 359t334 157t297 -148l22 115l244 -39l-101 -566q-6 -38 -6 -84t42 -86t116 -38q119 0 196 114t76 322q0 301 -243 529q-244 228 -596 229q-239 0 -433 -114t-304 -308t-109 -426
q0 -356 245 -600t617 -244q276 0 522 141l43 -65q-264 -160 -548 -160z" />
    <glyph glyph-name="A" unicode="A" horiz-adv-x="1699" 
d="M61 0l644 1501h290l641 -1501h-329l-140 340h-645l-139 -340h-322zM635 618h420l-209 506z" />
    <glyph glyph-name="B" unicode="B" horiz-adv-x="1554" 
d="M1139 451q0 170 -256 170h-387v-345h399q244 0 244 170v5zM1055 1051v4q-1 75 -59 117t-165 42h-335v-331h315q244 0 244 168zM190 0v1491h687q256 0 391 -131q100 -102 100 -254v-4q0 -213 -199 -324q139 -51 211 -136t72 -228v-4q0 -201 -149 -306q-150 -104 -408 -104
h-705z" />
    <glyph glyph-name="C" unicode="C" horiz-adv-x="1589" 
d="M887 -25q-328 -1 -546 221t-218 545v4q0 324 219 547t557 224q199 0 336 -58t252 -172l-201 -231q-188 172 -384 172q-196 1 -322 -139q-127 -140 -127 -338v-5q0 -201 126 -341t318 -140q121 0 210 44t189 134l201 -202q-125 -131 -266 -198t-344 -67z" />
    <glyph glyph-name="D" unicode="D" horiz-adv-x="1681" 
d="M766 1206h-262v-921h262q207 0 335 127t128 329v4q0 203 -128 332t-335 129zM190 0v1491h576q348 0 570 -212t223 -529v-5q-1 -319 -223 -532t-570 -213h-576z" />
    <glyph glyph-name="E" unicode="E" horiz-adv-x="1443" 
d="M190 0v1491h1121v-281h-809v-319h712v-281h-712v-329h819v-281h-1131z" />
    <glyph glyph-name="F" unicode="F" horiz-adv-x="1413" 
d="M190 0v1491h1129v-287h-815v-334h721v-286h-721v-584h-314z" />
    <glyph glyph-name="G" unicode="G" horiz-adv-x="1685" 
d="M911 -25q-352 0 -570 216t-218 550v4q0 322 222 546t558 225q189 0 325 -50t259 -153l-199 -240q-96 80 -184 117t-211 37q-184 -1 -312 -141t-128 -336v-5q0 -211 130 -348t325 -137t327 94v228h-340v272h645v-643q-277 -236 -629 -236z" />
    <glyph glyph-name="H" unicode="H" horiz-adv-x="1634" 
d="M190 0v1491h314v-596h626v596h316v-1491h-316v604h-626v-604h-314z" />
    <glyph glyph-name="I" unicode="I" horiz-adv-x="724" 
d="M205 0v1491h315v-1491h-315z" />
    <glyph glyph-name="J" unicode="J" horiz-adv-x="1216" 
d="M526 -20q-297 0 -485 225l201 221q133 -156 276 -156q98 0 154 64t55 192v965h322v-977q1 -258 -137 -396t-386 -138z" />
    <glyph glyph-name="K" unicode="K" horiz-adv-x="1568" 
d="M190 0v1491h314v-672l622 672h387l-612 -635l639 -856h-379l-473 641l-184 -190v-451h-314z" />
    <glyph glyph-name="L" unicode="L" horiz-adv-x="1333" 
d="M190 0v1491h314v-1204h751v-287h-1065z" />
    <glyph glyph-name="M" unicode="M" horiz-adv-x="1865" 
d="M190 0v1491h338l404 -645l405 645h338v-1491h-313v993l-430 -651h-8l-426 645v-987h-308z" />
    <glyph glyph-name="N" unicode="N" horiz-adv-x="1699" 
d="M190 0v1491h289l719 -940v940h311v-1491h-268l-741 971v-971h-310z" />
    <glyph glyph-name="O" unicode="O" horiz-adv-x="1826" 
d="M915 264q199 0 329 138t130 339v4q0 201 -132 341t-331 140t-329 -137q-130 -138 -129 -339v-5q-1 -201 131 -341t331 -140zM911 -25q-340 1 -564 223t-224 543v4q0 322 226 546q226 225 566 225q341 0 565 -222t224 -544v-5q0 -322 -226 -546t-567 -224z" />
    <glyph glyph-name="P" unicode="P" horiz-adv-x="1439" 
d="M504 735h270q125 0 199 66t74 168v4q0 113 -75 173t-204 60h-264v-471zM190 0v1491h605q261 0 415 -141t154 -371v-4q0 -248 -170 -384t-430 -136h-260v-455h-314z" />
    <glyph glyph-name="Q" unicode="Q" horiz-adv-x="1826" 
d="M915 264q113 0 209 45l-245 211l200 225l248 -225q47 100 47 221v4q0 201 -132 341t-331 140t-329 -137q-130 -138 -129 -339v-5q-1 -201 131 -341t331 -140zM911 -25q-340 1 -564 223t-224 543v4q0 322 226 546q226 225 566 225q341 0 565 -222t224 -544v-5
q0 -238 -135 -434l155 -133l-200 -223l-168 151q-201 -131 -445 -131z" />
    <glyph glyph-name="R" unicode="R" horiz-adv-x="1556" 
d="M190 0v1491h678q283 0 435 -152q125 -125 124 -335v-5q0 -175 -87 -291t-238 -169l373 -539h-369l-330 485h-272v-485h-314zM504 764h344q122 0 192 59t70 160v4q0 107 -71 163t-197 56h-338v-442z" />
    <glyph glyph-name="S" unicode="S" horiz-adv-x="1380" 
d="M719 -20q-367 0 -631 237l186 223q221 -184 451 -184q104 0 165 41q60 41 60 111v4q0 68 -61 108t-246 88q-258 64 -377 158t-119 297v4q-1 199 145 322t376 122q315 0 551 -188l-166 -238q-209 150 -391 150q-94 0 -148 -40t-53 -99v-4q0 -76 63 -115q64 -39 286 -95
t338 -156t116 -284v-4q0 -214 -150 -336t-395 -122z" />
    <glyph glyph-name="T" unicode="T" horiz-adv-x="1394" 
d="M541 0v1200h-459v291h1231v-291h-457v-1200h-315z" />
    <glyph glyph-name="U" unicode="U" horiz-adv-x="1626" 
d="M811 -23q-305 0 -475 169t-170 491v854h315v-844q0 -184 87 -282q87 -99 245 -99t246 94t88 275v856h313v-842q0 -332 -172 -502t-477 -170z" />
    <glyph glyph-name="V" unicode="V" horiz-adv-x="1613" 
d="M668 -10l-607 1501h349l401 -1069l401 1069h340l-606 -1501h-278z" />
    <glyph glyph-name="W" unicode="W" horiz-adv-x="2404" 
d="M586 -10l-512 1501h338l319 -1028l340 1032h270l340 -1032l318 1028h330l-510 -1501h-275l-342 993l-342 -993h-274z" />
    <glyph glyph-name="X" unicode="X" horiz-adv-x="1574" 
d="M1118 1491h359l-502 -727l522 -764h-369l-346 524l-348 -524h-358l524 758l-502 733h369l324 -496z" />
    <glyph glyph-name="Y" unicode="Y" horiz-adv-x="1542" 
d="M612 0v588l-575 903h369l366 -610l375 610h358l-577 -897v-594h-316z" />
    <glyph glyph-name="Z" unicode="Z" horiz-adv-x="1521" 
d="M143 0v238l832 976h-805v277h1210v-238l-831 -977h831v-276h-1237z" />
    <glyph glyph-name="bracketleft" unicode="[" horiz-adv-x="1001" 
d="M186 -276v1767h682v-244h-383v-1280h383v-243h-682z" />
    <glyph glyph-name="backslash" unicode="\" horiz-adv-x="1140" 
d="M928 -272l-948 1972h264l948 -1972h-264z" />
    <glyph glyph-name="bracketright" unicode="]" horiz-adv-x="1001" 
d="M133 -276v243h385v1280h-385v244h682v-1767h-682z" />
    <glyph glyph-name="asciicircum" unicode="^" horiz-adv-x="1081" 
d="M117 1051l317 440h213l318 -440h-228l-198 256l-199 -256h-223z" />
    <glyph glyph-name="underscore" unicode="_" horiz-adv-x="1294" 
d="M4 -340v238h1286v-238h-1286z" />
    <glyph glyph-name="grave" unicode="`" horiz-adv-x="1081" 
d="M522 1268l-274 254l270 116l234 -370h-230z" />
    <glyph glyph-name="a" unicode="a" horiz-adv-x="1275" 
d="M481 -23q-167 -1 -281 93t-114 258v4q0 180 125 271t336 91q145 0 284 -45v21q0 215 -251 215q-147 0 -318 -64l-78 238q209 92 451 92t369 -125t126 -362v-664h-301v127q-133 -150 -348 -150zM387 340q0 -68 51 -106q52 -38 152 -39q100 0 173 58t73 150v62
q-100 43 -214 43t-174 -43t-61 -121v-4z" />
    <glyph glyph-name="b" unicode="b" horiz-adv-x="1452" 
d="M751 244q121 0 203 89t82 234v4q0 143 -84 233t-202 91q-118 0 -203 -90q-84 -90 -84 -234v-4q0 -143 84 -233t204 -90zM827 -23q-215 0 -360 177v-154h-311v1554h311v-585q139 190 356 190t371 -159t154 -429v-4q0 -272 -153 -431t-368 -159z" />
    <glyph glyph-name="c" unicode="c" horiz-adv-x="1232" 
d="M692 -25q-254 0 -423 171t-169 417v4q0 246 169 419t439 173t443 -192l-193 -205q-123 129 -256 129t-214 -93t-80 -227v-4q0 -139 82 -232t218 -93t267 125l182 -183q-91 -102 -199 -156t-266 -53z" />
    <glyph glyph-name="d" unicode="d" horiz-adv-x="1452" 
d="M629 -23q-217 0 -371 159t-154 431v4q0 272 153 430t369 158t359 -174v569h311v-1554h-311v168q-139 -191 -356 -191zM702 244q119 0 203 90t84 233v4q0 143 -84 233t-204 91q-121 0 -203 -89t-82 -235v-4q0 -143 84 -233t202 -90z" />
    <glyph glyph-name="e" unicode="e" horiz-adv-x="1318" 
d="M406 655h505q-16 117 -81 186q-66 69 -168 69t-170 -70q-68 -68 -86 -185zM692 -25q-256 0 -424 164t-168 424v4q0 248 159 420t415 172t398 -178t142 -438q0 -25 -4 -82h-800q24 -115 98 -175t188 -61q156 0 283 119l178 -158q-172 -211 -465 -211z" />
    <glyph glyph-name="f" unicode="f" horiz-adv-x="827" 
d="M213 1202q0 367 350 367q129 0 228 -31v-258q-80 27 -150 27q-123 0 -123 -131v-50h270v-254h-266v-872h-309v872h-137v256h137v74z" />
    <glyph glyph-name="g" unicode="g" horiz-adv-x="1452" 
d="M666 -344q-281 0 -504 121l106 233q186 -106 389 -106q332 0 332 317v62q-78 -95 -166 -143t-211 -48q-211 0 -359 144t-149 389v4q0 242 150 386t362 144t369 -174v154h311v-887q0 -300 -148 -448t-482 -148zM700 350q123 0 206 77t83 198v4q0 119 -83 195t-206 77
q-124 0 -204 -76t-80 -196v-4q0 -121 80 -198t204 -77z" />
    <glyph glyph-name="h" unicode="h" horiz-adv-x="1341" 
d="M156 0v1554h311v-579q141 184 331 184t295 -113q103 -114 103 -311v-735h-311v637q1 117 -53 179t-152 62t-156 -62t-57 -179v-637h-311z" />
    <glyph glyph-name="i" unicode="i" horiz-adv-x="653" 
d="M172 0v1139h309v-1139h-309zM162 1274v278h327v-278h-327z" />
    <glyph glyph-name="j" unicode="j" horiz-adv-x="653" 
d="M123 -348q-74 0 -137 14v244q53 -8 69 -8q117 0 117 135v1102h309v-1127q0 -360 -358 -360zM162 1274v278h327v-278h-327z" />
    <glyph glyph-name="k" unicode="k" horiz-adv-x="1273" 
d="M156 0v1554h311v-847l397 432h373l-438 -453l452 -686h-360l-301 473l-123 -131v-342h-311z" />
    <glyph glyph-name="l" unicode="l" horiz-adv-x="653" 
d="M172 0v1554h309v-1554h-309z" />
    <glyph glyph-name="m" unicode="m" horiz-adv-x="2039" 
d="M156 0v1139h311v-164q141 184 338 184q229 0 323 -184q152 184 377 184q184 0 286 -108q101 -109 101 -314v-737h-311v637q0 242 -197 242q-96 -1 -150 -63t-54 -179v-637h-312v637q0 117 -51 179t-145 62t-150 -62q-56 -64 -55 -179v-637h-311z" />
    <glyph glyph-name="n" unicode="n" horiz-adv-x="1341" 
d="M156 0v1139h311v-164q141 184 331 184t295 -113q103 -114 103 -311v-735h-311v637q1 117 -53 179t-152 62t-156 -62t-57 -179v-637h-311z" />
    <glyph glyph-name="o" unicode="o" horiz-adv-x="1427" 
d="M718 242q136 0 219 93t83 228v4q0 133 -87 229t-223 95q-136 0 -220 -92t-82 -228v-4q0 -133 87 -229t223 -96zM713 -25q-262 0 -438 170q-175 170 -175 418v4q0 246 178 419t438 173q261 0 436 -171t175 -417v-4q0 -248 -176 -420t-438 -172z" />
    <glyph glyph-name="p" unicode="p" horiz-adv-x="1452" 
d="M156 -340v1479h311v-170q139 190 356 190t371 -159t154 -429v-4q0 -272 -153 -431t-368 -159t-360 177v-494h-311zM751 244q121 0 203 89t82 234v4q0 143 -84 233t-202 91q-118 0 -203 -90q-84 -90 -84 -234v-4q0 -143 84 -233t204 -90z" />
    <glyph glyph-name="q" unicode="q" horiz-adv-x="1452" 
d="M702 244q119 0 203 90t84 233v4q0 143 -84 233t-204 91q-121 0 -203 -89t-82 -235v-4q0 -143 84 -233t202 -90zM985 -340v508q-139 -190 -356 -190t-371 158q-154 159 -154 431v4q0 272 153 430t369 158t359 -174v154h311v-1479h-311z" />
    <glyph glyph-name="r" unicode="r" horiz-adv-x="905" 
d="M156 0v1139h311v-236q113 266 371 256v-325h-17q-168 0 -261 -104t-93 -306v-424h-311z" />
    <glyph glyph-name="s" unicode="s" horiz-adv-x="1085" 
d="M553 -20q-270 0 -487 170l135 206q186 -137 360 -137q145 0 146 92v4q-1 27 -13 39l-20 20t-26 16q-18 7 -28 13q-11 5 -35 13l-36 12t-40 12t-103 30t-179 94q-104 73 -104 229v4q0 166 119 262t297 96q225 0 422 -131l-119 -215q-182 106 -312 106q-59 1 -93 -23
t-34 -63v-4q0 -41 51 -68t156 -62q105 -33 155 -57t106 -62q116 -78 116 -228v-4q1 -180 -119 -272t-315 -92z" />
    <glyph glyph-name="t" unicode="t" horiz-adv-x="899" 
d="M530 -18q-150 0 -235 76q-86 76 -86 264v550h-137v267h137v295h311v-295h275v-267h-275v-499q0 -117 111 -117q86 0 160 39v-250q-111 -63 -261 -63z" />
    <glyph glyph-name="u" unicode="u" horiz-adv-x="1341" 
d="M546 -23q-190 0 -295 114q-103 114 -104 312v736h310v-637q0 -117 53 -179q54 -63 152 -63t155 62t57 180v637h312v-1139h-312v164q-138 -187 -328 -187z" />
    <glyph glyph-name="v" unicode="v" horiz-adv-x="1292" 
d="M506 -8l-453 1147h330l264 -779l268 779h324l-453 -1147h-280z" />
    <glyph glyph-name="w" unicode="w" horiz-adv-x="1849" 
d="M416 -8l-353 1147h316l190 -709l224 713h266l223 -715l197 711h309l-358 -1147h-281l-225 715l-230 -715h-278z" />
    <glyph glyph-name="x" unicode="x" horiz-adv-x="1257" 
d="M410 1139l221 -342l225 342h326l-387 -555l403 -584h-334l-239 367l-240 -367h-326l404 580l-387 559h334z" />
    <glyph glyph-name="y" unicode="y" horiz-adv-x="1292" 
d="M418 -348q-145 0 -281 78l105 225q76 -43 131 -43t82 17t51 67l-453 1143h330l270 -789l258 789h324l-440 -1168q-68 -175 -150 -247t-227 -72z" />
    <glyph glyph-name="z" unicode="z" horiz-adv-x="1214" 
d="M115 0v217l602 670h-582v252h971v-219l-604 -668h604v-252h-991z" />
    <glyph glyph-name="braceleft" unicode="{" horiz-adv-x="1058" 
d="M399 123q0 21 7 147q0 123 -54 173t-182 51h-55v235h55q127 0 181 50t55 173l-7 148q0 174 108 274t388 150l53 -207q-166 -47 -215 -100t-49 -162l6 -158q0 -213 -223 -287q223 -70 223 -286l-6 -158q0 -106 49 -160t215 -100l-53 -207q-281 49 -389 149t-107 275z" />
    <glyph glyph-name="bar" unicode="|" horiz-adv-x="753" 
d="M254 -272v1972h246v-1972h-246z" />
    <glyph glyph-name="braceright" unicode="}" horiz-adv-x="1058" 
d="M889 729h55v-235h-55q-127 0 -181 -50t-55 -174l6 -147q0 -175 -107 -275t-388 -149l-53 207q166 47 215 100t49 160l-6 158q0 217 223 286q-223 74 -223 287l6 158q0 109 -49 162t-215 100l53 207q280 -50 388 -150t107 -274l-6 -148q1 -123 55 -173t181 -50z" />
    <glyph glyph-name="asciitilde" unicode="~" horiz-adv-x="1095" 
d="M721 500q-67 0 -173 42t-149 42t-67 -24t-49 -81l-166 51q41 146 98 218q103 131 352 24q94 -37 133 -37t64 24t49 81l166 -52q-39 -143 -97 -216q-59 -72 -161 -72z" />
    <glyph glyph-name="uni00A0" unicode="&#xa0;" horiz-adv-x="655" 
 />
    <glyph glyph-name="exclamdown" unicode="&#xa1;" horiz-adv-x="696" 
d="M166 0v49l96 942h172l96 -942v-49h-364zM182 1159v332h332v-332h-332z" />
    <glyph glyph-name="cent" unicode="&#xa2;" horiz-adv-x="1253" 
d="M111 752v4q0 248 169 421t425 173h12l31 153h215l-37 -188q137 -45 235 -158l-184 -199q-61 59 -113 84l-121 -608h2q125 12 240 123l176 -178q-193 -213 -459 -215h-2l-34 -176h-213l41 211q-170 61 -277 212q-106 151 -106 341zM412 756q0 -203 143 -285l119 608h-2
q-113 -8 -188 -100t-72 -219v-4z" />
    <glyph glyph-name="sterling" unicode="&#xa3;" horiz-adv-x="1388" 
d="M137 0v205l164 53v315h-164v261h164v178q0 233 131 366t371 133q299 0 477 -243l-240 -191q-59 74 -111 109t-127 35t-124 -52q-59 -55 -60 -165v-170h496v-261h-496v-301h658v-272h-1139z" />
    <glyph glyph-name="yen" unicode="&#xa5;" horiz-adv-x="1476" 
d="M193 559v221h311l-463 711h362l338 -565l344 565h353l-465 -711h313v-221h-395v-137h395v-221h-395v-201h-303v201h-395v221h395v137h-395z" />
    <glyph glyph-name="section" unicode="&#xa7;" horiz-adv-x="1361" 
d="M1135 305q0 -149 -115 -237t-320 -88q-311 0 -495 200l170 170q156 -143 310 -143t155 82v4q0 39 -52 67t-192 58q-254 55 -362 127t-107 188v4q0 180 197 248q-94 72 -95 197v4q0 152 115 238t318 87q311 0 495 -200l-170 -170q-154 143 -317 143q-70 0 -109 -22
t-39 -60v-4q0 -40 48 -66t196 -59q256 -55 362 -126t107 -189v-4q0 -180 -197 -248q96 -70 97 -197v-4zM399 778q1 -44 53 -72t185 -62t195 -34t96 27q35 27 35 72v4q1 43 -51 71t-186 63q-134 34 -195 34q-60 0 -96 -27t-36 -72v-4z" />
    <glyph glyph-name="dieresis" unicode="&#xa8;" horiz-adv-x="1081" 
d="M608 1268v280h301v-280h-301zM172 1268v280h301v-280h-301z" />
    <glyph glyph-name="copyright" unicode="&#xa9;" horiz-adv-x="1783" 
d="M912 334q-188 0 -309 121q-120 121 -120 297v4q0 176 120 300q119 124 309 124t317 -127l-113 -131q-106 92 -208 92t-171 -74q-68 -74 -67 -182v-4q0 -104 66 -180q67 -74 172 -74t212 96l115 -117q-135 -145 -323 -145zM209 741q-1 -287 195 -485t486 -199
q290 0 488 202t197 486v5q0 288 -196 486q-195 198 -485 198t-488 -202t-197 -487v-4zM1663 745q0 -317 -225 -543t-548 -227q-323 1 -546 225t-223 541v4q0 317 226 543t548 228q322 0 545 -224t223 -542v-5z" />
    <glyph glyph-name="ordfeminine" unicode="&#xaa;" horiz-adv-x="847" 
d="M115 592v137h587v-137h-587zM416 1497q280 0 278 -268v-365h-166v70q-68 -82 -176 -82t-170 50q-61 50 -61 140v5q0 100 68 150q69 50 167 50t174 -24v10q0 117 -139 117q-86 0 -174 -35l-43 131q109 51 242 51zM289 1051q0 -78 107 -78q54 0 96 32q41 32 40 80v35
q-63 23 -120 23q-123 0 -123 -88v-4z" />
    <glyph glyph-name="guillemotleft" unicode="&#xab;" horiz-adv-x="1374" 
d="M1044 90l-376 471v17l376 471l218 -107l-258 -371l258 -370zM473 90l-377 471v17l377 471l217 -107l-258 -371l258 -370z" />
    <glyph glyph-name="registered" unicode="&#xae;" horiz-adv-x="806" 
d="M428 1341q164 0 164 -131v-2q0 -44 -23 -76t-59 -45l94 -137h-125l-80 119h-49v-119h-106v391h184zM350 1153h72q61 0 61 49v2q0 20 -16 34t-45 11h-72v-96zM76 1137q0 -137 94 -233t232 -97q138 0 234 97q95 97 95 235v2q0 137 -94 234q-93 97 -233 97t-234 -98
t-94 -235v-2zM774 1139q0 -153 -108 -263t-264 -110q-154 0 -262 110t-107 261v2q1 153 109 263t262 110t263 -110q108 -108 107 -261v-2z" />
    <glyph glyph-name="macron" unicode="&#xaf;" horiz-adv-x="1081" 
d="M162 1280v217h758v-217h-758z" />
    <glyph glyph-name="degree" unicode="&#xb0;" horiz-adv-x="1034" 
d="M518 946q84 0 140 58t57 141v4q-1 82 -57 140q-56 59 -140 59t-141 -58t-58 -141v-4q-1 -83 57 -141t142 -58zM518 788q-145 0 -256 106t-110 251v4q0 143 110 249q111 105 256 105t255 -105t110 -249v-4q0 -143 -110 -250t-255 -107z" />
    <glyph glyph-name="plusminus" unicode="&#xb1;" horiz-adv-x="1376" 
d="M1212 0h-1048v258h1048v-258zM1212 805l-387 2l2 -381h-278l2 381l-387 -2v270l387 -2l-2 381h278l-2 -381l387 2v-270z" />
    <glyph glyph-name="two.sup" unicode="&#xb2;" 
d="M117 895v154l284 233q80 66 112 107t32 89t-33 74t-82 27q-94 0 -184 -115l-129 105q69 90 141 134t192 44t202 -70q81 -70 81 -169t-39 -160t-137 -140l-197 -155h377v-158h-620z" />
    <glyph glyph-name="three.sup" unicode="&#xb3;" 
d="M422 874q-186 0 -330 130l105 133q111 -100 227 -101q53 0 91 30t38 79t-43 77t-115 27h-98l-29 113l226 203h-347v159h574v-139l-240 -205q113 -10 184 -68t71 -172t-86 -190q-85 -76 -228 -76z" />
    <glyph glyph-name="acute" unicode="&#xb4;" horiz-adv-x="1081" 
d="M330 1268l233 370l271 -116l-275 -254h-229z" />
    <glyph glyph-name="mu" unicode="&#xb5;" horiz-adv-x="1441" 
d="M688 -14q-84 0 -158 40t-106 115h-4q41 -172 41 -254v-227h-305v1479h311v-645q0 -116 55 -180q54 -64 154 -64t159 63q58 63 58 181v645h311v-789q4 -108 113 -106q38 0 67 6v-240q-78 -23 -167 -22q-207 0 -275 141q-92 -143 -254 -143z" />
    <glyph glyph-name="paragraph" unicode="&#xb6;" horiz-adv-x="1259" 
d="M756 0v496h-49q-279 0 -450 128t-171 365v4q0 231 161 365t425 133h399v-1491h-315z" />
    <glyph glyph-name="periodcentered" unicode="&#xb7;" horiz-adv-x="618" 
d="M143 494v329h332v-329h-332z" />
    <glyph glyph-name="cedilla" unicode="&#xb8;" horiz-adv-x="1081" 
d="M526 -365l-262 109l205 297h223z" />
    <glyph glyph-name="one.sup" unicode="&#xb9;" horiz-adv-x="700" 
d="M492 895h-179v651l-161 -59l-52 147l258 103h134v-842z" />
    <glyph glyph-name="ordmasculine" unicode="&#xba;" horiz-adv-x="847" 
d="M117 592v137h614v-137h-614zM426 999q70 1 112 51t42 121v5q0 72 -44 124t-114 52t-113 -50t-43 -122v-6q0 -72 45 -124t115 -51zM422 850q-139 0 -233 93q-93 93 -93 228v5q0 135 95 230t235 95t231 -93q92 -93 93 -228v-6q0 -136 -94 -230t-234 -94z" />
    <glyph glyph-name="guillemotright" unicode="&#xbb;" horiz-adv-x="1374" 
d="M899 90l-217 107l258 370l-258 371l217 111l377 -471v-17zM330 90l-217 107l258 370l-258 371l217 111l377 -471v-17z" />
    <glyph glyph-name="onequarter" unicode="&#xbc;" horiz-adv-x="1775" 
d="M1417 311v332l-264 -332h264zM1579 172v-176h-164v176h-401l-17 170l402 498h180v-527h113v-141h-113zM268 0l541 780l471 711h172l-541 -780l-471 -711h-172zM496 662h-179v651l-161 -62l-52 150l258 100h134v-839z" />
    <glyph glyph-name="onehalf" unicode="&#xbd;" horiz-adv-x="1775" 
d="M1047 0v154l284 233q80 66 112 107t32 89q0 49 -33 75t-82 26q-94 0 -184 -115l-129 105q69 90 141 134t192 44t202 -70q81 -70 81 -169t-39 -160t-137 -140l-197 -155h377v-158h-620zM248 0l540 780l472 711h172l-541 -780l-471 -711h-172zM496 662h-179v651l-161 -62
l-52 150l258 100h134v-839z" />
    <glyph glyph-name="threequarters" unicode="&#xbe;" horiz-adv-x="1935" 
d="M1577 311v332l-264 -332h264zM1739 172v-176h-164v176h-401l-17 170l402 498h180v-527h112v-141h-112zM426 639q-184 0 -330 131l105 133q111 -100 227 -100q53 0 91 30q38 31 38 79t-43 76t-115 28h-98l-29 112l226 201h-346v162h573v-139l-240 -207q113 -9 184 -67
t71 -173t-86 -191q-85 -76 -228 -75zM418 0l540 780l472 711h172l-541 -780l-471 -711h-172z" />
    <glyph glyph-name="questiondown" unicode="&#xbf;" horiz-adv-x="1173" 
d="M602 -18q-233 0 -374 115q-140 116 -140 323v4q0 346 422 428l25 139h206l50 -346l-13 -10q-377 -14 -377 -203v-4q-1 -76 55 -119t152 -43q176 0 324 152l188 -205q-207 -231 -518 -231zM477 1159v332h334v-332h-334z" />
    <glyph glyph-name="Agrave" unicode="&#xc0;" horiz-adv-x="1699" 
d="M61 0l644 1501h290l641 -1501h-329l-140 340h-645l-139 -340h-322zM635 618h420l-209 506zM975 1630h-238l-286 211l270 119z" />
    <glyph glyph-name="Aacute" unicode="&#xc1;" horiz-adv-x="1699" 
d="M61 0l644 1501h290l641 -1501h-329l-140 340h-645l-139 -340h-322zM635 618h420l-209 506zM723 1630l254 330l270 -119l-286 -211h-238z" />
    <glyph glyph-name="Acircumflex" unicode="&#xc2;" horiz-adv-x="1699" 
d="M61 0l644 1501h290l641 -1501h-329l-140 340h-645l-139 -340h-322zM635 618h420l-209 506zM434 1622l268 307h295l269 -307h-250l-168 119l-168 -119h-246z" />
    <glyph glyph-name="Atilde" unicode="&#xc3;" horiz-adv-x="1699" 
d="M61 0l644 1501h290l641 -1501h-329l-140 340h-645l-139 -340h-322zM635 618h420l-209 506zM1049 1630q-91 0 -197 41t-147 41t-67 -24t-50 -80l-168 53q39 143 99 215q59 72 151 72t215 -50q96 -34 133 -34q38 0 64 24t51 80l165 -51q-38 -143 -98 -215t-151 -72z" />
    <glyph glyph-name="Adieresis" unicode="&#xc4;" horiz-adv-x="1699" 
d="M61 0l644 1501h290l641 -1501h-329l-140 340h-645l-139 -340h-322zM635 618h420l-209 506zM928 1630v264h303v-264h-303zM469 1630v264h303v-264h-303z" />
    <glyph glyph-name="Aring" unicode="&#xc5;" horiz-adv-x="1699" 
d="M588 1580q0 101 77 168t185 67t186 -67q76 -67 76 -168t-80 -167l604 -1413h-329l-140 340h-645l-139 -340h-322l605 1413q-78 66 -78 167zM635 618h420l-209 506zM850 1462q59 0 97 35t38 85t-38 85t-97 35t-97 -35t-38 -86t38 -85t97 -34z" />
    <glyph glyph-name="AE" unicode="&#xc6;" horiz-adv-x="2242" 
d="M2109 1491v-281h-755v-319h659v-281h-659v-329h766v-281h-1080v340h-508l-182 -340h-321l809 1491h1271zM1040 618v601h-39l-321 -601h360z" />
    <glyph glyph-name="Ccedilla" unicode="&#xc7;" horiz-adv-x="1589" 
d="M123 741v4q0 324 219 547t557 224q199 0 336 -58t252 -172l-201 -231q-188 172 -384 172q-196 1 -322 -139q-127 -140 -127 -338v-5q0 -201 126 -341t318 -140q121 0 210 44t189 134l201 -202q-115 -123 -246 -189t-311 -74l-139 -342l-262 109l172 250q-260 57 -424 264
t-164 483z" />
    <glyph glyph-name="Egrave" unicode="&#xc8;" horiz-adv-x="1443" 
d="M190 0v1491h1121v-281h-809v-319h712v-281h-712v-329h819v-281h-1131zM881 1610h-238l-287 211l271 118z" />
    <glyph glyph-name="Eacute" unicode="&#xc9;" horiz-adv-x="1443" 
d="M190 0v1491h1121v-281h-809v-319h712v-281h-712v-329h819v-281h-1131zM629 1610l254 329l270 -118l-287 -211h-237z" />
    <glyph glyph-name="Ecircumflex" unicode="&#xca;" horiz-adv-x="1443" 
d="M190 0v1491h1121v-281h-809v-319h712v-281h-712v-329h819v-281h-1131zM338 1610l268 307h295l268 -307h-249l-168 119l-168 -119h-246z" />
    <glyph glyph-name="Edieresis" unicode="&#xcb;" horiz-adv-x="1443" 
d="M190 0v1491h1121v-281h-809v-319h712v-281h-712v-329h819v-281h-1131zM831 1610v264h304v-264h-304zM373 1610v264h303v-264h-303z" />
    <glyph glyph-name="Igrave" unicode="&#xcc;" horiz-adv-x="724" 
d="M205 0v1491h315v-1491h-315zM487 1610h-237l-287 211l270 118z" />
    <glyph glyph-name="Iacute" unicode="&#xcd;" horiz-adv-x="724" 
d="M205 0v1491h315v-1491h-315zM236 1610l253 329l271 -118l-287 -211h-237z" />
    <glyph glyph-name="Icircumflex" unicode="&#xce;" horiz-adv-x="724" 
d="M205 0v1491h315v-1491h-315zM-53 1610l268 307h295l268 -307h-250l-168 119l-167 -119h-246z" />
    <glyph glyph-name="Idieresis" unicode="&#xcf;" horiz-adv-x="724" 
d="M205 0v1491h315v-1491h-315zM440 1610v264h303v-264h-303zM-18 1610v264h303v-264h-303z" />
    <glyph glyph-name="Eth" unicode="&#xd0;" horiz-adv-x="1744" 
d="M899 641h-330v-356h260q209 0 336 127t127 329v4q0 205 -128 333t-335 128h-260v-348h330v-217zM254 0v641h-160v217h160v633h575q349 0 571 -212t222 -529v-5q0 -319 -222 -532t-571 -213h-575z" />
    <glyph glyph-name="Ntilde" unicode="&#xd1;" horiz-adv-x="1699" 
d="M190 0v1491h289l719 -940v940h311v-1491h-268l-741 971v-971h-310zM1049 1610q-91 0 -197 41t-147 41t-67 -24t-50 -81l-168 53q39 143 99 215q59 72 151 72t202 -42t146 -42q38 0 64 25t51 80l165 -52q-39 -143 -98 -215q-60 -71 -151 -71z" />
    <glyph glyph-name="Ograve" unicode="&#xd2;" horiz-adv-x="1826" 
d="M915 264q199 0 329 138t130 339v4q0 201 -132 341t-331 140t-329 -137q-130 -138 -129 -339v-5q-1 -201 131 -341t331 -140zM911 -25q-340 1 -564 223t-224 543v4q0 322 226 546q226 225 566 225q341 0 565 -222t224 -544v-5q0 -322 -226 -546t-567 -224zM1040 1630h-237
l-287 211l270 119z" />
    <glyph glyph-name="Oacute" unicode="&#xd3;" horiz-adv-x="1826" 
d="M915 264q199 0 329 138t130 339v4q0 201 -132 341t-331 140t-329 -137q-130 -138 -129 -339v-5q-1 -201 131 -341t331 -140zM911 -25q-340 1 -564 223t-224 543v4q0 322 226 546q226 225 566 225q341 0 565 -222t224 -544v-5q0 -322 -226 -546t-567 -224zM786 1630
l254 330l271 -119l-287 -211h-238z" />
    <glyph glyph-name="Ocircumflex" unicode="&#xd4;" horiz-adv-x="1826" 
d="M915 264q199 0 329 138t130 339v4q0 201 -132 341t-331 140t-329 -137q-130 -138 -129 -339v-5q-1 -201 131 -341t331 -140zM911 -25q-340 1 -564 223t-224 543v4q0 322 226 546q226 225 566 225q341 0 565 -222t224 -544v-5q0 -322 -226 -546t-567 -224zM498 1630
l268 307h295l268 -307h-250l-168 119l-168 -119h-245z" />
    <glyph glyph-name="Otilde" unicode="&#xd5;" horiz-adv-x="1826" 
d="M915 264q199 0 329 138t130 339v4q0 201 -132 341t-331 140t-329 -137q-130 -138 -129 -339v-5q-1 -201 131 -341t331 -140zM911 -25q-340 1 -564 223t-224 543v4q0 322 226 546q226 225 566 225q341 0 565 -222t224 -544v-5q0 -322 -226 -546t-567 -224zM1113 1630
q-91 0 -197 41t-148 41q-41 0 -67 -24t-50 -80l-168 53q39 143 99 215t152 72q91 0 214 -50q96 -34 133 -34q70 1 115 104l166 -51q-38 -143 -98 -215t-151 -72z" />
    <glyph glyph-name="Odieresis" unicode="&#xd6;" horiz-adv-x="1826" 
d="M915 264q199 0 329 138t130 339v4q0 201 -132 341t-331 140t-329 -137q-130 -138 -129 -339v-5q-1 -201 131 -341t331 -140zM911 -25q-340 1 -564 223t-224 543v4q0 322 226 546q226 225 566 225q341 0 565 -222t224 -544v-5q0 -322 -226 -546t-567 -224zM991 1630v264
h303v-264h-303zM532 1630v264h304v-264h-304z" />
    <glyph glyph-name="multiply" unicode="&#xd7;" horiz-adv-x="1376" 
d="M1020 223l-334 342l-334 -342l-190 191l342 334l-342 333l194 195l334 -342l334 342l190 -191l-342 -333l342 -334z" />
    <glyph glyph-name="Oslash" unicode="&#xd8;" horiz-adv-x="1826" 
d="M915 258q201 0 333 141t132 342v4q0 154 -80 275l-610 -705q102 -57 225 -57zM446 745q0 -152 80 -276l611 707q-102 57 -226 57q-201 0 -333 -141t-132 -342v-5zM1704 750v-5q0 -321 -226 -545t-567 -225q-233 0 -417 109l-86 -94h-302l209 241q-193 215 -192 510v4
q0 322 226 546t566 225q227 0 416 -111l88 96h301l-209 -241q193 -215 193 -510z" />
    <glyph glyph-name="Ugrave" unicode="&#xd9;" horiz-adv-x="1626" 
d="M811 -23q-305 0 -475 169t-170 491v854h315v-844q0 -184 87 -282q87 -99 245 -99t246 94t88 275v856h313v-842q0 -332 -172 -502t-477 -170zM940 1610h-238l-286 211l270 118z" />
    <glyph glyph-name="Uacute" unicode="&#xda;" horiz-adv-x="1626" 
d="M811 -23q-305 0 -475 169t-170 491v854h315v-844q0 -184 87 -282q87 -99 245 -99t246 94t88 275v856h313v-842q0 -332 -172 -502t-477 -170zM688 1610l254 329l270 -118l-286 -211h-238z" />
    <glyph glyph-name="Ucircumflex" unicode="&#xdb;" horiz-adv-x="1626" 
d="M811 -23q-305 0 -475 169t-170 491v854h315v-844q0 -184 87 -282q87 -99 245 -99t246 94t88 275v856h313v-842q0 -332 -172 -502t-477 -170zM397 1610l269 307h295l268 -307h-250l-168 119l-168 -119h-246z" />
    <glyph glyph-name="Udieresis" unicode="&#xdc;" horiz-adv-x="1626" 
d="M811 -23q-305 0 -475 169t-170 491v854h315v-844q0 -184 87 -282q87 -99 245 -99t246 94t88 275v856h313v-842q0 -332 -172 -502t-477 -170zM891 1610v264h303v-264h-303zM432 1610v264h303v-264h-303z" />
    <glyph glyph-name="Yacute" unicode="&#xdd;" horiz-adv-x="1542" 
d="M612 0v588l-575 903h369l366 -610l375 610h358l-577 -897v-594h-316zM645 1610l254 329l270 -118l-286 -211h-238z" />
    <glyph glyph-name="Thorn" unicode="&#xde;" horiz-adv-x="1449" 
d="M504 514h270q125 0 199 66t74 168v4q0 113 -75 173t-204 60h-264v-471zM190 0v1491h314v-221h291q261 0 415 -140t154 -372v-4q0 -248 -170 -384t-430 -137h-260v-233h-314z" />
    <glyph glyph-name="germandbls" unicode="&#xdf;" horiz-adv-x="1337" 
d="M928 432v4q0 88 -78 142t-207 73v205q199 117 199 270v4q0 82 -48 130t-134 47t-140 -61t-55 -163v-1083h-309v1071q0 233 140 365t370 133q230 0 357 -115q126 -115 126 -295v-4q0 -127 -53 -208t-150 -142q289 -121 289 -379v-4q0 -208 -160 -322t-432 -104v233
q137 7 211 59t74 144z" />
    <glyph glyph-name="agrave" unicode="&#xe0;" horiz-adv-x="1275" 
d="M481 -23q-167 -1 -281 93t-114 258v4q0 180 125 271t336 91q145 0 284 -45v21q0 215 -251 215q-147 0 -318 -64l-78 238q209 92 451 92t369 -125t126 -362v-664h-301v127q-133 -150 -348 -150zM387 340q0 -68 51 -106q52 -38 152 -39q100 0 173 58t73 150v62
q-100 43 -214 43t-174 -43t-61 -121v-4zM535 1268l-275 254l270 116l234 -370h-229z" />
    <glyph glyph-name="aacute" unicode="&#xe1;" horiz-adv-x="1275" 
d="M481 -23q-167 -1 -281 93t-114 258v4q0 180 125 271t336 91q145 0 284 -45v21q0 215 -251 215q-147 0 -318 -64l-78 238q209 92 451 92t369 -125t126 -362v-664h-301v127q-133 -150 -348 -150zM387 340q0 -68 51 -106q52 -38 152 -39q100 0 173 58t73 150v62
q-100 43 -214 43t-174 -43t-61 -121v-4zM518 1268l234 370l270 -116l-274 -254h-230z" />
    <glyph glyph-name="acircumflex" unicode="&#xe2;" horiz-adv-x="1275" 
d="M481 -23q-167 -1 -281 93t-114 258v4q0 180 125 271t336 91q145 0 284 -45v21q0 215 -251 215q-147 0 -318 -64l-78 238q209 92 451 92t369 -125t126 -362v-664h-301v127q-133 -150 -348 -150zM387 340q0 -68 51 -106q52 -38 152 -39q100 0 173 58t73 150v62
q-100 43 -214 43t-174 -43t-61 -121v-4zM236 1268l258 329h294l259 -329h-240l-168 141l-168 -141h-235z" />
    <glyph glyph-name="atilde" unicode="&#xe3;" horiz-adv-x="1275" 
d="M481 -23q-167 -1 -281 93t-114 258v4q0 180 125 271t336 91q145 0 284 -45v21q0 215 -251 215q-147 0 -318 -64l-78 238q209 92 451 92t369 -125t126 -362v-664h-301v127q-133 -150 -348 -150zM387 340q0 -68 51 -106q52 -38 152 -39q100 0 173 58t73 150v62
q-100 43 -214 43t-174 -43t-61 -121v-4zM834 1268q-91 0 -201 47q-92 35 -132 35t-66 -25t-48 -80l-168 51q41 145 99 217t150 72t202 -47q98 -37 135 -37t63 25t47 82l168 -52q-41 -145 -99 -217q-59 -71 -150 -71z" />
    <glyph glyph-name="adieresis" unicode="&#xe4;" horiz-adv-x="1275" 
d="M481 -23q-167 -1 -281 93t-114 258v4q0 180 125 271t336 91q145 0 284 -45v21q0 215 -251 215q-147 0 -318 -64l-78 238q209 92 451 92t369 -125t126 -362v-664h-301v127q-133 -150 -348 -150zM387 340q0 -68 51 -106q52 -38 152 -39q100 0 173 58t73 150v62
q-100 43 -214 43t-174 -43t-61 -121v-4zM709 1268v280h301v-280h-301zM272 1268v280h301v-280h-301z" />
    <glyph glyph-name="aring" unicode="&#xe5;" horiz-adv-x="1275" 
d="M481 -23q-167 -1 -281 93t-114 258v4q0 180 125 271t336 91q145 0 284 -45v21q0 215 -251 215q-147 0 -318 -64l-78 238q209 92 451 92t369 -125t126 -362v-664h-301v127q-133 -150 -348 -150zM387 340q0 -68 51 -106q52 -38 152 -39q100 0 173 58t73 150v62
q-100 43 -214 43t-174 -43t-61 -121v-4zM641 1368q57 0 99 42t42 100t-41 100t-100 41q-59 0 -100 -41q-41 -42 -41 -100t42 -100t99 -42zM641 1264q-106 0 -181 72t-75 173q0 102 75 175t181 73t181 -73t75 -175q0 -101 -75 -173t-181 -72z" />
    <glyph glyph-name="ae" unicode="&#xe6;" horiz-adv-x="2041" 
d="M571 199q160 0 301 114q-33 74 -41 154q-104 41 -213 41q-110 0 -170 -43t-61 -121v-4q0 -63 53 -102t131 -39zM516 -23q-188 1 -309 95t-121 256v4q0 180 125 271t336 91q143 0 282 -45v21q0 215 -249 215q-147 0 -318 -64l-78 238q201 92 457 92t371 -152
q150 160 381 160q176 0 302 -88q242 -169 242 -528q0 -25 -4 -82h-800q23 -115 99 -175t189 -61q156 0 283 119l178 -158q-172 -211 -454 -211t-447 177q-229 -175 -465 -175zM1128 655h506q-14 115 -80 185t-169 70t-171 -70q-68 -68 -86 -185z" />
    <glyph glyph-name="ccedilla" unicode="&#xe7;" horiz-adv-x="1232" 
d="M100 563v4q0 246 169 419t439 173t443 -192l-193 -205q-123 129 -256 129t-214 -93t-80 -227v-4q0 -139 82 -232t218 -93t267 125l182 -183q-170 -193 -414 -207l-139 -342l-262 109l176 256q-188 53 -303 208t-115 355z" />
    <glyph glyph-name="egrave" unicode="&#xe8;" horiz-adv-x="1318" 
d="M406 655h505q-16 117 -81 186q-66 69 -168 69t-170 -70q-68 -68 -86 -185zM692 -25q-256 0 -424 164t-168 424v4q0 248 159 420t415 172t398 -178t142 -438q0 -25 -4 -82h-800q24 -115 98 -175t188 -61q156 0 283 119l178 -158q-172 -211 -465 -211zM551 1268l-275 254
l271 116l233 -370h-229z" />
    <glyph glyph-name="eacute" unicode="&#xe9;" horiz-adv-x="1318" 
d="M406 655h505q-16 117 -81 186q-66 69 -168 69t-170 -70q-68 -68 -86 -185zM692 -25q-256 0 -424 164t-168 424v4q0 248 159 420t415 172t398 -178t142 -438q0 -25 -4 -82h-800q24 -115 98 -175t188 -61q156 0 283 119l178 -158q-172 -211 -465 -211zM535 1268l233 370
l270 -116l-274 -254h-229z" />
    <glyph glyph-name="ecircumflex" unicode="&#xea;" horiz-adv-x="1318" 
d="M406 655h505q-16 117 -81 186q-66 69 -168 69t-170 -70q-68 -68 -86 -185zM692 -25q-256 0 -424 164t-168 424v4q0 248 159 420t415 172t398 -178t142 -438q0 -25 -4 -82h-800q24 -115 98 -175t188 -61q156 0 283 119l178 -158q-172 -211 -465 -211zM252 1268l258 329
h295l258 -329h-240l-168 141l-168 -141h-235z" />
    <glyph glyph-name="edieresis" unicode="&#xeb;" horiz-adv-x="1318" 
d="M406 655h505q-16 117 -81 186q-66 69 -168 69t-170 -70q-68 -68 -86 -185zM692 -25q-256 0 -424 164t-168 424v4q0 248 159 420t415 172t398 -178t142 -438q0 -25 -4 -82h-800q24 -115 98 -175t188 -61q156 0 283 119l178 -158q-172 -211 -465 -211zM725 1268v280h301
v-280h-301zM289 1268v280h301v-280h-301z" />
    <glyph glyph-name="igrave" unicode="&#xec;" horiz-adv-x="653" 
d="M172 0v1139h309v-1139h-309zM219 1268l-274 254l270 116l234 -370h-230z" />
    <glyph glyph-name="iacute" unicode="&#xed;" horiz-adv-x="653" 
d="M172 0v1139h309v-1139h-309zM205 1268l233 370l271 -116l-275 -254h-229z" />
    <glyph glyph-name="icircumflex" unicode="&#xee;" horiz-adv-x="653" 
d="M172 0v1139h309v-1139h-309zM-80 1268l258 329h295l258 -329h-239l-168 141l-168 -141h-236z" />
    <glyph glyph-name="idieresis" unicode="&#xef;" horiz-adv-x="653" 
d="M172 0v1139h309v-1139h-309zM393 1268v280h301v-280h-301zM-43 1268v280h301v-280h-301z" />
    <glyph glyph-name="eth" unicode="&#xf0;" horiz-adv-x="1429" 
d="M718 242q136 0 219 91t83 226v4q0 133 -87 227t-224 93q-137 0 -219 -90t-82 -226v-4q0 -133 87 -227t223 -94zM1325 623v-5q0 -272 -167 -457t-438 -185t-446 172q-174 173 -174 432v4q0 231 148 391t360 160q141 0 271 -82q-61 98 -187 223l-264 -70l-55 166l166 43
q-88 70 -187 139h414l74 -61l254 66l53 -162l-160 -43q338 -352 338 -731z" />
    <glyph glyph-name="ntilde" unicode="&#xf1;" horiz-adv-x="1341" 
d="M156 0v1139h311v-164q141 184 331 184t295 -113q103 -114 103 -311v-735h-311v637q1 117 -53 179t-152 62t-156 -62t-57 -179v-637h-311zM867 1268q-91 0 -201 47q-92 35 -132 35t-66 -25t-48 -80l-168 51q41 145 99 217q57 72 149 72t202 -47q98 -37 135 -37t63 25
t48 82l168 -52q-41 -145 -99 -217q-59 -71 -150 -71z" />
    <glyph glyph-name="ograve" unicode="&#xf2;" horiz-adv-x="1427" 
d="M718 242q136 0 219 93t83 228v4q0 133 -87 229t-223 95q-136 0 -220 -92t-82 -228v-4q0 -133 87 -229t223 -96zM713 -25q-262 0 -438 170q-175 170 -175 418v4q0 246 178 419t438 173q261 0 436 -171t175 -417v-4q0 -248 -176 -420t-438 -172zM606 1268l-274 254l270 116
l234 -370h-230z" />
    <glyph glyph-name="oacute" unicode="&#xf3;" horiz-adv-x="1427" 
d="M718 242q136 0 219 93t83 228v4q0 133 -87 229t-223 95q-136 0 -220 -92t-82 -228v-4q0 -133 87 -229t223 -96zM713 -25q-262 0 -438 170q-175 170 -175 418v4q0 246 178 419t438 173q261 0 436 -171t175 -417v-4q0 -248 -176 -420t-438 -172zM592 1268l233 370l271 -116
l-275 -254h-229z" />
    <glyph glyph-name="ocircumflex" unicode="&#xf4;" horiz-adv-x="1427" 
d="M718 242q136 0 219 93t83 228v4q0 133 -87 229t-223 95q-136 0 -220 -92t-82 -228v-4q0 -133 87 -229t223 -96zM713 -25q-262 0 -438 170q-175 170 -175 418v4q0 246 178 419t438 173q261 0 436 -171t175 -417v-4q0 -248 -176 -420t-438 -172zM309 1268l258 329h295
l258 -329h-239l-168 141l-168 -141h-236z" />
    <glyph glyph-name="otilde" unicode="&#xf5;" horiz-adv-x="1427" 
d="M718 242q136 0 219 93t83 228v4q0 133 -87 229t-223 95q-136 0 -220 -92t-82 -228v-4q0 -133 87 -229t223 -96zM713 -25q-262 0 -438 170q-175 170 -175 418v4q0 246 178 419t438 173q261 0 436 -171t175 -417v-4q0 -248 -176 -420t-438 -172zM908 1268q-91 0 -201 47
q-92 35 -132 35t-66 -25t-48 -80l-168 51q41 145 99 217t150 72t201 -47q98 -37 135 -37t63 25t48 82l168 -52q-41 -145 -99 -217q-59 -71 -150 -71z" />
    <glyph glyph-name="odieresis" unicode="&#xf6;" horiz-adv-x="1427" 
d="M718 242q136 0 219 93t83 228v4q0 133 -87 229t-223 95q-136 0 -220 -92t-82 -228v-4q0 -133 87 -229t223 -96zM713 -25q-262 0 -438 170q-175 170 -175 418v4q0 246 178 419t438 173q261 0 436 -171t175 -417v-4q0 -248 -176 -420t-438 -172zM782 1268v280h301v-280
h-301zM346 1268v280h301v-280h-301z" />
    <glyph glyph-name="divide" unicode="&#xf7;" horiz-adv-x="1376" 
d="M526 145v299h324v-299h-324zM1225 618h-1071v263h1071v-263zM526 1055v299h324v-299h-324z" />
    <glyph glyph-name="oslash" unicode="&#xf8;" horiz-adv-x="1427" 
d="M717 233q141 -1 226 95t85 235v4q0 84 -39 162l-405 -467q61 -29 133 -29zM399 567q0 -88 37 -161l408 464q-63 29 -133 29q-141 0 -227 -94t-85 -234v-4zM1327 571v-4q0 -248 -176 -420t-440 -172q-174 0 -310 76l-59 -61h-274l170 194q-137 160 -138 379v4
q0 246 178 419t439 173q172 0 307 -76l61 66h275l-174 -199q141 -164 141 -379z" />
    <glyph glyph-name="ugrave" unicode="&#xf9;" horiz-adv-x="1341" 
d="M546 -23q-190 0 -295 114q-103 114 -104 312v736h310v-637q0 -117 53 -179q54 -63 152 -63t155 62t57 180v637h312v-1139h-312v164q-138 -187 -328 -187zM559 1268l-274 254l270 116l233 -370h-229z" />
    <glyph glyph-name="uacute" unicode="&#xfa;" horiz-adv-x="1341" 
d="M546 -23q-190 0 -295 114q-103 114 -104 312v736h310v-637q0 -117 53 -179q54 -63 152 -63t155 62t57 180v637h312v-1139h-312v164q-138 -187 -328 -187zM543 1268l233 370l271 -116l-275 -254h-229z" />
    <glyph glyph-name="ucircumflex" unicode="&#xfb;" horiz-adv-x="1341" 
d="M546 -23q-190 0 -295 114q-103 114 -104 312v736h310v-637q0 -117 53 -179q54 -63 152 -63t155 62t57 180v637h312v-1139h-312v164q-138 -187 -328 -187zM260 1268l258 329h295l258 -329h-240l-167 141l-168 -141h-236z" />
    <glyph glyph-name="udieresis" unicode="&#xfc;" horiz-adv-x="1341" 
d="M546 -23q-190 0 -295 114q-103 114 -104 312v736h310v-637q0 -117 53 -179q54 -63 152 -63t155 62t57 180v637h312v-1139h-312v164q-138 -187 -328 -187zM733 1268v280h301v-280h-301zM297 1268v280h301v-280h-301z" />
    <glyph glyph-name="yacute" unicode="&#xfd;" horiz-adv-x="1292" 
d="M418 -348q-145 0 -281 78l105 225q76 -43 131 -43t82 17t51 67l-453 1143h330l270 -789l258 789h324l-440 -1168q-68 -175 -150 -247t-227 -72zM522 1268l234 370l270 -116l-274 -254h-230z" />
    <glyph glyph-name="thorn" unicode="&#xfe;" horiz-adv-x="1452" 
d="M156 -340v1894h311v-585q139 190 356 190t371 -159t154 -429v-4q0 -272 -153 -431t-368 -159t-360 177v-494h-311zM751 244q121 0 203 89t82 234v4q0 143 -84 233t-202 91q-118 0 -203 -90q-84 -90 -84 -234v-4q0 -143 84 -233t204 -90z" />
    <glyph glyph-name="ydieresis" unicode="&#xff;" horiz-adv-x="1292" 
d="M418 -348q-145 0 -281 78l105 225q76 -43 131 -43t82 17t51 67l-453 1143h330l270 -789l258 789h324l-440 -1168q-68 -175 -150 -247t-227 -72zM713 1268v280h301v-280h-301zM276 1268v280h302v-280h-302z" />
    <glyph glyph-name="Amacron" unicode="&#x100;" horiz-adv-x="1699" 
d="M61 0l644 1501h290l641 -1501h-329l-140 340h-645l-139 -340h-322zM635 618h420l-209 506zM451 1642v222h798v-222h-798z" />
    <glyph glyph-name="amacron" unicode="&#x101;" horiz-adv-x="1275" 
d="M481 -23q-167 -1 -281 93t-114 258v4q0 180 125 271t336 91q145 0 284 -45v21q0 215 -251 215q-147 0 -318 -64l-78 238q209 92 451 92t369 -125t126 -362v-664h-301v127q-133 -150 -348 -150zM387 340q0 -68 51 -106q52 -38 152 -39q100 0 173 58t73 150v62
q-100 43 -214 43t-174 -43t-61 -121v-4zM262 1280v217h758v-217h-758z" />
    <glyph glyph-name="Abreve" unicode="&#x102;" horiz-adv-x="1699" 
d="M61 0l644 1501h290l641 -1501h-329l-140 340h-645l-139 -340h-322zM635 618h420l-209 506zM850 1626q-168 0 -276 82t-121 229h213q41 -106 184 -106t184 106h213q-13 -147 -121 -229t-276 -82z" />
    <glyph glyph-name="abreve" unicode="&#x103;" horiz-adv-x="1275" 
d="M481 -23q-167 -1 -281 93t-114 258v4q0 180 125 271t336 91q145 0 284 -45v21q0 215 -251 215q-147 0 -318 -64l-78 238q209 92 451 92t369 -125t126 -362v-664h-301v127q-133 -150 -348 -150zM387 340q0 -68 51 -106q52 -38 152 -39q100 0 173 58t73 150v62
q-100 43 -214 43t-174 -43t-61 -121v-4zM641 1264q-168 0 -273 88t-120 243h209q45 -129 184 -129t184 129h209q-14 -155 -120 -243t-273 -88z" />
    <glyph glyph-name="Aogonek" unicode="&#x104;" horiz-adv-x="1699" 
d="M635 618h420l-209 506zM1563 -354q-133 0 -209 51t-76 132t74 171h-45l-140 340h-645l-139 -340h-322l644 1501h290l641 -1501h-77q-55 -63 -56 -123q0 -92 150 -88v-139q-33 -4 -90 -4z" />
    <glyph glyph-name="aogonek" unicode="&#x105;" horiz-adv-x="1275" 
d="M387 340q0 -68 51 -106q52 -38 152 -39q100 0 173 58t73 150v62q-100 43 -214 43t-174 -43t-61 -121v-4zM1049 -354q-133 0 -209 51t-76 132t74 171h-9v127q-133 -150 -348 -150q-167 -1 -281 93t-114 258v4q0 180 125 271t336 91q145 0 284 -45v21q0 215 -251 215
q-147 0 -318 -64l-78 238q209 92 451 92t369 -125t126 -362v-664h-86q-55 -63 -55 -123q0 -92 150 -88v-139q-33 -4 -90 -4z" />
    <glyph glyph-name="Cacute" unicode="&#x106;" horiz-adv-x="1589" 
d="M887 -25q-328 -1 -546 221t-218 545v4q0 324 219 547t557 224q199 0 336 -58t252 -172l-201 -231q-188 172 -384 172q-196 1 -322 -139q-127 -140 -127 -338v-5q0 -201 126 -341t318 -140q121 0 210 44t189 134l201 -202q-125 -131 -266 -198t-344 -67zM745 1630l254 330
l271 -119l-287 -211h-238z" />
    <glyph glyph-name="cacute" unicode="&#x107;" horiz-adv-x="1232" 
d="M692 -25q-254 0 -423 171t-169 417v4q0 246 169 419t439 173t443 -192l-193 -205q-123 129 -256 129t-214 -93t-80 -227v-4q0 -139 82 -232t218 -93t267 125l182 -183q-91 -102 -199 -156t-266 -53zM561 1268l234 370l270 -116l-274 -254h-230z" />
    <glyph glyph-name="Cdotaccent" unicode="&#x10a;" horiz-adv-x="1589" 
d="M887 -25q-328 -1 -546 221t-218 545v4q0 324 219 547t557 224q199 0 336 -58t252 -172l-201 -231q-188 172 -384 172q-196 1 -322 -139q-127 -140 -127 -338v-5q0 -201 126 -341t318 -140q121 0 210 44t189 134l201 -202q-125 -131 -266 -198t-344 -67zM717 1630v264h311
v-264h-311z" />
    <glyph glyph-name="cdotaccent" unicode="&#x10b;" horiz-adv-x="1232" 
d="M692 -25q-254 0 -423 171t-169 417v4q0 246 169 419t439 173t443 -192l-193 -205q-123 129 -256 129t-214 -93t-80 -227v-4q0 -139 82 -232t218 -93t267 125l182 -183q-91 -102 -199 -156t-266 -53zM526 1268v280h312v-280h-312z" />
    <glyph glyph-name="Ccaron" unicode="&#x10c;" horiz-adv-x="1589" 
d="M887 -25q-328 -1 -546 221t-218 545v4q0 324 219 547t557 224q199 0 336 -58t252 -172l-201 -231q-188 172 -384 172q-196 1 -322 -139q-127 -140 -127 -338v-5q0 -201 126 -341t318 -140q121 0 210 44t189 134l201 -202q-125 -131 -266 -198t-344 -67zM1288 1937
l-268 -307h-295l-268 307h250l167 -118l168 118h246z" />
    <glyph glyph-name="ccaron" unicode="&#x10d;" horiz-adv-x="1232" 
d="M692 -25q-254 0 -423 171t-169 417v4q0 246 169 419t439 173t443 -192l-193 -205q-123 129 -256 129t-214 -93t-80 -227v-4q0 -139 82 -232t218 -93t267 125l182 -183q-91 -102 -199 -156t-266 -53zM1087 1597l-258 -329h-294l-259 329h240l168 -141l168 141h235z" />
    <glyph glyph-name="Dcaron" unicode="&#x10e;" horiz-adv-x="1681" 
d="M766 1206h-262v-921h262q207 0 335 127t128 329v4q0 203 -128 332t-335 129zM190 0v1491h576q348 0 570 -212t223 -529v-5q-1 -319 -223 -532t-570 -213h-576zM1229 1917l-268 -307h-295l-269 307h250l168 -119l168 119h246z" />
    <glyph glyph-name="dcaron" unicode="&#x10f;" horiz-adv-x="1452" 
d="M629 -23q-217 0 -371 159t-154 431v4q0 272 153 430t369 158t359 -174v569h311v-1554h-311v168q-139 -191 -356 -191zM702 244q119 0 203 90t84 233v4q0 143 -84 233t-204 91q-121 0 -203 -89t-82 -235v-4q0 -143 84 -233t202 -90zM1653 1556v-6l-125 -430h-123l22 436
h226z" />
    <glyph glyph-name="Dcroat" unicode="&#x110;" horiz-adv-x="1744" 
d="M899 641h-330v-356h260q209 0 336 127t127 329v4q0 205 -128 333t-335 128h-260v-348h330v-217zM254 0v641h-160v217h160v633h575q349 0 571 -212t222 -529v-5q0 -319 -222 -532t-571 -213h-575z" />
    <glyph glyph-name="dcroat" unicode="&#x111;" horiz-adv-x="1452" 
d="M651 1266v176h334v112h311v-112h146v-176h-146v-1266h-311v168q-139 -190 -356 -190t-371 158q-154 159 -154 431v4q0 272 153 430t369 158t359 -174v281h-334zM702 244q119 0 203 90t84 233v4q0 143 -84 233t-204 91q-121 0 -203 -89t-82 -235v-4q0 -143 84 -233
t202 -90z" />
    <glyph glyph-name="Emacron" unicode="&#x112;" horiz-adv-x="1443" 
d="M190 0v1491h1121v-281h-809v-319h712v-281h-712v-329h819v-281h-1131zM354 1622v221h799v-221h-799z" />
    <glyph glyph-name="emacron" unicode="&#x113;" horiz-adv-x="1318" 
d="M406 655h505q-16 117 -81 186q-66 69 -168 69t-170 -70q-68 -68 -86 -185zM692 -25q-256 0 -424 164t-168 424v4q0 248 159 420t415 172t398 -178t142 -438q0 -25 -4 -82h-800q24 -115 98 -175t188 -61q156 0 283 119l178 -158q-172 -211 -465 -211zM279 1280v217h757
v-217h-757z" />
    <glyph glyph-name="Ebreve" unicode="&#x114;" horiz-adv-x="1443" 
d="M190 0v1491h1121v-281h-809v-319h712v-281h-712v-329h819v-281h-1131zM754 1606q-168 0 -276 82t-122 229h213q41 -107 185 -107t184 107h213q-13 -147 -121 -229t-276 -82z" />
    <glyph glyph-name="ebreve" unicode="&#x115;" horiz-adv-x="1318" 
d="M406 655h505q-16 117 -81 186q-66 69 -168 69t-170 -70q-68 -68 -86 -185zM692 -25q-256 0 -424 164t-168 424v4q0 248 159 420t415 172t398 -178t142 -438q0 -25 -4 -82h-800q24 -115 98 -175t188 -61q156 0 283 119l178 -158q-172 -211 -465 -211zM657 1264
q-168 0 -273 88t-120 243h209q45 -129 184 -129t185 129h209q-14 -155 -120 -243t-274 -88z" />
    <glyph glyph-name="Edotaccent" unicode="&#x116;" horiz-adv-x="1443" 
d="M190 0v1491h1121v-281h-809v-319h712v-281h-712v-329h819v-281h-1131zM598 1610v264h311v-264h-311z" />
    <glyph glyph-name="edotaccent" unicode="&#x117;" horiz-adv-x="1318" 
d="M406 655h505q-16 117 -81 186q-66 69 -168 69t-170 -70q-68 -68 -86 -185zM692 -25q-256 0 -424 164t-168 424v4q0 248 159 420t415 172t398 -178t142 -438q0 -25 -4 -82h-800q24 -115 98 -175t188 -61q156 0 283 119l178 -158q-172 -211 -465 -211zM502 1268v280h311
v-280h-311z" />
    <glyph glyph-name="Eogonek" unicode="&#x118;" horiz-adv-x="1443" 
d="M190 0v1491h1121v-281h-809v-319h712v-281h-712v-329h819v-281h-94q-55 -63 -56 -123q0 -92 150 -88v-139q-33 -4 -90 -4q-133 0 -209 51t-76 132t74 171h-830z" />
    <glyph glyph-name="eogonek" unicode="&#x119;" horiz-adv-x="1318" 
d="M406 655h505q-16 117 -81 186q-66 69 -168 69t-170 -70q-68 -68 -86 -185zM928 -111q0 -104 149 -100v-139q-33 -4 -92 -4q-133 0 -208 49t-75 122t70 163q-45 -4 -80 -5q-256 0 -424 164t-168 424v4q0 248 159 420t415 172t398 -178t142 -438q0 -25 -4 -82h-800
q24 -115 98 -175t188 -61q156 0 283 119l178 -158q-61 -70 -129 -129q-100 -94 -100 -168z" />
    <glyph glyph-name="Ecaron" unicode="&#x11a;" horiz-adv-x="1443" 
d="M190 0v1491h1121v-281h-809v-319h712v-281h-712v-329h819v-281h-1131zM1169 1917l-268 -307h-295l-268 307h250l168 -119l168 119h245z" />
    <glyph glyph-name="ecaron" unicode="&#x11b;" horiz-adv-x="1318" 
d="M406 655h505q-16 117 -81 186q-66 69 -168 69t-170 -70q-68 -68 -86 -185zM692 -25q-256 0 -424 164t-168 424v4q0 248 159 420t415 172t398 -178t142 -438q0 -25 -4 -82h-800q24 -115 98 -175t188 -61q156 0 283 119l178 -158q-172 -211 -465 -211zM1063 1597l-258 -329
h-295l-258 329h240l167 -141l168 141h236z" />
    <glyph glyph-name="Gbreve" unicode="&#x11e;" horiz-adv-x="1685" 
d="M911 -25q-352 0 -570 216t-218 550v4q0 322 222 546t558 225q189 0 325 -50t259 -153l-199 -240q-96 80 -184 117t-211 37q-184 -1 -312 -141t-128 -336v-5q0 -211 130 -348t325 -137t327 94v228h-340v272h645v-643q-277 -236 -629 -236zM885 1626q-168 0 -276 82
t-122 229h213q40 -106 184 -106t185 106h213q-14 -147 -122 -229t-275 -82z" />
    <glyph glyph-name="gbreve" unicode="&#x11f;" horiz-adv-x="1452" 
d="M666 -344q-281 0 -504 121l106 233q186 -106 389 -106q332 0 332 317v62q-78 -95 -166 -143t-211 -48q-211 0 -359 144t-149 389v4q0 242 150 386t362 144t369 -174v154h311v-887q0 -300 -148 -448t-482 -148zM700 350q123 0 206 77t83 198v4q0 119 -83 195t-206 77
q-124 0 -204 -76t-80 -196v-4q0 -121 80 -198t204 -77zM741 1264q-168 0 -273 88t-120 243h209q45 -129 184 -129t185 129h209q-14 -155 -120 -243t-274 -88z" />
    <glyph glyph-name="Gdotaccent" unicode="&#x120;" horiz-adv-x="1685" 
d="M911 -25q-352 0 -570 216t-218 550v4q0 322 222 546t558 225q189 0 325 -50t259 -153l-199 -240q-96 80 -184 117t-211 37q-184 -1 -312 -141t-128 -336v-5q0 -211 130 -348t325 -137t327 94v228h-340v272h645v-643q-277 -236 -629 -236zM729 1630v264h311v-264h-311z
" />
    <glyph glyph-name="gdotaccent" unicode="&#x121;" horiz-adv-x="1452" 
d="M666 -344q-281 0 -504 121l106 233q186 -106 389 -106q332 0 332 317v62q-78 -95 -166 -143t-211 -48q-211 0 -359 144t-149 389v4q0 242 150 386t362 144t369 -174v154h311v-887q0 -300 -148 -448t-482 -148zM700 350q123 0 206 77t83 198v4q0 119 -83 195t-206 77
q-124 0 -204 -76t-80 -196v-4q0 -121 80 -198t204 -77zM586 1268v280h311v-280h-311z" />
    <glyph glyph-name="Gcommaaccent" unicode="&#x122;" horiz-adv-x="1685" 
d="M741 -377v240h287v-203q0 -145 -74 -212t-223 -71l-16 95q82 8 123 47t36 104h-133zM911 -25q-352 0 -570 216t-218 550v4q0 322 222 546t558 225q189 0 325 -50t259 -153l-199 -240q-96 80 -184 117t-211 37q-184 -1 -312 -141t-128 -336v-5q0 -211 130 -348t325 -137
t327 94v228h-340v272h645v-643q-277 -236 -629 -236z" />
    <glyph glyph-name="gcommaaccent" unicode="&#x123;" horiz-adv-x="1452" 
d="M666 -344q-281 0 -504 121l106 233q186 -106 389 -106q332 0 332 317v62q-78 -95 -166 -143t-211 -48q-211 0 -359 144t-149 389v4q0 242 150 386t362 144t369 -174v154h311v-887q0 -300 -148 -448t-482 -148zM700 350q123 0 206 77t83 198v4q0 119 -83 195t-206 77
q-124 0 -204 -76t-80 -196v-4q0 -121 80 -198t204 -77zM879 1507v-239h-287v200q0 145 74 213t223 72l16 -94q-168 -20 -160 -152h134z" />
    <glyph glyph-name="Hbar" unicode="&#x126;" horiz-adv-x="1642" 
d="M43 1090v217h150v184h315v-184h627v184h315v-184h149v-217h-149v-1090h-315v604h-627v-604h-315v1090h-150zM508 895h627v199h-627v-199z" />
    <glyph glyph-name="hbar" unicode="&#x127;" horiz-adv-x="1341" 
d="M801 1266h-334v-291q141 184 331 184t295 -113q103 -114 103 -311v-735h-311v637q1 117 -53 179t-152 62t-156 -62t-57 -179v-637h-311v1266h-146v176h146v112h311v-112h334v-176z" />
    <glyph glyph-name="Imacron" unicode="&#x12a;" horiz-adv-x="724" 
d="M205 0v1491h315v-1491h-315zM-37 1622v221h799v-221h-799z" />
    <glyph glyph-name="imacron" unicode="&#x12b;" horiz-adv-x="653" 
d="M172 0v1139h309v-1139h-309zM-53 1280v217h758v-217h-758z" />
    <glyph glyph-name="Ibreve" unicode="&#x12c;" horiz-adv-x="724" 
d="M205 0v1491h315v-1491h-315zM362 1606q-168 0 -276 82t-121 229h213q41 -107 184 -107t185 107h213q-14 -147 -122 -229t-276 -82z" />
    <glyph glyph-name="ibreve" unicode="&#x12d;" horiz-adv-x="653" 
d="M172 0v1139h309v-1139h-309zM326 1264q-168 0 -274 88q-105 88 -120 243h209q45 -129 185 -129t184 129h209q-13 -155 -119 -243t-274 -88z" />
    <glyph glyph-name="Iogonek" unicode="&#x12e;" horiz-adv-x="724" 
d="M205 0v1491h315v-1491h-61q-55 -63 -56 -123q0 -92 150 -88v-139q-33 -4 -90 -4q-133 0 -209 51t-76 132t74 171h-47z" />
    <glyph glyph-name="iogonek" unicode="&#x12f;" horiz-adv-x="653" 
d="M172 0v1139h309v-1139h-57q-55 -63 -55 -123q0 -92 149 -88v-139q-33 -4 -90 -4q-133 0 -209 51t-76 132t74 171h-45zM162 1274v278h327v-278h-327z" />
    <glyph glyph-name="Idotaccent" unicode="&#x130;" horiz-adv-x="724" 
d="M205 0v1491h315v-1491h-315zM207 1610v264h311v-264h-311z" />
    <glyph glyph-name="dotlessi" unicode="&#x131;" horiz-adv-x="653" 
d="M172 0v1139h309v-1139h-309z" />
    <glyph glyph-name="Kcommaaccent" unicode="&#x136;" horiz-adv-x="1568" 
d="M643 -356v239h287v-202q0 -145 -74 -212t-223 -71l-17 94q82 8 123 47t37 105h-133zM190 0v1491h314v-672l622 672h387l-612 -635l639 -856h-379l-473 641l-184 -190v-451h-314z" />
    <glyph glyph-name="kcommaaccent" unicode="&#x137;" horiz-adv-x="1273" 
d="M518 -367v240h287v-203q1 -146 -73 -212t-224 -70l-16 94q82 8 122 47t37 104h-133zM156 0v1554h311v-847l397 432h373l-438 -453l452 -686h-360l-301 473l-123 -131v-342h-311z" />
    <glyph glyph-name="Lacute" unicode="&#x139;" horiz-adv-x="1333" 
d="M190 0v1491h314v-1204h751v-287h-1065zM262 1610l254 329l270 -118l-286 -211h-238z" />
    <glyph glyph-name="lacute" unicode="&#x13a;" horiz-adv-x="653" 
d="M172 0v1554h309v-1554h-309zM209 1642l254 330l270 -119l-287 -211h-237z" />
    <glyph glyph-name="Lcommaaccent" unicode="&#x13b;" horiz-adv-x="1333" 
d="M578 -367v240h286v-203q0 -145 -73 -212q-74 -66 -224 -70l-16 94q82 8 123 47t37 104h-133zM190 0v1491h314v-1204h751v-287h-1065z" />
    <glyph glyph-name="lcommaaccent" unicode="&#x13c;" horiz-adv-x="653" 
d="M182 -367v240h287v-203q1 -146 -73 -212t-224 -70l-16 94q82 8 123 47t36 104h-133zM172 0v1554h309v-1554h-309z" />
    <glyph glyph-name="Lcaron" unicode="&#x13d;" horiz-adv-x="1333" 
d="M190 0v1491h314v-1204h751v-287h-1065zM903 1491v-6l-125 -430h-123l23 436h225z" />
    <glyph glyph-name="lcaron" unicode="&#x13e;" horiz-adv-x="653" 
d="M172 0v1554h309v-1554h-309zM840 1556v-6l-125 -430h-123l22 436h226z" />
    <glyph glyph-name="Ldot" unicode="&#x13f;" horiz-adv-x="1333" 
d="M885 672v280h297v-280h-297zM190 0v1491h314v-1204h751v-287h-1065z" />
    <glyph glyph-name="ldot" unicode="&#x140;" horiz-adv-x="841" 
d="M614 674v260h250v-260h-250zM172 0v1554h309v-1554h-309z" />
    <glyph glyph-name="Lslash" unicode="&#x141;" horiz-adv-x="1398" 
d="M565 287h754v-287h-1065v524l-160 -69v295l160 69v672h311v-535l322 144v-295l-322 -143v-375z" />
    <glyph glyph-name="lslash" unicode="&#x142;" horiz-adv-x="780" 
d="M543 0h-305v571l-162 -79v292l162 80v690h305v-536l162 80v-293l-162 -80v-725z" />
    <glyph glyph-name="Nacute" unicode="&#x143;" horiz-adv-x="1699" 
d="M190 0v1491h289l719 -940v940h311v-1491h-268l-741 971v-971h-310zM723 1610l254 329l270 -118l-286 -211h-238z" />
    <glyph glyph-name="nacute" unicode="&#x144;" horiz-adv-x="1341" 
d="M156 0v1139h311v-164q141 184 331 184t295 -113q103 -114 103 -311v-735h-311v637q1 117 -53 179t-152 62t-156 -62t-57 -179v-637h-311zM553 1268l233 370l271 -116l-275 -254h-229z" />
    <glyph glyph-name="Ncommaaccent" unicode="&#x145;" horiz-adv-x="1699" 
d="M707 -356v239h286v-202q1 -145 -73 -212t-224 -71l-16 94q82 8 123 47t37 105h-133zM190 0v1491h289l719 -940v940h311v-1491h-268l-741 971v-971h-310z" />
    <glyph glyph-name="ncommaaccent" unicode="&#x146;" horiz-adv-x="1341" 
d="M530 -367v240h287v-203q1 -146 -73 -212t-224 -70l-16 94q82 8 123 47t37 104h-134zM156 0v1139h311v-164q141 184 331 184t295 -113q103 -114 103 -311v-735h-311v637q1 117 -53 179t-152 62t-156 -62t-57 -179v-637h-311z" />
    <glyph glyph-name="Ncaron" unicode="&#x147;" horiz-adv-x="1699" 
d="M190 0v1491h289l719 -940v940h311v-1491h-268l-741 971v-971h-310zM1266 1917l-269 -307h-295l-268 307h250l168 -119l168 119h246z" />
    <glyph glyph-name="ncaron" unicode="&#x148;" horiz-adv-x="1341" 
d="M156 0v1139h311v-164q141 184 331 184t295 -113q103 -114 103 -311v-735h-311v637q1 117 -53 179t-152 62t-156 -62t-57 -179v-637h-311zM1079 1597l-258 -329h-295l-258 329h240l168 -141l168 141h235z" />
    <glyph glyph-name="Omacron" unicode="&#x14c;" horiz-adv-x="1826" 
d="M915 264q199 0 329 138t130 339v4q0 201 -132 341t-331 140t-329 -137q-130 -138 -129 -339v-5q-1 -201 131 -341t331 -140zM911 -25q-340 1 -564 223t-224 543v4q0 322 226 546q226 225 566 225q341 0 565 -222t224 -544v-5q0 -322 -226 -546t-567 -224zM514 1642v222
h799v-222h-799z" />
    <glyph glyph-name="omacron" unicode="&#x14d;" horiz-adv-x="1427" 
d="M718 242q136 0 219 93t83 228v4q0 133 -87 229t-223 95q-136 0 -220 -92t-82 -228v-4q0 -133 87 -229t223 -96zM713 -25q-262 0 -438 170q-175 170 -175 418v4q0 246 178 419t438 173q261 0 436 -171t175 -417v-4q0 -248 -176 -420t-438 -172zM336 1280v217h758v-217
h-758z" />
    <glyph glyph-name="Obreve" unicode="&#x14e;" horiz-adv-x="1826" 
d="M915 264q199 0 329 138t130 339v4q0 201 -132 341t-331 140t-329 -137q-130 -138 -129 -339v-5q-1 -201 131 -341t331 -140zM911 -25q-340 1 -564 223t-224 543v4q0 322 226 546q226 225 566 225q341 0 565 -222t224 -544v-5q0 -322 -226 -546t-567 -224zM913 1626
q-167 0 -275 82t-122 229h213q41 -106 184 -106t185 106h213q-14 -147 -122 -229t-276 -82z" />
    <glyph glyph-name="obreve" unicode="&#x14f;" horiz-adv-x="1427" 
d="M718 242q136 0 219 93t83 228v4q0 133 -87 229t-223 95q-136 0 -220 -92t-82 -228v-4q0 -133 87 -229t223 -96zM713 -25q-262 0 -438 170q-175 170 -175 418v4q0 246 178 419t438 173q261 0 436 -171t175 -417v-4q0 -248 -176 -420t-438 -172zM715 1264q-168 0 -274 88
q-105 88 -119 243h208q44 -129 184 -129t185 129h209q-14 -155 -120 -243t-273 -88z" />
    <glyph glyph-name="Ohungarumlaut" unicode="&#x150;" horiz-adv-x="1826" 
d="M915 264q199 0 329 138t130 339v4q0 201 -132 341t-331 140t-329 -137q-130 -138 -129 -339v-5q-1 -201 131 -341t331 -140zM911 -25q-340 1 -564 223t-224 543v4q0 322 226 546q226 225 566 225q341 0 565 -222t224 -544v-5q0 -322 -226 -546t-567 -224zM573 1630
l254 330l260 -119l-286 -211h-228zM971 1630l254 330l260 -119l-285 -211h-229z" />
    <glyph glyph-name="ohungarumlaut" unicode="&#x151;" horiz-adv-x="1427" 
d="M718 242q136 0 219 93t83 228v4q0 133 -87 229t-223 95q-136 0 -220 -92t-82 -228v-4q0 -133 87 -229t223 -96zM713 -25q-262 0 -438 170q-175 170 -175 418v4q0 246 178 419t438 173q261 0 436 -171t175 -417v-4q0 -248 -176 -420t-438 -172zM772 1268l234 370l264 -116
l-277 -254h-221zM385 1268l229 370l265 -116l-275 -254h-219z" />
    <glyph glyph-name="OE" unicode="&#x152;" horiz-adv-x="2316" 
d="M915 285h199v921h-199q-207 0 -335 -127t-127 -329v-5q-1 -203 127 -331t335 -129zM915 0q-348 0 -570 212t-222 529v4q0 319 222 533t570 213h1268v-281h-756v-319h660v-281h-660v-329h766v-281h-1278z" />
    <glyph glyph-name="oe" unicode="&#x153;" horiz-adv-x="2220" 
d="M708 242q132 0 213 93t80 228v4q0 133 -85 229t-216 95q-131 0 -212 -93t-80 -227v-4q0 -133 84 -229t216 -96zM1307 655h505q-16 117 -80 186q-65 69 -168 69t-171 -70q-68 -68 -86 -185zM707 -25q-259 0 -433 171t-174 417v4q0 246 178 419t437 173q260 0 426 -196
q160 197 425 197t407 -179q142 -178 143 -438q0 -25 -5 -82h-800q23 -115 97 -175t189 -61q156 0 283 119l178 -158q-172 -211 -461 -211t-460 201q-171 -201 -430 -201z" />
    <glyph glyph-name="Racute" unicode="&#x154;" horiz-adv-x="1556" 
d="M190 0v1491h678q283 0 435 -152q125 -125 124 -335v-5q0 -175 -87 -291t-238 -169l373 -539h-369l-330 485h-272v-485h-314zM504 764h344q122 0 192 59t70 160v4q0 107 -71 163t-197 56h-338v-442zM633 1610l254 329l270 -118l-287 -211h-237z" />
    <glyph glyph-name="racute" unicode="&#x155;" horiz-adv-x="905" 
d="M156 0v1139h311v-236q113 266 371 256v-325h-17q-168 0 -261 -104t-93 -306v-424h-311zM371 1268l233 370l270 -116l-274 -254h-229z" />
    <glyph glyph-name="Rcommaaccent" unicode="&#x156;" horiz-adv-x="1556" 
d="M616 -356v239h287v-202q1 -145 -73 -212t-224 -71l-16 94q82 8 123 47t37 105h-134zM190 0v1491h678q283 0 435 -152q125 -125 124 -335v-5q0 -175 -87 -291t-238 -169l373 -539h-369l-330 485h-272v-485h-314zM504 764h344q122 0 192 59t70 160v4q0 107 -71 163t-197 56
h-338v-442z" />
    <glyph glyph-name="rcommaaccent" unicode="&#x157;" horiz-adv-x="905" 
d="M180 -367v240h287v-203q1 -146 -73 -212t-224 -70l-16 94q82 8 122 47t37 104h-133zM156 0v1139h311v-236q113 266 371 256v-325h-17q-168 0 -261 -104t-93 -306v-424h-311z" />
    <glyph glyph-name="Rcaron" unicode="&#x158;" horiz-adv-x="1556" 
d="M190 0v1491h678q283 0 435 -152q125 -125 124 -335v-5q0 -175 -87 -291t-238 -169l373 -539h-369l-330 485h-272v-485h-314zM504 764h344q122 0 192 59t70 160v4q0 107 -71 163t-197 56h-338v-442zM1176 1917l-269 -307h-295l-268 307h250l168 -119l168 119h246z" />
    <glyph glyph-name="rcaron" unicode="&#x159;" horiz-adv-x="905" 
d="M156 0v1139h311v-236q113 266 371 256v-325h-17q-168 0 -261 -104t-93 -306v-424h-311zM899 1597l-258 -329h-295l-258 329h240l168 -141l168 141h235z" />
    <glyph glyph-name="Sacute" unicode="&#x15a;" horiz-adv-x="1380" 
d="M719 -20q-367 0 -631 237l186 223q221 -184 451 -184q104 0 165 41q60 41 60 111v4q0 68 -61 108t-246 88q-258 64 -377 158t-119 297v4q-1 199 145 322t376 122q315 0 551 -188l-166 -238q-209 150 -391 150q-94 0 -148 -40t-53 -99v-4q0 -76 63 -115q64 -39 286 -95
t338 -156t116 -284v-4q0 -214 -150 -336t-395 -122zM573 1630l254 330l271 -119l-287 -211h-238z" />
    <glyph glyph-name="sacute" unicode="&#x15b;" horiz-adv-x="1085" 
d="M553 -20q-270 0 -487 170l135 206q186 -137 360 -137q145 0 146 92v4q-1 27 -13 39l-20 20t-26 16q-18 7 -28 13q-11 5 -35 13l-36 12t-40 12t-103 30t-179 94q-104 73 -104 229v4q0 166 119 262t297 96q225 0 422 -131l-119 -215q-182 106 -312 106q-59 1 -93 -23
t-34 -63v-4q0 -41 51 -68t156 -62q105 -33 155 -57t106 -62q116 -78 116 -228v-4q1 -180 -119 -272t-315 -92zM426 1268l233 370l271 -116l-275 -254h-229z" />
    <glyph glyph-name="Scedilla" unicode="&#x15e;" horiz-adv-x="1380" 
d="M725 256q104 0 165 41q60 41 60 111v4q0 68 -61 108t-246 88q-258 64 -377 158t-119 297v4q-1 199 145 322t376 122q315 0 551 -188l-166 -238q-209 150 -391 150q-94 0 -148 -40t-53 -99v-4q0 -76 63 -115q64 -39 286 -95t338 -156t116 -284v-4q0 -192 -121 -310
t-324 -142l-143 -351l-262 109l168 246q-283 35 -494 227l186 223q221 -184 451 -184z" />
    <glyph glyph-name="scedilla" unicode="&#x15f;" horiz-adv-x="1085" 
d="M561 219q145 0 146 92v4q-1 27 -13 39l-20 20t-26 16q-18 7 -28 13q-11 5 -35 13l-36 12t-40 12t-103 30t-179 94q-104 73 -104 229v4q0 166 119 262t297 96q225 0 422 -131l-119 -215q-182 106 -312 106q-59 1 -93 -23t-34 -63v-4q0 -41 51 -68t156 -62q105 -33 155 -57
t106 -62q116 -78 116 -228v-4q0 -156 -91 -247t-247 -111l-143 -351l-262 109l170 248q-195 37 -348 158l135 206q186 -137 360 -137z" />
    <glyph glyph-name="Scaron" unicode="&#x160;" horiz-adv-x="1380" 
d="M719 -20q-367 0 -631 237l186 223q221 -184 451 -184q104 0 165 41q60 41 60 111v4q0 68 -61 108t-246 88q-258 64 -377 158t-119 297v4q-1 199 145 322t376 122q315 0 551 -188l-166 -238q-209 150 -391 150q-94 0 -148 -40t-53 -99v-4q0 -76 63 -115q64 -39 286 -95
t338 -156t116 -284v-4q0 -214 -150 -336t-395 -122zM1114 1937l-268 -307h-295l-268 307h249l168 -118l168 118h246z" />
    <glyph glyph-name="scaron" unicode="&#x161;" horiz-adv-x="1085" 
d="M553 -20q-270 0 -487 170l135 206q186 -137 360 -137q145 0 146 92v4q-1 27 -13 39l-20 20t-26 16q-18 7 -28 13q-11 5 -35 13l-36 12t-40 12t-103 30t-179 94q-104 73 -104 229v4q0 166 119 262t297 96q225 0 422 -131l-119 -215q-182 106 -312 106q-59 1 -93 -23
t-34 -63v-4q0 -41 51 -68t156 -62q105 -33 155 -57t106 -62q116 -78 116 -228v-4q1 -180 -119 -272t-315 -92zM954 1597l-258 -329h-295l-258 329h240l168 -141l168 141h235z" />
    <glyph glyph-name="Tcommaaccent" unicode="&#x162;" horiz-adv-x="1394" 
d="M555 -367v240h287v-203q0 -146 -74 -212t-223 -70l-17 94q82 8 123 47t37 104h-133zM541 0v1200h-459v291h1231v-291h-457v-1200h-315z" />
    <glyph glyph-name="tcommaaccent" unicode="&#x163;" horiz-adv-x="899" 
d="M338 -367v240h287v-203q1 -146 -73 -212t-224 -70l-17 94q82 8 123 47t37 104h-133zM530 -18q-150 0 -235 76q-86 76 -86 264v550h-137v267h137v295h311v-295h275v-267h-275v-499q0 -117 111 -117q86 0 160 39v-250q-111 -63 -261 -63z" />
    <glyph glyph-name="Tcaron" unicode="&#x164;" horiz-adv-x="1394" 
d="M541 0v1200h-459v291h1231v-291h-457v-1200h-315zM1114 1917l-268 -307h-295l-268 307h249l168 -119l168 119h246z" />
    <glyph glyph-name="tcaron" unicode="&#x165;" horiz-adv-x="899" 
d="M530 -18q-150 0 -235 76q-86 76 -86 264v550h-137v267h137v295h311v-295h275v-267h-275v-499q0 -117 111 -117q86 0 160 39v-250q-111 -63 -261 -63zM909 1696v-6l-125 -430h-122l22 436h225z" />
    <glyph glyph-name="Umacron" unicode="&#x16a;" horiz-adv-x="1626" 
d="M811 -23q-305 0 -475 169t-170 491v854h315v-844q0 -184 87 -282q87 -99 245 -99t246 94t88 275v856h313v-842q0 -332 -172 -502t-477 -170zM414 1622v221h798v-221h-798z" />
    <glyph glyph-name="umacron" unicode="&#x16b;" horiz-adv-x="1341" 
d="M546 -23q-190 0 -295 114q-103 114 -104 312v736h310v-637q0 -117 53 -179q54 -63 152 -63t155 62t57 180v637h312v-1139h-312v164q-138 -187 -328 -187zM287 1280v217h757v-217h-757z" />
    <glyph glyph-name="Ubreve" unicode="&#x16c;" horiz-adv-x="1626" 
d="M811 -23q-305 0 -475 169t-170 491v854h315v-844q0 -184 87 -282q87 -99 245 -99t246 94t88 275v856h313v-842q0 -332 -172 -502t-477 -170zM813 1585q-167 0 -275 82t-122 229h213q41 -106 184 -106t184 106h213q-14 -147 -122 -229t-275 -82z" />
    <glyph glyph-name="ubreve" unicode="&#x16d;" horiz-adv-x="1341" 
d="M546 -23q-190 0 -295 114q-103 114 -104 312v736h310v-637q0 -117 53 -179q54 -63 152 -63t155 62t57 180v637h312v-1139h-312v164q-138 -187 -328 -187zM666 1264q-168 0 -274 88q-105 88 -120 243h209q45 -129 185 -129t184 129h209q-13 -155 -119 -243t-274 -88z" />
    <glyph glyph-name="Uring" unicode="&#x16e;" horiz-adv-x="1626" 
d="M811 -23q-305 0 -475 169t-170 491v854h315v-844q0 -184 87 -282q87 -99 245 -99t246 94t88 275v856h313v-842q0 -332 -172 -502t-477 -170zM813 1667q59 0 97 34t38 85t-38 86t-97 35t-97 -35t-38 -86t38 -85t97 -34zM813 1554q-109 0 -185 66t-77 166q0 100 77 167
q78 67 186 67t184 -68q76 -66 77 -166q-1 -100 -77 -166t-185 -66z" />
    <glyph glyph-name="uring" unicode="&#x16f;" horiz-adv-x="1341" 
d="M546 -23q-190 0 -295 114q-103 114 -104 312v736h310v-637q0 -117 53 -179q54 -63 152 -63t155 62t57 180v637h312v-1139h-312v164q-138 -187 -328 -187zM666 1337q57 0 99 42q42 41 42 99t-41 100t-100 42q-58 0 -100 -42t-42 -99t42 -100q43 -42 100 -42zM666 1233
q-106 0 -182 72q-75 72 -74 174q0 102 74 175q76 72 182 72t181 -72t75 -175q0 -102 -75 -174t-181 -72z" />
    <glyph glyph-name="Uhungarumlaut" unicode="&#x170;" horiz-adv-x="1626" 
d="M811 -23q-305 0 -475 169t-170 491v854h315v-844q0 -184 87 -282q87 -99 245 -99t246 94t88 275v856h313v-842q0 -332 -172 -502t-477 -170zM475 1610l254 329l260 -118l-287 -211h-227zM872 1610l254 329l260 -118l-284 -211h-230z" />
    <glyph glyph-name="uhungarumlaut" unicode="&#x171;" horiz-adv-x="1341" 
d="M546 -23q-190 0 -295 114q-103 114 -104 312v736h310v-637q0 -117 53 -179q54 -63 152 -63t155 62t57 180v637h312v-1139h-312v164q-138 -187 -328 -187zM723 1268l233 370l265 -116l-277 -254h-221zM336 1268l229 370l264 -116l-274 -254h-219z" />
    <glyph glyph-name="Uogonek" unicode="&#x172;" horiz-adv-x="1626" 
d="M909 -354q-133 0 -209 51t-76 130t64 159q-248 30 -385 196t-137 455v854h315v-844q0 -184 87 -282q87 -99 245 -99t246 94t88 275v856h313v-842q0 -309 -150 -477t-419 -190q-41 -55 -41 -105q-1 -92 149 -88v-139q-33 -4 -90 -4z" />
    <glyph glyph-name="uogonek" unicode="&#x173;" horiz-adv-x="1341" 
d="M546 -23q-190 0 -295 114q-103 114 -104 312v736h310v-637q0 -117 53 -179q54 -63 152 -63t155 62t57 180v637h312v-1139h-72q-55 -63 -55 -123q0 -92 149 -88v-139q-33 -4 -90 -4q-133 0 -209 51q-75 51 -75 132t73 171h-33v164q-138 -187 -328 -187z" />
    <glyph glyph-name="Wcircumflex" unicode="&#x174;" horiz-adv-x="2404" 
d="M586 -10l-512 1501h338l319 -1028l340 1032h270l340 -1032l318 1028h330l-510 -1501h-275l-342 993l-342 -993h-274zM786 1610l269 307h295l268 -307h-250l-168 119l-168 -119h-246z" />
    <glyph glyph-name="wcircumflex" unicode="&#x175;" horiz-adv-x="1849" 
d="M416 -8l-353 1147h316l190 -709l224 713h266l223 -715l197 711h309l-358 -1147h-281l-225 715l-230 -715h-278zM518 1268l258 329h295l258 -329h-239l-168 141l-168 -141h-236z" />
    <glyph glyph-name="Ycircumflex" unicode="&#x176;" horiz-adv-x="1542" 
d="M612 0v588l-575 903h369l366 -610l375 610h358l-577 -897v-594h-316zM354 1610l269 307h295l268 -307h-250l-168 119l-168 -119h-246z" />
    <glyph glyph-name="ycircumflex" unicode="&#x177;" horiz-adv-x="1292" 
d="M418 -348q-145 0 -281 78l105 225q76 -43 131 -43t82 17t51 67l-453 1143h330l270 -789l258 789h324l-440 -1168q-68 -175 -150 -247t-227 -72zM240 1268l258 329h295l258 -329h-240l-168 141l-168 -141h-235z" />
    <glyph glyph-name="Ydieresis" unicode="&#x178;" horiz-adv-x="1542" 
d="M612 0v588l-575 903h369l366 -610l375 610h358l-577 -897v-594h-316zM848 1610v264h303v-264h-303zM389 1610v264h303v-264h-303z" />
    <glyph glyph-name="Zacute" unicode="&#x179;" horiz-adv-x="1521" 
d="M143 0v238l832 976h-805v277h1210v-238l-831 -977h831v-276h-1237zM647 1610l254 329l270 -118l-286 -211h-238z" />
    <glyph glyph-name="zacute" unicode="&#x17a;" horiz-adv-x="1214" 
d="M115 0v217l602 670h-582v252h971v-219l-604 -668h604v-252h-991zM489 1268l234 370l270 -116l-274 -254h-230z" />
    <glyph glyph-name="Zdotaccent" unicode="&#x17b;" horiz-adv-x="1521" 
d="M143 0v238l832 976h-805v277h1210v-238l-831 -977h831v-276h-1237zM618 1610v264h312v-264h-312z" />
    <glyph glyph-name="zdotaccent" unicode="&#x17c;" horiz-adv-x="1214" 
d="M115 0v217l602 670h-582v252h971v-219l-604 -668h604v-252h-991zM455 1268v280h311v-280h-311z" />
    <glyph glyph-name="Zcaron" unicode="&#x17d;" horiz-adv-x="1521" 
d="M143 0v238l832 976h-805v277h1210v-238l-831 -977h831v-276h-1237zM1190 1917l-268 -307h-295l-269 307h250l168 -119l168 119h246z" />
    <glyph glyph-name="zcaron" unicode="&#x17e;" horiz-adv-x="1214" 
d="M115 0v217l602 670h-582v252h971v-219l-604 -668h604v-252h-991zM1016 1597l-258 -329h-295l-258 329h239l168 -141l168 141h236z" />
    <glyph glyph-name="florin" unicode="&#x192;" horiz-adv-x="1155" 
d="M219 -10q-76 0 -123 10v252q40 -6 94 -6q114 0 136 131l63 360h-149v256h194l31 166q33 172 124 257t273 85q127 0 207 -24v-258q-86 20 -145 20q-135 0 -162 -147l-17 -99h250v-256h-295l-73 -407q-33 -182 -129 -261t-279 -79z" />
    <glyph glyph-name="Aringacute" unicode="&#x1fa;" horiz-adv-x="1699" 
d="M588 1580q0 101 77 168t185 67t186 -67q76 -67 76 -168t-80 -167l604 -1413h-329l-140 340h-645l-139 -340h-322l605 1413q-78 66 -78 167zM635 618h420l-209 506zM850 1462q59 0 97 35t38 85t-38 85t-97 35t-97 -35t-38 -86t38 -85t97 -34zM711 1874l266 289l268 -119
l-297 -170h-237z" />
    <glyph glyph-name="aringacute" unicode="&#x1fb;" horiz-adv-x="1275" 
d="M481 -23q-167 -1 -281 93t-114 258v4q0 180 125 271t336 91q145 0 284 -45v21q0 215 -251 215q-147 0 -318 -64l-78 238q209 92 451 92t369 -125t126 -362v-664h-301v127q-133 -150 -348 -150zM387 340q0 -68 51 -106q52 -38 152 -39q100 0 173 58t73 150v62
q-100 43 -214 43t-174 -43t-61 -121v-4zM641 1368q57 0 99 42t42 100t-41 100t-100 41q-59 0 -100 -41q-41 -42 -41 -100t42 -100t99 -42zM641 1264q-106 0 -181 72t-75 173q0 102 75 175t181 73t181 -73t75 -175q0 -101 -75 -173t-181 -72zM516 1829l250 309l266 -119
l-287 -190h-229z" />
    <glyph glyph-name="AEacute" unicode="&#x1fc;" horiz-adv-x="2242" 
d="M2109 1491v-281h-755v-319h659v-281h-659v-329h766v-281h-1080v340h-508l-182 -340h-321l809 1491h1271zM1040 618v601h-39l-321 -601h360zM1196 1610l254 329l270 -118l-286 -211h-238z" />
    <glyph glyph-name="aeacute" unicode="&#x1fd;" horiz-adv-x="2041" 
d="M571 199q160 0 301 114q-33 74 -41 154q-104 41 -213 41q-110 0 -170 -43t-61 -121v-4q0 -63 53 -102t131 -39zM516 -23q-188 1 -309 95t-121 256v4q0 180 125 271t336 91q143 0 282 -45v21q0 215 -249 215q-147 0 -318 -64l-78 238q201 92 457 92t371 -152
q150 160 381 160q176 0 302 -88q242 -169 242 -528q0 -25 -4 -82h-800q23 -115 99 -175t189 -61q156 0 283 119l178 -158q-172 -211 -454 -211t-447 177q-229 -175 -465 -175zM1128 655h506q-14 115 -80 185t-169 70t-171 -70q-68 -68 -86 -185zM889 1268l233 370l271 -116
l-275 -254h-229z" />
    <glyph glyph-name="Oslashacute" unicode="&#x1fe;" horiz-adv-x="1826" 
d="M915 258q201 0 333 141t132 342v4q0 154 -80 275l-610 -705q102 -57 225 -57zM446 745q0 -152 80 -276l611 707q-102 57 -226 57q-201 0 -333 -141t-132 -342v-5zM1704 750v-5q0 -321 -226 -545t-567 -225q-233 0 -417 109l-86 -94h-302l209 241q-193 215 -192 510v4
q0 322 226 546t566 225q227 0 416 -111l88 96h301l-209 -241q193 -215 193 -510zM786 1630l254 330l271 -119l-287 -211h-238z" />
    <glyph glyph-name="oslashacute" unicode="&#x1ff;" horiz-adv-x="1427" 
d="M717 233q141 -1 226 95t85 235v4q0 84 -39 162l-405 -467q61 -29 133 -29zM399 567q0 -88 37 -161l408 464q-63 29 -133 29q-141 0 -227 -94t-85 -234v-4zM1327 571v-4q0 -248 -176 -420t-440 -172q-174 0 -310 76l-59 -61h-274l170 194q-137 160 -138 379v4
q0 246 178 419t439 173q172 0 307 -76l61 66h275l-174 -199q141 -164 141 -379zM592 1268l233 370l271 -116l-275 -254h-229z" />
    <glyph glyph-name="Scommaaccent" unicode="&#x218;" horiz-adv-x="1380" 
d="M555 -377v240h287v-203q0 -145 -74 -212t-223 -71l-17 95q82 8 123 47t37 104h-133zM719 -20q-367 0 -631 237l186 223q221 -184 451 -184q104 0 165 41q60 41 60 111v4q0 68 -61 108t-246 88q-258 64 -377 158t-119 297v4q-1 199 145 322t376 122q315 0 551 -188
l-166 -238q-209 150 -391 150q-94 0 -148 -40t-53 -99v-4q0 -76 63 -115q64 -39 286 -95t338 -156t116 -284v-4q0 -214 -150 -336t-395 -122z" />
    <glyph glyph-name="scommaaccent" unicode="&#x219;" horiz-adv-x="1085" 
d="M406 -367v240h286v-203q0 -146 -74 -212t-223 -70l-16 94q82 8 123 47t37 104h-133zM553 -20q-270 0 -487 170l135 206q186 -137 360 -137q145 0 146 92v4q-1 27 -13 39l-20 20t-26 16q-18 7 -28 13q-11 5 -35 13l-36 12t-40 12t-103 30t-179 94q-104 73 -104 229v4
q0 166 119 262t297 96q225 0 422 -131l-119 -215q-182 106 -312 106q-59 1 -93 -23t-34 -63v-4q0 -41 51 -68t156 -62q105 -33 155 -57t106 -62q116 -78 116 -228v-4q1 -180 -119 -272t-315 -92z" />
    <glyph glyph-name="schwa" unicode="&#x259;" horiz-adv-x="1318" 
d="M656 229q103 -1 171 67t86 185h-505q14 -115 80 -183t168 -69zM627 1163q256 0 424 -165t168 -423v-4q0 -249 -159 -421t-403 -173q-180 -1 -309 89q-242 168 -244 530q0 25 5 82h800q-23 113 -98 174q-76 61 -188 61q-156 0 -283 -120l-180 159q174 211 467 211z" />
    <glyph glyph-name="circumflex" unicode="&#x2c6;" horiz-adv-x="1081" 
d="M135 1268l258 329h295l258 -329h-239l-168 141l-168 -141h-236z" />
    <glyph glyph-name="caron" unicode="&#x2c7;" horiz-adv-x="1081" 
d="M946 1597l-258 -329h-295l-258 329h240l168 -141l168 141h235z" />
    <glyph glyph-name="breve" unicode="&#x2d8;" horiz-adv-x="1081" 
d="M541 1264q-168 0 -274 88q-105 88 -120 243h209q44 -129 184 -129t185 129h209q-14 -155 -120 -243t-273 -88z" />
    <glyph glyph-name="dotaccent" unicode="&#x2d9;" horiz-adv-x="1081" 
d="M385 1268v280h311v-280h-311z" />
    <glyph glyph-name="ring" unicode="&#x2da;" horiz-adv-x="1081" 
d="M541 1368q57 0 99 42t42 100t-42 100t-99 41q-57 0 -99 -41q-42 -42 -43 -100q1 -58 43 -100t99 -42zM541 1264q-106 0 -182 71q-75 72 -74 174q0 102 74 175q75 73 181 73t182 -73q75 -73 75 -175q0 -101 -75 -173t-181 -72z" />
    <glyph glyph-name="ogonek" unicode="&#x2db;" horiz-adv-x="1081" 
d="M672 -354q-133 0 -209 51t-76 134t94 192l207 -3q-76 -78 -76 -143q0 -92 150 -88v-139q-33 -4 -90 -4z" />
    <glyph glyph-name="tilde" unicode="&#x2dc;" horiz-adv-x="1081" 
d="M724 1268q-91 0 -202 47q-92 35 -132 35t-66 -25t-48 -80l-167 51q41 145 99 217t150 72t201 -47q98 -37 135 -37t63 25t48 82l168 -52q-41 -144 -99 -216t-150 -72z" />
    <glyph glyph-name="hungarumlaut" unicode="&#x2dd;" horiz-adv-x="1081" 
d="M496 1268l233 370l264 -116l-276 -254h-221zM109 1268l229 370l264 -116l-274 -254h-219z" />
    <glyph glyph-name="commaaccent" unicode="&#x326;" horiz-adv-x="1081" 
d="M397 -367v240h287v-203q0 -146 -74 -212t-223 -70l-16 94q82 8 123 47t36 104h-133z" />
    <glyph glyph-name="baht" unicode="&#xe3f;" horiz-adv-x="1398" 
d="M780 258q115 0 178 49t64 144v2q0 88 -64 138t-186 48h-14l-33 -381h55zM430 258h125l37 381h-162v-381zM989 1053q0 156 -176 178l-33 -367q209 12 209 187v2zM430 864h182l33 369h-215v-369zM150 0v1491h507l19 170h198l-18 -174q190 -15 304 -115t114 -266v-2
q0 -229 -225 -330q129 -55 195 -137t65 -221v-2q1 -202 -145 -308t-392 -106h-59l-21 -252h-198l20 252h-364z" />
    <glyph glyph-name="Wgrave" unicode="&#x1e80;" horiz-adv-x="2404" 
d="M586 -10l-512 1501h338l319 -1028l340 1032h270l340 -1032l318 1028h330l-510 -1501h-275l-342 993l-342 -993h-274zM1327 1610h-237l-287 211l270 118z" />
    <glyph glyph-name="wgrave" unicode="&#x1e81;" horiz-adv-x="1849" 
d="M416 -8l-353 1147h316l190 -709l224 713h266l223 -715l197 711h309l-358 -1147h-281l-225 715l-230 -715h-278zM817 1268l-274 254l270 116l234 -370h-230z" />
    <glyph glyph-name="Wacute" unicode="&#x1e82;" horiz-adv-x="2404" 
d="M586 -10l-512 1501h338l319 -1028l340 1032h270l340 -1032l318 1028h330l-510 -1501h-275l-342 993l-342 -993h-274zM1075 1610l254 329l270 -118l-286 -211h-238z" />
    <glyph glyph-name="wacute" unicode="&#x1e83;" horiz-adv-x="1849" 
d="M416 -8l-353 1147h316l190 -709l224 713h266l223 -715l197 711h309l-358 -1147h-281l-225 715l-230 -715h-278zM801 1268l233 370l271 -116l-275 -254h-229z" />
    <glyph glyph-name="Wdieresis" unicode="&#x1e84;" horiz-adv-x="2404" 
d="M586 -10l-512 1501h338l319 -1028l340 1032h270l340 -1032l318 1028h330l-510 -1501h-275l-342 993l-342 -993h-274zM1280 1610v264h303v-264h-303zM821 1610v264h303v-264h-303z" />
    <glyph glyph-name="wdieresis" unicode="&#x1e85;" horiz-adv-x="1849" 
d="M416 -8l-353 1147h316l190 -709l224 713h266l223 -715l197 711h309l-358 -1147h-281l-225 715l-230 -715h-278zM991 1268v280h301v-280h-301zM555 1268v280h301v-280h-301z" />
    <glyph glyph-name="Ygrave" unicode="&#x1ef2;" horiz-adv-x="1542" 
d="M612 0v588l-575 903h369l366 -610l375 610h358l-577 -897v-594h-316zM897 1610h-238l-286 211l270 118z" />
    <glyph glyph-name="ygrave" unicode="&#x1ef3;" horiz-adv-x="1292" 
d="M418 -348q-145 0 -281 78l105 225q76 -43 131 -43t82 17t51 67l-453 1143h330l270 -789l258 789h324l-440 -1168q-68 -175 -150 -247t-227 -72zM539 1268l-275 254l271 116l233 -370h-229z" />
    <glyph glyph-name="enspace" unicode="&#x2002;" horiz-adv-x="1024" 
 />
    <glyph glyph-name="emspace" unicode="&#x2003;" horiz-adv-x="2048" 
 />
    <glyph glyph-name="threeperemspace" unicode="&#x2004;" horiz-adv-x="681" 
 />
    <glyph glyph-name="fourperemspace" unicode="&#x2005;" horiz-adv-x="512" 
 />
    <glyph glyph-name="figurespace" unicode="&#x2007;" horiz-adv-x="1290" 
 />
    <glyph glyph-name="thinspace" unicode="&#x2009;" horiz-adv-x="272" 
 />
    <glyph glyph-name="hairspace" unicode="&#x200a;" horiz-adv-x="153" 
 />
    <glyph glyph-name="endash" unicode="&#x2013;" horiz-adv-x="1140" 
d="M117 514v291h907v-291h-907z" />
    <glyph glyph-name="emdash" unicode="&#x2014;" horiz-adv-x="1929" 
d="M117 514v291h1695v-291h-1695z" />
    <glyph glyph-name="quoteleft" unicode="&#x2018;" horiz-adv-x="618" 
d="M133 831v281q0 199 95 292t286 97l27 -129q-219 -25 -203 -209h127v-332h-332z" />
    <glyph glyph-name="quoteright" unicode="&#x2019;" horiz-adv-x="618" 
d="M154 1159v332h331v-281q1 -199 -95 -291t-286 -98l-26 129q219 29 203 209h-127z" />
    <glyph glyph-name="quotesinglbase" unicode="&#x201a;" horiz-adv-x="618" 
d="M143 0v332h332v-281q1 -199 -95 -292t-286 -97l-26 129q219 25 202 209h-127z" />
    <glyph glyph-name="quotedblleft" unicode="&#x201c;" horiz-adv-x="1148" 
d="M664 831v281q0 199 95 292t285 97l29 -129q-221 -25 -205 -209h129v-332h-333zM133 831v281q0 199 95 292t286 97l27 -129q-219 -25 -203 -209h127v-332h-332z" />
    <glyph glyph-name="quotedblright" unicode="&#x201d;" horiz-adv-x="1148" 
d="M684 1159v332h334v-281q0 -199 -96 -291t-285 -98l-29 129q221 29 205 209h-129zM154 1159v332h331v-281q1 -199 -95 -291t-286 -98l-26 129q219 29 203 209h-127z" />
    <glyph glyph-name="quotedblbase" unicode="&#x201e;" horiz-adv-x="1148" 
d="M674 0v332h334v-281q0 -199 -96 -292t-285 -97l-29 129q106 11 160 65t45 144h-129zM143 0v332h332v-281q1 -199 -95 -292t-286 -97l-26 129q219 25 202 209h-127z" />
    <glyph glyph-name="dagger" unicode="&#x2020;" horiz-adv-x="888" 
d="M358 508l21 575l-256 -20v172l254 -21l-27 277h191l-27 -277l254 21v-172l-256 20l20 -575h-174z" />
    <glyph glyph-name="daggerdbl" unicode="&#x2021;" horiz-adv-x="931" 
d="M371 0l26 276l-254 -20v172l254 -20l-18 337l18 338l-254 -20v172l254 -21l-26 277h190l-26 -277l253 21v-172l-253 20l18 -338l-18 -337l253 20v-172l-253 20l26 -276h-190z" />
    <glyph glyph-name="bullet" unicode="&#x2022;" horiz-adv-x="1077" 
d="M539 436q-129 0 -222 91q-92 91 -92 221v4q0 129 92 220q91 91 221 91t222 -91t92 -220v-4q0 -128 -92 -220t-221 -92z" />
    <glyph glyph-name="ellipsis" unicode="&#x2026;" horiz-adv-x="1785" 
d="M1317 0v324h325v-324h-325zM731 0v324h324v-324h-324zM143 0v324h324v-324h-324z" />
    <glyph glyph-name="perthousand" unicode="&#x2030;" horiz-adv-x="2652" 
d="M1235 365q0 -79 41 -137q42 -58 106 -58t102 55t38 135v5q0 80 -41 136t-106 56t-103 -54t-37 -134v-4zM2044 365q0 -79 41 -137t105 -58t103 55q38 55 38 135v5q0 80 -41 136t-106 56q-64 0 -102 -54t-38 -134v-4zM1376 -16q-158 0 -258 108t-100 268v5q0 161 101 271
t260 110t259 -110t101 -267v-4q-1 -161 -103 -271t-260 -110zM2185 -16q-158 0 -258 108t-100 268v5q0 161 101 271t260 110t259 -110t101 -267v-4q0 -161 -102 -271t-261 -110zM322 1126q0 -80 41 -136t105 -56t102 54t38 134v4q0 80 -41 138t-105 57q-64 0 -103 -55
q-38 -55 -37 -136v-4zM1589 1491l-596 -801l-493 -690h-246l596 801l493 690h246zM825 1126q0 -160 -101 -270t-260 -111q-159 0 -259 109t-101 268v4q0 162 102 272t260 110q159 0 259 -110q100 -108 100 -268v-4z" />
    <glyph glyph-name="guilsinglleft" unicode="&#x2039;" horiz-adv-x="802" 
d="M473 90l-377 471v17l377 471l217 -107l-258 -371l258 -370z" />
    <glyph glyph-name="guilsinglright" unicode="&#x203a;" horiz-adv-x="802" 
d="M330 90l-217 107l258 370l-258 371l217 111l377 -471v-17z" />
    <glyph glyph-name="fraction" unicode="&#x2044;" horiz-adv-x="229" 
d="M-477 0l540 780l472 711h172l-541 -780l-471 -711h-172z" />
    <glyph glyph-name="zero.sup" unicode="&#x2070;" 
d="M428 1577q-70 0 -115 -66t-45 -192v-16q0 -125 45 -193t116 -68t117 67t46 194v16q0 125 -47 191t-117 67zM428 874q-150 0 -248 118t-98 313v10q0 195 99 313t247 119q148 0 250 -118q100 -118 100 -312v-10q0 -197 -100 -315t-250 -118z" />
    <glyph glyph-name="four.sup" unicode="&#x2074;" 
d="M508 1206v332l-264 -332h264zM670 1067v-176h-164v176h-402l-16 170l401 498h181v-527h112v-141h-112z" />
    <glyph glyph-name="five.sup" unicode="&#x2075;" 
d="M476 1423q110 -1 192 -67t82 -195t-90 -208t-252 -79t-314 121l105 138q117 -92 225 -93q63 0 104 32t41 85t-41 84q-40 31 -122 31t-144 -31l-112 70l32 413h527v-161h-377l-15 -158q49 18 159 18z" />
    <glyph glyph-name="six.sup" unicode="&#x2076;" 
d="M571 1160q0 60 -37 96q-38 36 -105 36t-105 -35t-39 -98v-2q0 -57 43 -95t103 -37t100 38t40 97zM432 874q-139 0 -223 84q-109 109 -109 326v4q0 213 94 336t273 123q139 0 250 -82l-86 -145q-76 63 -158 63t-129 -53t-55 -144q81 50 189 50t188 -70t80 -200t-88 -211
q-87 -81 -226 -81z" />
    <glyph glyph-name="seven.sup" unicode="&#x2077;" 
d="M139 1559v165h596v-139l-360 -694h-203l356 668h-389z" />
    <glyph glyph-name="eight.sup" unicode="&#x2078;" 
d="M430 1249q-66 1 -108 -31t-43 -85q1 -53 41 -86t109 -33t109 33t40 86t-41 85t-107 31zM430 1604q-57 0 -94 -30t-37 -79t37 -80t94 -31t93 31t36 80t-36 79t-93 30zM429 874q-142 0 -230 67t-88 181q0 141 133 205q-113 63 -113 189q0 98 83 164t216 67q133 0 215 -67
t82 -176t-113 -177q136 -72 136 -196q0 -125 -90 -191t-231 -66z" />
    <glyph glyph-name="nine.sup" unicode="&#x2079;" 
d="M428 1747q137 0 223 -86q109 -109 109 -326v-4q0 -213 -94 -335t-258 -122t-279 89l86 143q88 -70 170 -70t129 52t55 139q-75 -49 -183 -49t-190 70t-81 201q0 130 88 214t225 84zM289 1456q-1 -61 37 -99t105 -38t106 37t38 102v2q0 57 -43 96t-103 38t-100 -39
t-40 -99z" />
    <glyph glyph-name="zero.inf" unicode="&#x2080;" 
d="M428 401q-70 1 -115 -65t-45 -193v-16q0 -125 45 -193t116 -68t117 68q46 66 46 193v16q0 125 -47 191t-117 67zM428 -301q-150 0 -248 118t-98 312v10q0 195 99 314t247 119t250 -118q100 -118 100 -313v-10q0 -197 -100 -315t-250 -117z" />
    <glyph glyph-name="one.inf" unicode="&#x2081;" horiz-adv-x="700" 
d="M492 -281h-179v652l-161 -60l-52 148l258 102h134v-842z" />
    <glyph glyph-name="two.inf" unicode="&#x2082;" 
d="M117 -281v154l284 233q80 66 112 107t32 89t-33 75t-82 26q-94 0 -184 -114l-129 104q69 90 141 134t192 44q120 1 202 -69q81 -70 81 -170t-39 -160q-39 -61 -137 -139l-197 -156h377v-158h-620z" />
    <glyph glyph-name="three.inf" unicode="&#x2083;" 
d="M422 -301q-186 0 -330 129l105 133q111 -100 227 -100q53 -1 91 29t38 79t-43 77t-115 28h-98l-29 112l226 203h-347v160h574v-139l-240 -205q113 -11 184 -69t71 -172t-86 -190q-85 -76 -228 -75z" />
    <glyph glyph-name="four.inf" unicode="&#x2084;" 
d="M508 31v331l-264 -331h264zM670 -109v-176h-164v176h-402l-16 170l401 498h181v-526h112v-142h-112z" />
    <glyph glyph-name="five.inf" unicode="&#x2085;" 
d="M750 -14q0 -128 -90 -208q-90 -79 -252 -79t-314 121l105 137q117 -92 225 -92q63 0 104 32t41 85t-41 84q-40 30 -122 30t-144 -30l-112 69l32 414h527v-162h-377l-15 -158q49 19 159 19t192 -67t82 -195z" />
    <glyph glyph-name="six.inf" unicode="&#x2086;" 
d="M571 -16q0 60 -37 97q-38 36 -105 36t-105 -35t-39 -98v-2q0 -58 43 -96t103 -37t100 38t40 97zM432 -301q-139 0 -223 84q-109 109 -109 326v4q0 213 94 336t273 122q139 0 250 -82l-86 -145q-76 64 -158 64t-129 -54t-55 -143q81 49 189 49t188 -70t80 -200t-88 -210
q-87 -81 -226 -81z" />
    <glyph glyph-name="seven.inf" unicode="&#x2087;" 
d="M139 383v166h596v-139l-360 -695h-203l356 668h-389z" />
    <glyph glyph-name="eight.inf" unicode="&#x2088;" 
d="M430 74q-66 0 -108 -32t-43 -85q1 -53 41 -86t109 -33t109 33t40 86t-41 85t-107 32zM430 428q-57 0 -94 -30t-37 -78t37 -80q37 -31 94 -31t93 31t36 80q0 48 -36 78t-93 30zM429 -301q-142 0 -230 67t-88 181q0 141 133 205q-113 63 -113 188q0 98 83 165t216 67
t215 -68q82 -66 82 -176t-113 -176q136 -72 136 -196t-90 -190t-231 -67z" />
    <glyph glyph-name="nine.inf" unicode="&#x2089;" 
d="M428 571q137 0 223 -86q109 -109 109 -325v-4q0 -213 -94 -335t-258 -122t-279 88l86 143q88 -70 170 -70t129 53q47 52 55 138q-75 -49 -183 -49t-190 71t-81 201q0 130 88 213q88 84 225 84zM289 281q-1 -61 37 -99t105 -39q67 0 106 37t38 103v2q0 57 -43 96t-103 38
t-100 -39t-40 -99z" />
    <glyph glyph-name="colonmonetary" unicode="&#x20a1;" horiz-adv-x="1335" 
d="M96 754q0 292 153 486t398 239l25 182h143l-22 -170q72 0 149 -14l25 184h143l-29 -223q86 -33 168 -99l-110 -268q-66 53 -101 78l-112 -868q80 29 180 122l154 -204q-172 -158 -361 -191l-33 -260h-143l31 252q-78 4 -148 18l-35 -270h-143l41 320q-172 84 -272 257
t-101 410v19zM381 727q0 -250 131 -371l106 842q-111 -51 -174 -167t-63 -286v-18zM808 1233q-44 0 -54 -2l-121 -948q74 -25 160 -25l122 952q-63 23 -107 23z" />
    <glyph glyph-name="naira" unicode="&#x20a6;" horiz-adv-x="1802" 
d="M1737 426h-219v-426h-312l-262 426h-362v-426h-297v426h-217v190h217v267h-217v190h217v418h333l256 -418h347v418h297v-418h219v-190h-219v-267h219v-190zM1227 494v397h-252l242 -397h10zM575 1030v-422h267l-256 422h-11z" />
    <glyph glyph-name="rupee" unicode="&#x20a8;" horiz-adv-x="2375" 
d="M1866 -20q-260 0 -477 153l122 205q184 -127 361 -127q66 0 106 27t39 69v4q0 45 -42 73q-41 28 -203 80t-247 127t-85 208v6q0 162 116 255q118 93 314 93t383 -117l-109 -213q-164 98 -299 99q-63 0 -101 -26t-38 -65v-4q0 -43 44 -73t204 -84q160 -53 244 -128
t83 -206v-4q1 -168 -117 -260t-298 -92zM170 0v1491h551q248 0 390 -127t142 -358v-9q0 -319 -284 -440l323 -557h-338l-282 498h-209v-498h-293zM463 758h246q115 0 181 60t64 167v8q0 227 -252 228h-239v-463z" />
    <glyph glyph-name="won" unicode="&#x20a9;" horiz-adv-x="2400" 
d="M2324 1053v-199h-251l-58 -217h309v-201h-362l-115 -440h-356l-117 440h-348l-117 -440h-356l-117 440h-360v201h309l-57 217h-252v199h198l-114 438h338l94 -438h319l117 442h352l113 -442h324l94 438h330l-115 -438h198zM733 348h12l125 514h-245zM1663 348h12l109 514
h-250zM1192 1124l-125 -497h264l-123 497h-16z" />
    <glyph glyph-name="sheqel" unicode="&#x20aa;" horiz-adv-x="1357" 
d="M836 252h159v887h232v-1139h-393q-150 0 -231 72t-101 225l-58 393h156l43 -276q23 -162 193 -162zM731 723q0 164 -166 164h-203v-887h-231v1139h483q129 0 201 -72t72 -201v-415h-156v272z" />
    <glyph glyph-name="Euro" unicode="&#x20ac;" horiz-adv-x="1550" 
d="M924 1237q-197 0 -283 -203h408v-209h-455q-2 -27 -2 -77v-3q0 -49 2 -71h455v-209h-410q88 -213 299 -211q90 0 154 42t141 138l225 -164q-100 -143 -224 -219t-296 -76q-238 1 -400 133t-229 357h-194v209h159q-2 23 -2 69v2q0 53 2 80h-159v209h198q70 219 231 351
t388 131q184 0 306 -71t216 -202l-237 -180q-66 88 -134 131t-159 43z" />
    <glyph glyph-name="peso" unicode="&#x20b1;" horiz-adv-x="1634" 
d="M791 676q113 0 185 54t95 147h-481v-201h201zM590 1223v-187h479q-23 90 -96 139q-74 48 -187 48h-196zM285 0v866h-219v181h219v444h536q233 0 383 -123t180 -321h205v-181h-205q-30 -213 -196 -334t-400 -120h-190v-412h-313z" />
    <glyph glyph-name="published" unicode="&#x2117;" horiz-adv-x="1783" 
d="M788 756h144q68 0 108 35t39 90v4q0 61 -41 94t-110 33h-140v-256zM610 350v817h334q145 0 231 -76q85 -77 85 -204v-4q0 -135 -94 -209t-238 -74h-140v-250h-178zM209 741q-1 -287 195 -485t486 -199q290 0 488 202t197 486v5q0 288 -196 486q-195 198 -485 198
t-488 -202t-197 -487v-4zM1663 745q0 -317 -225 -543t-548 -227q-323 1 -546 225t-223 541v4q0 317 226 543t548 228q322 0 545 -224t223 -542v-5z" />
    <glyph glyph-name="servicemark" unicode="&#x2120;" horiz-adv-x="1513" 
d="M369 823q-172 0 -301 107l77 96q115 -90 233 -90t118 74q0 33 -31 52t-137 44q-106 26 -165 66q-61 40 -61 129t67 145t181 57q162 0 262 -88l-73 -100q-98 70 -193 69q-51 0 -79 -19q-27 -19 -27 -51t32 -51t134 -42t163 -68t61 -133t-70 -142q-72 -54 -191 -55z
M770 836v655h154l176 -285l178 285h149v-655h-137v446l-186 -293h-12l-185 293v-446h-137z" />
    <glyph glyph-name="trademark" unicode="&#x2122;" horiz-adv-x="1486" 
d="M741 836v655h154l176 -285l178 285h150v-655h-137v446l-187 -293h-12l-184 293v-446h-138zM260 836v526h-197v129h539v-129h-196v-526h-146z" />
    <glyph glyph-name="Omega" unicode="&#x2126;" horiz-adv-x="1869" 
d="M1704 829v-2q0 -330 -311 -559h346v-268h-660v264q91 62 151 126t102 166t42 230v2q0 197 -119 319t-321 121t-321 -120q-118 -119 -117 -311v-2q0 -178 76 -303t216 -228v-264h-657v268h344q-145 111 -227 244t-82 317v2q0 287 210 487t561 199t559 -195t208 -493z" />
    <glyph glyph-name="onethird" unicode="&#x2153;" horiz-adv-x="1775" 
d="M1352 -20q-186 0 -330 129l104 133q111 -100 228 -101q53 0 91 30t38 79t-43 77t-115 27h-98l-29 113l225 203h-346v159h574v-139l-240 -205q113 -10 183 -68t71 -172q0 -113 -85 -189t-228 -76zM225 0l541 780l471 711h172l-541 -780l-471 -711h-172zM496 662h-179v651
l-161 -62l-52 150l258 100h134v-839z" />
    <glyph glyph-name="twothirds" unicode="&#x2154;" horiz-adv-x="1935" 
d="M1511 -20q-186 0 -329 129l104 133q111 -100 227 -101q53 0 92 30q37 30 37 79t-43 77t-114 27h-99l-28 113l225 203h-346v159h573v-139l-239 -205q113 -10 183 -68t71 -172q0 -114 -85 -190q-86 -75 -229 -75zM375 0l540 780l471 711h173l-541 -780l-471 -711h-172z
M100 662v153l285 234q80 67 112 107t31 87q0 47 -32 75q-33 28 -82 28q-94 0 -185 -115l-129 104q66 90 140 133t194 43q120 1 202 -69q81 -70 81 -168t-39 -160t-137 -141l-197 -156h377v-155h-621z" />
    <glyph glyph-name="onefifth" unicode="&#x2155;" horiz-adv-x="1775" 
d="M1406 528q110 0 191 -66q82 -66 82 -196q1 -130 -89 -208t-252 -78t-314 120l104 138q117 -92 226 -93q63 0 104 32t41 85t-41 84q-40 31 -122 31t-144 -31l-113 70l33 413h526v-161h-376l-15 -158q49 18 159 18zM236 0l540 780l471 711h172l-540 -780l-471 -711h-172z
M496 662h-179v651l-161 -62l-52 150l258 100h134v-839z" />
    <glyph glyph-name="twofifths" unicode="&#x2156;" horiz-adv-x="1935" 
d="M1566 528q110 0 191 -66q82 -66 82 -196t-90 -208t-252 -78t-313 120l104 138q117 -92 225 -93q63 0 105 32q41 32 41 85t-41 84t-123 31t-143 -31l-113 70l33 413h526v-161h-377l-14 -158q49 18 159 18zM395 0l541 780l471 711h172l-541 -780l-471 -711h-172zM100 662
v153l285 234q80 67 112 107t31 87q0 47 -32 75q-33 28 -82 28q-94 0 -185 -115l-129 104q66 90 140 133t194 43q120 1 202 -69q81 -70 81 -168t-39 -160t-137 -141l-197 -156h377v-155h-621z" />
    <glyph glyph-name="threefifths" unicode="&#x2157;" horiz-adv-x="1935" 
d="M1566 528q110 0 191 -66q82 -66 82 -196t-90 -208t-252 -78t-313 120l104 138q117 -92 225 -93q63 0 105 32q41 32 41 85t-41 84t-123 31t-143 -31l-113 70l33 413h526v-161h-377l-14 -158q49 18 159 18zM406 639q-184 0 -330 131l104 133q111 -100 228 -100q53 0 91 30
q38 31 38 79t-43 76t-115 28h-98l-29 112l225 201h-346v162h574v-139l-240 -207q113 -9 183 -67t71 -173q0 -115 -85 -191t-228 -75zM365 0l540 780l471 711h172l-540 -780l-471 -711h-172z" />
    <glyph glyph-name="fourfifths" unicode="&#x2158;" horiz-adv-x="1935" 
d="M1566 528q110 0 191 -66q82 -66 82 -196t-90 -208t-252 -78t-313 120l104 138q117 -92 225 -93q63 0 105 32q41 32 41 85t-41 84t-123 31t-143 -31l-113 70l33 413h526v-161h-377l-14 -158q49 18 159 18zM492 973v330l-265 -330h265zM395 0l541 780l471 711h172
l-541 -780l-471 -711h-172zM653 831v-174h-164v174h-401l-16 173l401 495h180v-524h113v-144h-113z" />
    <glyph glyph-name="onesixth" unicode="&#x2159;" horiz-adv-x="1775" 
d="M1501 265q0 60 -38 96q-39 36 -105 36t-105 -35t-39 -98v-2q0 -57 44 -95t103 -37q60 1 100 38t40 97zM1408 541q108 0 188 -70t79 -200q0 -131 -87 -211t-226 -80t-223 83q-109 109 -109 326v4q0 213 94 336t273 123q139 0 250 -82l-86 -145q-76 63 -158 63t-129 -53
t-55 -143q81 49 189 49zM248 0l540 780l472 711h172l-541 -780l-471 -711h-172zM496 662h-179v651l-161 -62l-52 150l258 100h134v-839z" />
    <glyph glyph-name="fivesixths" unicode="&#x215a;" horiz-adv-x="1935" 
d="M1661 265q0 60 -38 96q-39 36 -105 36t-105 -35t-39 -98v-2q0 -57 44 -95t103 -37q60 1 100 38t40 97zM1835 271q0 -131 -87 -211t-226 -80t-224 83q-109 109 -108 326v4q0 213 94 336t272 123q139 0 250 -82l-86 -145q-76 63 -158 63t-128 -53t-56 -143q80 49 188 49
t189 -70q80 -70 80 -200zM391 639q-162 0 -313 121l104 137q119 -90 226 -90q63 0 104 32t41 85t-41 84q-41 30 -123 30t-143 -30l-113 67l33 416h526v-164h-377l-14 -156q59 18 139 19q129 0 211 -67t82 -195t-90 -209q-90 -80 -252 -80zM375 0l540 780l471 711h173
l-541 -780l-471 -711h-172z" />
    <glyph glyph-name="oneeighth" unicode="&#x215b;" horiz-adv-x="1775" 
d="M1360 354q-66 0 -109 -32t-43 -84q0 -53 41 -86t110 -33t109 33t39 86q-1 52 -41 84t-106 32zM1360 709q-57 0 -94 -30t-37 -79t37 -80t94 -31t93 31t36 80t-36 79t-93 30zM1359 -20q-142 0 -231 66q-88 67 -88 181q0 141 134 205q-113 63 -113 189q0 99 83 165t216 66
t215 -67t82 -176t-113 -177q135 -72 135 -196t-89 -190t-231 -66zM238 0l540 780l471 711h172l-540 -780l-471 -711h-172zM496 662h-179v651l-161 -62l-52 150l258 100h134v-839z" />
    <glyph glyph-name="threeeighths" unicode="&#x215c;" horiz-adv-x="1935" 
d="M1520 354q-66 0 -109 -32t-43 -84q0 -53 41 -86t110 -33t109 33t39 86q-1 52 -41 84t-106 32zM1520 709q-56 0 -94 -30t-38 -79t38 -80q36 -31 94 -31t93 31q36 31 36 80t-36 79t-93 30zM1519 -20q-142 0 -231 66q-88 67 -88 181q0 141 133 205q-113 63 -112 189
q0 99 83 165t216 66t215 -67t82 -176t-113 -177q135 -72 135 -196t-89 -190t-231 -66zM406 639q-184 0 -330 131l104 133q111 -100 228 -100q53 0 91 30q38 31 38 79t-43 76t-115 28h-98l-29 112l225 201h-346v162h574v-139l-240 -207q113 -9 183 -67t71 -173
q0 -115 -85 -191t-228 -75zM375 0l540 780l471 711h173l-541 -780l-471 -711h-172z" />
    <glyph glyph-name="fiveeighths" unicode="&#x215d;" horiz-adv-x="1935" 
d="M1520 354q-66 0 -109 -32t-43 -84q0 -53 41 -86t110 -33t109 33t39 86q-1 52 -41 84t-106 32zM1520 709q-56 0 -94 -30t-38 -79t38 -80q36 -31 94 -31t93 31q36 31 36 80t-36 79t-93 30zM1519 -20q-142 0 -231 66q-88 67 -88 181q0 141 133 205q-113 63 -112 189
q0 99 83 165t216 66t215 -67t82 -176t-113 -177q135 -72 135 -196t-89 -190t-231 -66zM391 639q-162 0 -313 121l104 137q119 -90 226 -90q63 0 104 32t41 85t-41 84q-41 30 -123 30t-143 -30l-113 67l33 416h526v-164h-377l-14 -156q59 18 139 19q129 0 211 -67t82 -195
t-90 -209q-90 -80 -252 -80zM375 0l540 780l471 711h173l-541 -780l-471 -711h-172z" />
    <glyph glyph-name="seveneighths" unicode="&#x215e;" horiz-adv-x="1935" 
d="M1520 354q-66 0 -109 -32t-43 -84q0 -53 41 -86t110 -33t109 33t39 86q-1 52 -41 84t-106 32zM1520 709q-56 0 -94 -30t-38 -79t38 -80q36 -31 94 -31t93 31q36 31 36 80t-36 79t-93 30zM1519 -20q-142 0 -231 66q-88 67 -88 181q0 141 133 205q-113 63 -112 189
q0 99 83 165t216 66t215 -67t82 -176t-113 -177q135 -72 135 -196t-89 -190t-231 -66zM143 1323v168h596v-139l-360 -695h-203l356 666h-389zM311 0l541 780l471 711h172l-541 -780l-471 -711h-172z" />
    <glyph glyph-name="Delta" unicode="&#x2206;" horiz-adv-x="1691" 
d="M842 1155l-381 -876h762zM127 0l-25 227l580 1274h328l579 -1274l-24 -227h-1438z" />
    <glyph glyph-name="minus" unicode="&#x2212;" horiz-adv-x="1376" 
d="M1225 606h-1071v287h1071v-287z" />
    <glyph glyph-name="f_f" unicode="&#xfb00;" horiz-adv-x="1638" 
d="M213 1202q0 367 350 367q129 0 228 -31v-258q-80 27 -150 27q-123 0 -123 -131v-50h270v-254h-266v-872h-309v872h-137v256h137v74zM1024 1202q0 367 350 367q129 0 228 -31v-258q-80 27 -150 27q-123 0 -123 -131v-50h270v-254h-266v-872h-309v872h-137v256h137v74z" />
    <glyph glyph-name="fi" unicode="&#xfb01;" horiz-adv-x="1464" 
d="M983 0v1139h309v-1139h-309zM213 1202q0 367 350 367q129 0 228 -31v-258q-80 27 -150 27q-123 0 -123 -131v-50h270v-254h-266v-872h-309v872h-137v256h137v74zM973 1274v278h327v-278h-327z" />
    <glyph glyph-name="fl" unicode="&#xfb02;" horiz-adv-x="1464" 
d="M213 1202q0 367 350 367q129 0 228 -31v-258q-80 27 -150 27q-123 0 -123 -131v-50h270v-254h-266v-872h-309v872h-137v256h137v74zM983 0v1554h309v-1554h-309z" />
    <glyph glyph-name="f_f_i" unicode="&#xfb03;" horiz-adv-x="2275" 
d="M1794 0v1139h309v-1139h-309zM213 1202q0 367 350 367q129 0 228 -31v-258q-80 27 -150 27q-123 0 -123 -131v-50h270v-254h-266v-872h-309v872h-137v256h137v74zM1024 1202q0 367 350 367q129 0 228 -31v-258q-80 27 -150 27q-123 0 -123 -131v-50h270v-254h-266v-872
h-309v872h-137v256h137v74zM1784 1274v278h327v-278h-327z" />
    <glyph glyph-name="f_f_l" unicode="&#xfb04;" horiz-adv-x="2275" 
d="M213 1202q0 367 350 367q129 0 228 -31v-258q-80 27 -150 27q-123 0 -123 -131v-50h270v-254h-266v-872h-309v872h-137v256h137v74zM1024 1202q0 367 350 367q129 0 228 -31v-258q-80 27 -150 27q-123 0 -123 -131v-50h270v-254h-266v-872h-309v872h-137v256h137v74z
M1794 0v1554h309v-1554h-309z" />
    <glyph glyph-name="Q.alt" horiz-adv-x="1826" 
d="M915 264q199 0 329 138t130 339v4q0 201 -132 341t-331 140t-329 -137q-130 -138 -129 -339v-5q-1 -201 131 -341t331 -140zM911 -25q-340 1 -564 223t-224 543v4q0 322 226 546q226 225 566 225q341 0 565 -222t224 -544v-5q0 -164 -65 -310t-181 -253l387 -387v-10
h-471l-229 223q-119 -33 -234 -33z" />
    <glyph glyph-name="a.alt" horiz-adv-x="1452" 
d="M629 -23q-217 0 -371 159t-154 431v4q0 272 153 430t369 158t359 -174v154h311v-1139h-311v168q-139 -191 -356 -191zM702 244q119 0 203 90t84 233v4q0 143 -84 233t-204 91q-121 0 -203 -89t-82 -235v-4q0 -143 84 -233t202 -90z" />
    <glyph glyph-name="uni0439.bgr" horiz-adv-x="1341" 
d="M546 -23q-190 0 -295 114q-103 114 -104 312v736h310v-637q0 -117 53 -179q54 -63 152 -63t155 62t57 180v637h312v-1139h-312v164q-138 -187 -328 -187zM666 1264q-168 0 -274 88q-105 88 -120 243h209q45 -129 185 -129t184 129h209q-13 -155 -119 -243t-274 -88z" />
    <glyph glyph-name="aacute.alt" horiz-adv-x="1452" 
d="M629 -23q-217 0 -371 159t-154 431v4q0 272 153 430t369 158t359 -174v154h311v-1139h-311v168q-139 -191 -356 -191zM702 244q119 0 203 90t84 233v4q0 143 -84 233t-204 91q-121 0 -203 -89t-82 -235v-4q0 -143 84 -233t202 -90zM618 1268l234 370l270 -116l-274 -254
h-230z" />
    <glyph glyph-name="abreve.alt" horiz-adv-x="1452" 
d="M629 -23q-217 0 -371 159t-154 431v4q0 272 153 430t369 158t359 -174v154h311v-1139h-311v168q-139 -191 -356 -191zM702 244q119 0 203 90t84 233v4q0 143 -84 233t-204 91q-121 0 -203 -89t-82 -235v-4q0 -143 84 -233t202 -90zM741 1264q-168 0 -273 88t-120 243h209
q45 -129 184 -129t185 129h209q-14 -155 -120 -243t-274 -88z" />
    <glyph glyph-name="acircumflex.alt" horiz-adv-x="1452" 
d="M629 -23q-217 0 -371 159t-154 431v4q0 272 153 430t369 158t359 -174v154h311v-1139h-311v168q-139 -191 -356 -191zM702 244q119 0 203 90t84 233v4q0 143 -84 233t-204 91q-121 0 -203 -89t-82 -235v-4q0 -143 84 -233t202 -90zM336 1268l258 329h295l258 -329h-240
l-168 141l-168 -141h-235z" />
    <glyph glyph-name="adieresis.alt" horiz-adv-x="1452" 
d="M629 -23q-217 0 -371 159t-154 431v4q0 272 153 430t369 158t359 -174v154h311v-1139h-311v168q-139 -191 -356 -191zM702 244q119 0 203 90t84 233v4q0 143 -84 233t-204 91q-121 0 -203 -89t-82 -235v-4q0 -143 84 -233t202 -90zM809 1268v280h301v-280h-301zM373 1268
v280h301v-280h-301z" />
    <glyph glyph-name="agrave.alt" horiz-adv-x="1452" 
d="M629 -23q-217 0 -371 159t-154 431v4q0 272 153 430t369 158t359 -174v154h311v-1139h-311v168q-139 -191 -356 -191zM702 244q119 0 203 90t84 233v4q0 143 -84 233t-204 91q-121 0 -203 -89t-82 -235v-4q0 -143 84 -233t202 -90zM635 1268l-275 254l271 116l233 -370
h-229z" />
    <glyph glyph-name="amacron.alt" horiz-adv-x="1452" 
d="M629 -23q-217 0 -371 159t-154 431v4q0 272 153 430t369 158t359 -174v154h311v-1139h-311v168q-139 -191 -356 -191zM702 244q119 0 203 90t84 233v4q0 143 -84 233t-204 91q-121 0 -203 -89t-82 -235v-4q0 -143 84 -233t202 -90zM362 1280v217h758v-217h-758z" />
    <glyph glyph-name="aogonek.alt" horiz-adv-x="1452" 
d="M702 244q119 0 203 90t84 233v4q0 143 -84 233t-204 91q-121 0 -203 -89t-82 -235v-4q0 -143 84 -233t202 -90zM1229 -354q-133 0 -209 51t-76 132t74 171h-33v168q-139 -190 -356 -190t-371 158q-154 159 -154 431v4q0 272 153 430t369 158t359 -174v154h311v-1139h-71
q-55 -63 -56 -123q0 -92 150 -88v-139q-33 -4 -90 -4z" />
    <glyph glyph-name="aring.alt" horiz-adv-x="1452" 
d="M629 -23q-217 0 -371 159t-154 431v4q0 272 153 430t369 158t359 -174v154h311v-1139h-311v168q-139 -191 -356 -191zM702 244q119 0 203 90t84 233v4q0 143 -84 233t-204 91q-121 0 -203 -89t-82 -235v-4q0 -143 84 -233t202 -90zM741 1368q57 0 100 42q42 42 42 100
t-42 100q-41 42 -99 41q-58 0 -100 -41q-42 -42 -42 -100t42 -100t99 -42zM741 1264q-106 0 -181 72t-75 173q0 102 75 175t181 73q105 0 181 -73t76 -175t-75 -174q-76 -71 -182 -71z" />
    <glyph glyph-name="aring.alt2" horiz-adv-x="1275" 
d="M1130 0h-301v127q-133 -150 -348 -150q-167 -1 -281 93t-114 258v4q0 180 125 271t336 91q145 0 284 -45v21q0 215 -251 215q-147 0 -318 -64l-78 238q137 61 262 80q-61 69 -61 163t75 167t181 73t181 -73t75 -172t-76 -171q311 -83 309 -462v-664zM387 340
q0 -68 51 -106q52 -38 152 -39q100 0 173 58t73 150v62q-100 43 -214 43t-174 -43t-61 -121v-4zM500 1294q0 -57 42 -99t100 -42t99 42t41 99q0 58 -41 100t-99 42t-100 -42t-42 -100z" />
    <glyph glyph-name="aringacute.alt" horiz-adv-x="1452" 
d="M629 -23q-217 0 -371 159t-154 431v4q0 272 153 430t369 158t359 -174v154h311v-1139h-311v168q-139 -191 -356 -191zM702 244q119 0 203 90t84 233v4q0 143 -84 233t-204 91q-121 0 -203 -89t-82 -235v-4q0 -143 84 -233t202 -90zM741 1368q57 0 100 42q42 42 42 100
t-42 100q-41 42 -99 41q-58 0 -100 -41q-42 -42 -42 -100t42 -100t99 -42zM741 1264q-106 0 -181 72t-75 173q0 102 75 175t181 73q105 0 181 -73t76 -175t-75 -174q-76 -71 -182 -71zM616 1829l250 309l267 -119l-287 -190h-230z" />
    <glyph glyph-name="aringacute.alt2" horiz-adv-x="1275" 
d="M1130 0h-301v127q-133 -150 -348 -150q-167 -1 -281 93t-114 258v4q0 180 125 271t336 91q145 0 284 -45v21q0 215 -251 215q-147 0 -318 -64l-78 238q137 61 262 80q-61 69 -61 163t75 167t181 73t181 -73t75 -172t-76 -171q311 -83 309 -462v-664zM387 340
q0 -68 51 -106q52 -38 152 -39q100 0 173 58t73 150v62q-100 43 -214 43t-174 -43t-61 -121v-4zM500 1294q0 -57 42 -99t100 -42t99 42t41 99q0 58 -41 100t-99 42t-100 -42t-42 -100zM516 1616l250 309l266 -119l-287 -190h-229z" />
    <glyph glyph-name="atilde.alt" horiz-adv-x="1452" 
d="M629 -23q-217 0 -371 159t-154 431v4q0 272 153 430t369 158t359 -174v154h311v-1139h-311v168q-139 -191 -356 -191zM702 244q119 0 203 90t84 233v4q0 143 -84 233t-204 91q-121 0 -203 -89t-82 -235v-4q0 -143 84 -233t202 -90zM935 1268q-91 0 -202 47
q-92 35 -132 35q-39 0 -65 -25t-49 -80l-168 51q41 145 99 217t150 72t202 -47q98 -37 135 -37t63 25t48 82l168 -52q-42 -144 -100 -216t-149 -72z" />
    <glyph glyph-name="i.dot" horiz-adv-x="653" 
d="M172 0v1139h309v-1139h-309zM162 1274v278h327v-278h-327z" />
    <glyph glyph-name="three.alt" horiz-adv-x="1323" 
d="M676 -25q-356 0 -588 254l211 205q164 -178 381 -178q109 0 169 49t60 135v4q0 86 -76 131q-77 45 -215 46h-163v262h172q115 0 178 50t63 130v4q0 76 -59 122t-157 46t-169 -44q-72 -44 -149 -132l-217 182q109 137 231 206t301 69q238 0 383 -112t146 -288v-4
q0 -238 -201 -346q242 -102 242 -326v-4q-1 -203 -145 -332t-398 -129z" />
    <glyph glyph-name="registered.alt" horiz-adv-x="1783" 
d="M575 358v818h365q164 0 252 -89q68 -68 68 -176v-4q0 -190 -181 -252l205 -297h-205l-180 269h-147v-269h-177zM752 778h184q70 0 108 33t37 86v4q0 57 -40 89t-107 32h-182v-244zM209 741q-1 -287 195 -485t486 -199q290 0 488 202t197 486v5q0 288 -196 486
q-195 198 -485 198t-488 -202t-197 -487v-4zM1663 745q0 -317 -225 -543t-548 -227q-323 1 -546 225t-223 541v4q0 317 226 543t548 228q322 0 545 -224t223 -542v-5z" />
    <glyph glyph-name="one.sup_alt" 
d="M758 895h-606v156h225v495l-193 -71l-51 147l289 115h133v-686h203v-156z" />
    <glyph glyph-name="one.inf_alt" 
d="M758 -281h-606v156h225v496l-193 -72l-51 147l289 115h133v-686h203v-156z" />
    <glyph glyph-name="zero.num" 
d="M428 1343q-70 -1 -115 -67t-45 -193v-16q0 -125 45 -191t116 -67t117 65t46 193v16q0 125 -47 193t-117 67zM428 639q-150 0 -248 118t-98 312v10q0 197 99 315t249 118t249 -118t99 -313v-10q0 -195 -100 -313t-250 -119z" />
    <glyph glyph-name="one.num" horiz-adv-x="700" 
d="M492 662h-179v651l-161 -62l-52 150l258 100h134v-839z" />
    <glyph glyph-name="one.num_alt" 
d="M758 662h-606v155h225v496l-193 -74l-51 150l289 112h133v-684h203v-155z" />
    <glyph glyph-name="two.num" 
d="M117 662v153l284 234q80 67 112 107t32 87t-33 75t-82 28q-94 0 -184 -115l-129 104q65 90 139 133t194 43q120 1 202 -69q81 -70 81 -168t-39 -160t-137 -141l-197 -156h377v-155h-620z" />
    <glyph glyph-name="three.num" 
d="M422 639q-184 0 -330 131l105 133q111 -100 227 -100q53 0 91 30q38 31 38 79t-43 76t-115 28h-98l-29 112l226 201h-347v162h574v-139l-240 -207q113 -9 184 -67t71 -173t-86 -191q-85 -76 -228 -75z" />
    <glyph glyph-name="four.num" 
d="M508 973v330l-264 -330h264zM670 831v-174h-164v174h-402l-16 173l401 495h181v-524h112v-144h-112z" />
    <glyph glyph-name="five.num" 
d="M750 928q0 -128 -90 -209q-90 -80 -252 -80t-314 121l105 137q119 -90 225 -90q63 0 104 32t41 85t-41 84q-40 30 -122 30t-144 -30l-112 67l32 416h527v-164h-377l-15 -156q59 18 140 19q129 0 211 -67t82 -195z" />
    <glyph glyph-name="six.num" 
d="M285 922q0 -55 43 -93t103 -37q60 2 100 38t40 96t-37 97q-38 36 -105 36t-105 -35t-39 -100v-2zM432 639q-137 0 -223 86q-109 109 -109 326v4q0 213 94 335t273 121q143 0 250 -81l-86 -144q-80 64 -160 64t-127 -54t-55 -145q77 49 187 49t190 -70t80 -198t-89 -211
q-88 -82 -225 -82z" />
    <glyph glyph-name="seven.num" 
d="M139 1323v168h596v-139l-360 -695h-203l356 666h-389z" />
    <glyph glyph-name="eight.num" 
d="M429 1014q-67 0 -109 -31t-41 -84t41 -86t109 -33t109 32t40 86t-41 85t-108 31zM430 1370q-57 0 -94 -31t-37 -79t37 -78q37 -31 94 -31t93 30t36 79q0 50 -36 80t-93 30zM429 639q-142 0 -230 68t-88 182q0 141 133 205q-113 62 -113 174t82 178t216 66t216 -66
t82 -178t-113 -174q136 -72 136 -196t-90 -192t-231 -67z" />
    <glyph glyph-name="nine.num" 
d="M429 1511q138 0 222 -84q109 -109 109 -325v-4q0 -213 -94 -336t-273 -123q-145 0 -264 88l86 145q84 -70 169 -70t131 52q46 51 54 137q-79 -49 -185 -49t-188 71t-81 201q0 130 88 213q88 84 226 84zM289 1222q-1 -62 37 -100t105 -37q67 0 106 36t38 102v2
q0 57 -43 97t-103 39t-100 -39t-40 -100z" />
    <glyph glyph-name="zero.den" 
d="M428 682q-70 0 -115 -66t-45 -192v-16q0 -125 45 -193t116 -68t117 67t46 194v16q0 126 -47 192t-117 66zM428 -20q-150 0 -248 118t-98 312v10q0 196 99 314t247 118t250 -118q100 -118 100 -312v-10q0 -196 -100 -314t-250 -118z" />
    <glyph glyph-name="one.den" horiz-adv-x="700" 
d="M492 0h-179v651l-161 -59l-52 147l258 103h134v-842z" />
    <glyph glyph-name="one.den_alt" 
d="M758 0h-606v156h225v495l-193 -71l-51 147l289 115h133v-686h203v-156z" />
    <glyph glyph-name="two.den" 
d="M117 0v154l284 233q80 66 112 107t32 89q0 49 -33 75t-82 26q-94 0 -184 -115l-129 105q69 90 141 134t192 44t202 -70q81 -70 81 -169t-39 -160t-137 -140l-197 -155h377v-158h-620z" />
    <glyph glyph-name="three.den" 
d="M422 -20q-186 0 -330 129l105 133q111 -100 227 -101q53 0 91 30t38 79t-43 77t-115 27h-98l-29 113l226 203h-347v159h574v-139l-240 -205q113 -10 184 -68t71 -172q0 -113 -86 -189q-85 -76 -228 -76z" />
    <glyph glyph-name="four.den" 
d="M508 311v332l-264 -332h264zM670 172v-176h-164v176h-402l-16 170l401 498h181v-527h112v-141h-112z" />
    <glyph glyph-name="five.den" 
d="M476 528q110 0 192 -66t82 -196t-90 -208t-252 -78t-314 120l105 138q117 -92 225 -93q63 0 104 32t41 85t-41 84q-40 31 -122 31t-144 -31l-112 70l32 413h527v-161h-377l-15 -158q49 18 159 18z" />
    <glyph glyph-name="six.den" 
d="M571 265q0 60 -37 96q-38 36 -105 36t-105 -35t-39 -98v-2q0 -57 43 -95t103 -37t100 38t40 97zM432 -20q-139 0 -223 83q-109 109 -109 326v4q0 213 94 336t273 123q139 0 250 -82l-86 -145q-76 63 -158 63t-129 -53t-55 -143q81 49 189 49t188 -70t80 -200
q0 -131 -88 -211q-87 -80 -226 -80z" />
    <glyph glyph-name="seven.den" 
d="M139 664v165h596v-139l-360 -694h-203l356 668h-389z" />
    <glyph glyph-name="eight.den" 
d="M430 354q-66 0 -108 -32t-43 -84q1 -53 41 -86t109 -33t109 33t40 86q0 52 -41 84t-107 32zM430 709q-57 0 -94 -30t-37 -79t37 -80t94 -31t93 31t36 80t-36 79t-93 30zM429 -20q-142 0 -230 66t-88 181q0 141 133 205q-113 63 -113 189q0 99 83 165t216 66t215 -67
t82 -176t-113 -177q136 -72 136 -196t-90 -190t-231 -66z" />
    <glyph glyph-name="nine.den" 
d="M428 852q137 0 223 -86q109 -109 109 -326v-4q0 -213 -94 -335q-94 -121 -258 -121t-279 88l86 143q88 -70 170 -70q82 1 129 53t55 138q-75 -49 -183 -49q-108 1 -190 71t-81 200q0 130 88 214t225 84zM289 561q-1 -61 37 -99t105 -38t106 37t38 102v2q0 57 -43 97
t-103 38t-100 -40t-40 -99z" />
    <glyph glyph-name="onehalf.alt" horiz-adv-x="1935" 
d="M1206 0v154l285 233q80 66 112 107q31 41 31 89q0 49 -32 75t-82 26q-94 0 -185 -115l-129 105q68 90 141 134t193 44t202 -70q81 -70 81 -169t-39 -160t-137 -140l-197 -155h377v-158h-621zM418 0l540 780l472 711h172l-541 -780l-471 -711h-172zM752 662h-607v155h226
v496l-193 -74l-51 150l289 112h133v-684h203v-155z" />
    <glyph glyph-name="onethird.alt" horiz-adv-x="1935" 
d="M1511 -20q-186 0 -329 129l104 133q111 -100 227 -101q53 0 92 30q37 30 37 79t-43 77t-114 27h-99l-28 113l225 203h-346v159h573v-139l-239 -205q113 -10 183 -68t71 -172q0 -114 -85 -190q-86 -75 -229 -75zM395 0l541 780l471 711h172l-541 -780l-471 -711h-172z
M752 662h-607v155h226v496l-193 -74l-51 150l289 112h133v-684h203v-155z" />
    <glyph glyph-name="onequarter.alt" horiz-adv-x="1935" 
d="M1577 311v332l-264 -332h264zM1739 172v-176h-164v176h-401l-17 170l402 498h180v-527h112v-141h-112zM428 0l541 780l471 711h172l-541 -780l-471 -711h-172zM752 662h-607v155h226v496l-193 -74l-51 150l289 112h133v-684h203v-155z" />
    <glyph glyph-name="onefifth.alt" horiz-adv-x="1935" 
d="M1566 528q110 0 191 -66q82 -66 82 -196t-90 -208t-252 -78t-313 120l104 138q117 -92 225 -93q63 0 105 32q41 32 41 85t-41 84t-123 31t-143 -31l-113 70l33 413h526v-161h-377l-14 -158q49 18 159 18zM408 0l540 780l471 711h172l-540 -780l-471 -711h-172zM752 662
h-607v155h226v496l-193 -74l-51 150l289 112h133v-684h203v-155z" />
    <glyph glyph-name="onesixth.alt" horiz-adv-x="1935" 
d="M1661 265q0 60 -38 96q-39 36 -105 36t-105 -35t-39 -98v-2q0 -57 44 -95t103 -37q60 1 100 38t40 97zM1835 271q0 -131 -87 -211t-226 -80t-224 83q-109 109 -108 326v4q0 213 94 336t272 123q139 0 250 -82l-86 -145q-76 63 -158 63t-128 -53t-56 -143q80 49 188 49
t189 -70q80 -70 80 -200zM408 0l540 780l471 711h172l-540 -780l-471 -711h-172zM752 662h-607v155h226v496l-193 -74l-51 150l289 112h133v-684h203v-155z" />
    <glyph glyph-name="oneeighth.alt" horiz-adv-x="1935" 
d="M1520 354q-66 0 -109 -32t-43 -84q0 -53 41 -86t110 -33t109 33t39 86q-1 52 -41 84t-106 32zM1520 709q-56 0 -94 -30t-38 -79t38 -80q36 -31 94 -31t93 31q36 31 36 80t-36 79t-93 30zM1519 -20q-142 0 -231 66q-88 67 -88 181q0 141 133 205q-113 63 -112 189
q0 99 83 165t216 66t215 -67t82 -176t-113 -177q135 -72 135 -196t-89 -190t-231 -66zM408 0l540 780l471 711h172l-540 -780l-471 -711h-172zM752 662h-607v155h226v496l-193 -74l-51 150l289 112h133v-684h203v-155z" />
    <glyph glyph-name="zero.tab" horiz-adv-x="1290" 
d="M643 1249q-117 0 -183 -122t-65 -365v-31q0 -241 67 -365q68 -124 184 -124t182 123t67 364v31q1 242 -67 366t-185 123zM1196 731q0 -346 -152 -551t-402 -205q-251 0 -399 203t-149 549v33q0 348 150 552t400 204t402 -203q151 -203 150 -549v-33z" />
    <glyph glyph-name="one.tab" horiz-adv-x="1290" 
d="M1202 0h-1040v254h391v928l-344 -127l-74 256l506 190h211v-1247h350v-254z" />
    <glyph glyph-name="two.tab" horiz-adv-x="1290" 
d="M1167 0h-1061v246l484 426q141 126 195 202q55 76 55 165t-58 141t-150 53q-91 0 -162 -48t-157 -157l-207 184q113 156 236 228t307 71q231 0 369 -122q137 -123 137 -326v-4q1 -147 -65 -251t-209 -230l-351 -308h637v-270z" />
    <glyph glyph-name="three.tab" horiz-adv-x="1290" 
d="M631 -25q-330 0 -559 226l192 225q182 -172 371 -172q98 0 164 53t65 142v4q0 94 -77 143t-220 49h-141l-55 193l391 385h-610v268h995v-242l-402 -383q187 -20 307 -115t119 -284v-6q0 -213 -148 -349t-392 -137z" />
    <glyph glyph-name="three.tab_alt" horiz-adv-x="1290" 
d="M643 -25q-336 0 -559 244l201 203q162 -172 370 -172q106 0 168 52q61 52 62 142q0 90 -76 136t-215 47h-156v254h176q115 0 180 51q64 51 64 132t-60 129t-160 48t-175 -43q-74 -43 -154 -131l-200 184q207 264 534 265q242 0 382 -111t140 -303q0 -221 -217 -334
q117 -49 179 -129t63 -219q0 -201 -150 -323t-397 -122z" />
    <glyph glyph-name="four.tab" horiz-adv-x="1290" 
d="M774 553v621l-446 -621h446zM770 0v313h-664l-51 287l650 899h350v-942h182v-244h-182v-313h-285z" />
    <glyph glyph-name="five.tab" horiz-adv-x="1290" 
d="M616 -25q-297 0 -540 205l172 232q205 -164 375 -164q117 0 187 57t71 162v6q0 99 -72 155t-203 56t-262 -55l-182 119l49 743h905v-274h-651l-21 -297q98 29 213 28q227 0 377 -117t150 -348v-4q0 -227 -158 -365t-410 -139z" />
    <glyph glyph-name="six.tab" horiz-adv-x="1290" 
d="M889 475v2q0 106 -66 173q-65 67 -175 66t-174 -67t-64 -174v-2q0 -104 68 -173t172 -68q105 1 172 69t67 174zM730 965q188 0 323 -123t135 -344v-9q0 -225 -151 -369t-379 -144t-373 139q-88 88 -132 221t-44 360v9q-1 379 153 595t455 216q244 0 413 -144l-137 -242
q-150 109 -282 109q-81 0 -139 -36q-141 -87 -156 -337h2q124 99 312 99z" />
    <glyph glyph-name="seven.tab" horiz-adv-x="1290" 
d="M139 1212v279h1047v-242l-637 -1249h-348l635 1212h-697z" />
    <glyph glyph-name="eight.tab" horiz-adv-x="1290" 
d="M397 432q-1 -90 65 -146t182 -57q116 1 182 57t65 146v4q0 92 -69 146q-68 54 -178 53q-110 0 -178 -53t-69 -146v-4zM645 877q94 0 154 53q59 53 59 141v4q0 80 -59 133q-59 54 -155 54t-154 -52q-60 -52 -60 -133v-6q0 -84 60 -139t155 -55zM1188 416q0 -200 -152 -318
t-390 -118t-392 118t-154 310v6q0 254 234 360q-195 119 -195 328v4q1 174 143 290t362 116t363 -116q142 -116 142 -290v-4q0 -209 -195 -328q117 -59 175 -142t59 -212v-4z" />
    <glyph glyph-name="nine.tab" horiz-adv-x="1290" 
d="M562 512q-188 0 -324 126t-136 349v8q0 229 151 375t380 146t373 -140q88 -88 132 -221t44 -360v-9q0 -379 -154 -595t-455 -216q-254 0 -436 152l139 244q164 -119 304 -119q100 0 168 61t92 135t32 162h-2q-120 -98 -308 -98zM401 1010v-2q0 -111 66 -179
q65 -69 175 -67t174 70t65 178v2q0 109 -68 178t-173 68q-105 0 -172 -70t-67 -178z" />
    <glyph glyph-name="dollar.tab" horiz-adv-x="1290" 
d="M1186 434q0 -200 -139 -318t-367 -120v-2l-33 -246h-203l33 268q-209 43 -397 179l129 223q152 -115 307 -160l47 383q-215 63 -314 161t-99 257v2q0 199 141 317t364 117h2l21 166h205l-25 -188q162 -35 303 -127l-114 -228q-125 78 -230 111l-43 -369q209 -62 310 -164
t102 -260v-2zM915 416q0 115 -174 176l-43 -356h2q102 4 160 49q57 45 55 129v2zM420 1081q0 -57 39 -99t137 -75l43 350h-2q-103 0 -161 -48t-56 -126v-2z" />
    <glyph glyph-name="sterling.tab" horiz-adv-x="1290" 
d="M274 834v172q0 242 134 374t358 131q272 0 430 -208l-205 -201q-100 125 -219 125q-80 0 -134 -54t-54 -169v-170h454v-254h-454v-314h608v-266h-1071v199l153 53v328h-151v254h151z" />
    <glyph glyph-name="Euro.tab" horiz-adv-x="1290" 
d="M795 -25q-209 1 -357 133t-200 365h-168v199h145v78q0 51 2 77h-147v201h172q59 225 210 356t363 132q256 0 418 -191l-174 -207q-117 131 -248 131q-193 0 -264 -221h354v-201h-387q-2 -25 -2 -73v-13q0 -47 2 -69h387v-199h-360q35 -113 105 -172t154 -59q85 0 143 34
t122 103l178 -189q-184 -215 -448 -215z" />
    <glyph glyph-name="yen.tab" horiz-adv-x="1290" 
d="M168 401h332v160h-332v201h283l-431 729h334l295 -551l295 551h326l-432 -729h284v-201h-329v-160h329v-202h-329v-199h-293v199h-332v202z" />
    <glyph glyph-name="cent.tab" horiz-adv-x="1290" 
d="M133 748q0 250 166 416t420 167h12l35 172h213l-41 -203q131 -43 233 -159l-165 -185q-66 70 -125 97l-123 -625h2q129 14 250 131l161 -164q-182 -207 -448 -213h-2l-39 -194h-215l45 225q-170 57 -274 199t-105 331v5zM410 739q0 -205 159 -282l125 628h-2
q-123 -8 -204 -100t-78 -242v-4z" />
    <glyph glyph-name="numbersign.tab" horiz-adv-x="1290" 
d="M68 580h184l51 340h-172v249h209l47 322h236l-48 -322h261l49 322h235l-47 -322h150v-249h-187l-51 -340h174v-250h-211l-47 -330h-235l47 330h-260l-50 -330h-235l47 330h-147v250zM532 928l-51 -357h275l51 357h-275z" />
    <glyph glyph-name="paragraph.tab" horiz-adv-x="1290" 
d="M776 0v496h-59q-279 0 -450 128t-171 367v2q0 229 162 365t426 133h406v-1491h-314z" />
    <glyph glyph-name="section.tab" horiz-adv-x="1290" 
d="M636 205q142 0 142 84v2q0 37 -47 65t-241 84t-290 122q-95 66 -96 183v3q0 94 60 155t164 88q-100 86 -101 213v2q0 127 114 217t296 88q283 0 465 -172l-150 -184q-156 131 -298 131t-142 -84v-2q0 -38 47 -66t242 -84t290 -122t95 -183v-2q0 -94 -60 -155t-163 -88
q100 -86 100 -213v-2q0 -127 -114 -217t-296 -88q-283 0 -465 172l150 184q156 -131 298 -131zM479 885q-51 0 -82 -25t-30 -67v-2q0 -43 43 -71q42 -28 196 -70t205 -44q51 0 82 25t31 67v2q0 43 -43 71t-152 56q-199 58 -250 58z" />
    <glyph glyph-name="degree.tab" horiz-adv-x="1290" 
d="M907 1077q0 109 -74 187q-75 78 -190 76t-187 -78t-73 -187v-2q1 -111 75 -189t189 -76q115 1 188 78t72 189v2zM199 1075v2q0 176 134 306t314 129t312 -130t133 -307v-2q0 -178 -134 -308t-315 -129q-180 1 -312 130t-132 309z" />
    <glyph glyph-name="percent.tab" horiz-adv-x="1290" 
d="M1059 399q0 211 -85 211t-85 -211v-37q0 -211 86 -210q84 0 84 210v37zM719 391q1 175 71 279t184 104t184 -103t71 -280v-20q0 -175 -71 -279q-70 -104 -184 -104t-184 103t-71 280v20zM401 1128q0 211 -85 211t-85 -211v-36q0 -211 85 -211t85 211v36zM934 1491h160
l-404 -772l-334 -719h-159l403 772zM61 1120q1 176 71 280t184 103q114 0 185 -103t70 -280v-20q0 -176 -70 -280q-71 -103 -185 -103t-184 103t-71 280v20z" />
    <glyph glyph-name="quotedbl.tab" horiz-adv-x="1290" 
d="M1151 1491v-10l-272 -662h-158l84 672h346zM631 1491v-10l-271 -662h-157l84 672h344z" />
    <glyph glyph-name="quotesingle.tab" horiz-adv-x="645" 
d="M571 1491v-10l-270 -662h-164l86 672h348z" />
    <glyph glyph-name="period.tab" horiz-adv-x="645" 
d="M152 0v340h344v-340h-344z" />
    <glyph glyph-name="comma.tab" horiz-adv-x="645" 
d="M152 0v340h344v-289q0 -199 -98 -292t-289 -97l-27 129q219 25 203 209h-133z" />
    <glyph glyph-name="colon.tab" horiz-adv-x="645" 
d="M156 0v332h336v-332h-336zM156 805v334h336v-334h-336z" />
    <glyph glyph-name="semicolon.tab" horiz-adv-x="645" 
d="M156 0v332h336v-281q0 -199 -96 -292t-287 -97l-27 129q219 25 203 209h-129zM156 805v334h336v-334h-336z" />
    <glyph glyph-name="twodotleader.tab" horiz-adv-x="1290" 
d="M801 0v324h327v-324h-327zM162 0v324h327v-324h-327z" />
    <glyph glyph-name="periodcentered.tab" horiz-adv-x="645" 
d="M152 487v342h344v-342h-344z" />
    <glyph glyph-name="slash.tab" horiz-adv-x="1290" 
d="M1278 1700l-1032 -1972h-264l1032 1972h264z" />
    <glyph glyph-name="bar.tab" horiz-adv-x="645" 
d="M201 -272v1972h245v-1972h-245z" />
    <glyph glyph-name="underscore.tab" horiz-adv-x="1290" 
d="M2 -340v238h1286v-238h-1286z" />
    <glyph glyph-name="plus.tab" horiz-adv-x="1290" 
d="M1159 614l-377 2l2 -380h-278l2 380l-377 -2v271l377 -2l-2 381h278l-2 -381l377 2v-271z" />
    <glyph glyph-name="minus.tab" horiz-adv-x="1290" 
d="M1159 606h-1028v287h1028v-287z" />
    <glyph glyph-name="divide.tab" horiz-adv-x="1290" 
d="M483 145v299h324v-299h-324zM1159 618h-1028v263h1028v-263zM483 1055v299h324v-299h-324z" />
    <glyph glyph-name="equal.tab" horiz-adv-x="1290" 
d="M1124 346h-958v272h958v-272zM1124 881h-958v272h958v-272z" />
    <glyph glyph-name="multiply.tab" horiz-adv-x="1290" 
d="M956 244l-313 321l-313 -321l-191 190l322 314l-322 313l195 194l313 -321l314 321l190 -190l-322 -313l322 -314z" />
    <glyph glyph-name="less.tab" horiz-adv-x="1290" 
d="M1110 156l-969 452v283l969 452v-290l-682 -301l682 -301v-295z" />
    <glyph glyph-name="greater.tab" horiz-adv-x="1290" 
d="M1149 608l-969 -452v290l682 302l-682 301v294l969 -452v-283z" />
    <glyph glyph-name="plusminus.tab" horiz-adv-x="1290" 
d="M1159 0h-1028v258h1028v-258zM1159 805l-377 2l2 -371h-278l2 371l-377 -2v270l377 -2l-2 371h278l-2 -371l377 2v-270z" />
    <glyph glyph-name="R_p" horiz-adv-x="2590" 
d="M1466 -340v1479h291v-162q127 184 313 184q186 1 312 -149q127 -150 127 -426v-33q0 -274 -126 -424q-126 -149 -311 -149t-315 172v-492h-291zM170 0v1491h551q248 0 390 -127t142 -358v-9q0 -319 -284 -440l323 -557h-338l-282 498h-209v-498h-293zM1753 557
q0 -145 68 -235t167 -89q98 1 164 89t66 235v25q0 147 -67 236t-165 89t-165 -90q-68 -90 -68 -235v-25zM463 758h246q115 0 181 60t64 167v8q0 227 -252 228h-239v-463z" />
    <glyph glyph-name="space.tab" horiz-adv-x="645" 
 />
    <glyph glyph-name="NUL" horiz-adv-x="0" 
 />
    <glyph glyph-name="caron.alt" horiz-adv-x="1081" 
d="M682 1696v-6l-125 -430h-123l23 436h225z" />
    <glyph glyph-name="acute.cap" horiz-adv-x="1081" 
d="M317 1610l254 329l271 -118l-287 -211h-238z" />
    <glyph glyph-name="hungarumlaut.cap" horiz-adv-x="1081" 
d="M90 1610l254 329l260 -118l-287 -211h-227zM487 1610l254 329l260 -118l-284 -211h-230z" />
    <glyph glyph-name="grave.cap" horiz-adv-x="1081" 
d="M760 1610h-238l-286 211l270 118z" />
    <glyph glyph-name="circumflex.cap" horiz-adv-x="1081" 
d="M125 1610l268 307h295l268 -307h-249l-168 119l-168 -119h-246z" />
    <glyph glyph-name="caron.cap" horiz-adv-x="1081" 
d="M956 1917l-268 -307h-295l-268 307h250l168 -119l168 119h245z" />
    <glyph glyph-name="breve.cap" horiz-adv-x="1081" 
d="M541 1606q-168 0 -276 82t-122 229h213q40 -107 184 -107t185 107h213q-14 -147 -122 -229t-275 -82z" />
    <glyph glyph-name="tilde.cap" horiz-adv-x="1081" 
d="M730 1610q-92 0 -198 41t-147 41t-67 -24t-50 -81l-168 53q40 143 100 215t151 72t201 -42t146 -42q69 0 115 105l166 -52q-39 -143 -98 -215q-60 -71 -151 -71z" />
    <glyph glyph-name="macron.cap" horiz-adv-x="1081" 
d="M141 1622v221h799v-221h-799z" />
    <glyph glyph-name="dieresis.cap" horiz-adv-x="1081" 
d="M618 1610v264h304v-264h-304zM160 1610v264h303v-264h-303z" />
    <glyph glyph-name="dotaccent.cap" horiz-adv-x="1081" 
d="M385 1610v264h311v-264h-311z" />
    <glyph glyph-name="ring.cap" horiz-adv-x="1081" 
d="M541 1718q59 0 97 34t38 85t-38 86t-97 35t-97 -35t-38 -86t38 -85t97 -34zM541 1606q-109 0 -186 66t-76 165q0 100 76 167q77 67 186 67t185 -67t77 -167q-1 -99 -77 -165t-185 -66z" />
    <glyph glyph-name="commaaccent.rot" horiz-adv-x="1081" 
d="M684 1507v-239h-287v200q-1 145 73 213t224 72l17 -94q-168 -20 -160 -152h133z" />
    <glyph glyph-name="acute.altlc" horiz-adv-x="1081" 
d="M324 1829l249 309l267 -119l-287 -190h-229z" />
    <glyph glyph-name="acute.altuc" horiz-adv-x="1081" 
d="M315 1874l267 289l268 -119l-297 -170h-238z" />
    <glyph glyph-name="caron.alt.cap" horiz-adv-x="1081" 
d="M682 1696v-6l-125 -430h-123l23 436h225z" />
    <glyph glyph-name="cedilla.cap" horiz-adv-x="1081" 
d="M526 -365l-262 109l205 297h223z" />
    <glyph glyph-name="commaaccent.cap" horiz-adv-x="1081" 
d="M397 -367v240h287v-203q0 -146 -74 -212t-223 -70l-16 94q82 8 123 47t36 104h-133z" />
    <glyph glyph-name="hcoslug" horiz-adv-x="1421" 
d="M1194 12q0 14 -14 15q-14 -1 -14 -15t14 -14t14 14zM879 12q-20 0 -21 21q0 10 8 18q9 -8 29 -33q-10 -6 -16 -6zM254 14v-14h59v14h-16v37h45v-37h-16v-14h59v14h-16v84h16v15h-59v-15h16v-32h-45v32h16v15h-59v-15h16v-84h-16zM565 14v-14h47v14h-10v52h29v-52h-10v-14
h47v14h-13v107l-20 -4q-8 4 -19 4q-39 0 -38 -39v-2h-15v-14h15v-52h-13zM754 14v-14h53v14h-16v33q8 18 14 19v-3q0 -12 13 -12q13 -1 13 15t-16 16t-24 -23v21h-37v-14h12v-52h-12zM506 47q0 25 14 25t15 -25h-29zM430 72q16 0 16 -32t-16 -32t-16 32t16 32zM1135 40
q-1 -32 -17 -32t-16 32t16 32t17 -32zM696 47q0 25 14 25t15 -25h-29zM506 37h53q4 45 -39 45q-16 0 -28 -12t-13 -31q0 -41 43 -41q31 0 37 29h-14q-2 -14 -19 -15q-20 0 -20 25zM430 82q-43 0 -43 -42t43 -42q18 0 31 12q12 12 12 31q0 41 -43 41zM1118 82q-43 0 -43 -42
t43 -42q18 0 31 12q12 12 12 31q0 41 -43 41zM696 37h54q4 45 -39 45q-17 0 -29 -12t-12 -31q0 -41 43 -41q29 0 37 29h-15q-2 -14 -18 -15q-21 0 -21 25zM882 98q12 0 11 -12q0 -12 -10 -18q-12 12 -13 20q0 10 12 10zM961 55q0 -57 59 -57q45 0 49 47h-16q-4 -33 -29 -33
q-33 0 -33 45t29 45q20 0 31 -32h16v45h-16l-2 -13q-14 14 -35 14t-37 -16q-16 -18 -16 -45zM950 68h-37v-15h13q-4 -10 -13 -18q-4 4 -11 12t-13 14q23 10 22 25q1 25 -31 25t-32 -29q0 -12 12 -25q-27 -8 -26 -30q0 -29 36 -29q18 0 31 12q10 -12 25 -12q20 0 26 25l-10 2
q-2 -11 -8 -11t-12 11q12 16 18 28h10v15zM602 80v6q0 25 12 25l7 -2q-3 -3 -3 -11t13 -8v-10h-29zM805 138q-1 -16 23 -17q24 0 36 33l27 63h10v14h-35v-14h11l-17 -41l-18 41h12v14h-51v-14h10q25 -47 33 -67q-5 -17 -17 -17q6 4 4 12q-3 8 -14 9q-14 0 -14 -16zM721 256
v-106h12l8 16q10 -16 29 -16q33 0 33 42t-31 41q-20 0 -27 -18v55h-36v-14h12zM618 180v-28h15l2 8q14 -10 27 -10q29 0 28 26q0 18 -24 25q-25 6 -25 13t10 7t21 -14h14v26h-12l-4 -10q-6 10 -23 10q-29 0 -29 -24q0 -17 25 -25t25 -15t-12 -7t-23 18h-15zM256 166v-14h61
v14h-20v33h8q10 0 12 -17h15v47h-15q-2 -16 -12 -16h-8v37h25q18 0 22 -27h16v41h-104v-14h14v-84h-14zM776 190q0 -27 -14 -26q-16 0 -16 26t14 27q16 0 16 -27zM449 166v-14h45v14h-9v31q-1 20 13 20t14 -14v-37h-8v-14h45v14h-12v39q0 29 -25 28q-18 0 -29 -22v20h-34
v-14h12v-51h-12zM416 192q0 -32 -16 -32t-17 32q0 32 16 31q17 1 17 -31zM442 193q0 41 -43 41t-43 -42t43 -42q18 0 31 12q12 12 12 31zM561 231h-14v-14h14v-41q0 -27 25 -26q23 0 28 26l-10 4q-2 -14 -10 -14t-8 10v41h26v14h-26v23l-25 -4v-19zM1067 686q0 47 -30 77
t-72 30q-72 0 -123 -78q-6 80 -101 76q19 31 19 79t-52 96q-52 46 -146 46t-158 -52q-62 -52 -62 -126q0 -72 64 -138q-168 -57 -168 -186q0 -80 66 -135t157 -56q129 0 213 93q90 -92 166 -92t123 52t49 140l-15 4q-35 -59 -89 -59t-126 84q41 53 95 86q31 -51 81 -51
t80 31q30 32 29 79zM536 449q-46 -1 -77 31t-31 80t33 81q70 -66 151 -168q-30 -24 -76 -24zM639 700q61 41 86 70q59 -59 -2 -164q-68 78 -84 94zM506 879q0 25 15 41t41 16t42 -22q44 -60 -20 -158q-51 48 -65 73q-13 25 -13 50zM1319 1434v-1639h-1217v1639h1217z" />
    <glyph glyph-name="ogonek.cap" horiz-adv-x="1081" 
d="M672 -354q-133 0 -209 51t-76 134t94 192l207 -3q-76 -78 -76 -143q0 -92 150 -88v-139q-33 -4 -90 -4z" />
    </font>
</defs>
</svg>
