<?xml version="1.0" encoding="UTF-8"?>
<svg width="130px" height="29px" viewBox="0 0 130 29" version="1.1" xmlns="http://www.w3.org/2000/svg" xmlns:xlink="http://www.w3.org/1999/xlink">
    <!-- Generator: Sketch 3.6.1 (26313) - http://www.bohemiancoding.com/sketch -->
    <title>code-logo-footer</title>
    <desc>Created with Sketch.</desc>
    <defs></defs>
    <g id="Page-1" stroke="none" stroke-width="1" fill="none" fill-rule="evenodd">
        <g id="code-logo-footer" fill="#909090">
            <g id="Group">
                <path d="M13.4183333,28.3254154 C11.4983333,28.3254154 9.71777778,27.9757423 8.07333333,27.2752808 C6.42833333,26.5753769 5.00833333,25.6183769 3.81222222,24.4048385 C2.61555556,23.1924154 1.68166667,21.7597038 1.00944444,20.1078192 C0.335555556,18.4576077 0,16.6936269 0,14.81755 L0,14.7428192 C0,12.8678577 0.335555556,11.1100115 1.00944444,9.47151154 C1.68166667,7.83356923 2.61555556,6.39416538 3.81222222,5.15608846 C5.00833333,3.91856923 6.44111111,2.94205 8.11111111,2.22931923 C9.77888889,1.51658846 11.6244444,1.16022308 13.6427778,1.16022308 C14.8622222,1.16022308 15.9794444,1.26060769 16.9877778,1.46026154 C17.9972222,1.66103077 18.9127778,1.93597308 19.735,2.28564615 C20.5577778,2.63699231 21.3172222,3.06195385 22.015,3.56164615 C22.7127778,4.06245385 23.3611111,4.61233846 23.9583333,5.21241538 L20.2955556,9.45199231 C19.2738889,8.52678077 18.2333333,7.80178077 17.1738889,7.27643462 C16.1138889,6.75108846 14.9255556,6.48841538 13.605,6.48841538 C12.5077778,6.48841538 11.4938889,6.70145385 10.5583333,7.12641538 C9.62388889,7.55193462 8.82111111,8.13918462 8.14777778,8.88983846 C7.475,9.63993462 6.95166667,10.5093769 6.57777778,11.4976077 C6.20444444,12.4858385 6.01833333,13.5426654 6.01833333,14.6680885 L6.01833333,14.7428192 C6.01833333,15.8682423 6.20444444,16.9317615 6.57777778,17.9322615 C6.95166667,18.9333192 7.46833333,19.8083385 8.12944444,20.5584346 C8.78944444,21.3096462 9.58722222,21.9035885 10.5216667,22.3408192 C11.455,22.7791654 12.4833333,22.9977808 13.605,22.9977808 C15.1,22.9977808 16.3644444,22.7228385 17.3988889,22.1723962 C18.4322222,21.6225115 19.4605556,20.8724154 20.4827778,19.9209923 L24.1461111,23.6352231 C23.4727778,24.3613385 22.7755556,25.01105 22.0527778,25.5865885 C21.3305556,26.1626846 20.5394444,26.6562423 19.6788889,27.0683769 C18.82,27.4816269 17.8794444,27.7944923 16.8572222,28.0069731 C15.835,28.2194538 14.6894444,28.3254154 13.4183333,28.3254154" id="Fill-3"></path>
                <path d="M47.4355,27.9124442 C54.7993889,27.9124442 55.3232778,22.0589058 55.3232778,14.2545596 C55.3232778,7.23711731 54.9488333,1.08298269 47.4355,1.08298269 C40.4455,1.08298269 39.5110556,6.71121346 39.5110556,14.5919635 C39.5110556,25.0241558 41.8293889,27.9124442 47.4355,27.9124442 M47.4355,0.557636538 C54.3510556,0.557636538 61.4160556,5.92375192 61.4160556,14.4798673 C61.4160556,21.9836173 54.8743889,28.4383481 47.4355,28.4383481 C40.0716111,28.4383481 33.4177222,22.3215788 33.4177222,14.5919635 C33.4177222,6.11113654 41.0060556,0.557636538 47.4355,0.557636538" id="Fill-5"></path>
                <path d="M83.5741667,22.6603769 C84.7463889,22.6603769 85.8175,22.4724346 86.7886111,22.09655 C87.7602778,21.7217808 88.5891667,21.1847231 89.2747222,20.4837038 C89.9597222,19.7838 90.4947222,18.9584154 90.8830556,18.00755 C91.2680556,17.0572423 91.4608333,15.9942808 91.4608333,14.81755 L91.4608333,14.7428192 C91.4608333,13.5928577 91.2680556,12.5287808 90.8830556,11.5533769 C90.4947222,10.5774154 89.9597222,9.74031923 89.2747222,9.03985769 C88.5891667,8.33939615 87.7602778,7.79564615 86.7886111,7.40693462 C85.8175,7.01989615 84.7463889,6.82581923 83.5741667,6.82581923 L79.1263889,6.82581923 L79.1263889,22.6603769 L83.5741667,22.6603769 Z M73.3702778,1.61028077 L83.5741667,1.61028077 C85.6175,1.61028077 87.4925,1.94155 89.1991667,2.60464615 C90.9063889,3.2683 92.3763889,4.18681923 93.6102778,5.36243462 C94.8430556,6.53805 95.7975,7.92056923 96.4702778,9.50831923 C97.1419444,11.0977423 97.4786111,12.81655 97.4786111,14.6680885 L97.4786111,14.7428192 C97.4786111,16.5949154 97.1419444,18.3204154 96.4702778,19.9209923 C95.7975,21.5215692 94.8430556,22.9102231 93.6102778,24.0852808 C92.3763889,25.2614538 90.9063889,26.1877808 89.1991667,26.8631462 C87.4925,27.5379538 85.6175,27.8753577 83.5741667,27.8753577 L73.3702778,27.8753577 L73.3702778,1.61028077 L73.3702778,1.61028077 Z" id="Fill-7"></path>
                <path d="M105.583444,1.15799231 L127.936778,1.15799231 L127.936778,7.5748 L127.451222,7.5748 C126.927889,5.92347308 125.320111,1.68278077 120.386222,1.68278077 L114.442889,1.68278077 L114.442889,13.2783192 L116.535667,13.2783192 C120.199,13.2783192 121.470111,11.0642808 122.179556,7.68745385 L122.665667,7.68745385 L122.665667,19.3571654 L122.179556,19.3571654 C121.508444,16.4309538 120.386222,13.8042231 116.946778,13.8042231 L114.442889,13.8042231 L114.442889,27.3505692 L120.573444,27.3505692 C125.171222,27.3505692 127.974556,24.0099923 128.983444,19.6577615 L129.469,19.6577615 L129.469,27.8753577 L105.583444,27.8753577 L105.583444,27.3505692 L109.022333,27.3505692 L109.022333,1.68278077 L105.583444,1.68278077 L105.583444,1.15799231" id="Fill-9"></path>
            </g>
        </g>
    </g>
</svg>