<?xml version="1.0" encoding="UTF-8"?>
<svg width="158px" height="306px" viewBox="0 0 158 306" version="1.1" xmlns="http://www.w3.org/2000/svg" xmlns:xlink="http://www.w3.org/1999/xlink">
    <!-- Generator: Sketch 3.6.1 (26313) - http://www.bohemiancoding.com/sketch -->
    <title>code-spritesheet</title>
    <desc>Created with Sketch.</desc>
    <defs></defs>
    <g id="Page-1" stroke="none" stroke-width="1" fill="none" fill-rule="evenodd">
        <g id="code-spritesheet">
            <rect id="Rectangle-6" fill="#FFFFFF" x="57" y="189" width="1" height="1"></rect>
            <rect id="Rectangle-6-Copy" fill="#FFFFFF" x="57" y="188" width="1" height="1"></rect>
            <rect id="Rectangle-6-Copy-2" fill="#FFFFFF" x="56" y="188" width="1" height="1"></rect>
            <rect id="Rectangle-6-Copy-3" fill="#FFFFFF" x="56" y="187" width="1" height="1"></rect>
            <rect id="Rectangle-6-Copy-4" fill="#FFFFFF" x="56" y="190" width="1" height="1"></rect>
            <rect id="Rectangle-6-Copy-5" fill="#FFFFFF" x="57" y="190" width="1" height="1"></rect>
            <rect id="Rectangle-6-Copy-6" fill="#FFFFFF" x="56" y="191" width="1" height="1"></rect>
            <rect id="Rectangle-6-Copy-7" fill="#FFFFFF" x="58" y="189" width="1" height="1"></rect>
            <path d="M76.091,8 L49.405,34.3630402 L48,35.7509823 L76.091,63.5 L77.495,62.1130402 L50.809,35.75 L77.495,9.38794202 L76.091,8 Z" id="Page-1" fill="#FF6E48"></path>
            <path d="M101.404573,8 L100,9.3864452 L126.691848,35.7504906 L100,62.1125736 L101.404573,63.5 L129.5,35.7504906 L128.095427,34.362083 L101.404573,8 Z" id="Page-1" fill="#FF6E48"></path>
            <rect id="Rectangle-2" fill="#FFFFFF" x="57" y="211" width="6" height="6"></rect>
            <rect id="Rectangle-2-Copy-2" fill="#FFFFFF" x="57" y="222" width="6" height="6"></rect>
            <rect id="Rectangle-2-Copy" fill="#FFFFFF" x="68" y="211" width="6" height="6"></rect>
            <rect id="Rectangle-2-Copy-3" fill="#FFFFFF" x="68" y="222" width="6" height="6"></rect>
            <path d="M125.32652,237 L124,238.32652 L138.346866,252.673386 L124,267.020253 L125.32652,268.346773 L141.000844,252.673386 L125.32652,237 Z" id="Page-1" fill="#232323"></path>
            <path d="M112.999806,268.207286 L98,253.103643 L112.999806,238" id="Page-1" stroke="#232323" stroke-width="2"></path>
            <path d="M62.3807664,66 L61,67.4239167 L87.2394437,94.5005039 L61,121.575076 L62.3807664,123 L90,94.5005039 L88.6192336,93.0745717 L62.3807664,66 Z" id="Page-1-Copy" fill="#FF6E48" transform="translate(75.500000, 94.500000) rotate(-270.000000) translate(-75.500000, -94.500000) "></path>
            <path d="M57.5,245.5 L71.5,259.5" id="Line-Copy-2" stroke="#FFFFFF" stroke-linecap="square"></path>
            <path d="M10.5,245.5 L24.5,259.5" id="Line-Copy-4" stroke="#FF6E49" stroke-linecap="square"></path>
            <path d="M9.5,211.5 L23.5,225.5" id="Line-Copy-6" stroke="#FFFFFF" stroke-linecap="square"></path>
            <path d="M57.5,259.5 L71.5,245.5" id="Line-Copy-2" stroke="#FFFFFF" stroke-linecap="square"></path>
            <path d="M10.5,259.5 L24.5,245.5" id="Line-Copy-5" stroke="#FF6E49" stroke-linecap="square"></path>
            <path d="M9,226 L23,212" id="Line-Copy-7" stroke="#FFFFFF" stroke-linecap="square"></path>
            <path d="M127.5,293.5 L141.5,279.5" id="Line-Copy-3" stroke="#000000" stroke-width="1.05" stroke-linecap="square"></path>
            <path d="M141.5,293.5 L127.5,279.5" id="Line-Copy-3" stroke="#000000" stroke-width="1.05" stroke-linecap="square"></path>
            <g id="Page-1" transform="translate(125.000000, 127.000000)" fill="#231F1F">
                <path d="M7.59419048,1.90385714 C6.13609524,1.90385714 4.67847619,2.45861905 3.56847619,3.56861905 C1.34942857,5.78814286 1.34942857,9.40004762 3.56847619,11.6195714 C4.64419048,12.6952857 6.07371429,13.2871905 7.59419048,13.2871905 C9.11466667,13.2871905 10.5441905,12.6952857 11.6199048,11.6195714 C13.8389524,9.40004762 13.8389524,5.78814286 11.6199048,3.56861905 C10.5099048,2.45861905 9.05228571,1.90385714 7.59419048,1.90385714 M7.59419048,15.1881429 C5.64847619,15.1881429 3.7027619,14.4476667 2.22180952,12.9662381 C-0.740571429,10.0043333 -0.740571429,5.18433333 2.22180952,2.22147619 C5.18371429,-0.740428571 10.0046667,-0.740428571 12.9665714,2.22147619 C15.9289524,5.18433333 15.9289524,10.0043333 12.9665714,12.9662381 C11.485619,14.4476667 9.53990476,15.1881429 7.59419048,15.1881429" id="Fill-1"></path>
                <path d="M18.2331429,19.5798571 L11.6198095,12.9665238 L12.9664762,11.6198571 L19.5798095,18.2331905 L18.2331429,19.5798571 Z" id="Fill-3"></path>
            </g>
            <g id="Page-1-Copy-3" transform="translate(97.000000, 138.000000) scale(-1, 1) translate(-97.000000, -138.000000) translate(87.000000, 128.000000)" fill="#FFFFFF">
                <path d="M7.59419048,1.90385714 C6.13609524,1.90385714 4.67847619,2.45861905 3.56847619,3.56861905 C1.34942857,5.78814286 1.34942857,9.40004762 3.56847619,11.6195714 C4.64419048,12.6952857 6.07371429,13.2871905 7.59419048,13.2871905 C9.11466667,13.2871905 10.5441905,12.6952857 11.6199048,11.6195714 C13.8389524,9.40004762 13.8389524,5.78814286 11.6199048,3.56861905 C10.5099048,2.45861905 9.05228571,1.90385714 7.59419048,1.90385714 M7.59419048,15.1881429 C5.64847619,15.1881429 3.7027619,14.4476667 2.22180952,12.9662381 C-0.740571429,10.0043333 -0.740571429,5.18433333 2.22180952,2.22147619 C5.18371429,-0.740428571 10.0046667,-0.740428571 12.9665714,2.22147619 C15.9289524,5.18433333 15.9289524,10.0043333 12.9665714,12.9662381 C11.485619,14.4476667 9.53990476,15.1881429 7.59419048,15.1881429" id="Fill-1"></path>
                <path d="M18.2331429,19.5798571 L11.6198095,12.9665238 L12.9664762,11.6198571 L19.5798095,18.2331905 L18.2331429,19.5798571 Z" id="Fill-3"></path>
            </g>
            <g id="Page-1-Copy-2" transform="translate(125.000000, 167.000000)" fill="#FE6E49">
                <path d="M7.59419048,1.90385714 C6.13609524,1.90385714 4.67847619,2.45861905 3.56847619,3.56861905 C1.34942857,5.78814286 1.34942857,9.40004762 3.56847619,11.6195714 C4.64419048,12.6952857 6.07371429,13.2871905 7.59419048,13.2871905 C9.11466667,13.2871905 10.5441905,12.6952857 11.6199048,11.6195714 C13.8389524,9.40004762 13.8389524,5.78814286 11.6199048,3.56861905 C10.5099048,2.45861905 9.05228571,1.90385714 7.59419048,1.90385714 M7.59419048,15.1881429 C5.64847619,15.1881429 3.7027619,14.4476667 2.22180952,12.9662381 C-0.740571429,10.0043333 -0.740571429,5.18433333 2.22180952,2.22147619 C5.18371429,-0.740428571 10.0046667,-0.740428571 12.9665714,2.22147619 C15.9289524,5.18433333 15.9289524,10.0043333 12.9665714,12.9662381 C11.485619,14.4476667 9.53990476,15.1881429 7.59419048,15.1881429" id="Fill-1"></path>
                <path d="M18.2331429,19.5798571 L11.6198095,12.9665238 L12.9664762,11.6198571 L19.5798095,18.2331905 L18.2331429,19.5798571 Z" id="Fill-3"></path>
            </g>
            <path d="M18.57,111 L10.43,119.554 L10,120.004 L18.57,129.007 L18.999,128.556 L10.857,120.004 L18.999,111.45 L18.57,111 Z" id="Page-1" stroke="#FFFFFF" stroke-width="0.2" fill="#FFFFFF"></path>
            <path d="M18.57,39.993 L10.43,48.547 L10,48.997 L18.57,58 L18.999,57.549 L10.857,48.997 L18.999,40.443 L18.57,39.993 Z" id="Page-1-Copy-7" fill="#FFFFFF" transform="translate(14.499495, 48.996500) scale(-1, 1) translate(-14.499495, -48.996500) "></path>
            <path d="M24.0232909,5.493 L14.9778314,14.5187122 L14.5,14.9935276 L24.0232909,24.493 L24.5000111,24.0171295 L15.4523291,14.9935276 L24.5000111,5.96781535 L24.0232909,5.493 Z" id="Page-1-Copy-8" fill="#FFFFFF" transform="translate(19.500000, 14.993000) scale(-1, 1) rotate(-90.000000) translate(-19.500000, -14.993000) "></path>
            <path d="M24.0232909,177.5 L14.9778314,186.525712 L14.5,187.000528 L24.0232909,196.5 L24.5000111,196.02413 L15.4523291,187.000528 L24.5000111,177.974815 L24.0232909,177.5 Z" id="Page-1-Copy-9" fill="#FFFFFF" transform="translate(19.500000, 187.000000) scale(-1, 1) rotate(-270.000000) translate(-19.500000, -187.000000) "></path>
            <path d="M16.6662963,78 L10.3344816,84.1754873 L10,84.500361 L16.6662963,91 L17,90.6744044 L10.6666296,84.500361 L17,78.3248737 L16.6662963,78 Z" id="Page-1-Copy-5" stroke="#FFFFFF" stroke-width="0.4" fill="#FFFFFF"></path>
            <path d="M16.6662963,149.007 L10.3344816,155.182487 L10,155.507361 L16.6662963,162.007 L17,161.681404 L10.6666296,155.507361 L17,149.331874 L16.6662963,149.007 Z" id="Page-1-Copy-6" fill="#FFFFFF" transform="translate(13.500000, 155.507000) scale(-1, 1) translate(-13.500000, -155.507000) "></path>
            <path d="M42.57,111 L34.43,119.554 L34,120.004 L42.57,129.007 L42.999,128.556 L34.857,120.004 L42.999,111.45 L42.57,111 Z" id="Page-1-Copy-4" stroke="#FE6E49" stroke-width="0.2" fill="#FE6E49"></path>
            <path d="M16.7274364,281 L14.5,283.227436 L12.2725636,281 L11,282.272564 L13.2274364,284.5 L11,286.727436 L12.2725636,288 L14.5,285.772564 L16.7274364,288 L18,286.727436 L15.7725636,284.5 L18,282.272564 L16.7274364,281 Z" id="Page-1" fill="#FFFFFF"></path>
            <path d="M64.3264414,281 L61.4102685,283.787505 L58.6164126,281.124228 L57,282.665093 L61.3965507,287 L66.0000114,282.599709 L64.3264414,281 Z" id="Page-1" fill="#FB7048"></path>
            <g id="+" transform="translate(102.000000, 208.000000)" fill="#FFFFFF">
                <rect id="Rectangle-27" x="3" y="0" width="1" height="7"></rect>
                <rect id="Rectangle-27" transform="translate(3.500000, 3.500000) rotate(-90.000000) translate(-3.500000, -3.500000) " x="3" y="0" width="1" height="7"></rect>
            </g>
        </g>
    </g>
</svg>