<?xml version="1.0" encoding="UTF-8" standalone="no"?>
<svg width="117px" height="41px" viewBox="0 0 117 41" version="1.1" xmlns="http://www.w3.org/2000/svg" xmlns:xlink="http://www.w3.org/1999/xlink">
    <!-- Generator: Sketch 3.6.1 (26313) - http://www.bohemiancoding.com/sketch -->
    <title>code-logo</title>
    <desc>Created with Sketch.</desc>
    <defs>
        <path id="path-1" d="M21.522,24.05475 L21.522,0.10125 L0.0251,0.10125 L0.0251,24.05475 L21.522,24.05475 L21.522,24.05475 Z"></path>
        <path id="path-3" d="M0.17405,5 L4.68805,5 L4.68805,0.42605 L0.17405,0.42605 L0.17405,5 L0.17405,5 Z"></path>
        <path id="path-5" d="M0.18645,5 L4.699575,5 L4.699575,0.42605 L0.18645,0.42605 L0.18645,5 L0.18645,5 Z"></path>
        <path id="path-7" d="M0.0827,5 L4.596325,5 L4.596325,0.42605 L0.0827,0.42605 L0.0827,5 L0.0827,5 Z"></path>
    </defs>
    <g id="Page-1" stroke="none" stroke-width="1" fill="none" fill-rule="evenodd">
        <g id="code-logo">
            <path d="M0.5355,38.55595 L23.5935,38.55595 L23.5935,38.10495 L0.5355,38.10495 L0.5355,38.55595 Z" id="Fill-1" fill="#121313"></path>
            <path d="M92.334,38.55595 L116.3995,38.55595 L116.3995,38.10495 L92.334,38.10495 L92.334,38.55595 Z" id="Fill-2" fill="#121313"></path>
            <path d="M12.0765,25.3952 C10.3485,25.3952 8.746,25.0817 7.266,24.4537 C5.7855,23.8262 4.5075,22.9682 3.431,21.8802 C2.354,20.7932 1.5135,19.5087 0.9085,18.0277 C0.302,16.5482 0,14.9667 0,13.2847 L0,13.2177 C0,11.5367 0.302,9.9607 0.9085,8.4917 C1.5135,7.0232 2.354,5.7327 3.431,4.6227 C4.5075,3.5132 5.797,2.6377 7.3,1.9987 C8.801,1.3597 10.462,1.0402 12.2785,1.0402 C13.376,1.0402 14.3815,1.1302 15.289,1.3092 C16.1975,1.4892 17.0215,1.7357 17.7615,2.0492 C18.502,2.3642 19.1855,2.7452 19.8135,3.1932 C20.4415,3.6422 21.025,4.1352 21.5625,4.6732 L18.266,8.4742 C17.3465,7.6447 16.41,6.9947 15.4565,6.5237 C14.5025,6.0527 13.433,5.8172 12.2445,5.8172 C11.257,5.8172 10.3445,6.0082 9.5025,6.3892 C8.6615,6.7707 7.939,7.2972 7.333,7.9702 C6.7275,8.6427 6.2565,9.4222 5.92,10.3082 C5.584,11.1942 5.4165,12.1417 5.4165,13.1507 L5.4165,13.2177 C5.4165,14.2267 5.584,15.1802 5.92,16.0772 C6.2565,16.9747 6.7215,17.7592 7.3165,18.4317 C7.9105,19.1052 8.6285,19.6377 9.4695,20.0297 C10.3095,20.4227 11.235,20.6187 12.2445,20.6187 C13.59,20.6187 14.728,20.3722 15.659,19.8787 C16.589,19.3857 17.5145,18.7132 18.4345,17.8602 L21.7315,21.1902 C21.1255,21.8412 20.498,22.4237 19.8475,22.9397 C19.1975,23.4562 18.4855,23.8987 17.711,24.2682 C16.938,24.6387 16.0915,24.9192 15.1715,25.1097 C14.2515,25.3002 13.2205,25.3952 12.0765,25.3952" id="Fill-3" fill="#121313"></path>
            <path d="M42.69195,25.02495 C49.31945,25.02495 49.79095,19.77695 49.79095,12.77995 C49.79095,6.48845 49.45395,0.97095 42.69195,0.97095 C36.40095,0.97095 35.55995,6.01695 35.55995,13.08245 C35.55995,22.43545 37.64645,25.02495 42.69195,25.02495 M42.69195,0.49995 C48.91595,0.49995 55.27445,5.31095 55.27445,12.98195 C55.27445,19.70945 49.38695,25.49645 42.69195,25.49645 C36.06445,25.49645 30.07595,20.01245 30.07595,13.08245 C30.07595,5.47895 36.90545,0.49995 42.69195,0.49995" id="Fill-5" fill="#121313"></path>
            <path d="M75.21675,20.3162 C76.27175,20.3162 77.23575,20.1477 78.10975,19.8107 C78.98425,19.4747 79.73025,18.9932 80.34725,18.3647 C80.96375,17.7372 81.44525,16.9972 81.79475,16.1447 C82.14125,15.2927 82.31475,14.3397 82.31475,13.2847 L82.31475,13.2177 C82.31475,12.1867 82.14125,11.2327 81.79475,10.3582 C81.44525,9.4832 80.96375,8.7327 80.34725,8.1047 C79.73025,7.4767 78.98425,6.9892 78.10975,6.6407 C77.23575,6.2937 76.27175,6.1197 75.21675,6.1197 L71.21375,6.1197 L71.21375,20.3162 L75.21675,20.3162 Z M66.03325,1.4437 L75.21675,1.4437 C77.05575,1.4437 78.74325,1.7407 80.27925,2.3352 C81.81575,2.9302 83.13875,3.7537 84.24925,4.8077 C85.35875,5.8617 86.21775,7.1012 86.82325,8.5247 C87.42775,9.9497 87.73075,11.4907 87.73075,13.1507 L87.73075,13.2177 C87.73075,14.8782 87.42775,16.4252 86.82325,17.8602 C86.21775,19.2952 85.35875,20.5402 84.24925,21.5937 C83.13875,22.6482 81.81575,23.4787 80.27925,24.0842 C78.74325,24.6892 77.05575,24.9917 75.21675,24.9917 L66.03325,24.9917 L66.03325,1.4437 L66.03325,1.4437 Z" id="Fill-7" fill="#121313"></path>
            <g id="Group-11" transform="translate(95.000000, 0.936950)">
                <mask id="mask-2" fill="white">
                    <use xlink:href="#path-1"></use>
                </mask>
                <g id="Clip-10"></g>
                <path d="M0.0251,0.10125 L20.1431,0.10125 L20.1431,5.85425 L19.7061,5.85425 C19.2351,4.37375 17.7881,0.57175 13.3476,0.57175 L7.9986,0.57175 L7.9986,10.96775 L9.8821,10.96775 C13.1791,10.96775 14.3231,8.98275 14.9616,5.95525 L15.3991,5.95525 L15.3991,16.41775 L14.9616,16.41775 C14.3576,13.79425 13.3476,11.43925 10.2521,11.43925 L7.9986,11.43925 L7.9986,23.58425 L13.5161,23.58425 C17.6541,23.58425 20.1771,20.58925 21.0851,16.68725 L21.5221,16.68725 L21.5221,24.05475 L0.0251,24.05475 L0.0251,23.58425 L3.1201,23.58425 L3.1201,0.57175 L0.0251,0.57175 L0.0251,0.10125" id="Fill-9" fill="#121313" mask="url(#mask-2)"></path>
            </g>
            <path d="M30.49435,40.42425 C30.13985,40.42425 29.81685,40.36625 29.52385,40.25025 C29.23185,40.13475 28.95235,39.95625 28.68735,39.71625 L28.99635,39.35025 C29.22735,39.56125 29.46185,39.71725 29.69735,39.82125 C29.93385,39.92425 30.20535,39.97575 30.51285,39.97575 C30.81185,39.97575 31.05035,39.90475 31.22935,39.76375 C31.40835,39.62275 31.49785,39.44325 31.49785,39.22375 L31.49785,39.21075 C31.49785,39.11025 31.48085,39.01825 31.44785,38.93575 C31.41385,38.85425 31.35435,38.77925 31.26935,38.71125 C31.18585,38.64475 31.06885,38.58375 30.91835,38.52875 C30.76935,38.47425 30.57785,38.42175 30.34585,38.37075 C30.09235,38.31625 29.87185,38.25325 29.68385,38.18125 C29.49585,38.11025 29.34185,38.02375 29.21735,37.92225 C29.09635,37.82125 29.00485,37.70325 28.94635,37.56875 C28.88685,37.43425 28.85735,37.27575 28.85735,37.09475 L28.85735,37.08225 C28.85735,36.90975 28.89335,36.74975 28.96485,36.60225 C29.03685,36.45525 29.13785,36.32675 29.26785,36.21975 C29.39885,36.11225 29.55285,36.02825 29.72985,35.96725 C29.90635,35.90675 30.09985,35.87575 30.31035,35.87575 C30.63535,35.87575 30.91835,35.92125 31.16085,36.01175 C31.40285,36.10175 31.63785,36.23825 31.86485,36.41875 L31.57385,36.80475 C31.36835,36.63575 31.16085,36.51325 30.95185,36.43775 C30.74285,36.36225 30.52585,36.32375 30.29735,36.32375 C30.00735,36.32375 29.77835,36.39225 29.60985,36.52925 C29.44035,36.66625 29.35685,36.83625 29.35685,37.03825 L29.35685,37.05075 C29.35685,37.15575 29.37385,37.24975 29.40685,37.33175 C29.44035,37.41325 29.50235,37.48975 29.59035,37.55925 C29.67885,37.62875 29.80135,37.69175 29.95635,37.74875 C30.11235,37.80575 30.31285,37.85925 30.55685,37.90975 C31.04985,38.01925 31.41285,38.17075 31.64685,38.36425 C31.88085,38.55875 31.99735,38.82375 31.99735,39.16075 L31.99735,39.17325 C31.99735,39.36275 31.95935,39.53375 31.88485,39.68825 C31.81035,39.84225 31.70635,39.97325 31.57535,40.08275 C31.44385,40.19275 31.28585,40.27675 31.10035,40.33625 C30.91485,40.39425 30.71335,40.42425 30.49435,40.42425" id="Fill-12" fill="#121313"></path>
            <path d="M35.54175,35.93875 L36.04075,35.93875 L36.04075,37.90375 L38.59325,37.90375 L38.59325,35.93875 L39.09175,35.93875 L39.09175,40.36125 L38.59325,40.36125 L38.59325,38.37075 L36.04075,38.37075 L36.04075,40.36125 L35.54175,40.36125 L35.54175,35.93875 Z" id="Fill-14" fill="#121313"></path>
            <g id="Group-18" transform="translate(42.500000, 35.436950)">
                <mask id="mask-4" fill="white">
                    <use xlink:href="#path-3"></use>
                </mask>
                <g id="Clip-17"></g>
                <path d="M2.43555,4.53855 C2.68855,4.53855 2.92055,4.49105 3.13405,4.39705 C3.34655,4.30155 3.52955,4.17205 3.67905,4.00755 C3.83105,3.84355 3.95055,3.65255 4.03705,3.43305 C4.12355,3.21455 4.16655,2.97855 4.16655,2.72555 L4.16655,2.71255 C4.16655,2.46005 4.12355,2.22355 4.03705,2.00255 C3.95055,1.78105 3.82955,1.58855 3.67405,1.42405 C3.51805,1.25955 3.33455,1.12955 3.12155,1.03255 C2.90805,0.93555 2.67605,0.88705 2.42305,0.88705 C2.17005,0.88705 1.93805,0.93455 1.72455,1.02905 C1.51155,1.12405 1.32955,1.25355 1.17805,1.41805 C1.02605,1.58155 0.90755,1.77405 0.82205,1.99305 C0.73455,2.21205 0.69155,2.44805 0.69155,2.70055 L0.69155,2.71255 C0.69155,2.96555 0.73455,3.20255 0.82205,3.42355 C0.90755,3.64455 1.02905,3.83755 1.18505,4.00205 C1.34005,4.16605 1.52505,4.29705 1.73705,4.39355 C1.95055,4.49005 2.18255,4.53855 2.43555,4.53855 M2.42305,5.00005 C2.08555,5.00005 1.78005,4.93805 1.50355,4.81655 C1.22805,4.69405 0.99005,4.52905 0.79305,4.32055 C0.59505,4.11255 0.44205,3.87005 0.33555,3.59405 C0.22755,3.31805 0.17405,3.02855 0.17405,2.72555 L0.17405,2.71255 C0.17405,2.40955 0.22855,2.11905 0.33805,1.84155 C0.44705,1.56305 0.60105,1.31955 0.80005,1.11155 C0.99755,0.90305 1.23555,0.73655 1.51355,0.61255 C1.79105,0.48805 2.09855,0.42605 2.43555,0.42605 C2.77255,0.42605 3.07855,0.48705 3.35505,0.60905 C3.63055,0.73105 3.86705,0.89705 4.06505,1.10505 C4.26355,1.31355 4.41605,1.55605 4.52255,1.83155 C4.63055,2.10755 4.68505,2.39705 4.68505,2.70055 C4.68905,2.70405 4.68905,2.70855 4.68505,2.71255 C4.68505,3.01705 4.62955,3.30705 4.52055,3.58455 C4.41105,3.86305 4.25705,4.10555 4.05955,4.31505 C3.86005,4.52305 3.62255,4.68905 3.34505,4.81305 C3.06755,4.93705 2.76005,5.00005 2.42305,5.00005" id="Fill-16" fill="#121313" mask="url(#mask-4)"></path>
            </g>
            <path d="M50.4255,35.93875 L50.9685,35.93875 L52.232,39.62225 L53.445,35.92625 L53.8555,35.92625 L55.0685,39.62225 L56.332,35.93875 L56.856,35.93875 L55.277,40.39275 L54.854,40.39275 L53.641,36.80475 L52.4225,40.39275 L52.0045,40.39275 L50.4255,35.93875 Z" id="Fill-19" fill="#121313"></path>
            <path d="M62.14805,38.1942 C62.31255,38.1942 62.46455,38.1737 62.60355,38.1307 C62.74305,38.0887 62.86405,38.0287 62.96505,37.9507 C63.06605,37.8727 63.14505,37.7782 63.20255,37.6672 C63.25955,37.5552 63.28805,37.4277 63.28805,37.2847 L63.28805,37.2722 C63.28805,36.9982 63.18855,36.7842 62.98955,36.6307 C62.79155,36.4772 62.51305,36.3992 62.15355,36.3992 L60.78705,36.3992 L60.78705,38.1942 L62.14805,38.1942 Z M60.28655,35.9387 L62.18855,35.9387 C62.46205,35.9387 62.70555,35.9772 62.91805,36.0557 C63.13105,36.1337 63.30705,36.2422 63.44655,36.3807 C63.55555,36.4907 63.63955,36.6187 63.69855,36.7662 C63.75755,36.9137 63.78655,37.0757 63.78655,37.2532 L63.78655,37.2657 C63.78655,37.4502 63.75755,37.6157 63.69855,37.7612 C63.63955,37.9067 63.55655,38.0332 63.44855,38.1402 C63.34155,38.2482 63.21405,38.3357 63.06605,38.4057 C62.91905,38.4747 62.75905,38.5247 62.58705,38.5542 L63.94505,40.3612 L63.33205,40.3612 L62.04955,38.6427 L60.78705,38.6427 L60.78705,40.3612 L60.28655,40.3612 L60.28655,35.9387 L60.28655,35.9387 Z" id="Fill-21" fill="#121313"></path>
            <g id="Group-25" transform="translate(67.000000, 35.436950)">
                <mask id="mask-6" fill="white">
                    <use xlink:href="#path-5"></use>
                </mask>
                <g id="Clip-24"></g>
                <path d="M2.44695,4.53855 C2.69945,4.53855 2.93245,4.49105 3.14545,4.39705 C3.35795,4.30155 3.54045,4.17205 3.69195,4.00755 C3.84395,3.84355 3.96195,3.65255 4.04945,3.43305 C4.13595,3.21455 4.17845,2.97855 4.17845,2.72555 L4.17845,2.71255 C4.17845,2.46005 4.13595,2.22355 4.04945,2.00255 C3.96195,1.78105 3.84095,1.58855 3.68495,1.42405 C3.52995,1.25955 3.34545,1.12955 3.13245,1.03255 C2.91995,0.93555 2.68745,0.88705 2.43445,0.88705 C2.18195,0.88705 1.94895,0.93455 1.73645,1.02905 C1.52345,1.12405 1.34195,1.25355 1.18945,1.41805 C1.03795,1.58155 0.91895,1.77405 0.83345,1.99305 C0.74645,2.21205 0.70395,2.44805 0.70395,2.70055 L0.70395,2.71255 C0.70395,2.96555 0.74645,3.20255 0.83345,3.42355 C0.91895,3.64455 1.04045,3.83755 1.19595,4.00205 C1.35145,4.16605 1.53745,4.29705 1.74845,4.39355 C1.96245,4.49005 2.19445,4.53855 2.44695,4.53855 M2.43445,5.00005 C2.09745,5.00005 1.79095,4.93805 1.51545,4.81655 C1.23995,4.69405 1.00345,4.52905 0.80445,4.32055 C0.60645,4.11255 0.45345,3.87005 0.34645,3.59405 C0.23945,3.31805 0.18645,3.02855 0.18645,2.72555 L0.18645,2.71255 C0.18645,2.40955 0.24045,2.11905 0.35045,1.84155 C0.45895,1.56305 0.61345,1.31955 0.81145,1.11155 C1.00895,0.90305 1.24795,0.73655 1.52445,0.61255 C1.80245,0.48805 2.11045,0.42605 2.44695,0.42605 C2.78395,0.42605 3.09145,0.48705 3.36695,0.60905 C3.64245,0.73105 3.87845,0.89705 4.07695,1.10505 C4.27495,1.31355 4.42795,1.55605 4.53495,1.83155 C4.64295,2.10755 4.69695,2.39705 4.69695,2.70055 C4.70045,2.70405 4.70045,2.70855 4.69695,2.71255 C4.69695,3.01705 4.64095,3.30705 4.53145,3.58455 C4.42195,3.86305 4.26895,4.10555 4.07145,4.31505 C3.87245,4.52305 3.63495,4.68905 3.35645,4.81305 C3.07945,4.93705 2.77095,5.00005 2.43445,5.00005" id="Fill-23" fill="#121313" mask="url(#mask-6)"></path>
            </g>
            <g id="Group-28" transform="translate(75.000000, 35.436950)">
                <mask id="mask-8" fill="white">
                    <use xlink:href="#path-7"></use>
                </mask>
                <g id="Clip-27"></g>
                <path d="M2.3437,4.53855 C2.5967,4.53855 2.8292,4.49105 3.0422,4.39705 C3.2537,4.30155 3.4362,4.17205 3.5892,4.00755 C3.7402,3.84355 3.8592,3.65255 3.9452,3.43305 C4.0322,3.21455 4.0752,2.97855 4.0752,2.72555 L4.0752,2.71255 C4.0752,2.46005 4.0322,2.22355 3.9452,2.00255 C3.8592,1.78105 3.7382,1.58855 3.5822,1.42405 C3.4267,1.25955 3.2427,1.12955 3.0297,1.03255 C2.8167,0.93555 2.5837,0.88705 2.3312,0.88705 C2.0792,0.88705 1.8457,0.93455 1.6332,1.02905 C1.4202,1.12405 1.2382,1.25355 1.0872,1.41805 C0.9347,1.58155 0.8167,1.77405 0.7292,1.99305 C0.6432,2.21205 0.6007,2.44805 0.6007,2.70055 L0.6007,2.71255 C0.6007,2.96555 0.6432,3.20255 0.7292,3.42355 C0.8167,3.64455 0.9377,3.83755 1.0937,4.00205 C1.2487,4.16605 1.4332,4.29705 1.6457,4.39355 C1.8587,4.49005 2.0917,4.53855 2.3437,4.53855 M2.3312,5.00005 C1.9942,5.00005 1.6877,4.93805 1.4122,4.81655 C1.1362,4.69405 0.9002,4.52905 0.7012,4.32055 C0.5037,4.11255 0.3512,3.87005 0.2437,3.59405 C0.1367,3.31805 0.0827,3.02855 0.0827,2.72555 L0.0827,2.71255 C0.0827,2.40955 0.1377,2.11905 0.2467,1.84155 C0.3562,1.56305 0.5092,1.31955 0.7082,1.11155 C0.9057,0.90305 1.1442,0.73655 1.4217,0.61255 C1.6992,0.48805 2.0077,0.42605 2.3437,0.42605 C2.6812,0.42605 2.9872,0.48705 3.2637,0.60905 C3.5392,0.73105 3.7757,0.89705 3.9742,1.10505 C4.1722,1.31355 4.3252,1.55605 4.4322,1.83155 C4.5397,2.10755 4.5937,2.39705 4.5937,2.70055 C4.5972,2.70405 4.5972,2.70855 4.5937,2.71255 C4.5937,3.01705 4.5382,3.30705 4.4292,3.58455 C4.3197,3.86305 4.1647,4.10555 3.9677,4.31505 C3.7687,4.52305 3.5312,4.68905 3.2532,4.81305 C2.9757,4.93705 2.6687,5.00005 2.3312,5.00005" id="Fill-26" fill="#121313" mask="url(#mask-8)"></path>
            </g>
            <path d="M83.1749,35.93875 L83.6804,35.93875 L85.2914,38.35175 L86.9024,35.93875 L87.4074,35.93875 L87.4074,40.36125 L86.9084,40.36125 L86.9084,36.77875 L85.2974,39.14775 L85.2719,39.14775 L83.6609,36.78525 L83.6609,40.36125 L83.1749,40.36125 L83.1749,35.93875 Z" id="Fill-29" fill="#121313"></path>
        </g>
    </g>
</svg>